<?xml version="1.0" encoding="utf-8" standalone="no"?>
<!DOCTYPE svg PUBLIC "-//W3C//DTD SVG 1.1//EN"
  "http://www.w3.org/Graphics/SVG/1.1/DTD/svg11.dtd">
<!-- Created with matplotlib (http://matplotlib.org/) -->
<svg height="489pt" version="1.1" viewBox="0 0 1373 489" width="1373pt" xmlns="http://www.w3.org/2000/svg" xmlns:xlink="http://www.w3.org/1999/xlink">
 <defs>
  <style type="text/css">
*{stroke-linecap:butt;stroke-linejoin:round;}
  </style>
 </defs>
 <g id="figure_1">
  <g id="patch_1">
   <path d="M 0 489.71625 
L 1373.464314 489.71625 
L 1373.464314 0 
L 0 0 
z
" style="fill:#ffffff;"/>
  </g>
  <g id="axes_1">
   <g id="patch_2">
    <path d="M 20.5625 465.838125 
L 251.459052 465.838125 
L 251.459052 22.318125 
L 20.5625 22.318125 
z
" style="fill:#ffffff;"/>
   </g>
   <g id="matplotlib.axis_1">
    <g id="xtick_1">
     <g id="line2d_1"/>
     <g id="text_1">
      <!-- −0.25 -->
      <defs>
       <path d="M 10.59375 35.5 
L 73.1875 35.5 
L 73.1875 27.203125 
L 10.59375 27.203125 
z
" id="DejaVuSans-2212"/>
       <path d="M 31.78125 66.40625 
Q 24.171875 66.40625 20.328125 58.90625 
Q 16.5 51.421875 16.5 36.375 
Q 16.5 21.390625 20.328125 13.890625 
Q 24.171875 6.390625 31.78125 6.390625 
Q 39.453125 6.390625 43.28125 13.890625 
Q 47.125 21.390625 47.125 36.375 
Q 47.125 51.421875 43.28125 58.90625 
Q 39.453125 66.40625 31.78125 66.40625 
z
M 31.78125 74.21875 
Q 44.046875 74.21875 50.515625 64.515625 
Q 56.984375 54.828125 56.984375 36.375 
Q 56.984375 17.96875 50.515625 8.265625 
Q 44.046875 -1.421875 31.78125 -1.421875 
Q 19.53125 -1.421875 13.0625 8.265625 
Q 6.59375 17.96875 6.59375 36.375 
Q 6.59375 54.828125 13.0625 64.515625 
Q 19.53125 74.21875 31.78125 74.21875 
z
" id="DejaVuSans-30"/>
       <path d="M 10.6875 12.40625 
L 21 12.40625 
L 21 0 
L 10.6875 0 
z
" id="DejaVuSans-2e"/>
       <path d="M 19.1875 8.296875 
L 53.609375 8.296875 
L 53.609375 0 
L 7.328125 0 
L 7.328125 8.296875 
Q 12.9375 14.109375 22.625 23.890625 
Q 32.328125 33.6875 34.8125 36.53125 
Q 39.546875 41.84375 41.421875 45.53125 
Q 43.3125 49.21875 43.3125 52.78125 
Q 43.3125 58.59375 39.234375 62.25 
Q 35.15625 65.921875 28.609375 65.921875 
Q 23.96875 65.921875 18.8125 64.3125 
Q 13.671875 62.703125 7.8125 59.421875 
L 7.8125 69.390625 
Q 13.765625 71.78125 18.9375 73 
Q 24.125 74.21875 28.421875 74.21875 
Q 39.75 74.21875 46.484375 68.546875 
Q 53.21875 62.890625 53.21875 53.421875 
Q 53.21875 48.921875 51.53125 44.890625 
Q 49.859375 40.875 45.40625 35.40625 
Q 44.1875 33.984375 37.640625 27.21875 
Q 31.109375 20.453125 19.1875 8.296875 
z
" id="DejaVuSans-32"/>
       <path d="M 10.796875 72.90625 
L 49.515625 72.90625 
L 49.515625 64.59375 
L 19.828125 64.59375 
L 19.828125 46.734375 
Q 21.96875 47.46875 24.109375 47.828125 
Q 26.265625 48.1875 28.421875 48.1875 
Q 40.625 48.1875 47.75 41.5 
Q 54.890625 34.8125 54.890625 23.390625 
Q 54.890625 11.625 47.5625 5.09375 
Q 40.234375 -1.421875 26.90625 -1.421875 
Q 22.3125 -1.421875 17.546875 -0.640625 
Q 12.796875 0.140625 7.71875 1.703125 
L 7.71875 11.625 
Q 12.109375 9.234375 16.796875 8.0625 
Q 21.484375 6.890625 26.703125 6.890625 
Q 35.15625 6.890625 40.078125 11.328125 
Q 45.015625 15.765625 45.015625 23.390625 
Q 45.015625 31 40.078125 35.4375 
Q 35.15625 39.890625 26.703125 39.890625 
Q 22.75 39.890625 18.8125 39.015625 
Q 14.890625 38.140625 10.796875 36.28125 
z
" id="DejaVuSans-35"/>
      </defs>
      <g style="fill:#262626;" transform="translate(15.618165 480.436562)scale(0.1 -0.1)">
       <use xlink:href="#DejaVuSans-2212"/>
       <use x="83.789062" xlink:href="#DejaVuSans-30"/>
       <use x="147.412109" xlink:href="#DejaVuSans-2e"/>
       <use x="179.199219" xlink:href="#DejaVuSans-32"/>
       <use x="242.822266" xlink:href="#DejaVuSans-35"/>
      </g>
     </g>
    </g>
    <g id="xtick_2">
     <g id="line2d_2"/>
     <g id="text_2">
      <!-- 0.00 -->
      <g style="fill:#262626;" transform="translate(56.646016 480.436562)scale(0.1 -0.1)">
       <use xlink:href="#DejaVuSans-30"/>
       <use x="63.623047" xlink:href="#DejaVuSans-2e"/>
       <use x="95.410156" xlink:href="#DejaVuSans-30"/>
       <use x="159.033203" xlink:href="#DejaVuSans-30"/>
      </g>
     </g>
    </g>
    <g id="xtick_3">
     <g id="line2d_3"/>
     <g id="text_3">
      <!-- 0.25 -->
      <g style="fill:#262626;" transform="translate(93.484024 480.436562)scale(0.1 -0.1)">
       <use xlink:href="#DejaVuSans-30"/>
       <use x="63.623047" xlink:href="#DejaVuSans-2e"/>
       <use x="95.410156" xlink:href="#DejaVuSans-32"/>
       <use x="159.033203" xlink:href="#DejaVuSans-35"/>
      </g>
     </g>
    </g>
    <g id="xtick_4">
     <g id="line2d_4"/>
     <g id="text_4">
      <!-- 0.50 -->
      <g style="fill:#262626;" transform="translate(130.322032 480.436562)scale(0.1 -0.1)">
       <use xlink:href="#DejaVuSans-30"/>
       <use x="63.623047" xlink:href="#DejaVuSans-2e"/>
       <use x="95.410156" xlink:href="#DejaVuSans-35"/>
       <use x="159.033203" xlink:href="#DejaVuSans-30"/>
      </g>
     </g>
    </g>
    <g id="xtick_5">
     <g id="line2d_5"/>
     <g id="text_5">
      <!-- 0.75 -->
      <defs>
       <path d="M 8.203125 72.90625 
L 55.078125 72.90625 
L 55.078125 68.703125 
L 28.609375 0 
L 18.3125 0 
L 43.21875 64.59375 
L 8.203125 64.59375 
z
" id="DejaVuSans-37"/>
      </defs>
      <g style="fill:#262626;" transform="translate(167.160039 480.436562)scale(0.1 -0.1)">
       <use xlink:href="#DejaVuSans-30"/>
       <use x="63.623047" xlink:href="#DejaVuSans-2e"/>
       <use x="95.410156" xlink:href="#DejaVuSans-37"/>
       <use x="159.033203" xlink:href="#DejaVuSans-35"/>
      </g>
     </g>
    </g>
    <g id="xtick_6">
     <g id="line2d_6"/>
     <g id="text_6">
      <!-- 1.00 -->
      <defs>
       <path d="M 12.40625 8.296875 
L 28.515625 8.296875 
L 28.515625 63.921875 
L 10.984375 60.40625 
L 10.984375 69.390625 
L 28.421875 72.90625 
L 38.28125 72.90625 
L 38.28125 8.296875 
L 54.390625 8.296875 
L 54.390625 0 
L 12.40625 0 
z
" id="DejaVuSans-31"/>
      </defs>
      <g style="fill:#262626;" transform="translate(203.998047 480.436562)scale(0.1 -0.1)">
       <use xlink:href="#DejaVuSans-31"/>
       <use x="63.623047" xlink:href="#DejaVuSans-2e"/>
       <use x="95.410156" xlink:href="#DejaVuSans-30"/>
       <use x="159.033203" xlink:href="#DejaVuSans-30"/>
      </g>
     </g>
    </g>
   </g>
   <g id="matplotlib.axis_2">
    <g id="ytick_1">
     <g id="line2d_7"/>
     <g id="text_7">
      <!-- 0 -->
      <g style="fill:#262626;" transform="translate(7.2 469.637344)scale(0.1 -0.1)">
       <use xlink:href="#DejaVuSans-30"/>
      </g>
     </g>
    </g>
    <g id="ytick_2">
     <g id="line2d_8"/>
     <g id="text_8">
      <!-- 1 -->
      <g style="fill:#262626;" transform="translate(7.2 380.933344)scale(0.1 -0.1)">
       <use xlink:href="#DejaVuSans-31"/>
      </g>
     </g>
    </g>
    <g id="ytick_3">
     <g id="line2d_9"/>
     <g id="text_9">
      <!-- 2 -->
      <g style="fill:#262626;" transform="translate(7.2 292.229344)scale(0.1 -0.1)">
       <use xlink:href="#DejaVuSans-32"/>
      </g>
     </g>
    </g>
    <g id="ytick_4">
     <g id="line2d_10"/>
     <g id="text_10">
      <!-- 3 -->
      <defs>
       <path d="M 40.578125 39.3125 
Q 47.65625 37.796875 51.625 33 
Q 55.609375 28.21875 55.609375 21.1875 
Q 55.609375 10.40625 48.1875 4.484375 
Q 40.765625 -1.421875 27.09375 -1.421875 
Q 22.515625 -1.421875 17.65625 -0.515625 
Q 12.796875 0.390625 7.625 2.203125 
L 7.625 11.71875 
Q 11.71875 9.328125 16.59375 8.109375 
Q 21.484375 6.890625 26.8125 6.890625 
Q 36.078125 6.890625 40.9375 10.546875 
Q 45.796875 14.203125 45.796875 21.1875 
Q 45.796875 27.640625 41.28125 31.265625 
Q 36.765625 34.90625 28.71875 34.90625 
L 20.21875 34.90625 
L 20.21875 43.015625 
L 29.109375 43.015625 
Q 36.375 43.015625 40.234375 45.921875 
Q 44.09375 48.828125 44.09375 54.296875 
Q 44.09375 59.90625 40.109375 62.90625 
Q 36.140625 65.921875 28.71875 65.921875 
Q 24.65625 65.921875 20.015625 65.03125 
Q 15.375 64.15625 9.8125 62.3125 
L 9.8125 71.09375 
Q 15.4375 72.65625 20.34375 73.4375 
Q 25.25 74.21875 29.59375 74.21875 
Q 40.828125 74.21875 47.359375 69.109375 
Q 53.90625 64.015625 53.90625 55.328125 
Q 53.90625 49.265625 50.4375 45.09375 
Q 46.96875 40.921875 40.578125 39.3125 
z
" id="DejaVuSans-33"/>
      </defs>
      <g style="fill:#262626;" transform="translate(7.2 203.525344)scale(0.1 -0.1)">
       <use xlink:href="#DejaVuSans-33"/>
      </g>
     </g>
    </g>
    <g id="ytick_5">
     <g id="line2d_11"/>
     <g id="text_11">
      <!-- 4 -->
      <defs>
       <path d="M 37.796875 64.3125 
L 12.890625 25.390625 
L 37.796875 25.390625 
z
M 35.203125 72.90625 
L 47.609375 72.90625 
L 47.609375 25.390625 
L 58.015625 25.390625 
L 58.015625 17.1875 
L 47.609375 17.1875 
L 47.609375 0 
L 37.796875 0 
L 37.796875 17.1875 
L 4.890625 17.1875 
L 4.890625 26.703125 
z
" id="DejaVuSans-34"/>
      </defs>
      <g style="fill:#262626;" transform="translate(7.2 114.821344)scale(0.1 -0.1)">
       <use xlink:href="#DejaVuSans-34"/>
      </g>
     </g>
    </g>
    <g id="ytick_6">
     <g id="line2d_12"/>
     <g id="text_12">
      <!-- 5 -->
      <g style="fill:#262626;" transform="translate(7.2 26.117344)scale(0.1 -0.1)">
       <use xlink:href="#DejaVuSans-35"/>
      </g>
     </g>
    </g>
   </g>
   <g id="line2d_13">
    <path clip-path="url(#p3b32404e5c)" d="M 44.684575 459.802744 
L 46.3648 454.5148 
L 48.045025 445.563233 
L 49.72525 431.191075 
L 51.405476 409.330494 
L 53.085701 377.876359 
L 54.765926 335.147718 
L 56.446152 280.493921 
L 58.126377 214.920936 
L 59.806602 141.543404 
L 61.486827 65.648665 
L 63.054637 -1 
M 73.937832 -1 
L 74.92863 36.802652 
L 76.608855 105.714929 
L 78.28908 172.918269 
L 79.969305 233.625833 
L 81.649531 285.137078 
L 83.329756 326.676481 
L 85.009981 358.891054 
L 86.690206 383.231804 
L 88.370432 401.406468 
L 90.050657 415.006252 
L 91.730882 425.321965 
L 93.411108 433.305879 
L 95.091333 439.614738 
L 96.771558 444.678582 
L 98.451783 448.763229 
L 100.132009 452.016611 
L 101.812234 454.502663 
L 103.492459 456.230368 
L 105.172684 457.183163 
L 106.85291 457.349633 
L 108.533135 456.752893 
L 110.21336 455.474235 
L 111.893586 453.666243 
L 113.573811 451.551459 
L 115.254036 449.40464 
L 116.934261 447.51994 
L 118.614487 446.168309 
L 120.294712 445.553957 
L 121.974937 445.780311 
L 123.655162 446.834379 
L 125.335388 448.593876 
L 127.015613 450.855277 
L 128.695838 453.375247 
L 130.376064 455.914791 
L 132.056289 458.275774 
L 133.736514 460.322948 
L 135.416739 461.989492 
L 137.096965 463.268698 
L 138.77719 464.197213 
L 140.457415 464.835847 
L 142.13764 465.252688 
L 143.817866 465.511164 
L 145.498091 465.663552 
L 147.178316 465.749022 
L 148.858542 465.794636 
L 150.538767 465.817774 
L 152.218992 465.82884 
L 153.899217 465.833587 
L 155.579443 465.8348 
L 157.259668 465.833266 
L 158.939893 465.828123 
L 160.620118 465.816598 
L 162.300344 465.793206 
L 163.980569 465.748456 
L 165.660794 465.667253 
L 167.34102 465.527405 
L 169.021245 465.298975 
L 170.70147 464.945462 
L 172.381695 464.427852 
L 174.061921 463.712158 
L 175.742146 462.780058 
L 177.422371 461.640776 
L 179.102596 460.340938 
L 180.782822 458.968336 
L 182.463047 457.646243 
L 184.143272 456.517147 
L 185.823498 455.718215 
L 187.503723 455.35407 
L 189.183948 455.474317 
L 190.864173 456.062447 
L 192.544399 457.03956 
L 194.224624 458.281738 
L 195.904849 459.645796 
L 197.585074 460.996052 
L 199.2653 462.225308 
L 200.945525 463.265964 
L 202.62575 464.090744 
L 204.305976 464.705425 
L 205.986201 465.13751 
L 207.666426 465.42462 
L 209.346651 465.605251 
L 211.026877 465.712985 
" style="fill:none;stroke:#4c72b0;stroke-linecap:round;stroke-width:1.75;"/>
   </g>
   <g id="line2d_14">
    <path clip-path="url(#p3b32404e5c)" d="M 39.216365 460.134182 
L 41.254218 455.314083 
L 43.29207 447.275367 
L 45.329922 434.537094 
L 47.367775 415.379503 
L 49.405627 388.074237 
L 51.44348 351.262389 
L 53.481332 304.444256 
L 55.519184 248.4828 
L 57.557037 185.969889 
L 59.594889 121.289278 
L 61.632742 60.255783 
L 63.670594 9.317791 
L 64.273662 -1 
M 71.921619 -1 
L 73.859856 43.023677 
L 75.897709 100.988466 
L 77.935561 164.184642 
L 79.973413 226.532801 
L 82.011266 283.212695 
L 84.049118 331.14519 
L 86.086971 369.043635 
L 88.124823 397.128628 
L 90.162675 416.658697 
L 92.200528 429.428073 
L 94.23838 437.340509 
L 96.276233 442.112155 
L 98.314085 445.108928 
L 100.351938 447.294931 
L 102.38979 449.257945 
L 104.427642 451.279402 
L 106.465495 453.422779 
L 108.503347 455.621586 
L 110.5412 457.754412 
L 112.579052 459.699978 
L 114.616904 461.370014 
L 116.654757 462.721975 
L 118.692609 463.756591 
L 120.730462 464.506533 
L 122.768314 465.02212 
L 124.806166 465.35837 
L 126.844019 465.56569 
L 128.881871 465.684625 
L 130.919724 465.7439 
L 132.957576 465.760462 
L 134.995429 465.740374 
L 137.033281 465.679756 
L 139.071133 465.565632 
L 141.108986 465.377014 
L 143.146838 465.086955 
L 145.184691 464.666375 
L 147.222543 464.090176 
L 149.260395 463.345346 
L 151.298248 462.439788 
L 153.3361 461.409501 
L 155.373953 460.321303 
L 157.411805 459.268712 
L 159.449657 458.360195 
L 161.48751 457.701327 
L 163.525362 457.374755 
L 165.563215 457.423174 
L 167.601067 457.840138 
L 169.63892 458.571419 
L 171.676772 459.52648 
L 173.714624 460.596642 
L 175.752477 461.674783 
L 177.790329 462.671498 
L 179.828182 463.524314 
L 181.866034 464.198995 
L 183.903886 464.684283 
L 185.941739 464.982881 
L 187.979591 465.101887 
L 190.017444 465.045449 
L 192.055296 464.8115 
L 194.093148 464.393333 
L 196.131001 463.78565 
L 198.168853 462.993614 
L 200.206706 462.042425 
L 202.244558 460.984276 
L 204.282411 459.899635 
L 206.320263 458.890865 
L 208.358115 458.068264 
L 210.395968 457.531096 
L 212.43382 457.348261 
L 214.471673 457.543919 
L 216.509525 458.092318 
L 218.547377 458.923384 
L 220.58523 459.93744 
L 222.623082 461.024789 
L 224.660935 462.084878 
L 226.698787 463.040527 
L 228.736639 463.844789 
L 230.774492 464.480459 
L 232.812344 464.954185 
L 234.850197 465.28799 
L 236.888049 465.510834 
L 238.925902 465.651996 
L 240.963754 465.736941 
" style="fill:none;stroke:#55a868;stroke-linecap:round;stroke-width:1.75;"/>
   </g>
   <g id="line2d_15">
    <path clip-path="url(#p3b32404e5c)" d="M 31.057798 462.296667 
L 33.064203 460.142222 
L 35.070608 456.9149 
L 37.077014 452.221583 
L 39.083419 445.598354 
L 41.089825 436.532725 
L 43.09623 424.504442 
L 45.102635 409.046021 
L 47.109041 389.820451 
L 49.115446 366.708802 
L 51.121851 339.895639 
L 53.128257 309.936461 
L 55.134662 277.790191 
L 57.141067 244.802112 
L 59.147473 212.62897 
L 61.153878 183.107529 
L 63.160283 158.079044 
L 65.166689 139.192339 
L 67.173094 127.714894 
L 69.179499 124.382462 
L 71.185905 129.312548 
L 73.19231 141.996422 
L 75.198715 161.370378 
L 77.205121 185.953026 
L 79.211526 214.024487 
L 81.217931 243.817791 
L 83.224337 273.693445 
L 85.230742 302.274267 
L 87.237147 328.527236 
L 89.243553 351.789889 
L 91.249958 371.748141 
L 93.256363 388.378844 
L 95.262769 401.873102 
L 97.269174 412.555697 
L 99.275579 420.81281 
L 101.281985 427.035802 
L 103.28839 431.58427 
L 105.294795 434.767759 
L 107.301201 436.842832 
L 109.307606 438.020804 
L 111.314011 438.481097 
L 113.320417 438.385665 
L 115.326822 437.890933 
L 117.333227 437.154958 
L 119.339633 436.338765 
L 121.346038 435.602104 
L 123.352444 435.094803 
L 125.358849 434.945688 
L 127.365254 435.25137 
L 129.37166 436.067172 
L 131.378065 437.402041 
L 133.38447 439.218507 
L 135.390876 441.437852 
L 137.397281 443.949667 
L 139.403686 446.624266 
L 141.410092 449.326027 
L 143.416497 451.925696 
L 145.422902 454.310137 
L 147.429308 456.388615 
L 149.435713 458.095486 
L 151.442118 459.389825 
L 153.448524 460.252995 
L 155.454929 460.685315 
L 157.461334 460.702862 
L 159.46774 460.335083 
L 161.474145 459.623409 
L 163.48055 458.620619 
L 165.486956 457.390366 
L 167.493361 456.006163 
L 169.499766 454.549245 
L 171.506172 453.105016 
L 173.512577 451.758204 
L 175.518982 450.587246 
L 177.525388 449.658689 
L 179.531793 449.022471 
L 181.538198 448.708819 
L 183.544604 448.727177 
L 185.551009 449.067199 
L 187.557414 449.701468 
L 189.56382 450.589365 
L 191.570225 451.681436 
L 193.57663 452.923647 
L 195.583036 454.261144 
L 197.589441 455.641321 
L 199.595847 457.016157 
L 201.602252 458.34393 
L 203.608657 459.5904 
L 205.615063 460.72952 
L 207.621468 461.743705 
L 209.627873 462.62365 
L 211.634279 463.367676 
L 213.640684 463.980656 
L 215.647089 464.472614 
L 217.653495 464.857133 
L 219.6599 465.149751 
L 221.666305 465.366513 
L 223.672711 465.522781 
L 225.679116 465.632402 
L 227.685521 465.707221 
L 229.691927 465.756899 
" style="fill:none;stroke:#c44e52;stroke-linecap:round;stroke-width:1.75;"/>
   </g>
   <g id="line2d_16">
    <path clip-path="url(#p3b32404e5c)" d="M 51.405279 455.819805 
L 52.619205 446.938442 
L 53.833131 431.875607 
L 55.047057 407.70378 
L 56.260983 371.04966 
L 57.474909 318.616703 
L 58.688835 248.025292 
L 59.902761 158.866153 
L 61.116686 53.716554 
L 61.694479 -1 
M 74.245659 -1 
L 74.469872 19.579724 
L 75.683798 122.5651 
L 76.897724 210.894177 
L 78.11165 281.936807 
L 79.325576 336.019867 
L 80.539502 375.378523 
L 81.753427 403.075631 
L 82.967353 422.159684 
L 84.181279 435.171985 
L 85.395205 443.977754 
L 86.609131 449.820087 
L 87.823057 453.481224 
L 89.036983 455.4611 
L 90.250909 456.122277 
L 91.464835 455.783576 
L 92.678761 454.764587 
L 93.892687 453.391224 
L 95.106613 451.974237 
L 96.320539 450.773093 
L 97.534465 449.95856 
L 98.748391 449.587598 
L 99.962317 449.601604 
L 101.176243 449.852686 
L 102.390168 450.153579 
L 103.604094 450.3382 
L 104.81802 450.315036 
L 106.031946 450.096879 
L 107.245872 449.797661 
L 108.459798 449.597834 
L 109.673724 449.689958 
L 110.88765 450.222246 
L 112.101576 451.257485 
L 113.315502 452.758584 
L 114.529428 454.602417 
L 115.743354 456.61446 
L 116.95728 458.611375 
L 118.171206 460.438358 
L 119.385132 461.992303 
L 120.599058 463.228024 
L 121.812984 464.150399 
L 123.026909 464.798502 
L 124.240835 465.228094 
L 125.454761 465.497155 
L 126.668687 465.656578 
L 127.882613 465.746007 
L 129.096539 465.793472 
L 130.310465 465.81714 
L 131.524391 465.82776 
L 132.738317 465.830848 
L 133.952243 465.828141 
L 135.166169 465.818113 
L 136.380095 465.795519 
L 137.594021 465.75 
L 138.807947 465.663932 
L 140.021873 465.509987 
L 141.235799 465.249307 
L 142.449725 464.831731 
L 143.663651 464.199749 
L 144.877576 463.297646 
L 146.091502 462.086022 
L 147.305428 460.559866 
L 148.519354 458.76578 
L 149.73328 456.812174 
L 150.947206 454.866288 
L 152.161132 453.13465 
L 153.375058 451.828627 
L 154.588984 451.122476 
L 155.80291 451.115235 
L 157.016836 451.807935 
L 158.230762 453.103362 
L 159.444688 454.828438 
L 160.658614 456.772121 
L 161.87254 458.727403 
L 163.086466 460.526 
L 164.300392 462.05823 
L 165.514317 463.276309 
L 166.728243 464.184363 
L 167.942169 464.82128 
L 169.156095 465.242609 
L 170.370021 465.505933 
L 171.583947 465.661626 
" style="fill:none;stroke:#8172b2;stroke-linecap:round;stroke-width:1.75;"/>
   </g>
   <g id="line2d_17">
    <path clip-path="url(#p3b32404e5c)" d="M 75.14643 465.838125 
L 75.14643 22.318125 
" style="fill:none;stroke:#000000;stroke-dasharray:1.85,0.8;stroke-dashoffset:0;stroke-width:0.5;"/>
   </g>
   <g id="patch_3">
    <path d="M 20.5625 465.838125 
L 20.5625 22.318125 
" style="fill:none;stroke:#262626;stroke-linecap:square;stroke-linejoin:miter;stroke-width:1.25;"/>
   </g>
   <g id="patch_4">
    <path d="M 251.459052 465.838125 
L 251.459052 22.318125 
" style="fill:none;stroke:#262626;stroke-linecap:square;stroke-linejoin:miter;stroke-width:1.25;"/>
   </g>
   <g id="patch_5">
    <path d="M 20.5625 465.838125 
L 251.459052 465.838125 
" style="fill:none;stroke:#262626;stroke-linecap:square;stroke-linejoin:miter;stroke-width:1.25;"/>
   </g>
   <g id="patch_6">
    <path d="M 20.5625 22.318125 
L 251.459052 22.318125 
" style="fill:none;stroke:#262626;stroke-linecap:square;stroke-linejoin:miter;stroke-width:1.25;"/>
   </g>
   <g id="text_13">
    <!-- -2 -->
    <defs>
     <path d="M 4.890625 31.390625 
L 31.203125 31.390625 
L 31.203125 23.390625 
L 4.890625 23.390625 
z
" id="DejaVuSans-2d"/>
    </defs>
    <g style="fill:#262626;" transform="translate(130.028588 16.318125)scale(0.12 -0.12)">
     <use xlink:href="#DejaVuSans-2d"/>
     <use x="36.083984" xlink:href="#DejaVuSans-32"/>
    </g>
   </g>
   <g id="legend_1">
    <g id="line2d_18">
     <path d="M 176.985912 33.226504 
L 193.641912 33.226504 
" style="fill:none;stroke:#4c72b0;stroke-linecap:round;stroke-width:1.75;"/>
    </g>
    <g id="line2d_19"/>
    <g id="text_14">
     <!-- A: 85.94% -->
     <defs>
      <path d="M 34.1875 63.1875 
L 20.796875 26.90625 
L 47.609375 26.90625 
z
M 28.609375 72.90625 
L 39.796875 72.90625 
L 67.578125 0 
L 57.328125 0 
L 50.6875 18.703125 
L 17.828125 18.703125 
L 11.1875 0 
L 0.78125 0 
z
" id="DejaVuSans-41"/>
      <path d="M 11.71875 12.40625 
L 22.015625 12.40625 
L 22.015625 0 
L 11.71875 0 
z
M 11.71875 51.703125 
L 22.015625 51.703125 
L 22.015625 39.3125 
L 11.71875 39.3125 
z
" id="DejaVuSans-3a"/>
      <path id="DejaVuSans-20"/>
      <path d="M 31.78125 34.625 
Q 24.75 34.625 20.71875 30.859375 
Q 16.703125 27.09375 16.703125 20.515625 
Q 16.703125 13.921875 20.71875 10.15625 
Q 24.75 6.390625 31.78125 6.390625 
Q 38.8125 6.390625 42.859375 10.171875 
Q 46.921875 13.96875 46.921875 20.515625 
Q 46.921875 27.09375 42.890625 30.859375 
Q 38.875 34.625 31.78125 34.625 
z
M 21.921875 38.8125 
Q 15.578125 40.375 12.03125 44.71875 
Q 8.5 49.078125 8.5 55.328125 
Q 8.5 64.0625 14.71875 69.140625 
Q 20.953125 74.21875 31.78125 74.21875 
Q 42.671875 74.21875 48.875 69.140625 
Q 55.078125 64.0625 55.078125 55.328125 
Q 55.078125 49.078125 51.53125 44.71875 
Q 48 40.375 41.703125 38.8125 
Q 48.828125 37.15625 52.796875 32.3125 
Q 56.78125 27.484375 56.78125 20.515625 
Q 56.78125 9.90625 50.3125 4.234375 
Q 43.84375 -1.421875 31.78125 -1.421875 
Q 19.734375 -1.421875 13.25 4.234375 
Q 6.78125 9.90625 6.78125 20.515625 
Q 6.78125 27.484375 10.78125 32.3125 
Q 14.796875 37.15625 21.921875 38.8125 
z
M 18.3125 54.390625 
Q 18.3125 48.734375 21.84375 45.5625 
Q 25.390625 42.390625 31.78125 42.390625 
Q 38.140625 42.390625 41.71875 45.5625 
Q 45.3125 48.734375 45.3125 54.390625 
Q 45.3125 60.0625 41.71875 63.234375 
Q 38.140625 66.40625 31.78125 66.40625 
Q 25.390625 66.40625 21.84375 63.234375 
Q 18.3125 60.0625 18.3125 54.390625 
z
" id="DejaVuSans-38"/>
      <path d="M 10.984375 1.515625 
L 10.984375 10.5 
Q 14.703125 8.734375 18.5 7.8125 
Q 22.3125 6.890625 25.984375 6.890625 
Q 35.75 6.890625 40.890625 13.453125 
Q 46.046875 20.015625 46.78125 33.40625 
Q 43.953125 29.203125 39.59375 26.953125 
Q 35.25 24.703125 29.984375 24.703125 
Q 19.046875 24.703125 12.671875 31.3125 
Q 6.296875 37.9375 6.296875 49.421875 
Q 6.296875 60.640625 12.9375 67.421875 
Q 19.578125 74.21875 30.609375 74.21875 
Q 43.265625 74.21875 49.921875 64.515625 
Q 56.59375 54.828125 56.59375 36.375 
Q 56.59375 19.140625 48.40625 8.859375 
Q 40.234375 -1.421875 26.421875 -1.421875 
Q 22.703125 -1.421875 18.890625 -0.6875 
Q 15.09375 0.046875 10.984375 1.515625 
z
M 30.609375 32.421875 
Q 37.25 32.421875 41.125 36.953125 
Q 45.015625 41.5 45.015625 49.421875 
Q 45.015625 57.28125 41.125 61.84375 
Q 37.25 66.40625 30.609375 66.40625 
Q 23.96875 66.40625 20.09375 61.84375 
Q 16.21875 57.28125 16.21875 49.421875 
Q 16.21875 41.5 20.09375 36.953125 
Q 23.96875 32.421875 30.609375 32.421875 
z
" id="DejaVuSans-39"/>
      <path d="M 72.703125 32.078125 
Q 68.453125 32.078125 66.03125 28.46875 
Q 63.625 24.859375 63.625 18.40625 
Q 63.625 12.0625 66.03125 8.421875 
Q 68.453125 4.78125 72.703125 4.78125 
Q 76.859375 4.78125 79.265625 8.421875 
Q 81.6875 12.0625 81.6875 18.40625 
Q 81.6875 24.8125 79.265625 28.4375 
Q 76.859375 32.078125 72.703125 32.078125 
z
M 72.703125 38.28125 
Q 80.421875 38.28125 84.953125 32.90625 
Q 89.5 27.546875 89.5 18.40625 
Q 89.5 9.28125 84.9375 3.921875 
Q 80.375 -1.421875 72.703125 -1.421875 
Q 64.890625 -1.421875 60.34375 3.921875 
Q 55.8125 9.28125 55.8125 18.40625 
Q 55.8125 27.59375 60.375 32.9375 
Q 64.9375 38.28125 72.703125 38.28125 
z
M 22.3125 68.015625 
Q 18.109375 68.015625 15.6875 64.375 
Q 13.28125 60.75 13.28125 54.390625 
Q 13.28125 47.953125 15.671875 44.328125 
Q 18.0625 40.71875 22.3125 40.71875 
Q 26.5625 40.71875 28.96875 44.328125 
Q 31.390625 47.953125 31.390625 54.390625 
Q 31.390625 60.6875 28.953125 64.34375 
Q 26.515625 68.015625 22.3125 68.015625 
z
M 66.40625 74.21875 
L 74.21875 74.21875 
L 28.609375 -1.421875 
L 20.796875 -1.421875 
z
M 22.3125 74.21875 
Q 30.03125 74.21875 34.609375 68.875 
Q 39.203125 63.53125 39.203125 54.390625 
Q 39.203125 45.171875 34.640625 39.84375 
Q 30.078125 34.515625 22.3125 34.515625 
Q 14.546875 34.515625 10.03125 39.859375 
Q 5.515625 45.21875 5.515625 54.390625 
Q 5.515625 63.484375 10.046875 68.84375 
Q 14.59375 74.21875 22.3125 74.21875 
z
" id="DejaVuSans-25"/>
     </defs>
     <g style="fill:#262626;" transform="translate(200.304312 36.141304)scale(0.08328 -0.08328)">
      <use xlink:href="#DejaVuSans-41"/>
      <use x="68.392578" xlink:href="#DejaVuSans-3a"/>
      <use x="102.083984" xlink:href="#DejaVuSans-20"/>
      <use x="133.871094" xlink:href="#DejaVuSans-38"/>
      <use x="197.494141" xlink:href="#DejaVuSans-35"/>
      <use x="261.117188" xlink:href="#DejaVuSans-2e"/>
      <use x="292.904297" xlink:href="#DejaVuSans-39"/>
      <use x="356.527344" xlink:href="#DejaVuSans-34"/>
      <use x="420.150391" xlink:href="#DejaVuSans-25"/>
     </g>
    </g>
    <g id="line2d_20">
     <path d="M 176.985912 45.450446 
L 193.641912 45.450446 
" style="fill:none;stroke:#55a868;stroke-linecap:round;stroke-width:1.75;"/>
    </g>
    <g id="line2d_21"/>
    <g id="text_15">
     <!-- C: 92.19% -->
     <defs>
      <path d="M 64.40625 67.28125 
L 64.40625 56.890625 
Q 59.421875 61.53125 53.78125 63.8125 
Q 48.140625 66.109375 41.796875 66.109375 
Q 29.296875 66.109375 22.65625 58.46875 
Q 16.015625 50.828125 16.015625 36.375 
Q 16.015625 21.96875 22.65625 14.328125 
Q 29.296875 6.6875 41.796875 6.6875 
Q 48.140625 6.6875 53.78125 8.984375 
Q 59.421875 11.28125 64.40625 15.921875 
L 64.40625 5.609375 
Q 59.234375 2.09375 53.4375 0.328125 
Q 47.65625 -1.421875 41.21875 -1.421875 
Q 24.65625 -1.421875 15.125 8.703125 
Q 5.609375 18.84375 5.609375 36.375 
Q 5.609375 53.953125 15.125 64.078125 
Q 24.65625 74.21875 41.21875 74.21875 
Q 47.75 74.21875 53.53125 72.484375 
Q 59.328125 70.75 64.40625 67.28125 
z
" id="DejaVuSans-43"/>
     </defs>
     <g style="fill:#262626;" transform="translate(200.304312 48.365246)scale(0.08328 -0.08328)">
      <use xlink:href="#DejaVuSans-43"/>
      <use x="69.824219" xlink:href="#DejaVuSans-3a"/>
      <use x="103.515625" xlink:href="#DejaVuSans-20"/>
      <use x="135.302734" xlink:href="#DejaVuSans-39"/>
      <use x="198.925781" xlink:href="#DejaVuSans-32"/>
      <use x="262.548828" xlink:href="#DejaVuSans-2e"/>
      <use x="294.335938" xlink:href="#DejaVuSans-31"/>
      <use x="357.958984" xlink:href="#DejaVuSans-39"/>
      <use x="421.582031" xlink:href="#DejaVuSans-25"/>
     </g>
    </g>
    <g id="line2d_22">
     <path d="M 176.985912 57.674389 
L 193.641912 57.674389 
" style="fill:none;stroke:#c44e52;stroke-linecap:round;stroke-width:1.75;"/>
    </g>
    <g id="line2d_23"/>
    <g id="text_16">
     <!-- G: 76.56% -->
     <defs>
      <path d="M 59.515625 10.40625 
L 59.515625 29.984375 
L 43.40625 29.984375 
L 43.40625 38.09375 
L 69.28125 38.09375 
L 69.28125 6.78125 
Q 63.578125 2.734375 56.6875 0.65625 
Q 49.8125 -1.421875 42 -1.421875 
Q 24.90625 -1.421875 15.25 8.5625 
Q 5.609375 18.5625 5.609375 36.375 
Q 5.609375 54.25 15.25 64.234375 
Q 24.90625 74.21875 42 74.21875 
Q 49.125 74.21875 55.546875 72.453125 
Q 61.96875 70.703125 67.390625 67.28125 
L 67.390625 56.78125 
Q 61.921875 61.421875 55.765625 63.765625 
Q 49.609375 66.109375 42.828125 66.109375 
Q 29.4375 66.109375 22.71875 58.640625 
Q 16.015625 51.171875 16.015625 36.375 
Q 16.015625 21.625 22.71875 14.15625 
Q 29.4375 6.6875 42.828125 6.6875 
Q 48.046875 6.6875 52.140625 7.59375 
Q 56.25 8.5 59.515625 10.40625 
z
" id="DejaVuSans-47"/>
      <path d="M 33.015625 40.375 
Q 26.375 40.375 22.484375 35.828125 
Q 18.609375 31.296875 18.609375 23.390625 
Q 18.609375 15.53125 22.484375 10.953125 
Q 26.375 6.390625 33.015625 6.390625 
Q 39.65625 6.390625 43.53125 10.953125 
Q 47.40625 15.53125 47.40625 23.390625 
Q 47.40625 31.296875 43.53125 35.828125 
Q 39.65625 40.375 33.015625 40.375 
z
M 52.59375 71.296875 
L 52.59375 62.3125 
Q 48.875 64.0625 45.09375 64.984375 
Q 41.3125 65.921875 37.59375 65.921875 
Q 27.828125 65.921875 22.671875 59.328125 
Q 17.53125 52.734375 16.796875 39.40625 
Q 19.671875 43.65625 24.015625 45.921875 
Q 28.375 48.1875 33.59375 48.1875 
Q 44.578125 48.1875 50.953125 41.515625 
Q 57.328125 34.859375 57.328125 23.390625 
Q 57.328125 12.15625 50.6875 5.359375 
Q 44.046875 -1.421875 33.015625 -1.421875 
Q 20.359375 -1.421875 13.671875 8.265625 
Q 6.984375 17.96875 6.984375 36.375 
Q 6.984375 53.65625 15.1875 63.9375 
Q 23.390625 74.21875 37.203125 74.21875 
Q 40.921875 74.21875 44.703125 73.484375 
Q 48.484375 72.75 52.59375 71.296875 
z
" id="DejaVuSans-36"/>
     </defs>
     <g style="fill:#262626;" transform="translate(200.304312 60.589189)scale(0.08328 -0.08328)">
      <use xlink:href="#DejaVuSans-47"/>
      <use x="77.490234" xlink:href="#DejaVuSans-3a"/>
      <use x="111.181641" xlink:href="#DejaVuSans-20"/>
      <use x="142.96875" xlink:href="#DejaVuSans-37"/>
      <use x="206.591797" xlink:href="#DejaVuSans-36"/>
      <use x="270.214844" xlink:href="#DejaVuSans-2e"/>
      <use x="302.001953" xlink:href="#DejaVuSans-35"/>
      <use x="365.625" xlink:href="#DejaVuSans-36"/>
      <use x="429.248047" xlink:href="#DejaVuSans-25"/>
     </g>
    </g>
    <g id="line2d_24">
     <path d="M 176.985912 69.898331 
L 193.641912 69.898331 
" style="fill:none;stroke:#8172b2;stroke-linecap:round;stroke-width:1.75;"/>
    </g>
    <g id="line2d_25"/>
    <g id="text_17">
     <!-- T: 92.19% -->
     <defs>
      <path d="M -0.296875 72.90625 
L 61.375 72.90625 
L 61.375 64.59375 
L 35.5 64.59375 
L 35.5 0 
L 25.59375 0 
L 25.59375 64.59375 
L -0.296875 64.59375 
z
" id="DejaVuSans-54"/>
     </defs>
     <g style="fill:#262626;" transform="translate(200.304312 72.813131)scale(0.08328 -0.08328)">
      <use xlink:href="#DejaVuSans-54"/>
      <use x="60.912109" xlink:href="#DejaVuSans-3a"/>
      <use x="94.603516" xlink:href="#DejaVuSans-20"/>
      <use x="126.390625" xlink:href="#DejaVuSans-39"/>
      <use x="190.013672" xlink:href="#DejaVuSans-32"/>
      <use x="253.636719" xlink:href="#DejaVuSans-2e"/>
      <use x="285.423828" xlink:href="#DejaVuSans-31"/>
      <use x="349.046875" xlink:href="#DejaVuSans-39"/>
      <use x="412.669922" xlink:href="#DejaVuSans-25"/>
     </g>
    </g>
   </g>
  </g>
  <g id="axes_2">
   <g id="patch_7">
    <path d="M 297.638362 465.838125 
L 528.534914 465.838125 
L 528.534914 22.318125 
L 297.638362 22.318125 
z
" style="fill:#ffffff;"/>
   </g>
   <g id="matplotlib.axis_3">
    <g id="xtick_7">
     <g id="line2d_26"/>
     <g id="text_18">
      <!-- −0.25 -->
      <g style="fill:#262626;" transform="translate(288.746934 480.436562)scale(0.1 -0.1)">
       <use xlink:href="#DejaVuSans-2212"/>
       <use x="83.789062" xlink:href="#DejaVuSans-30"/>
       <use x="147.412109" xlink:href="#DejaVuSans-2e"/>
       <use x="179.199219" xlink:href="#DejaVuSans-32"/>
       <use x="242.822266" xlink:href="#DejaVuSans-35"/>
      </g>
     </g>
    </g>
    <g id="xtick_8">
     <g id="line2d_27"/>
     <g id="text_19">
      <!-- 0.00 -->
      <g style="fill:#262626;" transform="translate(329.833783 480.436562)scale(0.1 -0.1)">
       <use xlink:href="#DejaVuSans-30"/>
       <use x="63.623047" xlink:href="#DejaVuSans-2e"/>
       <use x="95.410156" xlink:href="#DejaVuSans-30"/>
       <use x="159.033203" xlink:href="#DejaVuSans-30"/>
      </g>
     </g>
    </g>
    <g id="xtick_9">
     <g id="line2d_28"/>
     <g id="text_20">
      <!-- 0.25 -->
      <g style="fill:#262626;" transform="translate(366.730789 480.436562)scale(0.1 -0.1)">
       <use xlink:href="#DejaVuSans-30"/>
       <use x="63.623047" xlink:href="#DejaVuSans-2e"/>
       <use x="95.410156" xlink:href="#DejaVuSans-32"/>
       <use x="159.033203" xlink:href="#DejaVuSans-35"/>
      </g>
     </g>
    </g>
    <g id="xtick_10">
     <g id="line2d_29"/>
     <g id="text_21">
      <!-- 0.50 -->
      <g style="fill:#262626;" transform="translate(403.627795 480.436562)scale(0.1 -0.1)">
       <use xlink:href="#DejaVuSans-30"/>
       <use x="63.623047" xlink:href="#DejaVuSans-2e"/>
       <use x="95.410156" xlink:href="#DejaVuSans-35"/>
       <use x="159.033203" xlink:href="#DejaVuSans-30"/>
      </g>
     </g>
    </g>
    <g id="xtick_11">
     <g id="line2d_30"/>
     <g id="text_22">
      <!-- 0.75 -->
      <g style="fill:#262626;" transform="translate(440.524802 480.436562)scale(0.1 -0.1)">
       <use xlink:href="#DejaVuSans-30"/>
       <use x="63.623047" xlink:href="#DejaVuSans-2e"/>
       <use x="95.410156" xlink:href="#DejaVuSans-37"/>
       <use x="159.033203" xlink:href="#DejaVuSans-35"/>
      </g>
     </g>
    </g>
    <g id="xtick_12">
     <g id="line2d_31"/>
     <g id="text_23">
      <!-- 1.00 -->
      <g style="fill:#262626;" transform="translate(477.421808 480.436562)scale(0.1 -0.1)">
       <use xlink:href="#DejaVuSans-31"/>
       <use x="63.623047" xlink:href="#DejaVuSans-2e"/>
       <use x="95.410156" xlink:href="#DejaVuSans-30"/>
       <use x="159.033203" xlink:href="#DejaVuSans-30"/>
      </g>
     </g>
    </g>
    <g id="xtick_13">
     <g id="line2d_32"/>
     <g id="text_24">
      <!-- 1.25 -->
      <g style="fill:#262626;" transform="translate(514.318814 480.436562)scale(0.1 -0.1)">
       <use xlink:href="#DejaVuSans-31"/>
       <use x="63.623047" xlink:href="#DejaVuSans-2e"/>
       <use x="95.410156" xlink:href="#DejaVuSans-32"/>
       <use x="159.033203" xlink:href="#DejaVuSans-35"/>
      </g>
     </g>
    </g>
   </g>
   <g id="matplotlib.axis_4">
    <g id="ytick_7">
     <g id="line2d_33"/>
     <g id="text_25">
      <!-- 0 -->
      <g style="fill:#262626;" transform="translate(284.275862 469.637344)scale(0.1 -0.1)">
       <use xlink:href="#DejaVuSans-30"/>
      </g>
     </g>
    </g>
    <g id="ytick_8">
     <g id="line2d_34"/>
     <g id="text_26">
      <!-- 1 -->
      <g style="fill:#262626;" transform="translate(284.275862 380.933344)scale(0.1 -0.1)">
       <use xlink:href="#DejaVuSans-31"/>
      </g>
     </g>
    </g>
    <g id="ytick_9">
     <g id="line2d_35"/>
     <g id="text_27">
      <!-- 2 -->
      <g style="fill:#262626;" transform="translate(284.275862 292.229344)scale(0.1 -0.1)">
       <use xlink:href="#DejaVuSans-32"/>
      </g>
     </g>
    </g>
    <g id="ytick_10">
     <g id="line2d_36"/>
     <g id="text_28">
      <!-- 3 -->
      <g style="fill:#262626;" transform="translate(284.275862 203.525344)scale(0.1 -0.1)">
       <use xlink:href="#DejaVuSans-33"/>
      </g>
     </g>
    </g>
    <g id="ytick_11">
     <g id="line2d_37"/>
     <g id="text_29">
      <!-- 4 -->
      <g style="fill:#262626;" transform="translate(284.275862 114.821344)scale(0.1 -0.1)">
       <use xlink:href="#DejaVuSans-34"/>
      </g>
     </g>
    </g>
    <g id="ytick_12">
     <g id="line2d_38"/>
     <g id="text_30">
      <!-- 5 -->
      <g style="fill:#262626;" transform="translate(284.275862 26.117344)scale(0.1 -0.1)">
       <use xlink:href="#DejaVuSans-35"/>
      </g>
     </g>
    </g>
   </g>
   <g id="line2d_39">
    <path clip-path="url(#pc67faad722)" d="M 332.387922 448.74914 
L 333.022151 433.455469 
L 333.65638 407.354325 
L 334.290609 365.168963 
L 334.924837 300.677133 
L 335.559066 207.562702 
L 336.193295 80.856292 
L 336.513696 -1 
M 346.101135 -1 
L 346.340958 55.162625 
L 346.975187 171.660864 
L 347.609415 258.932927 
L 348.243644 322.02595 
L 348.877873 366.56063 
L 349.512102 397.622127 
L 350.146331 419.243033 
L 350.78056 434.338465 
L 351.414789 444.894256 
L 352.049018 452.234515 
L 352.683247 457.259847 
L 353.317476 460.613372 
L 353.951704 462.776582 
L 354.585933 464.11703 
L 355.220162 464.911312 
L 355.854391 465.359412 
L 356.48862 465.597863 
L 357.122849 465.713133 
L 357.757078 465.753873 
L 358.391307 465.74029 
L 359.025536 465.669634 
L 359.659765 465.517862 
L 360.293993 465.238645 
L 360.928222 464.761869 
L 361.562451 463.994784 
L 362.19668 462.829364 
L 362.830909 461.158917 
L 363.465138 458.904793 
L 364.099367 456.050143 
L 364.733596 452.672993 
L 365.367825 448.967233 
L 366.002054 445.239814 
L 366.636283 441.877073 
L 367.270511 439.282233 
L 367.90474 437.796923 
L 368.538969 437.627476 
L 369.173198 438.797903 
L 369.807427 441.144311 
L 370.441656 444.352556 
L 371.075885 448.0272 
L 371.710114 451.770926 
L 372.344343 455.252592 
L 372.978572 458.248651 
L 373.6128 460.653178 
L 374.247029 462.461588 
L 374.881258 463.738985 
L 375.515487 464.584853 
L 376.149716 465.102716 
L 376.783945 465.378741 
L 377.418174 465.469228 
L 378.052403 465.394695 
L 378.686632 465.138159 
L 379.320861 464.646543 
L 379.955089 463.8361 
L 380.589318 462.604184 
L 381.223547 460.84975 
L 381.857776 458.502944 
L 382.492005 455.560239 
L 383.126234 452.116914 
L 383.760463 448.385309 
L 384.394692 444.687645 
L 385.028921 441.417549 
L 385.66315 438.974022 
L 386.297378 437.682217 
L 386.931607 437.722519 
L 387.565836 439.089215 
L 388.200065 441.591826 
L 388.834294 444.898662 
L 389.468523 448.608876 
L 390.102752 452.331467 
L 390.736981 455.750007 
L 391.37121 458.659304 
L 392.005439 460.970951 
L 392.639667 462.694134 
L 393.273896 463.90319 
L 393.908125 464.703552 
L 394.542354 465.204286 
L 395.176583 465.500755 
" style="fill:none;stroke:#4c72b0;stroke-linecap:round;stroke-width:1.75;"/>
   </g>
   <g id="line2d_40">
    <path clip-path="url(#pc67faad722)" d="M 310.318766 461.258891 
L 312.390139 457.623963 
L 314.461513 451.684654 
L 316.532886 442.411813 
L 318.604259 428.590336 
L 320.675633 408.943676 
L 322.747006 382.348417 
L 324.81838 348.127633 
L 326.889753 306.37941 
L 328.961127 258.264616 
L 331.0325 206.159225 
L 333.103874 153.584507 
L 335.175247 104.869712 
L 337.24662 64.570603 
L 339.317994 36.74432 
L 341.389367 24.239313 
L 343.460741 28.174001 
L 345.532114 47.738888 
L 347.603488 80.373511 
L 349.674861 122.26913 
L 351.746235 169.064511 
L 353.817608 216.562683 
L 355.888981 261.310523 
L 357.960355 300.940067 
L 360.031728 334.246478 
L 362.103102 361.045819 
L 364.174475 381.897366 
L 366.245849 397.784037 
L 368.317222 409.826758 
L 370.388595 419.076879 
L 372.459969 426.398449 
L 374.531342 432.428251 
L 376.602716 437.589541 
L 378.674089 442.134029 
L 380.745463 446.191935 
L 382.816836 449.817654 
L 384.88821 453.025525 
L 386.959583 455.814913 
L 389.030956 458.186081 
L 391.10233 460.148947 
L 393.173703 461.726537 
L 395.245077 462.954615 
L 397.31645 463.878725 
L 399.387824 464.549794 
L 401.459197 465.019436 
L 403.530571 465.335834 
L 405.601944 465.540839 
L 407.673317 465.668479 
L 409.744691 465.744751 
L 411.816064 465.788349 
L 413.887438 465.811888 
L 415.958811 465.823234 
L 418.030185 465.826636 
L 420.101558 465.823499 
L 422.172932 465.812699 
L 424.244305 465.790466 
L 426.315678 465.749901 
L 428.387052 465.680312 
L 430.458425 465.566661 
L 432.529799 465.389548 
L 434.601172 465.126221 
L 436.672546 464.753077 
L 438.743919 464.249861 
L 440.815293 463.605305 
L 442.886666 462.823294 
L 444.958039 461.928032 
L 447.029413 460.966341 
L 449.100786 460.005391 
L 451.17216 459.125067 
L 453.243533 458.405538 
L 455.314907 457.912206 
L 457.38628 457.681391 
L 459.457654 457.710483 
L 461.529027 457.955513 
L 463.6004 458.337468 
L 465.671774 458.756473 
L 467.743147 459.111017 
L 469.814521 459.318127 
L 471.885894 459.330096 
L 473.957268 459.144183 
L 476.028641 458.803162 
L 478.100014 458.386638 
L 480.171388 457.994964 
L 482.242761 457.729258 
L 484.314135 457.671842 
L 486.385508 457.871279 
L 488.456882 458.335063 
L 490.528255 459.031044 
L 492.599629 459.896539 
L 494.671002 460.85231 
L 496.742375 461.817722 
L 498.813749 462.723616 
L 500.885122 463.52057 
L 502.956496 464.181775 
L 505.027869 464.701196 
L 507.099243 465.088645 
L 509.170616 465.363637 
L 511.24199 465.54964 
L 513.313363 465.669682 
L 515.384736 465.743673 
" style="fill:none;stroke:#55a868;stroke-linecap:round;stroke-width:1.75;"/>
   </g>
   <g id="line2d_41">
    <path clip-path="url(#pc67faad722)" d="M 308.13366 461.373954 
L 310.253922 458.039909 
L 312.374184 452.708285 
L 314.494446 444.530245 
L 316.614709 432.507295 
L 318.734971 415.582182 
L 320.855233 392.795423 
L 322.975495 363.501748 
L 325.095757 327.619517 
L 327.21602 285.863801 
L 329.336282 239.898422 
L 331.456544 192.342263 
L 333.576806 146.586275 
L 335.697068 106.418614 
L 337.81733 75.507093 
L 339.937593 56.834954 
L 342.057855 52.211045 
L 344.178117 61.967457 
L 346.298379 84.916163 
L 348.418641 118.572688 
L 350.538904 159.589289 
L 352.659166 204.292987 
L 354.779428 249.208725 
L 356.89969 291.46659 
L 359.019952 329.034863 
L 361.140214 360.771269 
L 363.260477 386.327093 
L 365.380739 405.962313 
L 367.501001 420.33247 
L 369.621263 430.294526 
L 371.741525 436.758046 
L 373.861788 440.587968 
L 375.98205 442.551441 
L 378.102312 443.295304 
L 380.222574 443.341289 
L 382.342836 443.090081 
L 384.463098 442.829912 
L 386.583361 442.748579 
L 388.703623 442.948923 
L 390.823885 443.467371 
L 392.944147 444.293982 
L 395.064409 445.391549 
L 397.184672 446.711201 
L 399.304934 448.202786 
L 401.425196 449.819667 
L 403.545458 451.519027 
L 405.66572 453.259687 
L 407.785982 454.999704 
L 409.906245 456.695445 
L 412.026507 458.302877 
L 414.146769 459.780708 
L 416.267031 461.094285 
L 418.387293 462.218862 
L 420.507556 463.141146 
L 422.627818 463.858643 
L 424.74808 464.37702 
L 426.868342 464.706321 
L 428.988604 464.857155 
L 431.108866 464.837971 
L 433.229129 464.654265 
L 435.349391 464.310057 
L 437.469653 463.811421 
L 439.589915 463.17125 
L 441.710177 462.413959 
L 443.83044 461.578601 
L 445.950702 460.718981 
L 448.070964 459.899887 
L 450.191226 459.189483 
L 452.311488 458.648952 
L 454.43175 458.321449 
L 456.552013 458.222903 
L 458.672275 458.337063 
L 460.792537 458.616373 
L 462.912799 458.988966 
L 465.033061 459.370692 
L 467.153324 459.679916 
L 469.273586 459.852232 
L 471.393848 459.852193 
L 473.51411 459.679808 
L 475.634372 459.370537 
L 477.754635 458.9888 
L 479.874897 458.616236 
L 481.995159 458.337002 
L 484.115421 458.222973 
L 486.235683 458.32173 
L 488.355945 458.649592 
L 490.476208 459.190789 
L 492.59647 459.9025 
L 494.716732 460.724201 
L 496.836994 461.588946 
L 498.957256 462.434078 
L 501.077519 463.209359 
L 503.197781 463.881399 
L 505.318043 464.43433 
L 507.438305 464.867487 
L 509.558567 465.191308 
L 511.678829 465.422721 
L 513.799092 465.581013 
L 515.919354 465.684758 
L 518.039616 465.749959 
" style="fill:none;stroke:#c44e52;stroke-linecap:round;stroke-width:1.75;"/>
   </g>
   <g id="line2d_42">
    <path clip-path="url(#pc67faad722)" d="M 339.646011 357.634206 
L 339.750969 251.876305 
L 339.855927 65.534699 
L 339.878575 -1 
M 342.540123 -1 
L 342.584836 18.62909 
L 342.689794 47.079458 
L 342.794752 69.603427 
L 342.89971 93.941204 
L 343.004668 124.284266 
L 343.109626 161.735894 
L 343.214584 204.976698 
L 343.319542 251.14261 
L 343.4245 296.789654 
L 343.529458 338.758653 
L 343.634416 374.776511 
L 343.739374 403.715001 
L 343.844332 425.530367 
L 343.94929 440.985542 
L 344.054248 451.287321 
L 344.159206 457.753404 
L 344.264164 461.577494 
L 344.369122 463.709423 
L 344.47408 464.830224 
L 344.579038 465.386021 
L 344.683996 465.646057 
L 344.788955 465.760864 
L 344.893913 465.808703 
L 344.998871 465.82752 
L 345.103829 465.834507 
L 345.208787 465.836957 
L 345.313745 465.837768 
L 345.418703 465.838022 
L 345.523661 465.838097 
L 345.628619 465.838118 
L 345.733577 465.838123 
L 345.838535 465.838124 
L 345.943493 465.838124 
L 346.048451 465.838122 
L 346.153409 465.838114 
L 346.258367 465.838082 
L 346.363325 465.837971 
L 346.468283 465.837602 
L 346.573241 465.836447 
L 346.678199 465.833034 
L 346.783157 465.823518 
L 346.888115 465.798489 
L 346.993073 465.736404 
L 347.098031 465.591233 
L 347.202989 465.271393 
L 347.307947 464.607786 
L 347.412905 463.312045 
L 347.517864 460.933054 
L 347.622822 456.830312 
L 347.72778 450.193353 
L 347.832738 440.140382 
L 347.937696 425.917573 
L 348.042654 407.187326 
L 348.147612 384.34384 
L 348.25257 358.746328 
L 348.357528 332.743324 
L 348.462486 309.400288 
L 348.567444 291.938619 
L 348.672402 283.01517 
L 348.77736 284.061126 
L 348.882318 294.906286 
L 348.987276 313.82439 
L 349.092234 337.982886 
L 349.197192 364.135994 
L 349.30215 389.328264 
L 349.407108 411.402828 
L 349.512066 429.209584 
L 349.617024 442.528544 
L 349.721982 451.809176 
L 349.82694 457.852817 
L 349.931898 461.539456 
L 350.036856 463.649597 
" style="fill:none;stroke:#8172b2;stroke-linecap:round;stroke-width:1.75;"/>
   </g>
   <g id="line2d_43">
    <path clip-path="url(#pc67faad722)" d="M 348.345997 465.838125 
L 348.345997 22.318125 
" style="fill:none;stroke:#000000;stroke-dasharray:1.85,0.8;stroke-dashoffset:0;stroke-width:0.5;"/>
   </g>
   <g id="patch_8">
    <path d="M 297.638362 465.838125 
L 297.638362 22.318125 
" style="fill:none;stroke:#262626;stroke-linecap:square;stroke-linejoin:miter;stroke-width:1.25;"/>
   </g>
   <g id="patch_9">
    <path d="M 528.534914 465.838125 
L 528.534914 22.318125 
" style="fill:none;stroke:#262626;stroke-linecap:square;stroke-linejoin:miter;stroke-width:1.25;"/>
   </g>
   <g id="patch_10">
    <path d="M 297.638362 465.838125 
L 528.534914 465.838125 
" style="fill:none;stroke:#262626;stroke-linecap:square;stroke-linejoin:miter;stroke-width:1.25;"/>
   </g>
   <g id="patch_11">
    <path d="M 297.638362 22.318125 
L 528.534914 22.318125 
" style="fill:none;stroke:#262626;stroke-linecap:square;stroke-linejoin:miter;stroke-width:1.25;"/>
   </g>
   <g id="text_31">
    <!-- -1 -->
    <g style="fill:#262626;" transform="translate(407.10445 16.318125)scale(0.12 -0.12)">
     <use xlink:href="#DejaVuSans-2d"/>
     <use x="36.083984" xlink:href="#DejaVuSans-31"/>
    </g>
   </g>
   <g id="legend_2">
    <g id="line2d_44">
     <path d="M 454.061774 33.226504 
L 470.717774 33.226504 
" style="fill:none;stroke:#4c72b0;stroke-linecap:round;stroke-width:1.75;"/>
    </g>
    <g id="line2d_45"/>
    <g id="text_32">
     <!-- A: 96.88% -->
     <g style="fill:#262626;" transform="translate(477.380174 36.141304)scale(0.08328 -0.08328)">
      <use xlink:href="#DejaVuSans-41"/>
      <use x="68.392578" xlink:href="#DejaVuSans-3a"/>
      <use x="102.083984" xlink:href="#DejaVuSans-20"/>
      <use x="133.871094" xlink:href="#DejaVuSans-39"/>
      <use x="197.494141" xlink:href="#DejaVuSans-36"/>
      <use x="261.117188" xlink:href="#DejaVuSans-2e"/>
      <use x="292.904297" xlink:href="#DejaVuSans-38"/>
      <use x="356.527344" xlink:href="#DejaVuSans-38"/>
      <use x="420.150391" xlink:href="#DejaVuSans-25"/>
     </g>
    </g>
    <g id="line2d_46">
     <path d="M 454.061774 45.450446 
L 470.717774 45.450446 
" style="fill:none;stroke:#55a868;stroke-linecap:round;stroke-width:1.75;"/>
    </g>
    <g id="line2d_47"/>
    <g id="text_33">
     <!-- C: 84.38% -->
     <g style="fill:#262626;" transform="translate(477.380174 48.365246)scale(0.08328 -0.08328)">
      <use xlink:href="#DejaVuSans-43"/>
      <use x="69.824219" xlink:href="#DejaVuSans-3a"/>
      <use x="103.515625" xlink:href="#DejaVuSans-20"/>
      <use x="135.302734" xlink:href="#DejaVuSans-38"/>
      <use x="198.925781" xlink:href="#DejaVuSans-34"/>
      <use x="262.548828" xlink:href="#DejaVuSans-2e"/>
      <use x="294.335938" xlink:href="#DejaVuSans-33"/>
      <use x="357.958984" xlink:href="#DejaVuSans-38"/>
      <use x="421.582031" xlink:href="#DejaVuSans-25"/>
     </g>
    </g>
    <g id="line2d_48">
     <path d="M 454.061774 57.674389 
L 470.717774 57.674389 
" style="fill:none;stroke:#c44e52;stroke-linecap:round;stroke-width:1.75;"/>
    </g>
    <g id="line2d_49"/>
    <g id="text_34">
     <!-- G: 84.38% -->
     <g style="fill:#262626;" transform="translate(477.380174 60.589189)scale(0.08328 -0.08328)">
      <use xlink:href="#DejaVuSans-47"/>
      <use x="77.490234" xlink:href="#DejaVuSans-3a"/>
      <use x="111.181641" xlink:href="#DejaVuSans-20"/>
      <use x="142.96875" xlink:href="#DejaVuSans-38"/>
      <use x="206.591797" xlink:href="#DejaVuSans-34"/>
      <use x="270.214844" xlink:href="#DejaVuSans-2e"/>
      <use x="302.001953" xlink:href="#DejaVuSans-33"/>
      <use x="365.625" xlink:href="#DejaVuSans-38"/>
      <use x="429.248047" xlink:href="#DejaVuSans-25"/>
     </g>
    </g>
    <g id="line2d_50">
     <path d="M 454.061774 69.898331 
L 470.717774 69.898331 
" style="fill:none;stroke:#8172b2;stroke-linecap:round;stroke-width:1.75;"/>
    </g>
    <g id="line2d_51"/>
    <g id="text_35">
     <!-- T: 98.44% -->
     <g style="fill:#262626;" transform="translate(477.380174 72.813131)scale(0.08328 -0.08328)">
      <use xlink:href="#DejaVuSans-54"/>
      <use x="60.912109" xlink:href="#DejaVuSans-3a"/>
      <use x="94.603516" xlink:href="#DejaVuSans-20"/>
      <use x="126.390625" xlink:href="#DejaVuSans-39"/>
      <use x="190.013672" xlink:href="#DejaVuSans-38"/>
      <use x="253.636719" xlink:href="#DejaVuSans-2e"/>
      <use x="285.423828" xlink:href="#DejaVuSans-34"/>
      <use x="349.046875" xlink:href="#DejaVuSans-34"/>
      <use x="412.669922" xlink:href="#DejaVuSans-25"/>
     </g>
    </g>
   </g>
  </g>
  <g id="axes_3">
   <g id="patch_12">
    <path d="M 574.714224 465.838125 
L 805.610776 465.838125 
L 805.610776 22.318125 
L 574.714224 22.318125 
z
" style="fill:#ffffff;"/>
   </g>
   <g id="matplotlib.axis_5">
    <g id="xtick_14">
     <g id="line2d_52"/>
     <g id="text_36">
      <!-- −0.25 -->
      <g style="fill:#262626;" transform="translate(567.951394 480.436562)scale(0.1 -0.1)">
       <use xlink:href="#DejaVuSans-2212"/>
       <use x="83.789062" xlink:href="#DejaVuSans-30"/>
       <use x="147.412109" xlink:href="#DejaVuSans-2e"/>
       <use x="179.199219" xlink:href="#DejaVuSans-32"/>
       <use x="242.822266" xlink:href="#DejaVuSans-35"/>
      </g>
     </g>
    </g>
    <g id="xtick_15">
     <g id="line2d_53"/>
     <g id="text_37">
      <!-- 0.00 -->
      <g style="fill:#262626;" transform="translate(607.912058 480.436562)scale(0.1 -0.1)">
       <use xlink:href="#DejaVuSans-30"/>
       <use x="63.623047" xlink:href="#DejaVuSans-2e"/>
       <use x="95.410156" xlink:href="#DejaVuSans-30"/>
       <use x="159.033203" xlink:href="#DejaVuSans-30"/>
      </g>
     </g>
    </g>
    <g id="xtick_16">
     <g id="line2d_54"/>
     <g id="text_38">
      <!-- 0.25 -->
      <g style="fill:#262626;" transform="translate(643.682877 480.436562)scale(0.1 -0.1)">
       <use xlink:href="#DejaVuSans-30"/>
       <use x="63.623047" xlink:href="#DejaVuSans-2e"/>
       <use x="95.410156" xlink:href="#DejaVuSans-32"/>
       <use x="159.033203" xlink:href="#DejaVuSans-35"/>
      </g>
     </g>
    </g>
    <g id="xtick_17">
     <g id="line2d_55"/>
     <g id="text_39">
      <!-- 0.50 -->
      <g style="fill:#262626;" transform="translate(679.453697 480.436562)scale(0.1 -0.1)">
       <use xlink:href="#DejaVuSans-30"/>
       <use x="63.623047" xlink:href="#DejaVuSans-2e"/>
       <use x="95.410156" xlink:href="#DejaVuSans-35"/>
       <use x="159.033203" xlink:href="#DejaVuSans-30"/>
      </g>
     </g>
    </g>
    <g id="xtick_18">
     <g id="line2d_56"/>
     <g id="text_40">
      <!-- 0.75 -->
      <g style="fill:#262626;" transform="translate(715.224517 480.436562)scale(0.1 -0.1)">
       <use xlink:href="#DejaVuSans-30"/>
       <use x="63.623047" xlink:href="#DejaVuSans-2e"/>
       <use x="95.410156" xlink:href="#DejaVuSans-37"/>
       <use x="159.033203" xlink:href="#DejaVuSans-35"/>
      </g>
     </g>
    </g>
    <g id="xtick_19">
     <g id="line2d_57"/>
     <g id="text_41">
      <!-- 1.00 -->
      <g style="fill:#262626;" transform="translate(750.995337 480.436562)scale(0.1 -0.1)">
       <use xlink:href="#DejaVuSans-31"/>
       <use x="63.623047" xlink:href="#DejaVuSans-2e"/>
       <use x="95.410156" xlink:href="#DejaVuSans-30"/>
       <use x="159.033203" xlink:href="#DejaVuSans-30"/>
      </g>
     </g>
    </g>
    <g id="xtick_20">
     <g id="line2d_58"/>
     <g id="text_42">
      <!-- 1.25 -->
      <g style="fill:#262626;" transform="translate(786.766157 480.436562)scale(0.1 -0.1)">
       <use xlink:href="#DejaVuSans-31"/>
       <use x="63.623047" xlink:href="#DejaVuSans-2e"/>
       <use x="95.410156" xlink:href="#DejaVuSans-32"/>
       <use x="159.033203" xlink:href="#DejaVuSans-35"/>
      </g>
     </g>
    </g>
   </g>
   <g id="matplotlib.axis_6">
    <g id="ytick_13">
     <g id="line2d_59"/>
     <g id="text_43">
      <!-- 0 -->
      <g style="fill:#262626;" transform="translate(561.351724 469.637344)scale(0.1 -0.1)">
       <use xlink:href="#DejaVuSans-30"/>
      </g>
     </g>
    </g>
    <g id="ytick_14">
     <g id="line2d_60"/>
     <g id="text_44">
      <!-- 1 -->
      <g style="fill:#262626;" transform="translate(561.351724 380.933344)scale(0.1 -0.1)">
       <use xlink:href="#DejaVuSans-31"/>
      </g>
     </g>
    </g>
    <g id="ytick_15">
     <g id="line2d_61"/>
     <g id="text_45">
      <!-- 2 -->
      <g style="fill:#262626;" transform="translate(561.351724 292.229344)scale(0.1 -0.1)">
       <use xlink:href="#DejaVuSans-32"/>
      </g>
     </g>
    </g>
    <g id="ytick_16">
     <g id="line2d_62"/>
     <g id="text_46">
      <!-- 3 -->
      <g style="fill:#262626;" transform="translate(561.351724 203.525344)scale(0.1 -0.1)">
       <use xlink:href="#DejaVuSans-33"/>
      </g>
     </g>
    </g>
    <g id="ytick_17">
     <g id="line2d_63"/>
     <g id="text_47">
      <!-- 4 -->
      <g style="fill:#262626;" transform="translate(561.351724 114.821344)scale(0.1 -0.1)">
       <use xlink:href="#DejaVuSans-34"/>
      </g>
     </g>
    </g>
    <g id="ytick_18">
     <g id="line2d_64"/>
     <g id="text_48">
      <!-- 5 -->
      <g style="fill:#262626;" transform="translate(561.351724 26.117344)scale(0.1 -0.1)">
       <use xlink:href="#DejaVuSans-35"/>
      </g>
     </g>
    </g>
   </g>
   <g id="line2d_65">
    <path clip-path="url(#pb3da891d85)" d="M 585.209522 462.636842 
L 587.329784 460.278757 
L 589.450046 456.515552 
L 591.570308 450.742032 
L 593.690571 442.232099 
L 595.810833 430.191019 
L 597.931095 413.852264 
L 600.051357 392.618741 
L 602.171619 366.235235 
L 604.291882 334.963831 
L 606.412144 299.721531 
L 608.532406 262.134673 
L 610.652668 224.472705 
L 612.77293 189.445646 
L 614.893193 159.881511 
L 617.013455 138.33402 
L 619.133717 126.696108 
L 621.253979 125.901769 
L 623.374241 135.783289 
L 625.494503 155.115969 
L 627.614766 181.838121 
L 629.735028 213.393543 
L 631.85529 247.118945 
L 633.975552 280.596135 
L 636.095814 311.906891 
L 638.216077 339.75973 
L 640.336339 363.491499 
L 642.456601 382.973043 
L 644.576863 398.461675 
L 646.697125 410.442937 
L 648.817387 419.493899 
L 650.93765 426.185397 
L 653.057912 431.026392 
L 655.178174 434.443456 
L 657.298436 436.783558 
L 659.418698 438.327997 
L 661.538961 439.308112 
L 663.659223 439.917257 
L 665.779485 440.317196 
L 667.899747 440.639696 
L 670.020009 440.985428 
L 672.140271 441.422513 
L 674.260534 441.986572 
L 676.380796 442.683193 
L 678.501058 443.492872 
L 680.62132 444.37774 
L 682.741582 445.289014 
L 684.861845 446.174082 
L 686.982107 446.982361 
L 689.102369 447.6695 
L 691.222631 448.199906 
L 693.342893 448.547947 
L 695.463155 448.698348 
L 697.583418 448.646312 
L 699.70368 448.397724 
L 701.823942 447.969555 
L 703.944204 447.390274 
L 706.064466 446.699833 
L 708.184729 445.948686 
L 710.304991 445.195337 
L 712.425253 444.502179 
L 714.545515 443.92981 
L 716.665777 443.530461 
L 718.786039 443.34161 
L 720.906302 443.38099 
L 723.026564 443.644117 
L 725.146826 444.105023 
L 727.267088 444.720254 
L 729.38735 445.435534 
L 731.507613 446.193957 
L 733.627875 446.944331 
L 735.748137 447.648318 
L 737.868399 448.285316 
L 739.988661 448.854471 
L 742.108923 449.373656 
L 744.229186 449.875672 
L 746.349448 450.402288 
L 748.46971 450.997004 
L 750.589972 451.697598 
L 752.710234 452.529629 
L 754.830497 453.501906 
L 756.950759 454.604706 
L 759.071021 455.810959 
L 761.191283 457.080142 
L 763.311545 458.364031 
L 765.431807 459.613213 
L 767.55207 460.78314 
L 769.672332 461.838784 
L 771.792594 462.757289 
L 773.912856 463.528545 
L 776.033118 464.153958 
L 778.153381 464.644006 
L 780.273643 465.01521 
L 782.393905 465.287129 
L 784.514167 465.479805 
L 786.634429 465.611886 
L 788.754692 465.699488 
L 790.874954 465.755701 
L 792.995216 465.790599 
L 795.115478 465.811556 
" style="fill:none;stroke:#000000;stroke-linecap:round;stroke-width:1.75;"/>
   </g>
   <g id="line2d_66">
    <path clip-path="url(#pb3da891d85)" d="M 626.199034 465.838125 
L 626.199034 22.318125 
" style="fill:none;stroke:#000000;stroke-dasharray:1.85,0.8;stroke-dashoffset:0;stroke-width:0.5;"/>
   </g>
   <g id="patch_13">
    <path d="M 574.714224 465.838125 
L 574.714224 22.318125 
" style="fill:none;stroke:#262626;stroke-linecap:square;stroke-linejoin:miter;stroke-width:1.25;"/>
   </g>
   <g id="patch_14">
    <path d="M 805.610776 465.838125 
L 805.610776 22.318125 
" style="fill:none;stroke:#262626;stroke-linecap:square;stroke-linejoin:miter;stroke-width:1.25;"/>
   </g>
   <g id="patch_15">
    <path d="M 574.714224 465.838125 
L 805.610776 465.838125 
" style="fill:none;stroke:#262626;stroke-linecap:square;stroke-linejoin:miter;stroke-width:1.25;"/>
   </g>
   <g id="patch_16">
    <path d="M 574.714224 22.318125 
L 805.610776 22.318125 
" style="fill:none;stroke:#262626;stroke-linecap:square;stroke-linejoin:miter;stroke-width:1.25;"/>
   </g>
   <g id="text_49">
    <!-- +0 -->
    <defs>
     <path d="M 46 62.703125 
L 46 35.5 
L 73.1875 35.5 
L 73.1875 27.203125 
L 46 27.203125 
L 46 0 
L 37.796875 0 
L 37.796875 27.203125 
L 10.59375 27.203125 
L 10.59375 35.5 
L 37.796875 35.5 
L 37.796875 62.703125 
z
" id="DejaVuSans-2b"/>
    </defs>
    <g style="fill:#262626;" transform="translate(681.317188 16.318125)scale(0.12 -0.12)">
     <use xlink:href="#DejaVuSans-2b"/>
     <use x="83.789062" xlink:href="#DejaVuSans-30"/>
    </g>
   </g>
   <g id="legend_3">
    <g id="line2d_67">
     <path d="M 731.885855 33.226504 
L 748.541855 33.226504 
" style="fill:none;stroke:#000000;stroke-linecap:round;stroke-width:1.75;"/>
    </g>
    <g id="line2d_68"/>
    <g id="text_50">
     <!-- X: 73.05% -->
     <defs>
      <path d="M 6.296875 72.90625 
L 16.890625 72.90625 
L 35.015625 45.796875 
L 53.21875 72.90625 
L 63.8125 72.90625 
L 40.375 37.890625 
L 65.375 0 
L 54.78125 0 
L 34.28125 31 
L 13.625 0 
L 2.984375 0 
L 29 38.921875 
z
" id="DejaVuSans-58"/>
     </defs>
     <g style="fill:#262626;" transform="translate(755.204255 36.141304)scale(0.08328 -0.08328)">
      <use xlink:href="#DejaVuSans-58"/>
      <use x="68.505859" xlink:href="#DejaVuSans-3a"/>
      <use x="102.197266" xlink:href="#DejaVuSans-20"/>
      <use x="133.984375" xlink:href="#DejaVuSans-37"/>
      <use x="197.607422" xlink:href="#DejaVuSans-33"/>
      <use x="261.230469" xlink:href="#DejaVuSans-2e"/>
      <use x="293.017578" xlink:href="#DejaVuSans-30"/>
      <use x="356.640625" xlink:href="#DejaVuSans-35"/>
      <use x="420.263672" xlink:href="#DejaVuSans-25"/>
     </g>
    </g>
   </g>
  </g>
  <g id="axes_4">
   <g id="patch_17">
    <path d="M 851.790086 465.838125 
L 1082.686638 465.838125 
L 1082.686638 22.318125 
L 851.790086 22.318125 
z
" style="fill:#ffffff;"/>
   </g>
   <g id="matplotlib.axis_7">
    <g id="xtick_21">
     <g id="line2d_69"/>
     <g id="text_51">
      <!-- 0.0 -->
      <g style="fill:#262626;" transform="translate(901.147722 480.436562)scale(0.1 -0.1)">
       <use xlink:href="#DejaVuSans-30"/>
       <use x="63.623047" xlink:href="#DejaVuSans-2e"/>
       <use x="95.410156" xlink:href="#DejaVuSans-30"/>
      </g>
     </g>
    </g>
    <g id="xtick_22">
     <g id="line2d_70"/>
     <g id="text_52">
      <!-- 0.5 -->
      <g style="fill:#262626;" transform="translate(961.358591 480.436562)scale(0.1 -0.1)">
       <use xlink:href="#DejaVuSans-30"/>
       <use x="63.623047" xlink:href="#DejaVuSans-2e"/>
       <use x="95.410156" xlink:href="#DejaVuSans-35"/>
      </g>
     </g>
    </g>
    <g id="xtick_23">
     <g id="line2d_71"/>
     <g id="text_53">
      <!-- 1.0 -->
      <g style="fill:#262626;" transform="translate(1021.569459 480.436562)scale(0.1 -0.1)">
       <use xlink:href="#DejaVuSans-31"/>
       <use x="63.623047" xlink:href="#DejaVuSans-2e"/>
       <use x="95.410156" xlink:href="#DejaVuSans-30"/>
      </g>
     </g>
    </g>
   </g>
   <g id="matplotlib.axis_8">
    <g id="ytick_19">
     <g id="line2d_72"/>
     <g id="text_54">
      <!-- 0 -->
      <g style="fill:#262626;" transform="translate(838.427586 469.637344)scale(0.1 -0.1)">
       <use xlink:href="#DejaVuSans-30"/>
      </g>
     </g>
    </g>
    <g id="ytick_20">
     <g id="line2d_73"/>
     <g id="text_55">
      <!-- 1 -->
      <g style="fill:#262626;" transform="translate(838.427586 380.933344)scale(0.1 -0.1)">
       <use xlink:href="#DejaVuSans-31"/>
      </g>
     </g>
    </g>
    <g id="ytick_21">
     <g id="line2d_74"/>
     <g id="text_56">
      <!-- 2 -->
      <g style="fill:#262626;" transform="translate(838.427586 292.229344)scale(0.1 -0.1)">
       <use xlink:href="#DejaVuSans-32"/>
      </g>
     </g>
    </g>
    <g id="ytick_22">
     <g id="line2d_75"/>
     <g id="text_57">
      <!-- 3 -->
      <g style="fill:#262626;" transform="translate(838.427586 203.525344)scale(0.1 -0.1)">
       <use xlink:href="#DejaVuSans-33"/>
      </g>
     </g>
    </g>
    <g id="ytick_23">
     <g id="line2d_76"/>
     <g id="text_58">
      <!-- 4 -->
      <g style="fill:#262626;" transform="translate(838.427586 114.821344)scale(0.1 -0.1)">
       <use xlink:href="#DejaVuSans-34"/>
      </g>
     </g>
    </g>
    <g id="ytick_24">
     <g id="line2d_77"/>
     <g id="text_59">
      <!-- 5 -->
      <g style="fill:#262626;" transform="translate(838.427586 26.117344)scale(0.1 -0.1)">
       <use xlink:href="#DejaVuSans-35"/>
      </g>
     </g>
    </g>
   </g>
   <g id="line2d_78">
    <path clip-path="url(#p94181a5c6f)" d="M 887.697345 461.598699 
L 889.130784 458.202316 
L 890.564222 452.612923 
L 891.997661 443.809917 
L 893.431099 430.550633 
L 894.864538 411.466993 
L 896.297976 385.250172 
L 897.731415 350.921521 
L 899.164853 308.159318 
L 900.598292 257.618749 
L 902.03173 201.158424 
L 903.465169 141.883267 
L 904.898607 83.939881 
L 906.332046 32.055445 
L 907.482863 -1 
M 913.958294 -1 
L 914.932677 24.648509 
L 916.366116 71.884708 
L 917.799554 124.282982 
L 919.232993 177.728931 
L 920.666431 228.818433 
L 922.09987 275.127218 
L 923.533308 315.264676 
L 924.966747 348.757327 
L 926.400185 375.831269 
L 927.833624 397.16289 
L 929.267062 413.65062 
L 930.700501 426.237649 
L 932.133939 435.794767 
L 933.567378 443.05807 
L 935.000816 448.609096 
L 936.434255 452.883192 
L 937.867693 456.19338 
L 939.301132 458.759821 
L 940.73457 460.73801 
L 942.168009 462.241699 
L 943.601447 463.35888 
L 945.034886 464.161046 
L 946.468325 464.707071 
L 947.901763 465.043616 
L 949.335202 465.203954 
L 950.76864 465.206783 
L 952.202079 465.056156 
L 953.635517 464.74321 
L 955.068956 464.25001 
L 956.502394 463.555412 
L 957.935833 462.64242 
L 959.369271 461.506029 
L 960.80271 460.160166 
L 962.236148 458.642226 
L 963.669587 457.013965 
L 965.103025 455.358234 
L 966.536464 453.771926 
L 967.969902 452.356388 
L 969.403341 451.207007 
L 970.836779 450.403602 
L 972.270218 450.002828 
L 973.703656 450.033116 
L 975.137095 450.492259 
L 976.570533 451.347553 
L 978.003972 452.538503 
L 979.437411 453.982119 
L 980.870849 455.580628 
L 982.304288 457.230949 
L 983.737726 458.834603 
L 985.171165 460.306392 
L 986.604603 461.580231 
L 988.038042 462.61116 
L 989.47148 463.373619 
L 990.904919 463.857099 
L 992.338357 464.061039 
L 993.771796 463.99095 
L 995.205234 463.657285 
L 996.638673 463.077556 
L 998.072111 462.280963 
L 999.50555 461.3137 
L 1000.938988 460.242474 
L 1002.372427 459.1539 
L 1003.805865 458.148372 
L 1005.239304 457.328604 
L 1006.672742 456.784831 
L 1008.106181 456.57999 
L 1009.539619 456.738642 
L 1010.973058 457.242652 
L 1012.406496 458.034869 
L 1013.839935 459.029929 
L 1015.273374 460.129425 
L 1016.706812 461.237776 
L 1018.140251 462.275316 
L 1019.573689 463.186315 
L 1021.007128 463.941243 
L 1022.440566 464.534099 
L 1023.874005 464.976575 
L 1025.307443 465.291081 
L 1026.740882 465.504305 
L 1028.17432 465.642353 
L 1029.607759 465.727784 
" style="fill:none;stroke:#4c72b0;stroke-linecap:round;stroke-width:1.75;"/>
   </g>
   <g id="line2d_79">
    <path clip-path="url(#p94181a5c6f)" d="M 870.436351 464.447175 
L 872.414039 463.655799 
L 874.391728 462.491455 
L 876.369417 460.821503 
L 878.347106 458.48726 
L 880.324795 455.308279 
L 882.302484 451.091419 
L 884.280173 445.645308 
L 886.257862 438.800131 
L 888.23555 430.43157 
L 890.213239 420.486656 
L 892.190928 409.008151 
L 894.168617 396.153394 
L 896.146306 382.20347 
L 898.123995 367.559252 
L 900.101684 352.722504 
L 902.079373 338.262442 
L 904.057061 324.770705 
L 906.03475 312.810003 
L 908.012439 302.863263 
L 909.990128 295.29046 
L 911.967817 290.299327 
L 913.945506 287.93396 
L 915.923195 288.082305 
L 917.900884 290.500412 
L 919.878572 294.848664 
L 921.856261 300.733625 
L 923.83395 307.748899 
L 925.811639 315.509402 
L 927.789328 323.675441 
L 929.767017 331.965394 
L 931.744706 340.158035 
L 933.722395 348.087199 
L 935.700083 355.632275 
L 937.677772 362.707868 
L 939.655461 369.255173 
L 941.63315 375.236346 
L 943.610839 380.631954 
L 945.588528 385.44058 
L 947.566217 389.679177 
L 949.543906 393.382765 
L 951.521594 396.602453 
L 953.499283 399.401459 
L 955.476972 401.849435 
L 957.454661 404.015961 
L 959.43235 405.964307 
L 961.410039 407.746529 
L 963.387728 409.400689 
L 965.365417 410.950523 
L 967.343105 412.407466 
L 969.320794 413.774501 
L 971.298483 415.051099 
L 973.276172 416.238365 
L 975.253861 417.343606 
L 977.23155 418.383637 
L 979.209239 419.386373 
L 981.186928 420.390489 
L 983.164616 421.443151 
L 985.142305 422.596056 
L 987.119994 423.900241 
L 989.097683 425.400265 
L 991.075372 427.128499 
L 993.053061 429.100289 
L 995.03075 431.310678 
L 997.008438 433.733242 
L 998.986127 436.32127 
L 1000.963816 439.011293 
L 1002.941505 441.728563 
L 1004.919194 444.393872 
L 1006.896883 446.930872 
L 1008.874572 449.27302 
L 1010.852261 451.36931 
L 1012.829949 453.188149 
L 1014.807638 454.718982 
L 1016.785327 455.971591 
L 1018.763016 456.973284 
L 1020.740705 457.764447 
L 1022.718394 458.393115 
L 1024.696083 458.909292 
L 1026.673772 459.359724 
L 1028.65146 459.783709 
L 1030.629149 460.210326 
L 1032.606838 460.657264 
L 1034.584527 461.131154 
L 1036.562216 461.629159 
L 1038.539905 462.141416 
L 1040.517594 462.65386 
L 1042.495283 463.151012 
L 1044.472971 463.618352 
L 1046.45066 464.04406 
L 1048.428349 464.420029 
L 1050.406038 464.742172 
L 1052.383727 465.010158 
L 1054.361416 465.226747 
L 1056.339105 465.396919 
L 1058.316794 465.52697 
L 1060.294482 465.623689 
L 1062.272171 465.693718 
L 1064.24986 465.743099 
L 1066.227549 465.777025 
" style="fill:none;stroke:#55a868;stroke-linecap:round;stroke-width:1.75;"/>
   </g>
   <g id="line2d_80">
    <path clip-path="url(#p94181a5c6f)" d="M 882.637364 461.846868 
L 884.131419 459.306533 
L 885.625475 455.445146 
L 887.119531 449.758309 
L 888.613587 441.647241 
L 890.107643 430.449528 
L 891.601698 415.49627 
L 893.095754 396.197118 
L 894.58981 372.148948 
L 896.083866 343.25676 
L 897.577921 309.848224 
L 899.071977 272.75823 
L 900.566033 233.358947 
L 902.060089 193.51583 
L 903.554145 155.46095 
L 905.0482 121.590466 
L 906.542256 94.2098 
L 908.036312 75.263954 
L 909.530368 66.097455 
L 911.024423 67.286011 
L 912.518479 78.570081 
L 914.012535 98.901587 
L 915.506591 126.593501 
L 917.000647 159.543246 
L 918.494702 195.489123 
L 919.988758 232.256688 
L 921.482814 267.95883 
L 922.97687 301.126706 
L 924.470925 330.764619 
L 925.964981 356.336533 
L 927.459037 377.702008 
L 928.953093 395.023791 
L 930.447149 408.668203 
L 931.941204 419.114615 
L 933.43526 426.883633 
L 934.929316 432.487094 
L 936.423372 436.398099 
L 937.917428 439.036422 
L 939.411483 440.763883 
L 940.905539 441.884957 
L 942.399595 442.649298 
L 943.893651 443.254478 
L 945.387706 443.848448 
L 946.881762 444.53201 
L 948.375818 445.361831 
L 949.869874 446.354496 
L 951.36393 447.491854 
L 952.857985 448.727682 
L 954.352041 449.995514 
L 955.846097 451.217327 
L 957.340153 452.312736 
L 958.834208 453.208168 
L 960.328264 453.845437 
L 961.82232 454.188952 
L 963.316376 454.230781 
L 964.810432 453.992802 
L 966.304487 453.52542 
L 967.798543 452.902675 
L 969.292599 452.214073 
L 970.786655 451.554014 
L 972.28071 451.010146 
L 973.774766 450.652273 
L 975.268822 450.52348 
L 976.762878 450.634862 
L 978.256934 450.964733 
L 979.750989 451.46249 
L 981.245045 452.056533 
L 982.739101 452.66502 
L 984.233157 453.207762 
L 985.727212 453.617468 
L 987.221268 453.848703 
L 988.715324 453.883386 
L 990.20938 453.732257 
L 991.703436 453.432421 
L 993.197491 453.041614 
L 994.691547 452.63027 
L 996.185603 452.272619 
L 997.679659 452.038038 
L 999.173715 451.983642 
L 1000.66777 452.148864 
L 1002.161826 452.552383 
L 1003.655882 453.191504 
L 1005.149938 454.043794 
L 1006.643993 455.070603 
L 1008.138049 456.221917 
L 1009.632105 457.441924 
L 1011.126161 458.674618 
L 1012.620217 459.868811 
L 1014.114272 460.982054 
L 1015.608328 461.983114 
L 1017.102384 462.85291 
L 1018.59644 463.584009 
L 1020.090495 464.178996 
L 1021.584551 464.648111 
L 1023.078607 465.006612 
L 1024.572663 465.272252 
L 1026.066719 465.46315 
L 1027.560774 465.596229 
L 1029.05483 465.686238 
L 1030.548886 465.745313 
" style="fill:none;stroke:#c44e52;stroke-linecap:round;stroke-width:1.75;"/>
   </g>
   <g id="line2d_81">
    <path clip-path="url(#p94181a5c6f)" d="M 862.285384 464.680047 
L 864.405646 464.100025 
L 866.525908 463.275568 
L 868.646171 462.126679 
L 870.766433 460.557391 
L 872.886695 458.456724 
L 875.006957 455.701572 
L 877.127219 452.161961 
L 879.247481 447.708926 
L 881.367744 442.224985 
L 883.488006 435.616813 
L 885.608268 427.829278 
L 887.72853 418.859575 
L 889.848792 408.769823 
L 891.969055 397.696315 
L 894.089317 385.85363 
L 896.209579 373.532154 
L 898.329841 361.088176 
L 900.450103 348.926555 
L 902.570365 337.476938 
L 904.690628 327.165456 
L 906.81089 318.384607 
L 908.931152 311.464453 
L 911.051414 306.648276 
L 913.171676 304.075403 
L 915.291939 303.773014 
L 917.412201 305.657672 
L 919.532463 309.546054 
L 921.652725 315.173279 
L 923.772987 322.216413 
L 925.89325 330.320273 
L 928.013512 339.122738 
L 930.133774 348.277116 
L 932.254036 357.46988 
L 934.374298 366.432883 
L 936.49456 374.949987 
L 938.614823 382.85871 
L 940.735085 390.047917 
L 942.855347 396.45277 
L 944.975609 402.048117 
L 947.095871 406.841286 
L 949.216134 410.864984 
L 951.336396 414.170727 
L 953.456658 416.822988 
L 955.57692 418.894114 
L 957.697182 420.45999 
L 959.817444 421.596405 
L 961.937707 422.376113 
L 964.057969 422.866587 
L 966.178231 423.128487 
L 968.298493 423.21482 
L 970.418755 423.170773 
L 972.539018 423.034126 
L 974.65928 422.836126 
L 976.779542 422.602673 
L 978.899804 422.355672 
L 981.020066 422.114393 
L 983.140328 421.896722 
L 985.260591 421.720207 
L 987.380853 421.602824 
L 989.501115 421.563427 
L 991.621377 421.621847 
L 993.741639 421.798652 
L 995.861902 422.114568 
L 997.982164 422.589623 
L 1000.102426 423.242066 
L 1002.222688 424.087152 
L 1004.34295 425.135926 
L 1006.463212 426.394093 
L 1008.583475 427.861127 
L 1010.703737 429.529696 
L 1012.823999 431.385476 
L 1014.944261 433.407405 
L 1017.064523 435.568339 
L 1019.184786 437.836095 
L 1021.305048 440.174783 
L 1023.42531 442.546343 
L 1025.545572 444.912178 
L 1027.665834 447.234775 
L 1029.786096 449.479218 
L 1031.906359 451.614506 
L 1034.026621 453.614609 
L 1036.146883 455.459212 
L 1038.267145 457.13412 
L 1040.387407 458.631324 
L 1042.50767 459.948736 
L 1044.627932 461.089643 
L 1046.748194 462.061936 
L 1048.868456 462.877181 
L 1050.988718 463.549611 
L 1053.10898 464.095115 
L 1055.229243 464.530291 
L 1057.349505 464.871626 
L 1059.469767 465.134819 
L 1061.590029 465.334292 
L 1063.710291 465.482871 
L 1065.830554 465.591623 
L 1067.950816 465.669836 
L 1070.071078 465.7251 
L 1072.19134 465.76346 
" style="fill:none;stroke:#8172b2;stroke-linecap:round;stroke-width:1.75;"/>
   </g>
   <g id="line2d_82">
    <path clip-path="url(#p94181a5c6f)" d="M 915.120372 465.838125 
L 915.120372 22.318125 
" style="fill:none;stroke:#000000;stroke-dasharray:1.85,0.8;stroke-dashoffset:0;stroke-width:0.5;"/>
   </g>
   <g id="patch_18">
    <path d="M 851.790086 465.838125 
L 851.790086 22.318125 
" style="fill:none;stroke:#262626;stroke-linecap:square;stroke-linejoin:miter;stroke-width:1.25;"/>
   </g>
   <g id="patch_19">
    <path d="M 1082.686638 465.838125 
L 1082.686638 22.318125 
" style="fill:none;stroke:#262626;stroke-linecap:square;stroke-linejoin:miter;stroke-width:1.25;"/>
   </g>
   <g id="patch_20">
    <path d="M 851.790086 465.838125 
L 1082.686638 465.838125 
" style="fill:none;stroke:#262626;stroke-linecap:square;stroke-linejoin:miter;stroke-width:1.25;"/>
   </g>
   <g id="patch_21">
    <path d="M 851.790086 22.318125 
L 1082.686638 22.318125 
" style="fill:none;stroke:#262626;stroke-linecap:square;stroke-linejoin:miter;stroke-width:1.25;"/>
   </g>
   <g id="text_60">
    <!-- +1 -->
    <g style="fill:#262626;" transform="translate(958.39305 16.318125)scale(0.12 -0.12)">
     <use xlink:href="#DejaVuSans-2b"/>
     <use x="83.789062" xlink:href="#DejaVuSans-31"/>
    </g>
   </g>
   <g id="legend_4">
    <g id="line2d_83">
     <path d="M 1008.213498 33.226504 
L 1024.869498 33.226504 
" style="fill:none;stroke:#4c72b0;stroke-linecap:round;stroke-width:1.75;"/>
    </g>
    <g id="line2d_84"/>
    <g id="text_61">
     <!-- A: 81.25% -->
     <g style="fill:#262626;" transform="translate(1031.531898 36.141304)scale(0.08328 -0.08328)">
      <use xlink:href="#DejaVuSans-41"/>
      <use x="68.392578" xlink:href="#DejaVuSans-3a"/>
      <use x="102.083984" xlink:href="#DejaVuSans-20"/>
      <use x="133.871094" xlink:href="#DejaVuSans-38"/>
      <use x="197.494141" xlink:href="#DejaVuSans-31"/>
      <use x="261.117188" xlink:href="#DejaVuSans-2e"/>
      <use x="292.904297" xlink:href="#DejaVuSans-32"/>
      <use x="356.527344" xlink:href="#DejaVuSans-35"/>
      <use x="420.150391" xlink:href="#DejaVuSans-25"/>
     </g>
    </g>
    <g id="line2d_85">
     <path d="M 1008.213498 45.450446 
L 1024.869498 45.450446 
" style="fill:none;stroke:#55a868;stroke-linecap:round;stroke-width:1.75;"/>
    </g>
    <g id="line2d_86"/>
    <g id="text_62">
     <!-- C: 42.19% -->
     <g style="fill:#262626;" transform="translate(1031.531898 48.365246)scale(0.08328 -0.08328)">
      <use xlink:href="#DejaVuSans-43"/>
      <use x="69.824219" xlink:href="#DejaVuSans-3a"/>
      <use x="103.515625" xlink:href="#DejaVuSans-20"/>
      <use x="135.302734" xlink:href="#DejaVuSans-34"/>
      <use x="198.925781" xlink:href="#DejaVuSans-32"/>
      <use x="262.548828" xlink:href="#DejaVuSans-2e"/>
      <use x="294.335938" xlink:href="#DejaVuSans-31"/>
      <use x="357.958984" xlink:href="#DejaVuSans-39"/>
      <use x="421.582031" xlink:href="#DejaVuSans-25"/>
     </g>
    </g>
    <g id="line2d_87">
     <path d="M 1008.213498 57.674389 
L 1024.869498 57.674389 
" style="fill:none;stroke:#c44e52;stroke-linecap:round;stroke-width:1.75;"/>
    </g>
    <g id="line2d_88"/>
    <g id="text_63">
     <!-- G: 79.69% -->
     <g style="fill:#262626;" transform="translate(1031.531898 60.589189)scale(0.08328 -0.08328)">
      <use xlink:href="#DejaVuSans-47"/>
      <use x="77.490234" xlink:href="#DejaVuSans-3a"/>
      <use x="111.181641" xlink:href="#DejaVuSans-20"/>
      <use x="142.96875" xlink:href="#DejaVuSans-37"/>
      <use x="206.591797" xlink:href="#DejaVuSans-39"/>
      <use x="270.214844" xlink:href="#DejaVuSans-2e"/>
      <use x="302.001953" xlink:href="#DejaVuSans-36"/>
      <use x="365.625" xlink:href="#DejaVuSans-39"/>
      <use x="429.248047" xlink:href="#DejaVuSans-25"/>
     </g>
    </g>
    <g id="line2d_89">
     <path d="M 1008.213498 69.898331 
L 1024.869498 69.898331 
" style="fill:none;stroke:#8172b2;stroke-linecap:round;stroke-width:1.75;"/>
    </g>
    <g id="line2d_90"/>
    <g id="text_64">
     <!-- T: 48.44% -->
     <g style="fill:#262626;" transform="translate(1031.531898 72.813131)scale(0.08328 -0.08328)">
      <use xlink:href="#DejaVuSans-54"/>
      <use x="60.912109" xlink:href="#DejaVuSans-3a"/>
      <use x="94.603516" xlink:href="#DejaVuSans-20"/>
      <use x="126.390625" xlink:href="#DejaVuSans-34"/>
      <use x="190.013672" xlink:href="#DejaVuSans-38"/>
      <use x="253.636719" xlink:href="#DejaVuSans-2e"/>
      <use x="285.423828" xlink:href="#DejaVuSans-34"/>
      <use x="349.046875" xlink:href="#DejaVuSans-34"/>
      <use x="412.669922" xlink:href="#DejaVuSans-25"/>
     </g>
    </g>
   </g>
  </g>
  <g id="axes_5">
   <g id="patch_22">
    <path d="M 1128.865948 465.838125 
L 1359.7625 465.838125 
L 1359.7625 22.318125 
L 1128.865948 22.318125 
z
" style="fill:#ffffff;"/>
   </g>
   <g id="matplotlib.axis_9">
    <g id="xtick_24">
     <g id="line2d_91"/>
     <g id="text_65">
      <!-- −0.5 -->
      <g style="fill:#262626;" transform="translate(1118.57295 480.436562)scale(0.1 -0.1)">
       <use xlink:href="#DejaVuSans-2212"/>
       <use x="83.789062" xlink:href="#DejaVuSans-30"/>
       <use x="147.412109" xlink:href="#DejaVuSans-2e"/>
       <use x="179.199219" xlink:href="#DejaVuSans-35"/>
      </g>
     </g>
    </g>
    <g id="xtick_25">
     <g id="line2d_92"/>
     <g id="text_66">
      <!-- 0.0 -->
      <g style="fill:#262626;" transform="translate(1179.662393 480.436562)scale(0.1 -0.1)">
       <use xlink:href="#DejaVuSans-30"/>
       <use x="63.623047" xlink:href="#DejaVuSans-2e"/>
       <use x="95.410156" xlink:href="#DejaVuSans-30"/>
      </g>
     </g>
    </g>
    <g id="xtick_26">
     <g id="line2d_93"/>
     <g id="text_67">
      <!-- 0.5 -->
      <g style="fill:#262626;" transform="translate(1236.561992 480.436562)scale(0.1 -0.1)">
       <use xlink:href="#DejaVuSans-30"/>
       <use x="63.623047" xlink:href="#DejaVuSans-2e"/>
       <use x="95.410156" xlink:href="#DejaVuSans-35"/>
      </g>
     </g>
    </g>
    <g id="xtick_27">
     <g id="line2d_94"/>
     <g id="text_68">
      <!-- 1.0 -->
      <g style="fill:#262626;" transform="translate(1293.46159 480.436562)scale(0.1 -0.1)">
       <use xlink:href="#DejaVuSans-31"/>
       <use x="63.623047" xlink:href="#DejaVuSans-2e"/>
       <use x="95.410156" xlink:href="#DejaVuSans-30"/>
      </g>
     </g>
    </g>
    <g id="xtick_28">
     <g id="line2d_95"/>
     <g id="text_69">
      <!-- 1.5 -->
      <g style="fill:#262626;" transform="translate(1350.361189 480.436562)scale(0.1 -0.1)">
       <use xlink:href="#DejaVuSans-31"/>
       <use x="63.623047" xlink:href="#DejaVuSans-2e"/>
       <use x="95.410156" xlink:href="#DejaVuSans-35"/>
      </g>
     </g>
    </g>
   </g>
   <g id="matplotlib.axis_10">
    <g id="ytick_25">
     <g id="line2d_96"/>
     <g id="text_70">
      <!-- 0 -->
      <g style="fill:#262626;" transform="translate(1115.503448 469.637344)scale(0.1 -0.1)">
       <use xlink:href="#DejaVuSans-30"/>
      </g>
     </g>
    </g>
    <g id="ytick_26">
     <g id="line2d_97"/>
     <g id="text_71">
      <!-- 1 -->
      <g style="fill:#262626;" transform="translate(1115.503448 380.933344)scale(0.1 -0.1)">
       <use xlink:href="#DejaVuSans-31"/>
      </g>
     </g>
    </g>
    <g id="ytick_27">
     <g id="line2d_98"/>
     <g id="text_72">
      <!-- 2 -->
      <g style="fill:#262626;" transform="translate(1115.503448 292.229344)scale(0.1 -0.1)">
       <use xlink:href="#DejaVuSans-32"/>
      </g>
     </g>
    </g>
    <g id="ytick_28">
     <g id="line2d_99"/>
     <g id="text_73">
      <!-- 3 -->
      <g style="fill:#262626;" transform="translate(1115.503448 203.525344)scale(0.1 -0.1)">
       <use xlink:href="#DejaVuSans-33"/>
      </g>
     </g>
    </g>
    <g id="ytick_29">
     <g id="line2d_100"/>
     <g id="text_74">
      <!-- 4 -->
      <g style="fill:#262626;" transform="translate(1115.503448 114.821344)scale(0.1 -0.1)">
       <use xlink:href="#DejaVuSans-34"/>
      </g>
     </g>
    </g>
    <g id="ytick_30">
     <g id="line2d_101"/>
     <g id="text_75">
      <!-- 5 -->
      <g style="fill:#262626;" transform="translate(1115.503448 26.117344)scale(0.1 -0.1)">
       <use xlink:href="#DejaVuSans-35"/>
      </g>
     </g>
    </g>
   </g>
   <g id="line2d_102">
    <path clip-path="url(#p696289e334)" d="M 1158.201291 463.103984 
L 1159.936651 461.252861 
L 1161.672011 458.379019 
L 1163.407372 454.067303 
L 1165.142732 447.81849 
L 1166.878092 439.075457 
L 1168.613452 427.273752 
L 1170.348812 411.918002 
L 1172.084172 392.679818 
L 1173.819533 369.505678 
L 1175.554893 342.716316 
L 1177.290253 313.074605 
L 1179.025613 281.799149 
L 1180.760973 250.507049 
L 1182.496334 221.081516 
L 1184.231694 195.475992 
L 1185.967054 175.482304 
L 1187.702414 162.501813 
L 1189.437774 157.361583 
L 1191.173134 160.210785 
L 1192.908495 170.517024 
L 1194.643855 187.161757 
L 1196.379215 208.613946 
L 1198.114575 233.146502 
L 1199.849935 259.05449 
L 1201.585295 284.838097 
L 1203.320656 309.325035 
L 1205.056016 331.722684 
L 1206.791376 351.605418 
L 1208.526736 368.853868 
L 1210.262096 383.568322 
L 1211.997457 395.978063 
L 1213.732817 406.363527 
L 1215.468177 415.000893 
L 1217.203537 422.131369 
L 1218.938897 427.951603 
L 1220.674257 432.618412 
L 1222.409618 436.260274 
L 1224.144978 438.989418 
L 1225.880338 440.910772 
L 1227.615698 442.126695 
L 1229.351058 442.73839 
L 1231.086419 442.845919 
L 1232.821779 442.54859 
L 1234.557139 441.94662 
L 1236.292499 441.14377 
L 1238.027859 440.249626 
L 1239.763219 439.37978 
L 1241.49858 438.652457 
L 1243.23394 438.18108 
L 1244.9693 438.063538 
L 1246.70466 438.370129 
L 1248.44002 439.132893 
L 1250.175381 440.339074 
L 1251.910741 441.930763 
L 1253.646101 443.811462 
L 1255.381461 445.858823 
L 1257.116821 447.941426 
L 1258.852181 449.936601 
L 1260.587542 451.746093 
L 1262.322902 453.306885 
L 1264.058262 454.595538 
L 1265.793622 455.625742 
L 1267.528982 456.440063 
L 1269.264343 457.097865 
L 1270.999703 457.661933 
L 1272.735063 458.186283 
L 1274.470423 458.707177 
L 1276.205783 459.238546 
L 1277.941143 459.772102 
L 1279.676504 460.281574 
L 1281.411864 460.729863 
L 1283.147224 461.077628 
L 1284.882584 461.29176 
L 1286.617944 461.352425 
L 1288.353305 461.257724 
L 1290.088665 461.02541 
L 1291.824025 460.691531 
L 1293.559385 460.306284 
L 1295.294745 459.9277 
L 1297.030105 459.614114 
L 1298.765466 459.416553 
L 1300.500826 459.372238 
L 1302.236186 459.500197 
L 1303.971546 459.799686 
L 1305.706906 460.251538 
L 1307.442267 460.822085 
L 1309.177627 461.46879 
L 1310.912987 462.146502 
L 1312.648347 462.813223 
L 1314.383707 463.434516 
L 1316.119067 463.986066 
L 1317.854428 464.454329 
L 1319.589788 464.83557 
L 1321.325148 465.133823 
L 1323.060508 465.358368 
L 1324.795868 465.521245 
L 1326.531229 465.635181 
L 1328.266589 465.712097 
L 1330.001949 465.762238 
" style="fill:none;stroke:#4c72b0;stroke-linecap:round;stroke-width:1.75;"/>
   </g>
   <g id="line2d_103">
    <path clip-path="url(#p696289e334)" d="M 1139.361246 464.538429 
L 1141.481508 463.919941 
L 1143.60177 463.0541 
L 1145.722033 461.864365 
L 1147.842295 460.26 
L 1149.962557 458.137133 
L 1152.082819 455.381493 
L 1154.203081 451.873153 
L 1156.323344 447.493468 
L 1158.443606 442.1342 
L 1160.563868 435.70847 
L 1162.68413 428.162911 
L 1164.804392 419.490011 
L 1166.924654 409.739347 
L 1169.044917 399.026284 
L 1171.165179 387.536654 
L 1173.285441 375.526178 
L 1175.405703 363.313778 
L 1177.525965 351.268573 
L 1179.646228 339.791019 
L 1181.76649 329.289473 
L 1183.886752 320.154076 
L 1186.007014 312.730357 
L 1188.127276 307.295124 
L 1190.247538 304.037083 
L 1192.367801 303.044159 
L 1194.488063 304.298764 
L 1196.608325 307.681341 
L 1198.728587 312.981637 
L 1200.848849 319.916281 
L 1202.969112 328.150658 
L 1205.089374 337.322757 
L 1207.209636 347.066653 
L 1209.329898 357.033574 
L 1211.45016 366.909012 
L 1213.570422 376.424973 
L 1215.690685 385.367111 
L 1217.810947 393.577068 
L 1219.931209 400.950793 
L 1222.051471 407.433842 
L 1224.171733 413.014759 
L 1226.291996 417.717538 
L 1228.412258 421.593969 
L 1230.53252 424.716422 
L 1232.652782 427.171363 
L 1234.773044 429.053698 
L 1236.893306 430.461864 
L 1239.013569 431.493554 
L 1241.133831 432.241941 
L 1243.254093 432.792321 
L 1245.374355 433.219184 
L 1247.494617 433.583795 
L 1249.61488 433.932426 
L 1251.735142 434.295394 
L 1253.855404 434.687056 
L 1255.975666 435.106833 
L 1258.095928 435.541257 
L 1260.216191 435.966935 
L 1262.336453 436.354223 
L 1264.456715 436.671324 
L 1266.576977 436.888469 
L 1268.697239 436.981852 
L 1270.817501 436.936959 
L 1272.937764 436.75105 
L 1275.058026 436.434564 
L 1277.178288 436.011369 
L 1279.29855 435.517816 
L 1281.418812 435.000704 
L 1283.539075 434.514309 
L 1285.659337 434.116717 
L 1287.779599 433.865759 
L 1289.899861 433.814854 
L 1292.020123 434.009113 
L 1294.140385 434.482002 
L 1296.260648 435.252852 
L 1298.38091 436.32541 
L 1300.501172 437.687559 
L 1302.621434 439.31222 
L 1304.741696 441.159335 
L 1306.861959 443.178753 
L 1308.982221 445.313735 
L 1311.102483 447.504751 
L 1313.222745 449.693246 
L 1315.343007 451.825034 
L 1317.463269 453.853082 
L 1319.583532 455.739488 
L 1321.703794 457.456581 
L 1323.824056 458.987156 
L 1325.944318 460.323924 
L 1328.06458 461.468364 
L 1330.184843 462.429143 
L 1332.305105 463.220329 
L 1334.425367 463.859573 
L 1336.545629 464.366423 
L 1338.665891 464.760874 
L 1340.786153 465.062226 
L 1342.906416 465.288262 
L 1345.026678 465.454739 
L 1347.14694 465.575143 
L 1349.267202 465.660665 
" style="fill:none;stroke:#55a868;stroke-linecap:round;stroke-width:1.75;"/>
   </g>
   <g id="line2d_104">
    <path clip-path="url(#p696289e334)" d="M 1156.516367 463.019057 
L 1158.271651 461.221665 
L 1160.026935 458.486549 
L 1161.782218 454.453147 
L 1163.537502 448.691517 
L 1165.292786 440.72305 
L 1167.04807 430.059866 
L 1168.803353 416.264204 
L 1170.558637 399.025153 
L 1172.313921 378.245046 
L 1174.069205 354.122722 
L 1175.824489 327.217056 
L 1177.579772 298.473244 
L 1179.335056 269.197367 
L 1181.09034 240.972091 
L 1182.845624 215.517015 
L 1184.600907 194.509016 
L 1186.356191 179.388199 
L 1188.111475 171.180731 
L 1189.866759 170.369186 
L 1191.622042 176.833505 
L 1193.377326 189.872947 
L 1195.13261 208.304291 
L 1196.887894 230.617729 
L 1198.643178 255.162527 
L 1200.398461 280.331504 
L 1202.153745 304.716916 
L 1203.909029 327.218813 
L 1205.664313 347.097939 
L 1207.419596 363.975906 
L 1209.17488 377.793453 
L 1210.930164 388.74197 
L 1212.685448 397.183954 
L 1214.440732 403.57563 
L 1216.196015 408.400791 
L 1217.951299 412.120448 
L 1219.706583 415.139093 
L 1221.461867 417.785764 
L 1223.21715 420.306896 
L 1224.972434 422.867713 
L 1226.727718 425.559396 
L 1228.483002 428.409966 
L 1230.238286 431.397473 
L 1231.993569 434.464434 
L 1233.748853 437.532603 
L 1235.504137 440.517106 
L 1237.259421 443.338833 
L 1239.014704 445.934042 
L 1240.769988 448.260314 
L 1242.525272 450.298443 
L 1244.280556 452.050482 
L 1246.03584 453.53473 
L 1247.791123 454.779009 
L 1249.546407 455.813775 
L 1251.301691 456.666513 
L 1253.056975 457.35845 
L 1254.812258 457.903996 
L 1256.567542 458.312595 
L 1258.322826 458.592108 
L 1260.07811 458.752502 
L 1261.833394 458.808616 
L 1263.588677 458.781077 
L 1265.343961 458.694994 
L 1267.099245 458.576656 
L 1268.854529 458.449066 
L 1270.609812 458.327446 
L 1272.365096 458.215955 
L 1274.12038 458.106586 
L 1275.875664 457.980758 
L 1277.630948 457.813477 
L 1279.386231 457.57936 
L 1281.141515 457.259365 
L 1282.896799 456.846875 
L 1284.652083 456.351858 
L 1286.407366 455.802224 
L 1288.16265 455.241981 
L 1289.917934 454.726447 
L 1291.673218 454.315294 
L 1293.428502 454.064617 
L 1295.183785 454.01933 
L 1296.939069 454.20715 
L 1298.694353 454.635067 
L 1300.449637 455.28876 
L 1302.20492 456.134888 
L 1303.960204 457.125709 
L 1305.715488 458.205175 
L 1307.470772 459.315456 
L 1309.226056 460.402911 
L 1310.981339 461.422764 
L 1312.736623 462.34199 
L 1314.491907 463.140352 
L 1316.247191 463.809754 
L 1318.002474 464.352368 
L 1319.757758 464.778032 
L 1321.513042 465.101451 
L 1323.268326 465.339603 
L 1325.02361 465.509639 
L 1326.778893 465.627398 
L 1328.534177 465.706528 
L 1330.289461 465.758133 
" style="fill:none;stroke:#c44e52;stroke-linecap:round;stroke-width:1.75;"/>
   </g>
   <g id="line2d_105">
    <path clip-path="url(#p696289e334)" d="M 1146.74204 464.079668 
L 1148.709527 463.152475 
L 1150.677014 461.818668 
L 1152.644501 459.942965 
L 1154.611989 457.364972 
L 1156.579476 453.902972 
L 1158.546963 449.361876 
L 1160.51445 443.545988 
L 1162.481937 436.276672 
L 1164.449425 427.414285 
L 1166.416912 416.882823 
L 1168.384399 404.69477 
L 1170.351886 390.972906 
L 1172.319373 375.96538 
L 1174.28686 360.050501 
L 1176.254348 343.728479 
L 1178.221835 327.598752 
L 1180.189322 312.323466 
L 1182.156809 298.579791 
L 1184.124296 287.005723 
L 1186.091784 278.145455 
L 1188.059271 272.400973 
L 1190.026758 269.996028 
L 1191.994245 270.957188 
L 1193.961732 275.114369 
L 1195.929219 282.120556 
L 1197.896707 291.487853 
L 1199.864194 302.634883 
L 1201.831681 314.939328 
L 1203.799168 327.789227 
L 1205.766655 340.627372 
L 1207.734143 352.984711 
L 1209.70163 364.500577 
L 1211.669117 374.929614 
L 1213.636604 384.13693 
L 1215.604091 392.084287 
L 1217.571578 398.810667 
L 1219.539066 404.410614 
L 1221.506553 409.013228 
L 1223.47404 412.763931 
L 1225.441527 415.810213 
L 1227.409014 418.291704 
L 1229.376502 420.334251 
L 1231.343989 422.047182 
L 1233.311476 423.522773 
L 1235.278963 424.836923 
L 1237.24645 426.050245 
L 1239.213937 427.209048 
L 1241.181425 428.346029 
L 1243.148912 429.480737 
L 1245.116399 430.620078 
L 1247.083886 431.759209 
L 1249.051373 432.883117 
L 1251.01886 433.969037 
L 1252.986348 434.989694 
L 1254.953835 435.91711 
L 1256.921322 436.726584 
L 1258.888809 437.400342 
L 1260.856296 437.930377 
L 1262.823784 438.320086 
L 1264.791271 438.584512 
L 1266.758758 438.749199 
L 1268.726245 438.847869 
L 1270.693732 438.919317 
L 1272.661219 439.003962 
L 1274.628707 439.140534 
L 1276.596194 439.363275 
L 1278.563681 439.69989 
L 1280.531168 440.170381 
L 1282.498655 440.786693 
L 1284.466143 441.553033 
L 1286.43363 442.466662 
L 1288.401117 443.518925 
L 1290.368604 444.696356 
L 1292.336091 445.981704 
L 1294.303578 447.354846 
L 1296.271066 448.79357 
L 1298.238553 450.274269 
L 1300.20604 451.772604 
L 1302.173527 453.264189 
L 1304.141014 454.725322 
L 1306.108502 456.133762 
L 1308.075989 457.469513 
L 1310.043476 458.715565 
L 1312.010963 459.858514 
L 1313.97845 460.888992 
L 1315.945937 461.801862 
L 1317.913425 462.596149 
L 1319.880912 463.274714 
L 1321.848399 463.843709 
L 1323.815886 464.311872 
L 1325.783373 464.689739 
L 1327.750861 464.988847 
L 1329.718348 465.220997 
L 1331.685835 465.397632 
L 1333.653322 465.529362 
L 1335.620809 465.625638 
L 1337.588296 465.694588 
L 1339.555784 465.742969 
L 1341.523271 465.776228 
" style="fill:none;stroke:#8172b2;stroke-linecap:round;stroke-width:1.75;"/>
   </g>
   <g id="line2d_106">
    <path clip-path="url(#p696289e334)" d="M 1193.303915 465.838125 
L 1193.303915 22.318125 
" style="fill:none;stroke:#000000;stroke-dasharray:1.85,0.8;stroke-dashoffset:0;stroke-width:0.5;"/>
   </g>
   <g id="patch_23">
    <path d="M 1128.865948 465.838125 
L 1128.865948 22.318125 
" style="fill:none;stroke:#262626;stroke-linecap:square;stroke-linejoin:miter;stroke-width:1.25;"/>
   </g>
   <g id="patch_24">
    <path d="M 1359.7625 465.838125 
L 1359.7625 22.318125 
" style="fill:none;stroke:#262626;stroke-linecap:square;stroke-linejoin:miter;stroke-width:1.25;"/>
   </g>
   <g id="patch_25">
    <path d="M 1128.865948 465.838125 
L 1359.7625 465.838125 
" style="fill:none;stroke:#262626;stroke-linecap:square;stroke-linejoin:miter;stroke-width:1.25;"/>
   </g>
   <g id="patch_26">
    <path d="M 1128.865948 22.318125 
L 1359.7625 22.318125 
" style="fill:none;stroke:#262626;stroke-linecap:square;stroke-linejoin:miter;stroke-width:1.25;"/>
   </g>
   <g id="text_76">
    <!-- +2 -->
    <g style="fill:#262626;" transform="translate(1235.468912 16.318125)scale(0.12 -0.12)">
     <use xlink:href="#DejaVuSans-2b"/>
     <use x="83.789062" xlink:href="#DejaVuSans-32"/>
    </g>
   </g>
   <g id="legend_5">
    <g id="line2d_107">
     <path d="M 1285.28936 33.226504 
L 1301.94536 33.226504 
" style="fill:none;stroke:#4c72b0;stroke-linecap:round;stroke-width:1.75;"/>
    </g>
    <g id="line2d_108"/>
    <g id="text_77">
     <!-- A: 67.19% -->
     <g style="fill:#262626;" transform="translate(1308.60776 36.141304)scale(0.08328 -0.08328)">
      <use xlink:href="#DejaVuSans-41"/>
      <use x="68.392578" xlink:href="#DejaVuSans-3a"/>
      <use x="102.083984" xlink:href="#DejaVuSans-20"/>
      <use x="133.871094" xlink:href="#DejaVuSans-36"/>
      <use x="197.494141" xlink:href="#DejaVuSans-37"/>
      <use x="261.117188" xlink:href="#DejaVuSans-2e"/>
      <use x="292.904297" xlink:href="#DejaVuSans-31"/>
      <use x="356.527344" xlink:href="#DejaVuSans-39"/>
      <use x="420.150391" xlink:href="#DejaVuSans-25"/>
     </g>
    </g>
    <g id="line2d_109">
     <path d="M 1285.28936 45.450446 
L 1301.94536 45.450446 
" style="fill:none;stroke:#55a868;stroke-linecap:round;stroke-width:1.75;"/>
    </g>
    <g id="line2d_110"/>
    <g id="text_78">
     <!-- C: 46.88% -->
     <g style="fill:#262626;" transform="translate(1308.60776 48.365246)scale(0.08328 -0.08328)">
      <use xlink:href="#DejaVuSans-43"/>
      <use x="69.824219" xlink:href="#DejaVuSans-3a"/>
      <use x="103.515625" xlink:href="#DejaVuSans-20"/>
      <use x="135.302734" xlink:href="#DejaVuSans-34"/>
      <use x="198.925781" xlink:href="#DejaVuSans-36"/>
      <use x="262.548828" xlink:href="#DejaVuSans-2e"/>
      <use x="294.335938" xlink:href="#DejaVuSans-38"/>
      <use x="357.958984" xlink:href="#DejaVuSans-38"/>
      <use x="421.582031" xlink:href="#DejaVuSans-25"/>
     </g>
    </g>
    <g id="line2d_111">
     <path d="M 1285.28936 57.674389 
L 1301.94536 57.674389 
" style="fill:none;stroke:#c44e52;stroke-linecap:round;stroke-width:1.75;"/>
    </g>
    <g id="line2d_112"/>
    <g id="text_79">
     <!-- G: 68.75% -->
     <g style="fill:#262626;" transform="translate(1308.60776 60.589189)scale(0.08328 -0.08328)">
      <use xlink:href="#DejaVuSans-47"/>
      <use x="77.490234" xlink:href="#DejaVuSans-3a"/>
      <use x="111.181641" xlink:href="#DejaVuSans-20"/>
      <use x="142.96875" xlink:href="#DejaVuSans-36"/>
      <use x="206.591797" xlink:href="#DejaVuSans-38"/>
      <use x="270.214844" xlink:href="#DejaVuSans-2e"/>
      <use x="302.001953" xlink:href="#DejaVuSans-37"/>
      <use x="365.625" xlink:href="#DejaVuSans-35"/>
      <use x="429.248047" xlink:href="#DejaVuSans-25"/>
     </g>
    </g>
    <g id="line2d_113">
     <path d="M 1285.28936 69.898331 
L 1301.94536 69.898331 
" style="fill:none;stroke:#8172b2;stroke-linecap:round;stroke-width:1.75;"/>
    </g>
    <g id="line2d_114"/>
    <g id="text_80">
     <!-- T: 54.69% -->
     <g style="fill:#262626;" transform="translate(1308.60776 72.813131)scale(0.08328 -0.08328)">
      <use xlink:href="#DejaVuSans-54"/>
      <use x="60.912109" xlink:href="#DejaVuSans-3a"/>
      <use x="94.603516" xlink:href="#DejaVuSans-20"/>
      <use x="126.390625" xlink:href="#DejaVuSans-35"/>
      <use x="190.013672" xlink:href="#DejaVuSans-34"/>
      <use x="253.636719" xlink:href="#DejaVuSans-2e"/>
      <use x="285.423828" xlink:href="#DejaVuSans-36"/>
      <use x="349.046875" xlink:href="#DejaVuSans-39"/>
      <use x="412.669922" xlink:href="#DejaVuSans-25"/>
     </g>
    </g>
   </g>
  </g>
 </g>
 <defs>
  <clipPath id="p3b32404e5c">
   <rect height="443.52" width="230.896552" x="20.5625" y="22.318125"/>
  </clipPath>
  <clipPath id="pc67faad722">
   <rect height="443.52" width="230.896552" x="297.638362" y="22.318125"/>
  </clipPath>
  <clipPath id="pb3da891d85">
   <rect height="443.52" width="230.896552" x="574.714224" y="22.318125"/>
  </clipPath>
  <clipPath id="p94181a5c6f">
   <rect height="443.52" width="230.896552" x="851.790086" y="22.318125"/>
  </clipPath>
  <clipPath id="p696289e334">
   <rect height="443.52" width="230.896552" x="1128.865948" y="22.318125"/>
  </clipPath>
 </defs>
</svg>
