<?xml version="1.0" encoding="utf-8" standalone="no"?>
<!DOCTYPE svg PUBLIC "-//W3C//DTD SVG 1.1//EN"
  "http://www.w3.org/Graphics/SVG/1.1/DTD/svg11.dtd">
<!-- Created with matplotlib (http://matplotlib.org/) -->
<svg height="489pt" version="1.1" viewBox="0 0 1372 489" width="1372pt" xmlns="http://www.w3.org/2000/svg" xmlns:xlink="http://www.w3.org/1999/xlink">
 <defs>
  <style type="text/css">
*{stroke-linecap:butt;stroke-linejoin:round;}
  </style>
 </defs>
 <g id="figure_1">
  <g id="patch_1">
   <path d="M 0 489.71625 
L 1372.764803 489.71625 
L 1372.764803 0 
L 0 0 
z
" style="fill:#ffffff;"/>
  </g>
  <g id="axes_1">
   <g id="patch_2">
    <path d="M 20.5625 465.838125 
L 251.459052 465.838125 
L 251.459052 22.318125 
L 20.5625 22.318125 
z
" style="fill:#ffffff;"/>
   </g>
   <g id="matplotlib.axis_1">
    <g id="xtick_1">
     <g id="line2d_1"/>
     <g id="text_1">
      <!-- −0.25 -->
      <defs>
       <path d="M 10.59375 35.5 
L 73.1875 35.5 
L 73.1875 27.203125 
L 10.59375 27.203125 
z
" id="DejaVuSans-2212"/>
       <path d="M 31.78125 66.40625 
Q 24.171875 66.40625 20.328125 58.90625 
Q 16.5 51.421875 16.5 36.375 
Q 16.5 21.390625 20.328125 13.890625 
Q 24.171875 6.390625 31.78125 6.390625 
Q 39.453125 6.390625 43.28125 13.890625 
Q 47.125 21.390625 47.125 36.375 
Q 47.125 51.421875 43.28125 58.90625 
Q 39.453125 66.40625 31.78125 66.40625 
z
M 31.78125 74.21875 
Q 44.046875 74.21875 50.515625 64.515625 
Q 56.984375 54.828125 56.984375 36.375 
Q 56.984375 17.96875 50.515625 8.265625 
Q 44.046875 -1.421875 31.78125 -1.421875 
Q 19.53125 -1.421875 13.0625 8.265625 
Q 6.59375 17.96875 6.59375 36.375 
Q 6.59375 54.828125 13.0625 64.515625 
Q 19.53125 74.21875 31.78125 74.21875 
z
" id="DejaVuSans-30"/>
       <path d="M 10.6875 12.40625 
L 21 12.40625 
L 21 0 
L 10.6875 0 
z
" id="DejaVuSans-2e"/>
       <path d="M 19.1875 8.296875 
L 53.609375 8.296875 
L 53.609375 0 
L 7.328125 0 
L 7.328125 8.296875 
Q 12.9375 14.109375 22.625 23.890625 
Q 32.328125 33.6875 34.8125 36.53125 
Q 39.546875 41.84375 41.421875 45.53125 
Q 43.3125 49.21875 43.3125 52.78125 
Q 43.3125 58.59375 39.234375 62.25 
Q 35.15625 65.921875 28.609375 65.921875 
Q 23.96875 65.921875 18.8125 64.3125 
Q 13.671875 62.703125 7.8125 59.421875 
L 7.8125 69.390625 
Q 13.765625 71.78125 18.9375 73 
Q 24.125 74.21875 28.421875 74.21875 
Q 39.75 74.21875 46.484375 68.546875 
Q 53.21875 62.890625 53.21875 53.421875 
Q 53.21875 48.921875 51.53125 44.890625 
Q 49.859375 40.875 45.40625 35.40625 
Q 44.1875 33.984375 37.640625 27.21875 
Q 31.109375 20.453125 19.1875 8.296875 
z
" id="DejaVuSans-32"/>
       <path d="M 10.796875 72.90625 
L 49.515625 72.90625 
L 49.515625 64.59375 
L 19.828125 64.59375 
L 19.828125 46.734375 
Q 21.96875 47.46875 24.109375 47.828125 
Q 26.265625 48.1875 28.421875 48.1875 
Q 40.625 48.1875 47.75 41.5 
Q 54.890625 34.8125 54.890625 23.390625 
Q 54.890625 11.625 47.5625 5.09375 
Q 40.234375 -1.421875 26.90625 -1.421875 
Q 22.3125 -1.421875 17.546875 -0.640625 
Q 12.796875 0.140625 7.71875 1.703125 
L 7.71875 11.625 
Q 12.109375 9.234375 16.796875 8.0625 
Q 21.484375 6.890625 26.703125 6.890625 
Q 35.15625 6.890625 40.078125 11.328125 
Q 45.015625 15.765625 45.015625 23.390625 
Q 45.015625 31 40.078125 35.4375 
Q 35.15625 39.890625 26.703125 39.890625 
Q 22.75 39.890625 18.8125 39.015625 
Q 14.890625 38.140625 10.796875 36.28125 
z
" id="DejaVuSans-35"/>
      </defs>
      <g style="fill:#262626;" transform="translate(20.728197 480.436562)scale(0.1 -0.1)">
       <use xlink:href="#DejaVuSans-2212"/>
       <use x="83.789062" xlink:href="#DejaVuSans-30"/>
       <use x="147.412109" xlink:href="#DejaVuSans-2e"/>
       <use x="179.199219" xlink:href="#DejaVuSans-32"/>
       <use x="242.822266" xlink:href="#DejaVuSans-35"/>
      </g>
     </g>
    </g>
    <g id="xtick_2">
     <g id="line2d_2"/>
     <g id="text_2">
      <!-- 0.00 -->
      <g style="fill:#262626;" transform="translate(63.873583 480.436562)scale(0.1 -0.1)">
       <use xlink:href="#DejaVuSans-30"/>
       <use x="63.623047" xlink:href="#DejaVuSans-2e"/>
       <use x="95.410156" xlink:href="#DejaVuSans-30"/>
       <use x="159.033203" xlink:href="#DejaVuSans-30"/>
      </g>
     </g>
    </g>
    <g id="xtick_3">
     <g id="line2d_3"/>
     <g id="text_3">
      <!-- 0.25 -->
      <g style="fill:#262626;" transform="translate(102.829126 480.436562)scale(0.1 -0.1)">
       <use xlink:href="#DejaVuSans-30"/>
       <use x="63.623047" xlink:href="#DejaVuSans-2e"/>
       <use x="95.410156" xlink:href="#DejaVuSans-32"/>
       <use x="159.033203" xlink:href="#DejaVuSans-35"/>
      </g>
     </g>
    </g>
    <g id="xtick_4">
     <g id="line2d_4"/>
     <g id="text_4">
      <!-- 0.50 -->
      <g style="fill:#262626;" transform="translate(141.784668 480.436562)scale(0.1 -0.1)">
       <use xlink:href="#DejaVuSans-30"/>
       <use x="63.623047" xlink:href="#DejaVuSans-2e"/>
       <use x="95.410156" xlink:href="#DejaVuSans-35"/>
       <use x="159.033203" xlink:href="#DejaVuSans-30"/>
      </g>
     </g>
    </g>
    <g id="xtick_5">
     <g id="line2d_5"/>
     <g id="text_5">
      <!-- 0.75 -->
      <defs>
       <path d="M 8.203125 72.90625 
L 55.078125 72.90625 
L 55.078125 68.703125 
L 28.609375 0 
L 18.3125 0 
L 43.21875 64.59375 
L 8.203125 64.59375 
z
" id="DejaVuSans-37"/>
      </defs>
      <g style="fill:#262626;" transform="translate(180.740211 480.436562)scale(0.1 -0.1)">
       <use xlink:href="#DejaVuSans-30"/>
       <use x="63.623047" xlink:href="#DejaVuSans-2e"/>
       <use x="95.410156" xlink:href="#DejaVuSans-37"/>
       <use x="159.033203" xlink:href="#DejaVuSans-35"/>
      </g>
     </g>
    </g>
    <g id="xtick_6">
     <g id="line2d_6"/>
     <g id="text_6">
      <!-- 1.00 -->
      <defs>
       <path d="M 12.40625 8.296875 
L 28.515625 8.296875 
L 28.515625 63.921875 
L 10.984375 60.40625 
L 10.984375 69.390625 
L 28.421875 72.90625 
L 38.28125 72.90625 
L 38.28125 8.296875 
L 54.390625 8.296875 
L 54.390625 0 
L 12.40625 0 
z
" id="DejaVuSans-31"/>
      </defs>
      <g style="fill:#262626;" transform="translate(219.695754 480.436562)scale(0.1 -0.1)">
       <use xlink:href="#DejaVuSans-31"/>
       <use x="63.623047" xlink:href="#DejaVuSans-2e"/>
       <use x="95.410156" xlink:href="#DejaVuSans-30"/>
       <use x="159.033203" xlink:href="#DejaVuSans-30"/>
      </g>
     </g>
    </g>
   </g>
   <g id="matplotlib.axis_2">
    <g id="ytick_1">
     <g id="line2d_7"/>
     <g id="text_7">
      <!-- 0 -->
      <g style="fill:#262626;" transform="translate(7.2 469.637344)scale(0.1 -0.1)">
       <use xlink:href="#DejaVuSans-30"/>
      </g>
     </g>
    </g>
    <g id="ytick_2">
     <g id="line2d_8"/>
     <g id="text_8">
      <!-- 1 -->
      <g style="fill:#262626;" transform="translate(7.2 380.933344)scale(0.1 -0.1)">
       <use xlink:href="#DejaVuSans-31"/>
      </g>
     </g>
    </g>
    <g id="ytick_3">
     <g id="line2d_9"/>
     <g id="text_9">
      <!-- 2 -->
      <g style="fill:#262626;" transform="translate(7.2 292.229344)scale(0.1 -0.1)">
       <use xlink:href="#DejaVuSans-32"/>
      </g>
     </g>
    </g>
    <g id="ytick_4">
     <g id="line2d_10"/>
     <g id="text_10">
      <!-- 3 -->
      <defs>
       <path d="M 40.578125 39.3125 
Q 47.65625 37.796875 51.625 33 
Q 55.609375 28.21875 55.609375 21.1875 
Q 55.609375 10.40625 48.1875 4.484375 
Q 40.765625 -1.421875 27.09375 -1.421875 
Q 22.515625 -1.421875 17.65625 -0.515625 
Q 12.796875 0.390625 7.625 2.203125 
L 7.625 11.71875 
Q 11.71875 9.328125 16.59375 8.109375 
Q 21.484375 6.890625 26.8125 6.890625 
Q 36.078125 6.890625 40.9375 10.546875 
Q 45.796875 14.203125 45.796875 21.1875 
Q 45.796875 27.640625 41.28125 31.265625 
Q 36.765625 34.90625 28.71875 34.90625 
L 20.21875 34.90625 
L 20.21875 43.015625 
L 29.109375 43.015625 
Q 36.375 43.015625 40.234375 45.921875 
Q 44.09375 48.828125 44.09375 54.296875 
Q 44.09375 59.90625 40.109375 62.90625 
Q 36.140625 65.921875 28.71875 65.921875 
Q 24.65625 65.921875 20.015625 65.03125 
Q 15.375 64.15625 9.8125 62.3125 
L 9.8125 71.09375 
Q 15.4375 72.65625 20.34375 73.4375 
Q 25.25 74.21875 29.59375 74.21875 
Q 40.828125 74.21875 47.359375 69.109375 
Q 53.90625 64.015625 53.90625 55.328125 
Q 53.90625 49.265625 50.4375 45.09375 
Q 46.96875 40.921875 40.578125 39.3125 
z
" id="DejaVuSans-33"/>
      </defs>
      <g style="fill:#262626;" transform="translate(7.2 203.525344)scale(0.1 -0.1)">
       <use xlink:href="#DejaVuSans-33"/>
      </g>
     </g>
    </g>
    <g id="ytick_5">
     <g id="line2d_11"/>
     <g id="text_11">
      <!-- 4 -->
      <defs>
       <path d="M 37.796875 64.3125 
L 12.890625 25.390625 
L 37.796875 25.390625 
z
M 35.203125 72.90625 
L 47.609375 72.90625 
L 47.609375 25.390625 
L 58.015625 25.390625 
L 58.015625 17.1875 
L 47.609375 17.1875 
L 47.609375 0 
L 37.796875 0 
L 37.796875 17.1875 
L 4.890625 17.1875 
L 4.890625 26.703125 
z
" id="DejaVuSans-34"/>
      </defs>
      <g style="fill:#262626;" transform="translate(7.2 114.821344)scale(0.1 -0.1)">
       <use xlink:href="#DejaVuSans-34"/>
      </g>
     </g>
    </g>
    <g id="ytick_6">
     <g id="line2d_12"/>
     <g id="text_12">
      <!-- 5 -->
      <g style="fill:#262626;" transform="translate(7.2 26.117344)scale(0.1 -0.1)">
       <use xlink:href="#DejaVuSans-35"/>
      </g>
     </g>
    </g>
   </g>
   <g id="line2d_13">
    <path clip-path="url(#pdca20f5d47)" d="M 49.866626 459.749256 
L 51.772178 454.226651 
L 53.677729 444.774261 
L 55.583281 429.487975 
L 57.488833 406.160378 
L 59.394385 372.624162 
L 61.299937 327.309055 
L 63.205489 269.941294 
L 65.11104 202.214905 
L 67.016592 128.190491 
L 68.922144 54.180112 
L 70.51066 -1 
M 81.064505 -1 
L 82.261007 37.288671 
L 84.166559 105.835825 
L 86.072111 174.376079 
L 87.977662 236.898731 
L 89.883214 289.652331 
L 91.788766 331.208183 
L 93.694318 362.032249 
L 95.59987 383.802031 
L 97.505422 398.702791 
L 99.410973 408.867553 
L 101.316525 416.033332 
L 103.222077 421.408598 
L 105.127629 425.701177 
L 107.033181 429.240695 
L 108.938732 432.135183 
L 110.844284 434.416386 
L 112.749836 436.144975 
L 114.655388 437.462383 
L 116.56094 438.589562 
L 118.466492 439.784765 
L 120.372043 441.280956 
L 122.277595 443.226666 
L 124.183147 445.650554 
L 126.088699 448.460202 
L 127.994251 451.473236 
L 129.899803 454.468238 
L 131.805354 457.238056 
L 133.710906 459.63013 
L 135.616458 461.565431 
L 137.52201 463.036065 
L 139.427562 464.087923 
L 141.333114 464.79724 
L 143.238665 465.248834 
L 145.144217 465.520581 
L 147.049769 465.675278 
L 148.955321 465.758651 
L 150.860873 465.801217 
L 152.766425 465.821816 
L 154.671976 465.831268 
L 156.577528 465.835382 
L 158.48308 465.837081 
L 160.388632 465.837747 
L 162.294184 465.837995 
L 164.199735 465.838082 
L 166.105287 465.83811 
L 168.010839 465.838114 
L 169.916391 465.838101 
L 171.821943 465.838053 
L 173.727495 465.837918 
L 175.633046 465.837552 
L 177.538598 465.836618 
L 179.44415 465.834359 
L 181.349702 465.829171 
L 183.255254 465.817881 
L 185.160806 465.7946 
L 187.066357 465.749135 
L 188.971909 465.665102 
L 190.877461 465.518209 
L 192.783013 465.275612 
L 194.688565 464.897546 
L 196.594117 464.342497 
L 198.499668 463.576515 
L 200.40522 462.585923 
L 202.310772 461.390758 
L 204.216324 460.05458 
L 206.121876 458.685738 
L 208.027428 457.426622 
L 209.932979 456.430893 
L 211.838531 455.833154 
L 213.744083 455.719173 
L 215.649635 456.105703 
L 217.555187 456.936444 
L 219.460738 458.095489 
L 221.36629 459.43383 
L 223.271842 460.800573 
L 225.177394 462.06993 
L 227.082946 463.157642 
L 228.988498 464.024872 
L 230.894049 464.671666 
L 232.799601 465.124539 
L 234.705153 465.422991 
L 236.610705 465.608459 
L 238.516257 465.717296 
" style="fill:none;stroke:#4c72b0;stroke-linecap:round;stroke-width:1.75;"/>
   </g>
   <g id="line2d_14">
    <path clip-path="url(#pdca20f5d47)" d="M 45.705232 460.483128 
L 47.655504 456.375727 
L 49.605775 449.75238 
L 51.556046 439.530112 
L 53.506318 424.442737 
L 55.456589 403.170276 
L 57.40686 374.557128 
L 59.357131 337.907393 
L 61.307403 293.315014 
L 63.257674 241.955736 
L 65.207945 186.249558 
L 67.158217 129.808484 
L 69.108488 77.121367 
L 71.058759 32.990943 
L 73.00903 1.811447 
L 73.375121 -1 
M 77.826553 -1 
L 78.859844 9.604808 
L 80.810116 44.496018 
L 82.760387 90.392658 
L 84.710658 142.60664 
L 86.660929 196.375608 
L 88.611201 247.525604 
L 90.561472 292.934132 
L 92.511743 330.740354 
L 94.462015 360.314982 
L 96.412286 382.050155 
L 98.362557 397.05063 
L 100.312829 406.803891 
L 102.2631 412.887231 
L 104.213371 416.74497 
L 106.163642 419.54672 
L 108.113914 422.121992 
L 110.064185 424.9576 
L 112.014456 428.240736 
L 113.964728 431.930156 
L 115.914999 435.839368 
L 117.86527 439.718168 
L 119.815541 443.322079 
L 121.765813 446.462877 
L 123.716084 449.037101 
L 125.666355 451.03294 
L 127.616627 452.518739 
L 129.566898 453.618525 
L 131.517169 454.481085 
L 133.467441 455.249278 
L 135.417712 456.035279 
L 137.367983 456.905553 
L 139.318254 457.876879 
L 141.268526 458.92222 
L 143.218797 459.983321 
L 145.169068 460.986054 
L 147.11934 461.854812 
L 149.069611 462.523544 
L 151.019882 462.94264 
L 152.970153 463.082339 
L 154.920425 462.934092 
L 156.870696 462.511252 
L 158.820967 461.849642 
L 160.771239 461.007593 
L 162.72151 460.064175 
L 164.671781 459.11429 
L 166.622053 458.25988 
L 168.572324 457.597797 
L 170.522595 457.206224 
L 172.472866 457.1325 
L 174.423138 457.385235 
L 176.373409 457.932744 
L 178.32368 458.7082 
L 180.273952 459.620177 
L 182.224223 460.565996 
L 184.174494 461.444938 
L 186.124765 462.16895 
L 188.075037 462.66973 
L 190.025308 462.90237 
L 191.975579 462.84668 
L 193.925851 462.507455 
L 195.876122 461.914434 
L 197.826393 461.121756 
L 199.776665 460.205921 
L 201.726936 459.260925 
L 203.677207 458.389782 
L 205.627478 457.692697 
L 207.57775 457.253583 
L 209.528021 457.127625 
L 211.478292 457.332852 
L 213.428564 457.847961 
L 215.378835 458.617093 
L 217.329106 459.560475 
L 219.279377 460.588373 
L 221.229649 461.615142 
L 223.17992 462.570468 
L 225.130191 463.405982 
L 227.080463 464.096813 
L 229.030734 464.638905 
L 230.981005 465.043695 
L 232.931277 465.331896 
L 234.881548 465.527832 
L 236.831819 465.655175 
L 238.78209 465.734366 
" style="fill:none;stroke:#55a868;stroke-linecap:round;stroke-width:1.75;"/>
   </g>
   <g id="line2d_15">
    <path clip-path="url(#pdca20f5d47)" d="M 31.057798 463.066329 
L 33.17806 461.622738 
L 35.298322 459.556049 
L 37.418584 456.663986 
L 39.538847 452.709135 
L 41.659109 447.425766 
L 43.779371 440.532974 
L 45.899633 431.754953 
L 48.019895 420.848318 
L 50.140157 407.635292 
L 52.26042 392.040146 
L 54.380682 374.124987 
L 56.500944 354.119895 
L 58.621206 332.44195 
L 60.741468 309.698079 
L 62.861731 286.667959 
L 64.981993 264.265513 
L 67.102255 243.480426 
L 69.222517 225.304288 
L 71.342779 210.648773 
L 73.463041 200.265179 
L 75.583304 194.67523 
L 77.703566 194.122077 
L 79.823828 198.547975 
L 81.94409 207.601578 
L 84.064352 220.673792 
L 86.184615 236.957288 
L 88.304877 255.521816 
L 90.425139 275.395812 
L 92.545401 295.644673 
L 94.665663 315.437326 
L 96.785925 334.095108 
L 98.906188 351.119877 
L 101.02645 366.201292 
L 103.146712 379.205731 
L 105.266974 390.151137 
L 107.387236 399.173013 
L 109.507499 406.486818 
L 111.627761 412.35141 
L 113.748023 417.037031 
L 115.868285 420.800038 
L 117.988547 423.865279 
L 120.108809 426.415921 
L 122.229072 428.589745 
L 124.349334 430.480486 
L 126.469596 432.142648 
L 128.589858 433.598354 
L 130.71012 434.845083 
L 132.830383 435.863463 
L 134.950645 436.62468 
L 137.070907 437.097249 
L 139.191169 437.253117 
L 141.311431 437.07303 
L 143.431694 436.551118 
L 145.551956 435.698514 
L 147.672218 434.545758 
L 149.79248 433.143712 
L 151.912742 431.562714 
L 154.033004 429.889864 
L 156.153267 428.224482 
L 158.273529 426.672018 
L 160.393791 425.336913 
L 162.514053 424.31508 
L 164.634315 423.686765 
L 166.754578 423.510562 
L 168.87484 423.819229 
L 170.995102 424.617752 
L 173.115364 425.883878 
L 175.235626 427.570984 
L 177.355888 429.612938 
L 179.476151 431.930351 
L 181.596413 434.43747 
L 183.716675 437.048968 
L 185.836937 439.685892 
L 187.957199 442.28025 
L 190.077462 444.777884 
L 192.197724 447.139556 
L 194.317986 449.340406 
L 196.438248 451.368118 
L 198.55851 453.220271 
L 200.678772 454.901367 
L 202.799035 456.419981 
L 204.919297 457.786404 
L 207.039559 459.010954 
L 209.159821 460.103023 
L 211.280083 461.070773 
L 213.400346 461.921328 
L 215.520608 462.66124 
L 217.64087 463.297032 
L 219.761132 463.835672 
L 221.881394 464.284849 
L 224.001656 464.653042 
L 226.121919 464.949377 
L 228.242181 465.183343 
L 230.362443 465.36443 
L 232.482705 465.501758 
L 234.602967 465.603756 
L 236.72323 465.677933 
L 238.843492 465.730741 
L 240.963754 465.76754 
" style="fill:none;stroke:#c44e52;stroke-linecap:round;stroke-width:1.75;"/>
   </g>
   <g id="line2d_16">
    <path clip-path="url(#pdca20f5d47)" d="M 45.685239 460.332185 
L 47.628045 456.132343 
L 49.57085 449.373119 
L 51.513655 438.957944 
L 53.456461 423.605339 
L 55.399266 401.9787 
L 57.342072 372.904829 
L 59.284877 335.669635 
L 61.227682 290.348806 
L 63.170488 238.100607 
L 65.113293 181.329647 
L 67.056099 123.636427 
L 68.998904 69.504428 
L 70.941709 23.739894 
L 72.398799 -1 
M 79.091829 -1 
L 80.655736 25.588342 
L 82.598542 69.966953 
L 84.541347 121.243777 
L 86.484153 174.922328 
L 88.426958 227.085585 
L 90.369763 274.807528 
L 92.312569 316.307046 
L 94.255374 350.871214 
L 96.19818 378.623326 
L 98.140985 400.227728 
L 100.08379 416.611297 
L 102.026596 428.751735 
L 103.969401 437.549408 
L 105.912206 443.773126 
L 107.855012 448.05604 
L 109.797817 450.91551 
L 111.740623 452.776599 
L 113.683428 453.988014 
L 115.626233 454.827914 
L 117.569039 455.50288 
L 119.511844 456.145706 
L 121.45465 456.817255 
L 123.397455 457.515411 
L 125.34026 458.191381 
L 127.283066 458.771252 
L 129.225871 459.179246 
L 131.168677 459.35874 
L 133.111482 459.287618 
L 135.054287 458.985673 
L 136.997093 458.513144 
L 138.939898 457.960975 
L 140.882704 457.434755 
L 142.825509 457.035424 
L 144.768314 456.840457 
L 146.71112 456.889261 
L 148.653925 457.175701 
L 150.596731 457.649279 
L 152.539536 458.224688 
L 154.482341 458.797796 
L 156.425147 459.264914 
L 158.367952 459.541727 
L 160.310758 459.578549 
L 162.253563 459.369325 
L 164.196368 458.952961 
L 166.139174 458.406833 
L 168.081979 457.833579 
L 170.024785 457.343447 
L 171.96759 457.035326 
L 173.910395 456.979926 
L 175.853201 457.20821 
L 177.796006 457.707079 
L 179.738812 458.422745 
L 181.681617 459.270522 
L 183.624422 460.148579 
L 185.567228 460.952719 
L 187.510033 461.589668 
L 189.452839 461.987348 
L 191.395644 462.101673 
L 193.338449 461.920204 
L 195.281255 461.463156 
L 197.22406 460.781977 
L 199.166866 459.955229 
L 201.109671 459.081317 
L 203.052476 458.267915 
L 204.995282 457.61879 
L 206.938087 457.219807 
L 208.880892 457.126679 
L 210.823698 457.357154 
L 212.766503 457.889554 
L 214.709309 458.668108 
L 216.652114 459.613854 
L 218.594919 460.638542 
L 220.537725 461.658403 
L 222.48053 462.605027 
L 224.423336 463.43166 
L 226.366141 464.114559 
L 228.308946 464.650271 
L 230.251752 465.050382 
L 232.194557 465.335444 
L 234.137363 465.529461 
L 236.080168 465.65575 
L 238.022973 465.734436 
" style="fill:none;stroke:#8172b2;stroke-linecap:round;stroke-width:1.75;"/>
   </g>
   <g id="line2d_17">
    <path clip-path="url(#pdca20f5d47)" d="M 82.797504 465.838125 
L 82.797504 22.318125 
" style="fill:none;stroke:#000000;stroke-dasharray:1.85,0.8;stroke-dashoffset:0;stroke-width:0.5;"/>
   </g>
   <g id="patch_3">
    <path d="M 20.5625 465.838125 
L 20.5625 22.318125 
" style="fill:none;stroke:#262626;stroke-linecap:square;stroke-linejoin:miter;stroke-width:1.25;"/>
   </g>
   <g id="patch_4">
    <path d="M 251.459052 465.838125 
L 251.459052 22.318125 
" style="fill:none;stroke:#262626;stroke-linecap:square;stroke-linejoin:miter;stroke-width:1.25;"/>
   </g>
   <g id="patch_5">
    <path d="M 20.5625 465.838125 
L 251.459052 465.838125 
" style="fill:none;stroke:#262626;stroke-linecap:square;stroke-linejoin:miter;stroke-width:1.25;"/>
   </g>
   <g id="patch_6">
    <path d="M 20.5625 22.318125 
L 251.459052 22.318125 
" style="fill:none;stroke:#262626;stroke-linecap:square;stroke-linejoin:miter;stroke-width:1.25;"/>
   </g>
   <g id="text_13">
    <!-- -2 -->
    <defs>
     <path d="M 4.890625 31.390625 
L 31.203125 31.390625 
L 31.203125 23.390625 
L 4.890625 23.390625 
z
" id="DejaVuSans-2d"/>
    </defs>
    <g style="fill:#262626;" transform="translate(130.028588 16.318125)scale(0.12 -0.12)">
     <use xlink:href="#DejaVuSans-2d"/>
     <use x="36.083984" xlink:href="#DejaVuSans-32"/>
    </g>
   </g>
   <g id="legend_1">
    <g id="line2d_18">
     <path d="M 176.985912 33.226504 
L 193.641912 33.226504 
" style="fill:none;stroke:#4c72b0;stroke-linecap:round;stroke-width:1.75;"/>
    </g>
    <g id="line2d_19"/>
    <g id="text_14">
     <!-- A: 85.94% -->
     <defs>
      <path d="M 34.1875 63.1875 
L 20.796875 26.90625 
L 47.609375 26.90625 
z
M 28.609375 72.90625 
L 39.796875 72.90625 
L 67.578125 0 
L 57.328125 0 
L 50.6875 18.703125 
L 17.828125 18.703125 
L 11.1875 0 
L 0.78125 0 
z
" id="DejaVuSans-41"/>
      <path d="M 11.71875 12.40625 
L 22.015625 12.40625 
L 22.015625 0 
L 11.71875 0 
z
M 11.71875 51.703125 
L 22.015625 51.703125 
L 22.015625 39.3125 
L 11.71875 39.3125 
z
" id="DejaVuSans-3a"/>
      <path id="DejaVuSans-20"/>
      <path d="M 31.78125 34.625 
Q 24.75 34.625 20.71875 30.859375 
Q 16.703125 27.09375 16.703125 20.515625 
Q 16.703125 13.921875 20.71875 10.15625 
Q 24.75 6.390625 31.78125 6.390625 
Q 38.8125 6.390625 42.859375 10.171875 
Q 46.921875 13.96875 46.921875 20.515625 
Q 46.921875 27.09375 42.890625 30.859375 
Q 38.875 34.625 31.78125 34.625 
z
M 21.921875 38.8125 
Q 15.578125 40.375 12.03125 44.71875 
Q 8.5 49.078125 8.5 55.328125 
Q 8.5 64.0625 14.71875 69.140625 
Q 20.953125 74.21875 31.78125 74.21875 
Q 42.671875 74.21875 48.875 69.140625 
Q 55.078125 64.0625 55.078125 55.328125 
Q 55.078125 49.078125 51.53125 44.71875 
Q 48 40.375 41.703125 38.8125 
Q 48.828125 37.15625 52.796875 32.3125 
Q 56.78125 27.484375 56.78125 20.515625 
Q 56.78125 9.90625 50.3125 4.234375 
Q 43.84375 -1.421875 31.78125 -1.421875 
Q 19.734375 -1.421875 13.25 4.234375 
Q 6.78125 9.90625 6.78125 20.515625 
Q 6.78125 27.484375 10.78125 32.3125 
Q 14.796875 37.15625 21.921875 38.8125 
z
M 18.3125 54.390625 
Q 18.3125 48.734375 21.84375 45.5625 
Q 25.390625 42.390625 31.78125 42.390625 
Q 38.140625 42.390625 41.71875 45.5625 
Q 45.3125 48.734375 45.3125 54.390625 
Q 45.3125 60.0625 41.71875 63.234375 
Q 38.140625 66.40625 31.78125 66.40625 
Q 25.390625 66.40625 21.84375 63.234375 
Q 18.3125 60.0625 18.3125 54.390625 
z
" id="DejaVuSans-38"/>
      <path d="M 10.984375 1.515625 
L 10.984375 10.5 
Q 14.703125 8.734375 18.5 7.8125 
Q 22.3125 6.890625 25.984375 6.890625 
Q 35.75 6.890625 40.890625 13.453125 
Q 46.046875 20.015625 46.78125 33.40625 
Q 43.953125 29.203125 39.59375 26.953125 
Q 35.25 24.703125 29.984375 24.703125 
Q 19.046875 24.703125 12.671875 31.3125 
Q 6.296875 37.9375 6.296875 49.421875 
Q 6.296875 60.640625 12.9375 67.421875 
Q 19.578125 74.21875 30.609375 74.21875 
Q 43.265625 74.21875 49.921875 64.515625 
Q 56.59375 54.828125 56.59375 36.375 
Q 56.59375 19.140625 48.40625 8.859375 
Q 40.234375 -1.421875 26.421875 -1.421875 
Q 22.703125 -1.421875 18.890625 -0.6875 
Q 15.09375 0.046875 10.984375 1.515625 
z
M 30.609375 32.421875 
Q 37.25 32.421875 41.125 36.953125 
Q 45.015625 41.5 45.015625 49.421875 
Q 45.015625 57.28125 41.125 61.84375 
Q 37.25 66.40625 30.609375 66.40625 
Q 23.96875 66.40625 20.09375 61.84375 
Q 16.21875 57.28125 16.21875 49.421875 
Q 16.21875 41.5 20.09375 36.953125 
Q 23.96875 32.421875 30.609375 32.421875 
z
" id="DejaVuSans-39"/>
      <path d="M 72.703125 32.078125 
Q 68.453125 32.078125 66.03125 28.46875 
Q 63.625 24.859375 63.625 18.40625 
Q 63.625 12.0625 66.03125 8.421875 
Q 68.453125 4.78125 72.703125 4.78125 
Q 76.859375 4.78125 79.265625 8.421875 
Q 81.6875 12.0625 81.6875 18.40625 
Q 81.6875 24.8125 79.265625 28.4375 
Q 76.859375 32.078125 72.703125 32.078125 
z
M 72.703125 38.28125 
Q 80.421875 38.28125 84.953125 32.90625 
Q 89.5 27.546875 89.5 18.40625 
Q 89.5 9.28125 84.9375 3.921875 
Q 80.375 -1.421875 72.703125 -1.421875 
Q 64.890625 -1.421875 60.34375 3.921875 
Q 55.8125 9.28125 55.8125 18.40625 
Q 55.8125 27.59375 60.375 32.9375 
Q 64.9375 38.28125 72.703125 38.28125 
z
M 22.3125 68.015625 
Q 18.109375 68.015625 15.6875 64.375 
Q 13.28125 60.75 13.28125 54.390625 
Q 13.28125 47.953125 15.671875 44.328125 
Q 18.0625 40.71875 22.3125 40.71875 
Q 26.5625 40.71875 28.96875 44.328125 
Q 31.390625 47.953125 31.390625 54.390625 
Q 31.390625 60.6875 28.953125 64.34375 
Q 26.515625 68.015625 22.3125 68.015625 
z
M 66.40625 74.21875 
L 74.21875 74.21875 
L 28.609375 -1.421875 
L 20.796875 -1.421875 
z
M 22.3125 74.21875 
Q 30.03125 74.21875 34.609375 68.875 
Q 39.203125 63.53125 39.203125 54.390625 
Q 39.203125 45.171875 34.640625 39.84375 
Q 30.078125 34.515625 22.3125 34.515625 
Q 14.546875 34.515625 10.03125 39.859375 
Q 5.515625 45.21875 5.515625 54.390625 
Q 5.515625 63.484375 10.046875 68.84375 
Q 14.59375 74.21875 22.3125 74.21875 
z
" id="DejaVuSans-25"/>
     </defs>
     <g style="fill:#262626;" transform="translate(200.304312 36.141304)scale(0.08328 -0.08328)">
      <use xlink:href="#DejaVuSans-41"/>
      <use x="68.392578" xlink:href="#DejaVuSans-3a"/>
      <use x="102.083984" xlink:href="#DejaVuSans-20"/>
      <use x="133.871094" xlink:href="#DejaVuSans-38"/>
      <use x="197.494141" xlink:href="#DejaVuSans-35"/>
      <use x="261.117188" xlink:href="#DejaVuSans-2e"/>
      <use x="292.904297" xlink:href="#DejaVuSans-39"/>
      <use x="356.527344" xlink:href="#DejaVuSans-34"/>
      <use x="420.150391" xlink:href="#DejaVuSans-25"/>
     </g>
    </g>
    <g id="line2d_20">
     <path d="M 176.985912 45.450446 
L 193.641912 45.450446 
" style="fill:none;stroke:#55a868;stroke-linecap:round;stroke-width:1.75;"/>
    </g>
    <g id="line2d_21"/>
    <g id="text_15">
     <!-- C: 84.38% -->
     <defs>
      <path d="M 64.40625 67.28125 
L 64.40625 56.890625 
Q 59.421875 61.53125 53.78125 63.8125 
Q 48.140625 66.109375 41.796875 66.109375 
Q 29.296875 66.109375 22.65625 58.46875 
Q 16.015625 50.828125 16.015625 36.375 
Q 16.015625 21.96875 22.65625 14.328125 
Q 29.296875 6.6875 41.796875 6.6875 
Q 48.140625 6.6875 53.78125 8.984375 
Q 59.421875 11.28125 64.40625 15.921875 
L 64.40625 5.609375 
Q 59.234375 2.09375 53.4375 0.328125 
Q 47.65625 -1.421875 41.21875 -1.421875 
Q 24.65625 -1.421875 15.125 8.703125 
Q 5.609375 18.84375 5.609375 36.375 
Q 5.609375 53.953125 15.125 64.078125 
Q 24.65625 74.21875 41.21875 74.21875 
Q 47.75 74.21875 53.53125 72.484375 
Q 59.328125 70.75 64.40625 67.28125 
z
" id="DejaVuSans-43"/>
     </defs>
     <g style="fill:#262626;" transform="translate(200.304312 48.365246)scale(0.08328 -0.08328)">
      <use xlink:href="#DejaVuSans-43"/>
      <use x="69.824219" xlink:href="#DejaVuSans-3a"/>
      <use x="103.515625" xlink:href="#DejaVuSans-20"/>
      <use x="135.302734" xlink:href="#DejaVuSans-38"/>
      <use x="198.925781" xlink:href="#DejaVuSans-34"/>
      <use x="262.548828" xlink:href="#DejaVuSans-2e"/>
      <use x="294.335938" xlink:href="#DejaVuSans-33"/>
      <use x="357.958984" xlink:href="#DejaVuSans-38"/>
      <use x="421.582031" xlink:href="#DejaVuSans-25"/>
     </g>
    </g>
    <g id="line2d_22">
     <path d="M 176.985912 57.674389 
L 193.641912 57.674389 
" style="fill:none;stroke:#c44e52;stroke-linecap:round;stroke-width:1.75;"/>
    </g>
    <g id="line2d_23"/>
    <g id="text_16">
     <!-- G: 67.19% -->
     <defs>
      <path d="M 59.515625 10.40625 
L 59.515625 29.984375 
L 43.40625 29.984375 
L 43.40625 38.09375 
L 69.28125 38.09375 
L 69.28125 6.78125 
Q 63.578125 2.734375 56.6875 0.65625 
Q 49.8125 -1.421875 42 -1.421875 
Q 24.90625 -1.421875 15.25 8.5625 
Q 5.609375 18.5625 5.609375 36.375 
Q 5.609375 54.25 15.25 64.234375 
Q 24.90625 74.21875 42 74.21875 
Q 49.125 74.21875 55.546875 72.453125 
Q 61.96875 70.703125 67.390625 67.28125 
L 67.390625 56.78125 
Q 61.921875 61.421875 55.765625 63.765625 
Q 49.609375 66.109375 42.828125 66.109375 
Q 29.4375 66.109375 22.71875 58.640625 
Q 16.015625 51.171875 16.015625 36.375 
Q 16.015625 21.625 22.71875 14.15625 
Q 29.4375 6.6875 42.828125 6.6875 
Q 48.046875 6.6875 52.140625 7.59375 
Q 56.25 8.5 59.515625 10.40625 
z
" id="DejaVuSans-47"/>
      <path d="M 33.015625 40.375 
Q 26.375 40.375 22.484375 35.828125 
Q 18.609375 31.296875 18.609375 23.390625 
Q 18.609375 15.53125 22.484375 10.953125 
Q 26.375 6.390625 33.015625 6.390625 
Q 39.65625 6.390625 43.53125 10.953125 
Q 47.40625 15.53125 47.40625 23.390625 
Q 47.40625 31.296875 43.53125 35.828125 
Q 39.65625 40.375 33.015625 40.375 
z
M 52.59375 71.296875 
L 52.59375 62.3125 
Q 48.875 64.0625 45.09375 64.984375 
Q 41.3125 65.921875 37.59375 65.921875 
Q 27.828125 65.921875 22.671875 59.328125 
Q 17.53125 52.734375 16.796875 39.40625 
Q 19.671875 43.65625 24.015625 45.921875 
Q 28.375 48.1875 33.59375 48.1875 
Q 44.578125 48.1875 50.953125 41.515625 
Q 57.328125 34.859375 57.328125 23.390625 
Q 57.328125 12.15625 50.6875 5.359375 
Q 44.046875 -1.421875 33.015625 -1.421875 
Q 20.359375 -1.421875 13.671875 8.265625 
Q 6.984375 17.96875 6.984375 36.375 
Q 6.984375 53.65625 15.1875 63.9375 
Q 23.390625 74.21875 37.203125 74.21875 
Q 40.921875 74.21875 44.703125 73.484375 
Q 48.484375 72.75 52.59375 71.296875 
z
" id="DejaVuSans-36"/>
     </defs>
     <g style="fill:#262626;" transform="translate(200.304312 60.589189)scale(0.08328 -0.08328)">
      <use xlink:href="#DejaVuSans-47"/>
      <use x="77.490234" xlink:href="#DejaVuSans-3a"/>
      <use x="111.181641" xlink:href="#DejaVuSans-20"/>
      <use x="142.96875" xlink:href="#DejaVuSans-36"/>
      <use x="206.591797" xlink:href="#DejaVuSans-37"/>
      <use x="270.214844" xlink:href="#DejaVuSans-2e"/>
      <use x="302.001953" xlink:href="#DejaVuSans-31"/>
      <use x="365.625" xlink:href="#DejaVuSans-39"/>
      <use x="429.248047" xlink:href="#DejaVuSans-25"/>
     </g>
    </g>
    <g id="line2d_24">
     <path d="M 176.985912 69.898331 
L 193.641912 69.898331 
" style="fill:none;stroke:#8172b2;stroke-linecap:round;stroke-width:1.75;"/>
    </g>
    <g id="line2d_25"/>
    <g id="text_17">
     <!-- T: 85.94% -->
     <defs>
      <path d="M -0.296875 72.90625 
L 61.375 72.90625 
L 61.375 64.59375 
L 35.5 64.59375 
L 35.5 0 
L 25.59375 0 
L 25.59375 64.59375 
L -0.296875 64.59375 
z
" id="DejaVuSans-54"/>
     </defs>
     <g style="fill:#262626;" transform="translate(200.304312 72.813131)scale(0.08328 -0.08328)">
      <use xlink:href="#DejaVuSans-54"/>
      <use x="60.912109" xlink:href="#DejaVuSans-3a"/>
      <use x="94.603516" xlink:href="#DejaVuSans-20"/>
      <use x="126.390625" xlink:href="#DejaVuSans-38"/>
      <use x="190.013672" xlink:href="#DejaVuSans-35"/>
      <use x="253.636719" xlink:href="#DejaVuSans-2e"/>
      <use x="285.423828" xlink:href="#DejaVuSans-39"/>
      <use x="349.046875" xlink:href="#DejaVuSans-34"/>
      <use x="412.669922" xlink:href="#DejaVuSans-25"/>
     </g>
    </g>
   </g>
  </g>
  <g id="axes_2">
   <g id="patch_7">
    <path d="M 297.638362 465.838125 
L 528.534914 465.838125 
L 528.534914 22.318125 
L 297.638362 22.318125 
z
" style="fill:#ffffff;"/>
   </g>
   <g id="matplotlib.axis_3">
    <g id="xtick_7">
     <g id="line2d_26"/>
     <g id="text_18">
      <!-- −0.25 -->
      <g style="fill:#262626;" transform="translate(290.991596 480.436562)scale(0.1 -0.1)">
       <use xlink:href="#DejaVuSans-2212"/>
       <use x="83.789062" xlink:href="#DejaVuSans-30"/>
       <use x="147.412109" xlink:href="#DejaVuSans-2e"/>
       <use x="179.199219" xlink:href="#DejaVuSans-32"/>
       <use x="242.822266" xlink:href="#DejaVuSans-35"/>
      </g>
     </g>
    </g>
    <g id="xtick_8">
     <g id="line2d_27"/>
     <g id="text_19">
      <!-- 0.00 -->
      <g style="fill:#262626;" transform="translate(332.645434 480.436562)scale(0.1 -0.1)">
       <use xlink:href="#DejaVuSans-30"/>
       <use x="63.623047" xlink:href="#DejaVuSans-2e"/>
       <use x="95.410156" xlink:href="#DejaVuSans-30"/>
       <use x="159.033203" xlink:href="#DejaVuSans-30"/>
      </g>
     </g>
    </g>
    <g id="xtick_9">
     <g id="line2d_28"/>
     <g id="text_20">
      <!-- 0.25 -->
      <g style="fill:#262626;" transform="translate(370.109428 480.436562)scale(0.1 -0.1)">
       <use xlink:href="#DejaVuSans-30"/>
       <use x="63.623047" xlink:href="#DejaVuSans-2e"/>
       <use x="95.410156" xlink:href="#DejaVuSans-32"/>
       <use x="159.033203" xlink:href="#DejaVuSans-35"/>
      </g>
     </g>
    </g>
    <g id="xtick_10">
     <g id="line2d_29"/>
     <g id="text_21">
      <!-- 0.50 -->
      <g style="fill:#262626;" transform="translate(407.573423 480.436562)scale(0.1 -0.1)">
       <use xlink:href="#DejaVuSans-30"/>
       <use x="63.623047" xlink:href="#DejaVuSans-2e"/>
       <use x="95.410156" xlink:href="#DejaVuSans-35"/>
       <use x="159.033203" xlink:href="#DejaVuSans-30"/>
      </g>
     </g>
    </g>
    <g id="xtick_11">
     <g id="line2d_30"/>
     <g id="text_22">
      <!-- 0.75 -->
      <g style="fill:#262626;" transform="translate(445.037417 480.436562)scale(0.1 -0.1)">
       <use xlink:href="#DejaVuSans-30"/>
       <use x="63.623047" xlink:href="#DejaVuSans-2e"/>
       <use x="95.410156" xlink:href="#DejaVuSans-37"/>
       <use x="159.033203" xlink:href="#DejaVuSans-35"/>
      </g>
     </g>
    </g>
    <g id="xtick_12">
     <g id="line2d_31"/>
     <g id="text_23">
      <!-- 1.00 -->
      <g style="fill:#262626;" transform="translate(482.501411 480.436562)scale(0.1 -0.1)">
       <use xlink:href="#DejaVuSans-31"/>
       <use x="63.623047" xlink:href="#DejaVuSans-2e"/>
       <use x="95.410156" xlink:href="#DejaVuSans-30"/>
       <use x="159.033203" xlink:href="#DejaVuSans-30"/>
      </g>
     </g>
    </g>
   </g>
   <g id="matplotlib.axis_4">
    <g id="ytick_7">
     <g id="line2d_32"/>
     <g id="text_24">
      <!-- 0 -->
      <g style="fill:#262626;" transform="translate(284.275862 469.637344)scale(0.1 -0.1)">
       <use xlink:href="#DejaVuSans-30"/>
      </g>
     </g>
    </g>
    <g id="ytick_8">
     <g id="line2d_33"/>
     <g id="text_25">
      <!-- 1 -->
      <g style="fill:#262626;" transform="translate(284.275862 380.933344)scale(0.1 -0.1)">
       <use xlink:href="#DejaVuSans-31"/>
      </g>
     </g>
    </g>
    <g id="ytick_9">
     <g id="line2d_34"/>
     <g id="text_26">
      <!-- 2 -->
      <g style="fill:#262626;" transform="translate(284.275862 292.229344)scale(0.1 -0.1)">
       <use xlink:href="#DejaVuSans-32"/>
      </g>
     </g>
    </g>
    <g id="ytick_10">
     <g id="line2d_35"/>
     <g id="text_27">
      <!-- 3 -->
      <g style="fill:#262626;" transform="translate(284.275862 203.525344)scale(0.1 -0.1)">
       <use xlink:href="#DejaVuSans-33"/>
      </g>
     </g>
    </g>
    <g id="ytick_11">
     <g id="line2d_36"/>
     <g id="text_28">
      <!-- 4 -->
      <g style="fill:#262626;" transform="translate(284.275862 114.821344)scale(0.1 -0.1)">
       <use xlink:href="#DejaVuSans-34"/>
      </g>
     </g>
    </g>
    <g id="ytick_12">
     <g id="line2d_37"/>
     <g id="text_29">
      <!-- 5 -->
      <g style="fill:#262626;" transform="translate(284.275862 26.117344)scale(0.1 -0.1)">
       <use xlink:href="#DejaVuSans-35"/>
      </g>
     </g>
    </g>
   </g>
   <g id="line2d_38">
    <path clip-path="url(#pcbeb6e8d3b)" d="M 331.850838 452.987286 
L 332.632185 443.387489 
L 333.413533 428.037173 
L 334.19488 404.495774 
L 334.976228 369.896025 
L 335.757575 321.208367 
L 336.538923 255.694861 
L 337.32027 171.535639 
L 338.101618 68.549403 
L 338.555663 -1 
M 349.902062 -1 
L 350.603178 93.268987 
L 351.384525 181.176364 
L 352.165873 251.558624 
L 352.94722 305.782795 
L 353.728568 346.226183 
L 354.509915 375.620826 
L 355.291263 396.574733 
L 356.07261 411.300166 
L 356.853958 421.524352 
L 357.635305 428.526864 
L 358.416653 433.240447 
L 359.198 436.362135 
L 359.979348 438.440697 
L 360.760695 439.926916 
L 361.542043 441.189595 
L 362.32339 442.509815 
L 363.104738 444.068648 
L 363.886085 445.940857 
L 364.667433 448.10131 
L 365.44878 450.444584 
L 366.230128 452.81334 
L 367.011475 455.028806 
L 367.792823 456.9171 
L 368.57417 458.327531 
L 369.355518 459.142191 
L 370.136865 459.278914 
L 370.918213 458.691081 
L 371.69956 457.367654 
L 372.480908 455.335335 
L 373.262255 452.662759 
L 374.043603 449.464734 
L 374.82495 445.903645 
L 375.606298 442.185272 
L 376.387645 438.547504 
L 377.168993 435.242229 
L 377.95034 432.512394 
L 378.731688 430.567481 
L 379.513035 429.561057 
L 380.294383 429.573747 
L 381.07573 430.604085 
L 381.857078 432.568514 
L 382.638425 435.310528 
L 383.419773 438.617623 
L 384.20112 442.243604 
L 384.982468 445.932957 
L 385.763815 449.443704 
L 386.545163 452.565713 
L 387.32651 455.132593 
L 388.107858 457.027103 
L 388.889205 458.181554 
L 389.670553 458.575755 
L 390.4519 458.234958 
L 391.233248 457.229166 
L 392.014595 455.673365 
L 392.795943 453.726513 
L 393.57729 451.586193 
L 394.358638 449.476288 
L 395.139985 447.626862 
L 395.921333 446.248119 
L 396.70268 445.502886 
L 397.484028 445.48359 
L 398.265375 446.199353 
L 399.046723 447.576751 
L 399.82807 449.474398 
L 400.609418 451.708092 
L 401.390765 454.080818 
L 402.172113 456.411154 
L 402.95346 458.554726 
L 403.734808 460.41571 
L 404.516155 461.948142 
L 405.297503 463.149076 
L 406.07885 464.046919 
L 406.860198 464.688415 
L 407.641545 465.127031 
L 408.422893 465.414325 
L 409.20424 465.594741 
" style="fill:none;stroke:#4c72b0;stroke-linecap:round;stroke-width:1.75;"/>
   </g>
   <g id="line2d_39">
    <path clip-path="url(#pcbeb6e8d3b)" d="M 310.990014 461.617 
L 312.843681 458.958753 
L 314.697349 454.934575 
L 316.551017 449.030963 
L 318.404685 440.641733 
L 320.258353 429.100463 
L 322.112021 413.739366 
L 323.965689 393.975751 
L 325.819357 369.421444 
L 327.673025 340.003461 
L 329.526693 306.077255 
L 331.38036 268.509023 
L 333.234028 228.703008 
L 335.087696 188.554805 
L 336.941364 150.322639 
L 338.795032 116.423771 
L 340.6487 89.1796 
L 342.502368 70.546431 
L 344.356036 61.875682 
L 346.209704 63.744835 
L 348.063372 75.888901 
L 349.917039 97.243792 
L 351.770707 126.092197 
L 353.624375 160.284318 
L 355.478043 197.494259 
L 357.331711 235.47018 
L 359.185379 272.242301 
L 361.039047 306.265023 
L 362.892715 336.484305 
L 364.746383 362.335214 
L 366.600051 383.684643 
L 368.453719 400.739277 
L 370.307386 413.939136 
L 372.161054 423.853817 
L 374.014722 431.093441 
L 375.86839 436.240897 
L 377.722058 439.807345 
L 379.575726 442.209534 
L 381.429394 443.765383 
L 383.283062 444.703236 
L 385.13673 445.179893 
L 386.990398 445.302722 
L 388.844065 445.151707 
L 390.697733 444.798105 
L 392.551401 444.317398 
L 394.405069 443.795391 
L 396.258737 443.327533 
L 398.112405 443.012584 
L 399.966073 442.942618 
L 401.819741 443.191766 
L 403.673409 443.806151 
L 405.527077 444.796987 
L 407.380744 446.138138 
L 409.234412 447.768454 
L 411.08808 449.598349 
L 412.941748 451.519372 
L 414.795416 453.415169 
L 416.649084 455.17222 
L 418.502752 456.689085 
L 420.35642 457.883406 
L 422.210088 458.696464 
L 424.063756 459.095543 
L 425.917423 459.074579 
L 427.771091 458.653515 
L 429.624759 457.876621 
L 431.478427 456.809733 
L 433.332095 455.536211 
L 435.185763 454.151402 
L 437.039431 452.755646 
L 438.893099 451.446233 
L 440.746767 450.309177 
L 442.600435 449.411958 
L 444.454102 448.79847 
L 446.30777 448.487066 
L 448.161438 448.47209 
L 450.015106 448.728499 
L 451.868774 449.21857 
L 453.722442 449.899219 
L 455.57611 450.728455 
L 457.429778 451.669783 
L 459.283446 452.694016 
L 461.137114 453.778652 
L 462.990781 454.905537 
L 464.844449 456.057914 
L 466.698117 457.217886 
L 468.551785 458.365094 
L 470.405453 459.476878 
L 472.259121 460.529779 
L 474.112789 461.501822 
L 475.966457 462.374942 
L 477.820125 463.136894 
L 479.673793 463.782273 
L 481.52746 464.312495 
L 483.381128 464.734863 
L 485.234796 465.061029 
L 487.088464 465.305188 
L 488.942132 465.482368 
L 490.7958 465.607022 
L 492.649468 465.692057 
L 494.503136 465.748313 
" style="fill:none;stroke:#55a868;stroke-linecap:round;stroke-width:1.75;"/>
   </g>
   <g id="line2d_40">
    <path clip-path="url(#pcbeb6e8d3b)" d="M 308.13366 461.855803 
L 310.253922 459.191207 
L 312.374184 455.081578 
L 314.494446 448.960934 
L 316.614709 440.16318 
L 318.734971 427.966901 
L 320.855233 411.674276 
L 322.975495 390.723974 
L 325.095757 364.829117 
L 327.21602 334.121213 
L 329.336282 299.271901 
L 331.456544 261.559802 
L 333.576806 222.852602 
L 335.697068 185.486302 
L 337.81733 152.043101 
L 339.937593 125.052833 
L 342.057855 106.664168 
L 344.178117 98.344467 
L 346.298379 100.666688 
L 348.418641 113.226792 
L 350.538904 134.709038 
L 352.659166 163.085829 
L 354.779428 195.911549 
L 356.89969 230.65298 
L 359.019952 264.996171 
L 361.140214 297.080492 
L 363.260477 325.630972 
L 365.380739 349.983707 
L 367.501001 370.020066 
L 369.621263 386.039217 
L 371.741525 398.60358 
L 373.861788 408.388768 
L 375.98205 416.061168 
L 378.102312 422.195444 
L 380.222574 427.2339 
L 382.342836 431.481707 
L 384.463098 435.127328 
L 386.583361 438.276111 
L 388.703623 440.986226 
L 390.823885 443.299032 
L 392.944147 445.259441 
L 395.064409 446.925244 
L 397.184672 448.366894 
L 399.304934 449.660795 
L 401.425196 450.879631 
L 403.545458 452.082934 
L 405.66572 453.310173 
L 407.785982 454.577565 
L 409.906245 455.878758 
L 412.026507 457.188665 
L 414.146769 458.469301 
L 416.267031 459.676227 
L 418.387293 460.764424 
L 420.507556 461.692722 
L 422.627818 462.426452 
L 424.74808 462.938447 
L 426.868342 463.208945 
L 428.988604 463.225152 
L 431.108866 462.981216 
L 433.229129 462.479105 
L 435.349391 461.730516 
L 437.469653 460.759405 
L 439.589915 459.604383 
L 441.710177 458.319926 
L 443.83044 456.975429 
L 445.950702 455.65143 
L 448.070964 454.432949 
L 450.191226 453.400595 
L 452.311488 452.620757 
L 454.43175 452.136672 
L 456.552013 451.962198 
L 458.672275 452.079805 
L 460.792537 452.443484 
L 462.912799 452.986339 
L 465.033061 453.631589 
L 467.153324 454.304987 
L 469.273586 454.946267 
L 471.393848 455.517476 
L 473.51411 456.006679 
L 475.634372 456.426516 
L 477.754635 456.808229 
L 479.874897 457.192638 
L 481.995159 457.620149 
L 484.115421 458.12189 
L 486.235683 458.713654 
L 488.355945 459.393561 
L 490.476208 460.143448 
L 492.59647 460.9332 
L 494.716732 461.726731 
L 496.836994 462.488164 
L 498.957256 463.187011 
L 501.077519 463.801533 
L 503.197781 464.320061 
L 505.318043 464.740477 
L 507.438305 465.068398 
L 509.558567 465.314705 
L 511.678829 465.493012 
L 513.799092 465.617506 
L 515.919354 465.701393 
L 518.039616 465.75597 
" style="fill:none;stroke:#c44e52;stroke-linecap:round;stroke-width:1.75;"/>
   </g>
   <g id="line2d_41">
    <path clip-path="url(#pcbeb6e8d3b)" d="M 330.816961 455.179145 
L 331.661578 447.258466 
L 332.506196 434.61223 
L 333.350813 415.236899 
L 334.19543 386.771696 
L 335.040048 346.706689 
L 335.884665 292.743016 
L 336.729283 223.293505 
L 337.5739 138.063626 
L 338.418518 38.601542 
L 338.72278 -1 
M 350.122181 -1 
L 350.243161 13.351515 
L 351.087779 102.37969 
L 351.932396 177.176507 
L 352.777013 236.707422 
L 353.621631 281.568614 
L 354.466248 313.473393 
L 355.310866 334.744943 
L 356.155483 347.894369 
L 357.0001 355.318258 
L 357.844718 359.114593 
L 358.689335 360.9953 
L 359.533953 362.267156 
L 360.37857 363.855309 
L 361.223188 366.349966 
L 362.067805 370.063073 
L 362.912422 375.086473 
L 363.75704 381.346191 
L 364.601657 388.649944 
L 365.446275 396.727103 
L 366.290892 405.262135 
L 367.135509 413.923479 
L 367.980127 422.389562 
L 368.824744 430.372485 
L 369.669362 437.638311 
L 370.513979 444.021758 
L 371.358596 449.433078 
L 372.203214 453.855848 
L 373.047831 457.336175 
L 373.892449 459.965471 
L 374.737066 461.860059 
L 375.581683 463.141107 
L 376.426301 463.917811 
L 377.270918 464.275765 
L 378.115536 464.271411 
L 378.960153 463.932636 
L 379.80477 463.265029 
L 380.649388 462.262822 
L 381.494005 460.923071 
L 382.338623 459.260949 
L 383.18324 457.32334 
L 384.027858 455.197486 
L 384.872475 453.011688 
L 385.717092 450.926153 
L 386.56171 449.114111 
L 387.406327 447.735817 
L 388.250945 446.910288 
L 389.095562 446.690922 
L 389.940179 447.050846 
L 390.784797 447.882023 
L 391.629414 449.009203 
L 392.474032 450.216553 
L 393.318649 451.282182 
L 394.163266 452.014289 
L 395.007884 452.282555 
L 395.852501 452.039465 
L 396.697119 451.32807 
L 397.541736 450.274955 
L 398.386353 449.069527 
L 399.230971 447.933019 
L 400.075588 447.082427 
L 400.920206 446.695756 
L 401.764823 446.884865 
L 402.60944 447.680815 
L 403.454058 449.034045 
L 404.298675 450.828456 
L 405.143293 452.905534 
L 405.98791 455.092757 
L 406.832528 457.23019 
L 407.677145 459.190406 
L 408.521762 460.889145 
L 409.36638 462.286617 
L 410.210997 463.381409 
L 411.055615 464.200038 
L 411.900232 464.7853 
L 412.744849 465.185881 
L 413.589467 465.448633 
L 414.434084 465.613933 
" style="fill:none;stroke:#8172b2;stroke-linecap:round;stroke-width:1.75;"/>
   </g>
   <g id="line2d_42">
    <path clip-path="url(#pcbeb6e8d3b)" d="M 351.271046 465.838125 
L 351.271046 22.318125 
" style="fill:none;stroke:#000000;stroke-dasharray:1.85,0.8;stroke-dashoffset:0;stroke-width:0.5;"/>
   </g>
   <g id="patch_8">
    <path d="M 297.638362 465.838125 
L 297.638362 22.318125 
" style="fill:none;stroke:#262626;stroke-linecap:square;stroke-linejoin:miter;stroke-width:1.25;"/>
   </g>
   <g id="patch_9">
    <path d="M 528.534914 465.838125 
L 528.534914 22.318125 
" style="fill:none;stroke:#262626;stroke-linecap:square;stroke-linejoin:miter;stroke-width:1.25;"/>
   </g>
   <g id="patch_10">
    <path d="M 297.638362 465.838125 
L 528.534914 465.838125 
" style="fill:none;stroke:#262626;stroke-linecap:square;stroke-linejoin:miter;stroke-width:1.25;"/>
   </g>
   <g id="patch_11">
    <path d="M 297.638362 22.318125 
L 528.534914 22.318125 
" style="fill:none;stroke:#262626;stroke-linecap:square;stroke-linejoin:miter;stroke-width:1.25;"/>
   </g>
   <g id="text_30">
    <!-- -1 -->
    <g style="fill:#262626;" transform="translate(407.10445 16.318125)scale(0.12 -0.12)">
     <use xlink:href="#DejaVuSans-2d"/>
     <use x="36.083984" xlink:href="#DejaVuSans-31"/>
    </g>
   </g>
   <g id="legend_2">
    <g id="line2d_43">
     <path d="M 454.061774 33.226504 
L 470.717774 33.226504 
" style="fill:none;stroke:#4c72b0;stroke-linecap:round;stroke-width:1.75;"/>
    </g>
    <g id="line2d_44"/>
    <g id="text_31">
     <!-- A: 90.62% -->
     <g style="fill:#262626;" transform="translate(477.380174 36.141304)scale(0.08328 -0.08328)">
      <use xlink:href="#DejaVuSans-41"/>
      <use x="68.392578" xlink:href="#DejaVuSans-3a"/>
      <use x="102.083984" xlink:href="#DejaVuSans-20"/>
      <use x="133.871094" xlink:href="#DejaVuSans-39"/>
      <use x="197.494141" xlink:href="#DejaVuSans-30"/>
      <use x="261.117188" xlink:href="#DejaVuSans-2e"/>
      <use x="292.904297" xlink:href="#DejaVuSans-36"/>
      <use x="356.527344" xlink:href="#DejaVuSans-32"/>
      <use x="420.150391" xlink:href="#DejaVuSans-25"/>
     </g>
    </g>
    <g id="line2d_45">
     <path d="M 454.061774 45.450446 
L 470.717774 45.450446 
" style="fill:none;stroke:#55a868;stroke-linecap:round;stroke-width:1.75;"/>
    </g>
    <g id="line2d_46"/>
    <g id="text_32">
     <!-- C: 81.25% -->
     <g style="fill:#262626;" transform="translate(477.380174 48.365246)scale(0.08328 -0.08328)">
      <use xlink:href="#DejaVuSans-43"/>
      <use x="69.824219" xlink:href="#DejaVuSans-3a"/>
      <use x="103.515625" xlink:href="#DejaVuSans-20"/>
      <use x="135.302734" xlink:href="#DejaVuSans-38"/>
      <use x="198.925781" xlink:href="#DejaVuSans-31"/>
      <use x="262.548828" xlink:href="#DejaVuSans-2e"/>
      <use x="294.335938" xlink:href="#DejaVuSans-32"/>
      <use x="357.958984" xlink:href="#DejaVuSans-35"/>
      <use x="421.582031" xlink:href="#DejaVuSans-25"/>
     </g>
    </g>
    <g id="line2d_47">
     <path d="M 454.061774 57.674389 
L 470.717774 57.674389 
" style="fill:none;stroke:#c44e52;stroke-linecap:round;stroke-width:1.75;"/>
    </g>
    <g id="line2d_48"/>
    <g id="text_33">
     <!-- G: 81.25% -->
     <g style="fill:#262626;" transform="translate(477.380174 60.589189)scale(0.08328 -0.08328)">
      <use xlink:href="#DejaVuSans-47"/>
      <use x="77.490234" xlink:href="#DejaVuSans-3a"/>
      <use x="111.181641" xlink:href="#DejaVuSans-20"/>
      <use x="142.96875" xlink:href="#DejaVuSans-38"/>
      <use x="206.591797" xlink:href="#DejaVuSans-31"/>
      <use x="270.214844" xlink:href="#DejaVuSans-2e"/>
      <use x="302.001953" xlink:href="#DejaVuSans-32"/>
      <use x="365.625" xlink:href="#DejaVuSans-35"/>
      <use x="429.248047" xlink:href="#DejaVuSans-25"/>
     </g>
    </g>
    <g id="line2d_49">
     <path d="M 454.061774 69.898331 
L 470.717774 69.898331 
" style="fill:none;stroke:#8172b2;stroke-linecap:round;stroke-width:1.75;"/>
    </g>
    <g id="line2d_50"/>
    <g id="text_34">
     <!-- T: 85.94% -->
     <g style="fill:#262626;" transform="translate(477.380174 72.813131)scale(0.08328 -0.08328)">
      <use xlink:href="#DejaVuSans-54"/>
      <use x="60.912109" xlink:href="#DejaVuSans-3a"/>
      <use x="94.603516" xlink:href="#DejaVuSans-20"/>
      <use x="126.390625" xlink:href="#DejaVuSans-38"/>
      <use x="190.013672" xlink:href="#DejaVuSans-35"/>
      <use x="253.636719" xlink:href="#DejaVuSans-2e"/>
      <use x="285.423828" xlink:href="#DejaVuSans-39"/>
      <use x="349.046875" xlink:href="#DejaVuSans-34"/>
      <use x="412.669922" xlink:href="#DejaVuSans-25"/>
     </g>
    </g>
   </g>
  </g>
  <g id="axes_3">
   <g id="patch_12">
    <path d="M 574.714224 465.838125 
L 805.610776 465.838125 
L 805.610776 22.318125 
L 574.714224 22.318125 
z
" style="fill:#ffffff;"/>
   </g>
   <g id="matplotlib.axis_5">
    <g id="xtick_13">
     <g id="line2d_51"/>
     <g id="text_35">
      <!-- 0.0 -->
      <g style="fill:#262626;" transform="translate(617.764713 480.436562)scale(0.1 -0.1)">
       <use xlink:href="#DejaVuSans-30"/>
       <use x="63.623047" xlink:href="#DejaVuSans-2e"/>
       <use x="95.410156" xlink:href="#DejaVuSans-30"/>
      </g>
     </g>
    </g>
    <g id="xtick_14">
     <g id="line2d_52"/>
     <g id="text_36">
      <!-- 0.5 -->
      <g style="fill:#262626;" transform="translate(682.861908 480.436562)scale(0.1 -0.1)">
       <use xlink:href="#DejaVuSans-30"/>
       <use x="63.623047" xlink:href="#DejaVuSans-2e"/>
       <use x="95.410156" xlink:href="#DejaVuSans-35"/>
      </g>
     </g>
    </g>
    <g id="xtick_15">
     <g id="line2d_53"/>
     <g id="text_37">
      <!-- 1.0 -->
      <g style="fill:#262626;" transform="translate(747.959103 480.436562)scale(0.1 -0.1)">
       <use xlink:href="#DejaVuSans-31"/>
       <use x="63.623047" xlink:href="#DejaVuSans-2e"/>
       <use x="95.410156" xlink:href="#DejaVuSans-30"/>
      </g>
     </g>
    </g>
   </g>
   <g id="matplotlib.axis_6">
    <g id="ytick_13">
     <g id="line2d_54"/>
     <g id="text_38">
      <!-- 0 -->
      <g style="fill:#262626;" transform="translate(561.351724 469.637344)scale(0.1 -0.1)">
       <use xlink:href="#DejaVuSans-30"/>
      </g>
     </g>
    </g>
    <g id="ytick_14">
     <g id="line2d_55"/>
     <g id="text_39">
      <!-- 1 -->
      <g style="fill:#262626;" transform="translate(561.351724 380.933344)scale(0.1 -0.1)">
       <use xlink:href="#DejaVuSans-31"/>
      </g>
     </g>
    </g>
    <g id="ytick_15">
     <g id="line2d_56"/>
     <g id="text_40">
      <!-- 2 -->
      <g style="fill:#262626;" transform="translate(561.351724 292.229344)scale(0.1 -0.1)">
       <use xlink:href="#DejaVuSans-32"/>
      </g>
     </g>
    </g>
    <g id="ytick_16">
     <g id="line2d_57"/>
     <g id="text_41">
      <!-- 3 -->
      <g style="fill:#262626;" transform="translate(561.351724 203.525344)scale(0.1 -0.1)">
       <use xlink:href="#DejaVuSans-33"/>
      </g>
     </g>
    </g>
    <g id="ytick_17">
     <g id="line2d_58"/>
     <g id="text_42">
      <!-- 4 -->
      <g style="fill:#262626;" transform="translate(561.351724 114.821344)scale(0.1 -0.1)">
       <use xlink:href="#DejaVuSans-34"/>
      </g>
     </g>
    </g>
    <g id="ytick_18">
     <g id="line2d_59"/>
     <g id="text_43">
      <!-- 5 -->
      <g style="fill:#262626;" transform="translate(561.351724 26.117344)scale(0.1 -0.1)">
       <use xlink:href="#DejaVuSans-35"/>
      </g>
     </g>
    </g>
   </g>
   <g id="line2d_60">
    <path clip-path="url(#p0cd2235754)" d="M 585.209522 464.616749 
L 587.329784 463.889663 
L 589.450046 462.802996 
L 591.570308 461.221485 
L 593.690571 458.980684 
L 595.810833 455.890673 
L 597.931095 451.745071 
L 600.051357 446.336284 
L 602.171619 439.477138 
L 604.291882 431.027888 
L 606.412144 420.926204 
L 608.532406 409.216385 
L 610.652668 396.073009 
L 612.77293 381.813934 
L 614.893193 366.898181 
L 617.013455 351.905946 
L 619.133717 337.500543 
L 621.253979 324.375188 
L 623.374241 313.190462 
L 625.494503 304.510491 
L 627.614766 298.746747 
L 629.735028 296.117625 
L 631.85529 296.629654 
L 633.975552 300.082835 
L 636.095814 306.098715 
L 638.216077 314.166394 
L 640.336339 323.699142 
L 642.456601 334.093325 
L 644.576863 344.781796 
L 646.697125 355.27568 
L 648.817387 365.19098 
L 650.93765 374.259188 
L 653.057912 382.323503 
L 655.178174 389.323984 
L 657.298436 395.275887 
L 659.418698 400.245505 
L 661.538961 404.327225 
L 663.659223 407.624539 
L 665.779485 410.236539 
L 667.899747 412.250267 
L 670.020009 413.738351 
L 672.140271 414.760667 
L 674.260534 415.368453 
L 676.380796 415.609249 
L 678.501058 415.531336 
L 680.62132 415.18672 
L 682.741582 414.632265 
L 684.861845 413.929035 
L 686.982107 413.140252 
L 689.102369 412.328494 
L 691.222631 411.552737 
L 693.342893 410.865718 
L 695.463155 410.31187 
L 697.583418 409.9259 
L 699.70368 409.731889 
L 701.823942 409.742794 
L 703.944204 409.960278 
L 706.064466 410.374886 
L 708.184729 410.966739 
L 710.304991 411.706918 
L 712.425253 412.559727 
L 714.545515 413.485847 
L 716.665777 414.446218 
L 718.786039 415.406289 
L 720.906302 416.340099 
L 723.026564 417.233622 
L 725.146826 418.086866 
L 727.267088 418.91437 
L 729.38735 419.744006 
L 731.507613 420.614224 
L 733.627875 421.570085 
L 735.748137 422.658578 
L 737.868399 423.923755 
L 739.988661 425.402161 
L 742.108923 427.118987 
L 744.229186 429.085229 
L 746.349448 431.296049 
L 748.46971 433.730422 
L 750.589972 436.352091 
L 752.710234 439.111747 
L 754.830497 441.950281 
L 756.950759 444.802854 
L 759.071021 447.603428 
L 761.191283 450.289341 
L 763.311545 452.805473 
L 765.431807 455.107591 
L 767.55207 457.164554 
L 769.672332 458.959201 
L 771.792594 460.48795 
L 773.912856 461.759256 
L 776.033118 462.791254 
L 778.153381 463.608932 
L 780.273643 464.241241 
L 782.393905 464.718429 
L 784.514167 465.069863 
L 786.634429 465.322425 
L 788.754692 465.499539 
L 790.874954 465.620734 
L 792.995216 465.701654 
L 795.115478 465.754372 
" style="fill:none;stroke:#000000;stroke-linecap:round;stroke-width:1.75;"/>
   </g>
   <g id="line2d_61">
    <path clip-path="url(#p0cd2235754)" d="M 632.225995 465.838125 
L 632.225995 22.318125 
" style="fill:none;stroke:#000000;stroke-dasharray:1.85,0.8;stroke-dashoffset:0;stroke-width:0.5;"/>
   </g>
   <g id="patch_13">
    <path d="M 574.714224 465.838125 
L 574.714224 22.318125 
" style="fill:none;stroke:#262626;stroke-linecap:square;stroke-linejoin:miter;stroke-width:1.25;"/>
   </g>
   <g id="patch_14">
    <path d="M 805.610776 465.838125 
L 805.610776 22.318125 
" style="fill:none;stroke:#262626;stroke-linecap:square;stroke-linejoin:miter;stroke-width:1.25;"/>
   </g>
   <g id="patch_15">
    <path d="M 574.714224 465.838125 
L 805.610776 465.838125 
" style="fill:none;stroke:#262626;stroke-linecap:square;stroke-linejoin:miter;stroke-width:1.25;"/>
   </g>
   <g id="patch_16">
    <path d="M 574.714224 22.318125 
L 805.610776 22.318125 
" style="fill:none;stroke:#262626;stroke-linecap:square;stroke-linejoin:miter;stroke-width:1.25;"/>
   </g>
   <g id="text_44">
    <!-- +0 -->
    <defs>
     <path d="M 46 62.703125 
L 46 35.5 
L 73.1875 35.5 
L 73.1875 27.203125 
L 46 27.203125 
L 46 0 
L 37.796875 0 
L 37.796875 27.203125 
L 10.59375 27.203125 
L 10.59375 35.5 
L 37.796875 35.5 
L 37.796875 62.703125 
z
" id="DejaVuSans-2b"/>
    </defs>
    <g style="fill:#262626;" transform="translate(681.317188 16.318125)scale(0.12 -0.12)">
     <use xlink:href="#DejaVuSans-2b"/>
     <use x="83.789062" xlink:href="#DejaVuSans-30"/>
    </g>
   </g>
   <g id="legend_3">
    <g id="line2d_62">
     <path d="M 731.885855 33.226504 
L 748.541855 33.226504 
" style="fill:none;stroke:#000000;stroke-linecap:round;stroke-width:1.75;"/>
    </g>
    <g id="line2d_63"/>
    <g id="text_45">
     <!-- X: 37.50% -->
     <defs>
      <path d="M 6.296875 72.90625 
L 16.890625 72.90625 
L 35.015625 45.796875 
L 53.21875 72.90625 
L 63.8125 72.90625 
L 40.375 37.890625 
L 65.375 0 
L 54.78125 0 
L 34.28125 31 
L 13.625 0 
L 2.984375 0 
L 29 38.921875 
z
" id="DejaVuSans-58"/>
     </defs>
     <g style="fill:#262626;" transform="translate(755.204255 36.141304)scale(0.08328 -0.08328)">
      <use xlink:href="#DejaVuSans-58"/>
      <use x="68.505859" xlink:href="#DejaVuSans-3a"/>
      <use x="102.197266" xlink:href="#DejaVuSans-20"/>
      <use x="133.984375" xlink:href="#DejaVuSans-33"/>
      <use x="197.607422" xlink:href="#DejaVuSans-37"/>
      <use x="261.230469" xlink:href="#DejaVuSans-2e"/>
      <use x="293.017578" xlink:href="#DejaVuSans-35"/>
      <use x="356.640625" xlink:href="#DejaVuSans-30"/>
      <use x="420.263672" xlink:href="#DejaVuSans-25"/>
     </g>
    </g>
   </g>
  </g>
  <g id="axes_4">
   <g id="patch_17">
    <path d="M 851.790086 465.838125 
L 1082.686638 465.838125 
L 1082.686638 22.318125 
L 851.790086 22.318125 
z
" style="fill:#ffffff;"/>
   </g>
   <g id="matplotlib.axis_7">
    <g id="xtick_16">
     <g id="line2d_64"/>
     <g id="text_46">
      <!-- 0.0 -->
      <g style="fill:#262626;" transform="translate(901.644844 480.436562)scale(0.1 -0.1)">
       <use xlink:href="#DejaVuSans-30"/>
       <use x="63.623047" xlink:href="#DejaVuSans-2e"/>
       <use x="95.410156" xlink:href="#DejaVuSans-30"/>
      </g>
     </g>
    </g>
    <g id="xtick_17">
     <g id="line2d_65"/>
     <g id="text_47">
      <!-- 0.5 -->
      <g style="fill:#262626;" transform="translate(961.132798 480.436562)scale(0.1 -0.1)">
       <use xlink:href="#DejaVuSans-30"/>
       <use x="63.623047" xlink:href="#DejaVuSans-2e"/>
       <use x="95.410156" xlink:href="#DejaVuSans-35"/>
      </g>
     </g>
    </g>
    <g id="xtick_18">
     <g id="line2d_66"/>
     <g id="text_48">
      <!-- 1.0 -->
      <g style="fill:#262626;" transform="translate(1020.620752 480.436562)scale(0.1 -0.1)">
       <use xlink:href="#DejaVuSans-31"/>
       <use x="63.623047" xlink:href="#DejaVuSans-2e"/>
       <use x="95.410156" xlink:href="#DejaVuSans-30"/>
      </g>
     </g>
    </g>
   </g>
   <g id="matplotlib.axis_8">
    <g id="ytick_19">
     <g id="line2d_67"/>
     <g id="text_49">
      <!-- 0 -->
      <g style="fill:#262626;" transform="translate(838.427586 469.637344)scale(0.1 -0.1)">
       <use xlink:href="#DejaVuSans-30"/>
      </g>
     </g>
    </g>
    <g id="ytick_20">
     <g id="line2d_68"/>
     <g id="text_50">
      <!-- 1 -->
      <g style="fill:#262626;" transform="translate(838.427586 380.933344)scale(0.1 -0.1)">
       <use xlink:href="#DejaVuSans-31"/>
      </g>
     </g>
    </g>
    <g id="ytick_21">
     <g id="line2d_69"/>
     <g id="text_51">
      <!-- 2 -->
      <g style="fill:#262626;" transform="translate(838.427586 292.229344)scale(0.1 -0.1)">
       <use xlink:href="#DejaVuSans-32"/>
      </g>
     </g>
    </g>
    <g id="ytick_22">
     <g id="line2d_70"/>
     <g id="text_52">
      <!-- 3 -->
      <g style="fill:#262626;" transform="translate(838.427586 203.525344)scale(0.1 -0.1)">
       <use xlink:href="#DejaVuSans-33"/>
      </g>
     </g>
    </g>
    <g id="ytick_23">
     <g id="line2d_71"/>
     <g id="text_53">
      <!-- 4 -->
      <g style="fill:#262626;" transform="translate(838.427586 114.821344)scale(0.1 -0.1)">
       <use xlink:href="#DejaVuSans-34"/>
      </g>
     </g>
    </g>
    <g id="ytick_24">
     <g id="line2d_72"/>
     <g id="text_54">
      <!-- 5 -->
      <g style="fill:#262626;" transform="translate(838.427586 26.117344)scale(0.1 -0.1)">
       <use xlink:href="#DejaVuSans-35"/>
      </g>
     </g>
    </g>
   </g>
   <g id="line2d_73">
    <path clip-path="url(#pb0c6094053)" d="M 862.285384 464.999619 
L 864.351604 464.603854 
L 866.417824 464.05076 
L 868.484044 463.291696 
L 870.550264 462.268819 
L 872.616484 460.915569 
L 874.682704 459.158146 
L 876.748924 456.918177 
L 878.815144 454.116701 
L 880.881364 450.679476 
L 882.947584 446.543454 
L 885.013804 441.664056 
L 887.080024 436.022707 
L 889.146244 429.633903 
L 891.212464 422.550975 
L 893.278684 414.869699 
L 895.344904 406.728997 
L 897.411124 398.308171 
L 899.477344 389.820463 
L 901.543564 381.503102 
L 903.609784 373.604446 
L 905.676004 366.36919 
L 907.742224 360.022931 
L 909.808444 354.757499 
L 911.874664 350.71846 
L 913.940884 347.99599 
L 916.007104 346.619931 
L 918.073324 346.559443 
L 920.139544 347.727103 
L 922.205765 349.986905 
L 924.271985 353.165189 
L 926.338205 357.063343 
L 928.404425 361.471036 
L 930.470645 366.178804 
L 932.536865 370.989053 
L 934.603085 375.724789 
L 936.669305 380.235741 
L 938.735525 384.401825 
L 940.801745 388.13416 
L 942.867965 391.374035 
L 944.934185 394.090336 
L 947.000405 396.275952 
L 949.066625 397.943676 
L 951.132845 399.122031 
L 953.199065 399.851344 
L 955.265285 400.180316 
L 957.331505 400.163202 
L 959.397725 399.857645 
L 961.463945 399.323102 
L 963.530165 398.619767 
L 965.596385 397.807834 
L 967.662605 396.946902 
L 969.728825 396.09538 
L 971.795045 395.309699 
L 973.861265 394.643269 
L 975.927485 394.145132 
L 977.993705 393.858383 
L 980.059925 393.818496 
L 982.126145 394.051758 
L 984.192365 394.574064 
L 986.258585 395.390297 
L 988.324805 396.494494 
L 990.391025 397.870866 
L 992.457245 399.495668 
L 994.523465 401.339737 
L 996.589685 403.371429 
L 998.655905 405.559602 
L 1000.722125 407.876251 
L 1002.788345 410.298453 
L 1004.854565 412.809362 
L 1006.920785 415.398149 
L 1008.987005 418.058913 
L 1011.053225 420.788769 
L 1013.119445 423.585444 
L 1015.185665 426.444743 
L 1017.251885 429.358322 
L 1019.318105 432.312069 
L 1021.384325 435.285371 
L 1023.450545 438.251333 
L 1025.516765 441.177924 
L 1027.582985 444.029866 
L 1029.649205 446.770997 
L 1031.715425 449.366798 
L 1033.781645 451.786769 
L 1035.847865 454.00638 
L 1037.914085 456.008428 
L 1039.980306 457.783689 
L 1042.046526 459.330875 
L 1044.112746 460.655988 
L 1046.178966 461.771192 
L 1048.245186 462.693397 
L 1050.311406 463.442714 
L 1052.377626 464.040947 
L 1054.443846 464.510248 
L 1056.510066 464.87201 
L 1058.576286 465.146041 
L 1060.642506 465.350026 
L 1062.708726 465.499249 
L 1064.774946 465.606532 
L 1066.841166 465.682337 
" style="fill:none;stroke:#4c72b0;stroke-linecap:round;stroke-width:1.75;"/>
   </g>
   <g id="line2d_74">
    <path clip-path="url(#pb0c6094053)" d="M 866.397839 465.431712 
L 868.433857 465.213481 
L 870.469875 464.895623 
L 872.505894 464.441903 
L 874.541912 463.807215 
L 876.57793 462.937201 
L 878.613949 461.768619 
L 880.649967 460.23072 
L 882.685985 458.247842 
L 884.722004 455.743346 
L 886.758022 452.644862 
L 888.79404 448.890636 
L 890.830059 444.436567 
L 892.866077 439.26331 
L 894.902095 433.382702 
L 896.938114 426.842671 
L 898.974132 419.729859 
L 901.01015 412.169347 
L 903.046169 404.321128 
L 905.082187 396.373366 
L 907.118205 388.532824 
L 909.154224 381.013219 
L 911.190242 374.022521 
L 913.22626 367.750354 
L 915.262279 362.356622 
L 917.298297 357.962348 
L 919.334316 354.643412 
L 921.370334 352.427551 
L 923.406352 351.294614 
L 925.442371 351.179772 
L 927.478389 351.979145 
L 929.514407 353.557191 
L 931.550426 355.755173 
L 933.586444 358.400103 
L 935.622462 361.313642 
L 937.658481 364.320606 
L 939.694499 367.256833 
L 941.730517 369.976243 
L 943.766536 372.356977 
L 945.802554 374.306475 
L 947.838572 375.765315 
L 949.874591 376.7096 
L 951.910609 377.15164 
L 953.946627 377.138705 
L 955.982646 376.749725 
L 958.018664 376.089939 
L 960.054682 375.283717 
L 962.090701 374.465974 
L 964.126719 373.772819 
L 966.162737 373.332183 
L 968.198756 373.255239 
L 970.234774 373.629366 
L 972.270792 374.513226 
L 974.306811 375.934309 
L 976.342829 377.889004 
L 978.378848 380.344974 
L 980.414866 383.245424 
L 982.450884 386.514651 
L 984.486903 390.064253 
L 986.522921 393.799406 
L 988.558939 397.624708 
L 990.594958 401.449287 
L 992.630976 405.190988 
L 994.666994 408.779639 
L 996.703013 412.159442 
L 998.739031 415.290597 
L 1000.775049 418.150243 
L 1002.811068 420.732714 
L 1004.847086 423.049082 
L 1006.883104 425.125879 
L 1008.919123 427.002913 
L 1010.955141 428.730137 
L 1012.991159 430.363652 
L 1015.027178 431.961057 
L 1017.063196 433.576511 
L 1019.099214 435.25598 
L 1021.135233 437.033184 
L 1023.171251 438.926721 
L 1025.207269 440.938715 
L 1027.243288 443.055158 
L 1029.279306 445.247872 
L 1031.315324 447.477823 
L 1033.351343 449.699339 
L 1035.387361 451.864679 
L 1037.42338 453.928421 
L 1039.459398 455.851168 
L 1041.495416 457.602255 
L 1043.531435 459.161267 
L 1045.567453 460.518383 
L 1047.603471 461.673685 
L 1049.63949 462.635689 
L 1051.675508 463.419397 
L 1053.711526 464.044162 
L 1055.747545 464.531632 
L 1057.783563 464.903961 
L 1059.819581 465.182398 
L 1061.8556 465.386297 
L 1063.891618 465.53253 
L 1065.927636 465.635256 
L 1067.963655 465.705947 
" style="fill:none;stroke:#55a868;stroke-linecap:round;stroke-width:1.75;"/>
   </g>
   <g id="line2d_75">
    <path clip-path="url(#pb0c6094053)" d="M 866.096357 464.753503 
L 868.178125 464.182748 
L 870.259892 463.360764 
L 872.34166 462.202509 
L 874.423427 460.60588 
L 876.505195 458.45317 
L 878.586962 455.614871 
L 880.66873 451.956259 
L 882.750497 447.34695 
L 884.832265 441.673227 
L 886.914032 434.852431 
L 888.9958 426.848214 
L 891.077567 417.684943 
L 893.159335 407.459257 
L 895.241102 396.346741 
L 897.32287 384.60192 
L 899.404637 372.550477 
L 901.486405 360.573447 
L 903.568172 349.084298 
L 905.64994 338.500842 
L 907.731707 329.214824 
L 909.813475 321.562519 
L 911.895242 315.799678 
L 913.97701 312.083634 
L 916.058777 310.464444 
L 918.140545 310.885713 
L 920.222312 313.194485 
L 922.30408 317.158447 
L 924.385847 322.487988 
L 926.467615 328.860275 
L 928.549382 335.942711 
L 930.63115 343.413599 
L 932.712917 350.978612 
L 934.794685 358.382458 
L 936.876452 365.415839 
L 938.95822 371.918336 
L 941.039987 377.778127 
L 943.121755 382.929466 
L 945.203522 387.348741 
L 947.28529 391.049683 
L 949.367057 394.078046 
L 951.448825 396.505897 
L 953.530592 398.425526 
L 955.61236 399.942999 
L 957.694127 401.171425 
L 959.775895 402.224123 
L 961.857662 403.207999 
L 963.93943 404.217504 
L 966.021197 405.329606 
L 968.102965 406.600135 
L 970.184732 408.06179 
L 972.2665 409.723955 
L 974.348267 411.574286 
L 976.430035 413.581886 
L 978.511802 415.701736 
L 980.59357 417.879928 
L 982.675337 420.059222 
L 984.757105 422.184393 
L 986.838872 424.20695 
L 988.92064 426.088833 
L 991.002407 427.804885 
L 993.084175 429.343981 
L 995.165942 430.70887 
L 997.24771 431.914893 
L 999.329477 432.987813 
L 1001.411245 433.961049 
L 1003.493012 434.872617 
L 1005.57478 435.762031 
L 1007.656547 436.667403 
L 1009.738315 437.622901 
L 1011.820082 438.656672 
L 1013.90185 439.789314 
L 1015.983618 441.032922 
L 1018.065385 442.390715 
L 1020.147153 443.857229 
L 1022.22892 445.419032 
L 1024.310688 447.055906 
L 1026.392455 448.742391 
L 1028.474223 450.449577 
L 1030.55599 452.147026 
L 1032.637758 453.804657 
L 1034.719525 455.394487 
L 1036.801293 456.892082 
L 1038.88306 458.277667 
L 1040.964828 459.536808 
L 1043.046595 460.660677 
L 1045.128363 461.645923 
L 1047.21013 462.494199 
L 1049.291898 463.211429 
L 1051.373665 463.806904 
L 1053.455433 464.292305 
L 1055.5372 464.680732 
L 1057.618968 464.985824 
L 1059.700735 465.221001 
L 1061.782503 465.398885 
L 1063.86427 465.53089 
L 1065.946038 465.626984 
L 1068.027805 465.695594 
L 1070.109573 465.743633 
L 1072.19134 465.776616 
" style="fill:none;stroke:#c44e52;stroke-linecap:round;stroke-width:1.75;"/>
   </g>
   <g id="line2d_76">
    <path clip-path="url(#pb0c6094053)" d="M 866.423727 465.331797 
L 868.485661 465.058389 
L 870.547596 464.660112 
L 872.60953 464.092019 
L 874.671465 463.298659 
L 876.733399 462.213999 
L 878.795334 460.762435 
L 880.857268 458.861198 
L 882.919203 456.424385 
L 884.981137 453.368688 
L 887.043072 449.620668 
L 889.105006 445.125163 
L 891.16694 439.854099 
L 893.228875 433.814784 
L 895.290809 427.056555 
L 897.352744 419.674681 
L 899.414678 411.810585 
L 901.476613 403.647766 
L 903.538547 395.403333 
L 905.600482 387.315591 
L 907.662416 379.628698 
L 909.724351 372.57586 
L 911.786285 366.362786 
L 913.848219 361.153156 
L 915.910154 357.057626 
L 917.972088 354.12746 
L 920.034023 352.353314 
L 922.095957 351.66907 
L 924.157892 351.960096 
L 926.219826 353.074822 
L 928.281761 354.838333 
L 930.343695 357.066545 
L 932.40563 359.579672 
L 934.467564 362.213854 
L 936.529498 364.830156 
L 938.591433 367.320425 
L 940.653367 369.609869 
L 942.715302 371.656481 
L 944.777236 373.447748 
L 946.839171 374.995275 
L 948.901105 376.328112 
L 950.96304 377.485631 
L 953.024974 378.510779 
L 955.086909 379.444384 
L 957.148843 380.321009 
L 959.210777 381.166587 
L 961.272712 381.997791 
L 963.334646 382.822904 
L 965.396581 383.643751 
L 967.458515 384.458228 
L 969.52045 385.26297 
L 971.582384 386.055795 
L 973.644319 386.837691 
L 975.706253 387.614265 
L 977.768188 388.396636 
L 979.830122 389.201845 
L 981.892056 390.052842 
L 983.953991 390.978057 
L 986.015925 392.010562 
L 988.07786 393.186746 
L 990.139794 394.544486 
L 992.201729 396.120791 
L 994.263663 397.949025 
L 996.325598 400.055891 
L 998.387532 402.45846 
L 1000.449467 405.161604 
L 1002.511401 408.156173 
L 1004.573335 411.418248 
L 1006.63527 414.909618 
L 1008.697204 418.579565 
L 1010.759139 422.367784 
L 1012.821073 426.208168 
L 1014.883008 430.033047 
L 1016.944942 433.777414 
L 1019.006877 437.382699 
L 1021.068811 440.799715 
L 1023.130746 443.990548 
L 1025.19268 446.92929 
L 1027.254614 449.601708 
L 1029.316549 452.004026 
L 1031.378483 454.141117 
L 1033.440418 456.024401 
L 1035.502352 457.669761 
L 1037.564287 459.09567 
L 1039.626221 460.321702 
L 1041.688156 461.367462 
L 1043.75009 462.251922 
L 1045.812024 462.993073 
L 1047.873959 463.60781 
L 1049.935893 464.11193 
L 1051.997828 464.520179 
L 1054.059762 464.846277 
L 1056.121697 465.102913 
L 1058.183631 465.301699 
L 1060.245566 465.453113 
L 1062.3075 465.566433 
L 1064.369435 465.649711 
L 1066.431369 465.709771 
L 1068.493303 465.752261 
L 1070.555238 465.781736 
" style="fill:none;stroke:#8172b2;stroke-linecap:round;stroke-width:1.75;"/>
   </g>
   <g id="line2d_77">
    <path clip-path="url(#pb0c6094053)" d="M 915.545202 465.838125 
L 915.545202 22.318125 
" style="fill:none;stroke:#000000;stroke-dasharray:1.85,0.8;stroke-dashoffset:0;stroke-width:0.5;"/>
   </g>
   <g id="patch_18">
    <path d="M 851.790086 465.838125 
L 851.790086 22.318125 
" style="fill:none;stroke:#262626;stroke-linecap:square;stroke-linejoin:miter;stroke-width:1.25;"/>
   </g>
   <g id="patch_19">
    <path d="M 1082.686638 465.838125 
L 1082.686638 22.318125 
" style="fill:none;stroke:#262626;stroke-linecap:square;stroke-linejoin:miter;stroke-width:1.25;"/>
   </g>
   <g id="patch_20">
    <path d="M 851.790086 465.838125 
L 1082.686638 465.838125 
" style="fill:none;stroke:#262626;stroke-linecap:square;stroke-linejoin:miter;stroke-width:1.25;"/>
   </g>
   <g id="patch_21">
    <path d="M 851.790086 22.318125 
L 1082.686638 22.318125 
" style="fill:none;stroke:#262626;stroke-linecap:square;stroke-linejoin:miter;stroke-width:1.25;"/>
   </g>
   <g id="text_55">
    <!-- +1 -->
    <g style="fill:#262626;" transform="translate(958.39305 16.318125)scale(0.12 -0.12)">
     <use xlink:href="#DejaVuSans-2b"/>
     <use x="83.789062" xlink:href="#DejaVuSans-31"/>
    </g>
   </g>
   <g id="legend_4">
    <g id="line2d_78">
     <path d="M 1008.213498 33.226504 
L 1024.869498 33.226504 
" style="fill:none;stroke:#4c72b0;stroke-linecap:round;stroke-width:1.75;"/>
    </g>
    <g id="line2d_79"/>
    <g id="text_56">
     <!-- A: 28.12% -->
     <g style="fill:#262626;" transform="translate(1031.531898 36.141304)scale(0.08328 -0.08328)">
      <use xlink:href="#DejaVuSans-41"/>
      <use x="68.392578" xlink:href="#DejaVuSans-3a"/>
      <use x="102.083984" xlink:href="#DejaVuSans-20"/>
      <use x="133.871094" xlink:href="#DejaVuSans-32"/>
      <use x="197.494141" xlink:href="#DejaVuSans-38"/>
      <use x="261.117188" xlink:href="#DejaVuSans-2e"/>
      <use x="292.904297" xlink:href="#DejaVuSans-31"/>
      <use x="356.527344" xlink:href="#DejaVuSans-32"/>
      <use x="420.150391" xlink:href="#DejaVuSans-25"/>
     </g>
    </g>
    <g id="line2d_80">
     <path d="M 1008.213498 45.450446 
L 1024.869498 45.450446 
" style="fill:none;stroke:#55a868;stroke-linecap:round;stroke-width:1.75;"/>
    </g>
    <g id="line2d_81"/>
    <g id="text_57">
     <!-- C: 14.06% -->
     <g style="fill:#262626;" transform="translate(1031.531898 48.365246)scale(0.08328 -0.08328)">
      <use xlink:href="#DejaVuSans-43"/>
      <use x="69.824219" xlink:href="#DejaVuSans-3a"/>
      <use x="103.515625" xlink:href="#DejaVuSans-20"/>
      <use x="135.302734" xlink:href="#DejaVuSans-31"/>
      <use x="198.925781" xlink:href="#DejaVuSans-34"/>
      <use x="262.548828" xlink:href="#DejaVuSans-2e"/>
      <use x="294.335938" xlink:href="#DejaVuSans-30"/>
      <use x="357.958984" xlink:href="#DejaVuSans-36"/>
      <use x="421.582031" xlink:href="#DejaVuSans-25"/>
     </g>
    </g>
    <g id="line2d_82">
     <path d="M 1008.213498 57.674389 
L 1024.869498 57.674389 
" style="fill:none;stroke:#c44e52;stroke-linecap:round;stroke-width:1.75;"/>
    </g>
    <g id="line2d_83"/>
    <g id="text_58">
     <!-- G: 35.94% -->
     <g style="fill:#262626;" transform="translate(1031.531898 60.589189)scale(0.08328 -0.08328)">
      <use xlink:href="#DejaVuSans-47"/>
      <use x="77.490234" xlink:href="#DejaVuSans-3a"/>
      <use x="111.181641" xlink:href="#DejaVuSans-20"/>
      <use x="142.96875" xlink:href="#DejaVuSans-33"/>
      <use x="206.591797" xlink:href="#DejaVuSans-35"/>
      <use x="270.214844" xlink:href="#DejaVuSans-2e"/>
      <use x="302.001953" xlink:href="#DejaVuSans-39"/>
      <use x="365.625" xlink:href="#DejaVuSans-34"/>
      <use x="429.248047" xlink:href="#DejaVuSans-25"/>
     </g>
    </g>
    <g id="line2d_84">
     <path d="M 1008.213498 69.898331 
L 1024.869498 69.898331 
" style="fill:none;stroke:#8172b2;stroke-linecap:round;stroke-width:1.75;"/>
    </g>
    <g id="line2d_85"/>
    <g id="text_59">
     <!-- T: 18.75% -->
     <g style="fill:#262626;" transform="translate(1031.531898 72.813131)scale(0.08328 -0.08328)">
      <use xlink:href="#DejaVuSans-54"/>
      <use x="60.912109" xlink:href="#DejaVuSans-3a"/>
      <use x="94.603516" xlink:href="#DejaVuSans-20"/>
      <use x="126.390625" xlink:href="#DejaVuSans-31"/>
      <use x="190.013672" xlink:href="#DejaVuSans-38"/>
      <use x="253.636719" xlink:href="#DejaVuSans-2e"/>
      <use x="285.423828" xlink:href="#DejaVuSans-37"/>
      <use x="349.046875" xlink:href="#DejaVuSans-35"/>
      <use x="412.669922" xlink:href="#DejaVuSans-25"/>
     </g>
    </g>
   </g>
  </g>
  <g id="axes_5">
   <g id="patch_22">
    <path d="M 1128.865948 465.838125 
L 1359.7625 465.838125 
L 1359.7625 22.318125 
L 1128.865948 22.318125 
z
" style="fill:#ffffff;"/>
   </g>
   <g id="matplotlib.axis_9">
    <g id="xtick_19">
     <g id="line2d_86"/>
     <g id="text_60">
      <!-- −0.5 -->
      <g style="fill:#262626;" transform="translate(1119.326093 480.436562)scale(0.1 -0.1)">
       <use xlink:href="#DejaVuSans-2212"/>
       <use x="83.789062" xlink:href="#DejaVuSans-30"/>
       <use x="147.412109" xlink:href="#DejaVuSans-2e"/>
       <use x="179.199219" xlink:href="#DejaVuSans-35"/>
      </g>
     </g>
    </g>
    <g id="xtick_20">
     <g id="line2d_87"/>
     <g id="text_61">
      <!-- 0.0 -->
      <g style="fill:#262626;" transform="translate(1180.052372 480.436562)scale(0.1 -0.1)">
       <use xlink:href="#DejaVuSans-30"/>
       <use x="63.623047" xlink:href="#DejaVuSans-2e"/>
       <use x="95.410156" xlink:href="#DejaVuSans-30"/>
      </g>
     </g>
    </g>
    <g id="xtick_21">
     <g id="line2d_88"/>
     <g id="text_62">
      <!-- 0.5 -->
      <g style="fill:#262626;" transform="translate(1236.588807 480.436562)scale(0.1 -0.1)">
       <use xlink:href="#DejaVuSans-30"/>
       <use x="63.623047" xlink:href="#DejaVuSans-2e"/>
       <use x="95.410156" xlink:href="#DejaVuSans-35"/>
      </g>
     </g>
    </g>
    <g id="xtick_22">
     <g id="line2d_89"/>
     <g id="text_63">
      <!-- 1.0 -->
      <g style="fill:#262626;" transform="translate(1293.125242 480.436562)scale(0.1 -0.1)">
       <use xlink:href="#DejaVuSans-31"/>
       <use x="63.623047" xlink:href="#DejaVuSans-2e"/>
       <use x="95.410156" xlink:href="#DejaVuSans-30"/>
      </g>
     </g>
    </g>
    <g id="xtick_23">
     <g id="line2d_90"/>
     <g id="text_64">
      <!-- 1.5 -->
      <g style="fill:#262626;" transform="translate(1349.661678 480.436562)scale(0.1 -0.1)">
       <use xlink:href="#DejaVuSans-31"/>
       <use x="63.623047" xlink:href="#DejaVuSans-2e"/>
       <use x="95.410156" xlink:href="#DejaVuSans-35"/>
      </g>
     </g>
    </g>
   </g>
   <g id="matplotlib.axis_10">
    <g id="ytick_25">
     <g id="line2d_91"/>
     <g id="text_65">
      <!-- 0 -->
      <g style="fill:#262626;" transform="translate(1115.503448 469.637344)scale(0.1 -0.1)">
       <use xlink:href="#DejaVuSans-30"/>
      </g>
     </g>
    </g>
    <g id="ytick_26">
     <g id="line2d_92"/>
     <g id="text_66">
      <!-- 1 -->
      <g style="fill:#262626;" transform="translate(1115.503448 380.933344)scale(0.1 -0.1)">
       <use xlink:href="#DejaVuSans-31"/>
      </g>
     </g>
    </g>
    <g id="ytick_27">
     <g id="line2d_93"/>
     <g id="text_67">
      <!-- 2 -->
      <g style="fill:#262626;" transform="translate(1115.503448 292.229344)scale(0.1 -0.1)">
       <use xlink:href="#DejaVuSans-32"/>
      </g>
     </g>
    </g>
    <g id="ytick_28">
     <g id="line2d_94"/>
     <g id="text_68">
      <!-- 3 -->
      <g style="fill:#262626;" transform="translate(1115.503448 203.525344)scale(0.1 -0.1)">
       <use xlink:href="#DejaVuSans-33"/>
      </g>
     </g>
    </g>
    <g id="ytick_29">
     <g id="line2d_95"/>
     <g id="text_69">
      <!-- 4 -->
      <g style="fill:#262626;" transform="translate(1115.503448 114.821344)scale(0.1 -0.1)">
       <use xlink:href="#DejaVuSans-34"/>
      </g>
     </g>
    </g>
    <g id="ytick_30">
     <g id="line2d_96"/>
     <g id="text_70">
      <!-- 5 -->
      <g style="fill:#262626;" transform="translate(1115.503448 26.117344)scale(0.1 -0.1)">
       <use xlink:href="#DejaVuSans-35"/>
      </g>
     </g>
    </g>
   </g>
   <g id="line2d_97">
    <path clip-path="url(#pf7ebed145f)" d="M 1139.361246 464.960763 
L 1141.481508 464.539344 
L 1143.60177 463.946405 
L 1145.722033 463.12695 
L 1147.842295 462.014676 
L 1149.962557 460.532108 
L 1152.082819 458.591799 
L 1154.203081 456.098877 
L 1156.323344 452.955161 
L 1158.443606 449.064934 
L 1160.563868 444.342278 
L 1162.68413 438.719687 
L 1164.804392 432.157397 
L 1166.924654 424.652663 
L 1169.044917 416.248027 
L 1171.165179 407.037528 
L 1173.285441 397.169835 
L 1175.405703 386.847459 
L 1177.525965 376.32152 
L 1179.646228 365.881963 
L 1181.76649 355.843624 
L 1183.886752 346.52905 
L 1186.007014 338.24941 
L 1188.127276 331.285117 
L 1190.247538 325.86792 
L 1192.367801 322.166104 
L 1194.488063 320.274133 
L 1196.608325 320.207642 
L 1198.728587 321.904091 
L 1200.848849 325.228848 
L 1202.969112 329.985943 
L 1205.089374 335.932325 
L 1207.209636 342.794249 
L 1209.329898 350.284334 
L 1211.45016 358.117936 
L 1213.570422 366.027711 
L 1215.690685 373.775535 
L 1217.810947 381.161287 
L 1219.931209 388.028313 
L 1222.051471 394.265657 
L 1224.171733 399.807371 
L 1226.291996 404.629345 
L 1228.412258 408.744196 
L 1230.53252 412.194762 
L 1232.652782 415.046792 
L 1234.773044 417.381324 
L 1236.893306 419.287265 
L 1239.013569 420.85456 
L 1241.133831 422.168299 
L 1243.254093 423.303996 
L 1245.374355 424.324202 
L 1247.494617 425.276486 
L 1249.61488 426.192751 
L 1251.735142 427.089742 
L 1253.855404 427.970561 
L 1255.975666 428.826952 
L 1258.095928 429.642099 
L 1260.216191 430.393709 
L 1262.336453 431.057148 
L 1264.456715 431.608471 
L 1266.576977 432.027202 
L 1268.697239 432.298758 
L 1270.817501 432.416449 
L 1272.937764 432.382974 
L 1275.058026 432.211368 
L 1277.178288 431.925317 
L 1279.29855 431.558788 
L 1281.418812 431.154939 
L 1283.539075 430.76427 
L 1285.659337 430.442086 
L 1287.779599 430.245347 
L 1289.899861 430.229096 
L 1292.020123 430.442725 
L 1294.140385 430.926365 
L 1296.260648 431.707747 
L 1298.38091 432.799838 
L 1300.501172 434.199524 
L 1302.621434 435.887496 
L 1304.741696 437.829396 
L 1306.861959 439.97812 
L 1308.982221 442.277076 
L 1311.102483 444.664068 
L 1313.222745 447.075437 
L 1315.343007 449.450068 
L 1317.463269 451.732902 
L 1319.583532 453.877682 
L 1321.703794 455.848759 
L 1323.824056 457.621903 
L 1325.944318 459.18416 
L 1328.06458 460.532919 
L 1330.184843 461.674379 
L 1332.305105 462.621654 
L 1334.425367 463.392738 
L 1336.545629 464.008543 
L 1338.665891 464.491145 
L 1340.786153 464.862357 
L 1342.906416 465.142646 
L 1345.026678 465.350426 
L 1347.14694 465.501668 
L 1349.267202 465.609775 
" style="fill:none;stroke:#4c72b0;stroke-linecap:round;stroke-width:1.75;"/>
   </g>
   <g id="line2d_98">
    <path clip-path="url(#pf7ebed145f)" d="M 1140.899732 465.509194 
L 1142.980919 465.347845 
L 1145.062105 465.119151 
L 1147.143292 464.800746 
L 1149.224478 464.36531 
L 1151.305665 463.780441 
L 1153.386851 463.008921 
L 1155.468038 462.009485 
L 1157.549225 460.738217 
L 1159.630411 459.150609 
L 1161.711598 457.204289 
L 1163.792784 454.862312 
L 1165.873971 452.096854 
L 1167.955158 448.892983 
L 1170.036344 445.252193 
L 1172.117531 441.195248 
L 1174.198717 436.763943 
L 1176.279904 432.021413 
L 1178.36109 427.050734 
L 1180.442277 421.951721 
L 1182.523464 416.836037 
L 1184.60465 411.820908 
L 1186.685837 407.021953 
L 1188.767023 402.545761 
L 1190.84821 398.482926 
L 1192.929396 394.902245 
L 1195.010583 391.84666 
L 1197.09177 389.331373 
L 1199.172956 387.344314 
L 1201.254143 385.848882 
L 1203.335329 384.788651 
L 1205.416516 384.093514 
L 1207.497702 383.686597 
L 1209.578889 383.491232 
L 1211.660076 383.437291 
L 1213.741262 383.466288 
L 1215.822449 383.534818 
L 1217.903635 383.616101 
L 1219.984822 383.699597 
L 1222.066008 383.788876 
L 1224.147195 383.898082 
L 1226.228382 384.04748 
L 1228.309568 384.258633 
L 1230.390755 384.54979 
L 1232.471941 384.932027 
L 1234.553128 385.406587 
L 1236.634314 385.963716 
L 1238.715501 386.583127 
L 1240.796688 387.236009 
L 1242.877874 387.888325 
L 1244.959061 388.504945 
L 1247.040247 389.054058 
L 1249.121434 389.51127 
L 1251.20262 389.862798 
L 1253.283807 390.107329 
L 1255.364994 390.25626 
L 1257.44618 390.332314 
L 1259.527367 390.366753 
L 1261.608553 390.395626 
L 1263.68974 390.455673 
L 1265.770926 390.580534 
L 1267.852113 390.797881 
L 1269.9333 391.127924 
L 1272.014486 391.583513 
L 1274.095673 392.171755 
L 1276.176859 392.896792 
L 1278.258046 393.763171 
L 1280.339232 394.779108 
L 1282.420419 395.958926 
L 1284.501606 397.324118 
L 1286.582792 398.902673 
L 1288.663979 400.726639 
L 1290.745165 402.828195 
L 1292.826352 405.234777 
L 1294.907539 407.963985 
L 1296.988725 411.01906 
L 1299.069912 414.38564 
L 1301.151098 418.030326 
L 1303.232285 421.901305 
L 1305.313471 425.930995 
L 1307.394658 430.040378 
L 1309.475845 434.144483 
L 1311.557031 438.158339 
L 1313.638218 442.00272 
L 1315.719404 445.609066 
L 1317.800591 448.923125 
L 1319.881777 451.907081 
L 1321.962964 454.540109 
L 1324.044151 456.817524 
L 1326.125337 458.74879 
L 1328.206524 460.354776 
L 1330.28771 461.664625 
L 1332.368897 462.712614 
L 1334.450083 463.535269 
L 1336.53127 464.168948 
L 1338.612457 464.647986 
L 1340.693643 465.003432 
L 1342.77483 465.262332 
L 1344.856016 465.447466 
L 1346.937203 465.577448 
" style="fill:none;stroke:#55a868;stroke-linecap:round;stroke-width:1.75;"/>
   </g>
   <g id="line2d_99">
    <path clip-path="url(#pf7ebed145f)" d="M 1139.388837 465.085782 
L 1141.479988 464.734502 
L 1143.571139 464.244776 
L 1145.66229 463.574006 
L 1147.753441 462.67148 
L 1149.844592 461.478723 
L 1151.935743 459.930685 
L 1154.026894 457.957944 
L 1156.118045 455.490055 
L 1158.209196 452.460045 
L 1160.300347 448.809976 
L 1162.391498 444.497256 
L 1164.48265 439.50127 
L 1166.573801 433.829721 
L 1168.664952 427.523956 
L 1170.756103 420.662525 
L 1172.847254 413.362282 
L 1174.938405 405.776492 
L 1177.029556 398.089673 
L 1179.120707 390.509242 
L 1181.211858 383.254409 
L 1183.303009 376.543116 
L 1185.39416 370.578119 
L 1187.485311 365.533468 
L 1189.576462 361.542697 
L 1191.667613 358.689876 
L 1193.758764 357.004409 
L 1195.849916 356.46008 
L 1197.941067 356.978396 
L 1200.032218 358.435833 
L 1202.123369 360.674228 
L 1204.21452 363.51324 
L 1206.305671 366.763724 
L 1208.396822 370.240774 
L 1210.487973 373.7754 
L 1212.579124 377.223926 
L 1214.670275 380.474557 
L 1216.761426 383.450806 
L 1218.852577 386.11179 
L 1220.943728 388.449676 
L 1223.034879 390.484742 
L 1225.126031 392.258696 
L 1227.217182 393.826972 
L 1229.308333 395.250754 
L 1231.399484 396.589444 
L 1233.490635 397.894194 
L 1235.581786 399.202989 
L 1237.672937 400.537603 
L 1239.764088 401.902532 
L 1241.855239 403.285847 
L 1243.94639 404.661698 
L 1246.037541 405.994087 
L 1248.128692 407.241417 
L 1250.219843 408.361323 
L 1252.310994 409.315284 
L 1254.402145 410.072627 
L 1256.493297 410.61363 
L 1258.584448 410.931565 
L 1260.675599 411.033664 
L 1262.76675 410.941056 
L 1264.857901 410.687845 
L 1266.949052 410.319497 
L 1269.040203 409.890705 
L 1271.131354 409.462912 
L 1273.222505 409.101578 
L 1275.313656 408.873301 
L 1277.404807 408.842843 
L 1279.495958 409.070132 
L 1281.587109 409.607308 
L 1283.67826 410.495946 
L 1285.769412 411.7646 
L 1287.860563 413.426846 
L 1289.951714 415.480018 
L 1292.042865 417.904806 
L 1294.134016 420.665822 
L 1296.225167 423.713182 
L 1298.316318 426.985039 
L 1300.407469 430.4109 
L 1302.49862 433.915497 
L 1304.589771 437.42289 
L 1306.680922 440.860466 
L 1308.772073 444.162532 
L 1310.863224 447.273212 
L 1312.954375 450.148479 
L 1315.045526 452.757215 
L 1317.136678 455.081323 
L 1319.227829 457.114979 
L 1321.31898 458.863193 
L 1323.410131 460.339903 
L 1325.501282 461.565793 
L 1327.592433 462.566089 
L 1329.683584 463.36847 
L 1331.774735 464.001255 
L 1333.865886 464.491934 
L 1335.957037 464.866078 
L 1338.048188 465.146632 
L 1340.139339 465.35353 
L 1342.23049 465.503595 
L 1344.321641 465.610653 
L 1346.412793 465.685777 
" style="fill:none;stroke:#c44e52;stroke-linecap:round;stroke-width:1.75;"/>
   </g>
   <g id="line2d_100">
    <path clip-path="url(#pf7ebed145f)" d="M 1141.821968 465.249542 
L 1143.851402 464.968671 
L 1145.880835 464.574722 
L 1147.910268 464.032117 
L 1149.939701 463.298268 
L 1151.969134 462.323784 
L 1153.998568 461.053356 
L 1156.028001 459.427474 
L 1158.057434 457.385056 
L 1160.086867 454.867012 
L 1162.1163 451.820641 
L 1164.145734 448.204603 
L 1166.175167 443.994126 
L 1168.2046 439.185939 
L 1170.234033 433.802398 
L 1172.263466 427.894233 
L 1174.2929 421.541427 
L 1176.322333 414.851878 
L 1178.351766 407.957717 
L 1180.381199 401.009392 
L 1182.410632 394.167922 
L 1184.440066 387.595917 
L 1186.469499 381.448168 
L 1188.498932 375.862664 
L 1190.528365 370.952851 
L 1192.557798 366.801843 
L 1194.587232 363.459035 
L 1196.616665 360.939363 
L 1198.646098 359.225112 
L 1200.675531 358.269987 
L 1202.704964 358.004914 
L 1204.734398 358.344946 
L 1206.763831 359.196594 
L 1208.793264 360.464907 
L 1210.822697 362.059736 
L 1212.85213 363.900712 
L 1214.881564 365.920655 
L 1216.910997 368.067251 
L 1218.94043 370.303039 
L 1220.969863 372.603883 
L 1222.999296 374.95624 
L 1225.02873 377.353624 
L 1227.058163 379.792742 
L 1229.087596 382.269773 
L 1231.117029 384.777205 
L 1233.146462 387.301599 
L 1235.175896 389.822464 
L 1237.205329 392.312334 
L 1239.234762 394.737961 
L 1241.264195 397.06242 
L 1243.293628 399.247819 
L 1245.323062 401.258274 
L 1247.352495 403.062782 
L 1249.381928 404.637679 
L 1251.411361 405.968443 
L 1253.440794 407.050702 
L 1255.470228 407.89041 
L 1257.499661 408.503256 
L 1259.529094 408.913464 
L 1261.558527 409.152204 
L 1263.58796 409.255835 
L 1265.617394 409.264222 
L 1267.646827 409.219305 
L 1269.67626 409.164014 
L 1271.705693 409.141548 
L 1273.735126 409.194936 
L 1275.764559 409.366725 
L 1277.793993 409.698587 
L 1279.823426 410.230653 
L 1281.852859 411.000419 
L 1283.882292 412.041159 
L 1285.911725 413.379917 
L 1287.941159 415.035226 
L 1289.970592 417.014854 
L 1292.000025 419.313892 
L 1294.029458 421.913538 
L 1296.058891 424.780836 
L 1298.088325 427.869553 
L 1300.117758 431.1222 
L 1302.147191 434.473076 
L 1304.176624 437.852059 
L 1306.206057 441.188763 
L 1308.235491 444.416656 
L 1310.264924 447.476741 
L 1312.294357 450.32045 
L 1314.32379 452.911559 
L 1316.353223 455.227006 
L 1318.382657 457.256665 
L 1320.41209 459.002216 
L 1322.441523 460.475338 
L 1324.470956 461.695479 
L 1326.500389 462.687475 
L 1328.529823 463.479238 
L 1330.559256 464.099707 
L 1332.588689 464.577161 
L 1334.618122 464.937969 
L 1336.647555 465.205757 
L 1338.676989 465.400974 
L 1340.706422 465.540768 
L 1342.735855 465.639108 
" style="fill:none;stroke:#8172b2;stroke-linecap:round;stroke-width:1.75;"/>
   </g>
   <g id="line2d_101">
    <path clip-path="url(#pf7ebed145f)" d="M 1193.657578 465.838125 
L 1193.657578 22.318125 
" style="fill:none;stroke:#000000;stroke-dasharray:1.85,0.8;stroke-dashoffset:0;stroke-width:0.5;"/>
   </g>
   <g id="patch_23">
    <path d="M 1128.865948 465.838125 
L 1128.865948 22.318125 
" style="fill:none;stroke:#262626;stroke-linecap:square;stroke-linejoin:miter;stroke-width:1.25;"/>
   </g>
   <g id="patch_24">
    <path d="M 1359.7625 465.838125 
L 1359.7625 22.318125 
" style="fill:none;stroke:#262626;stroke-linecap:square;stroke-linejoin:miter;stroke-width:1.25;"/>
   </g>
   <g id="patch_25">
    <path d="M 1128.865948 465.838125 
L 1359.7625 465.838125 
" style="fill:none;stroke:#262626;stroke-linecap:square;stroke-linejoin:miter;stroke-width:1.25;"/>
   </g>
   <g id="patch_26">
    <path d="M 1128.865948 22.318125 
L 1359.7625 22.318125 
" style="fill:none;stroke:#262626;stroke-linecap:square;stroke-linejoin:miter;stroke-width:1.25;"/>
   </g>
   <g id="text_71">
    <!-- +2 -->
    <g style="fill:#262626;" transform="translate(1235.468912 16.318125)scale(0.12 -0.12)">
     <use xlink:href="#DejaVuSans-2b"/>
     <use x="83.789062" xlink:href="#DejaVuSans-32"/>
    </g>
   </g>
   <g id="legend_5">
    <g id="line2d_102">
     <path d="M 1285.28936 33.226504 
L 1301.94536 33.226504 
" style="fill:none;stroke:#4c72b0;stroke-linecap:round;stroke-width:1.75;"/>
    </g>
    <g id="line2d_103"/>
    <g id="text_72">
     <!-- A: 35.94% -->
     <g style="fill:#262626;" transform="translate(1308.60776 36.141304)scale(0.08328 -0.08328)">
      <use xlink:href="#DejaVuSans-41"/>
      <use x="68.392578" xlink:href="#DejaVuSans-3a"/>
      <use x="102.083984" xlink:href="#DejaVuSans-20"/>
      <use x="133.871094" xlink:href="#DejaVuSans-33"/>
      <use x="197.494141" xlink:href="#DejaVuSans-35"/>
      <use x="261.117188" xlink:href="#DejaVuSans-2e"/>
      <use x="292.904297" xlink:href="#DejaVuSans-39"/>
      <use x="356.527344" xlink:href="#DejaVuSans-34"/>
      <use x="420.150391" xlink:href="#DejaVuSans-25"/>
     </g>
    </g>
    <g id="line2d_104">
     <path d="M 1285.28936 45.450446 
L 1301.94536 45.450446 
" style="fill:none;stroke:#55a868;stroke-linecap:round;stroke-width:1.75;"/>
    </g>
    <g id="line2d_105"/>
    <g id="text_73">
     <!-- C: 14.06% -->
     <g style="fill:#262626;" transform="translate(1308.60776 48.365246)scale(0.08328 -0.08328)">
      <use xlink:href="#DejaVuSans-43"/>
      <use x="69.824219" xlink:href="#DejaVuSans-3a"/>
      <use x="103.515625" xlink:href="#DejaVuSans-20"/>
      <use x="135.302734" xlink:href="#DejaVuSans-31"/>
      <use x="198.925781" xlink:href="#DejaVuSans-34"/>
      <use x="262.548828" xlink:href="#DejaVuSans-2e"/>
      <use x="294.335938" xlink:href="#DejaVuSans-30"/>
      <use x="357.958984" xlink:href="#DejaVuSans-36"/>
      <use x="421.582031" xlink:href="#DejaVuSans-25"/>
     </g>
    </g>
    <g id="line2d_106">
     <path d="M 1285.28936 57.674389 
L 1301.94536 57.674389 
" style="fill:none;stroke:#c44e52;stroke-linecap:round;stroke-width:1.75;"/>
    </g>
    <g id="line2d_107"/>
    <g id="text_74">
     <!-- G: 29.69% -->
     <g style="fill:#262626;" transform="translate(1308.60776 60.589189)scale(0.08328 -0.08328)">
      <use xlink:href="#DejaVuSans-47"/>
      <use x="77.490234" xlink:href="#DejaVuSans-3a"/>
      <use x="111.181641" xlink:href="#DejaVuSans-20"/>
      <use x="142.96875" xlink:href="#DejaVuSans-32"/>
      <use x="206.591797" xlink:href="#DejaVuSans-39"/>
      <use x="270.214844" xlink:href="#DejaVuSans-2e"/>
      <use x="302.001953" xlink:href="#DejaVuSans-36"/>
      <use x="365.625" xlink:href="#DejaVuSans-39"/>
      <use x="429.248047" xlink:href="#DejaVuSans-25"/>
     </g>
    </g>
    <g id="line2d_108">
     <path d="M 1285.28936 69.898331 
L 1301.94536 69.898331 
" style="fill:none;stroke:#8172b2;stroke-linecap:round;stroke-width:1.75;"/>
    </g>
    <g id="line2d_109"/>
    <g id="text_75">
     <!-- T: 21.88% -->
     <g style="fill:#262626;" transform="translate(1308.60776 72.813131)scale(0.08328 -0.08328)">
      <use xlink:href="#DejaVuSans-54"/>
      <use x="60.912109" xlink:href="#DejaVuSans-3a"/>
      <use x="94.603516" xlink:href="#DejaVuSans-20"/>
      <use x="126.390625" xlink:href="#DejaVuSans-32"/>
      <use x="190.013672" xlink:href="#DejaVuSans-31"/>
      <use x="253.636719" xlink:href="#DejaVuSans-2e"/>
      <use x="285.423828" xlink:href="#DejaVuSans-38"/>
      <use x="349.046875" xlink:href="#DejaVuSans-38"/>
      <use x="412.669922" xlink:href="#DejaVuSans-25"/>
     </g>
    </g>
   </g>
  </g>
 </g>
 <defs>
  <clipPath id="pdca20f5d47">
   <rect height="443.52" width="230.896552" x="20.5625" y="22.318125"/>
  </clipPath>
  <clipPath id="pcbeb6e8d3b">
   <rect height="443.52" width="230.896552" x="297.638362" y="22.318125"/>
  </clipPath>
  <clipPath id="p0cd2235754">
   <rect height="443.52" width="230.896552" x="574.714224" y="22.318125"/>
  </clipPath>
  <clipPath id="pb0c6094053">
   <rect height="443.52" width="230.896552" x="851.790086" y="22.318125"/>
  </clipPath>
  <clipPath id="pf7ebed145f">
   <rect height="443.52" width="230.896552" x="1128.865948" y="22.318125"/>
  </clipPath>
 </defs>
</svg>
