<?xml version="1.0" encoding="utf-8" standalone="no"?>
<!DOCTYPE svg PUBLIC "-//W3C//DTD SVG 1.1//EN"
  "http://www.w3.org/Graphics/SVG/1.1/DTD/svg11.dtd">
<!-- Created with matplotlib (http://matplotlib.org/) -->
<svg height="489pt" version="1.1" viewBox="0 0 1368 489" width="1368pt" xmlns="http://www.w3.org/2000/svg" xmlns:xlink="http://www.w3.org/1999/xlink">
 <defs>
  <style type="text/css">
*{stroke-linecap:butt;stroke-linejoin:round;}
  </style>
 </defs>
 <g id="figure_1">
  <g id="patch_1">
   <path d="M 0 489.71625 
L 1368.557776 489.71625 
L 1368.557776 0 
L 0 0 
z
" style="fill:#ffffff;"/>
  </g>
  <g id="axes_1">
   <g id="patch_2">
    <path d="M 20.5625 465.838125 
L 251.459052 465.838125 
L 251.459052 22.318125 
L 20.5625 22.318125 
z
" style="fill:#ffffff;"/>
   </g>
   <g id="matplotlib.axis_1">
    <g id="xtick_1">
     <g id="line2d_1"/>
     <g id="text_1">
      <!-- −0.5 -->
      <defs>
       <path d="M 10.59375 35.5 
L 73.1875 35.5 
L 73.1875 27.203125 
L 10.59375 27.203125 
z
" id="DejaVuSans-2212"/>
       <path d="M 31.78125 66.40625 
Q 24.171875 66.40625 20.328125 58.90625 
Q 16.5 51.421875 16.5 36.375 
Q 16.5 21.390625 20.328125 13.890625 
Q 24.171875 6.390625 31.78125 6.390625 
Q 39.453125 6.390625 43.28125 13.890625 
Q 47.125 21.390625 47.125 36.375 
Q 47.125 51.421875 43.28125 58.90625 
Q 39.453125 66.40625 31.78125 66.40625 
z
M 31.78125 74.21875 
Q 44.046875 74.21875 50.515625 64.515625 
Q 56.984375 54.828125 56.984375 36.375 
Q 56.984375 17.96875 50.515625 8.265625 
Q 44.046875 -1.421875 31.78125 -1.421875 
Q 19.53125 -1.421875 13.0625 8.265625 
Q 6.59375 17.96875 6.59375 36.375 
Q 6.59375 54.828125 13.0625 64.515625 
Q 19.53125 74.21875 31.78125 74.21875 
z
" id="DejaVuSans-30"/>
       <path d="M 10.6875 12.40625 
L 21 12.40625 
L 21 0 
L 10.6875 0 
z
" id="DejaVuSans-2e"/>
       <path d="M 10.796875 72.90625 
L 49.515625 72.90625 
L 49.515625 64.59375 
L 19.828125 64.59375 
L 19.828125 46.734375 
Q 21.96875 47.46875 24.109375 47.828125 
Q 26.265625 48.1875 28.421875 48.1875 
Q 40.625 48.1875 47.75 41.5 
Q 54.890625 34.8125 54.890625 23.390625 
Q 54.890625 11.625 47.5625 5.09375 
Q 40.234375 -1.421875 26.90625 -1.421875 
Q 22.3125 -1.421875 17.546875 -0.640625 
Q 12.796875 0.140625 7.71875 1.703125 
L 7.71875 11.625 
Q 12.109375 9.234375 16.796875 8.0625 
Q 21.484375 6.890625 26.703125 6.890625 
Q 35.15625 6.890625 40.078125 11.328125 
Q 45.015625 15.765625 45.015625 23.390625 
Q 45.015625 31 40.078125 35.4375 
Q 35.15625 39.890625 26.703125 39.890625 
Q 22.75 39.890625 18.8125 39.015625 
Q 14.890625 38.140625 10.796875 36.28125 
z
" id="DejaVuSans-35"/>
      </defs>
      <g style="fill:#262626;" transform="translate(10.105216 480.436562)scale(0.1 -0.1)">
       <use xlink:href="#DejaVuSans-2212"/>
       <use x="83.789062" xlink:href="#DejaVuSans-30"/>
       <use x="147.412109" xlink:href="#DejaVuSans-2e"/>
       <use x="179.199219" xlink:href="#DejaVuSans-35"/>
      </g>
     </g>
    </g>
    <g id="xtick_2">
     <g id="line2d_2"/>
     <g id="text_2">
      <!-- 0.0 -->
      <g style="fill:#262626;" transform="translate(71.720007 480.436562)scale(0.1 -0.1)">
       <use xlink:href="#DejaVuSans-30"/>
       <use x="63.623047" xlink:href="#DejaVuSans-2e"/>
       <use x="95.410156" xlink:href="#DejaVuSans-30"/>
      </g>
     </g>
    </g>
    <g id="xtick_3">
     <g id="line2d_3"/>
     <g id="text_3">
      <!-- 0.5 -->
      <g style="fill:#262626;" transform="translate(129.144954 480.436562)scale(0.1 -0.1)">
       <use xlink:href="#DejaVuSans-30"/>
       <use x="63.623047" xlink:href="#DejaVuSans-2e"/>
       <use x="95.410156" xlink:href="#DejaVuSans-35"/>
      </g>
     </g>
    </g>
    <g id="xtick_4">
     <g id="line2d_4"/>
     <g id="text_4">
      <!-- 1.0 -->
      <defs>
       <path d="M 12.40625 8.296875 
L 28.515625 8.296875 
L 28.515625 63.921875 
L 10.984375 60.40625 
L 10.984375 69.390625 
L 28.421875 72.90625 
L 38.28125 72.90625 
L 38.28125 8.296875 
L 54.390625 8.296875 
L 54.390625 0 
L 12.40625 0 
z
" id="DejaVuSans-31"/>
      </defs>
      <g style="fill:#262626;" transform="translate(186.569901 480.436562)scale(0.1 -0.1)">
       <use xlink:href="#DejaVuSans-31"/>
       <use x="63.623047" xlink:href="#DejaVuSans-2e"/>
       <use x="95.410156" xlink:href="#DejaVuSans-30"/>
      </g>
     </g>
    </g>
    <g id="xtick_5">
     <g id="line2d_5"/>
     <g id="text_5">
      <!-- 1.5 -->
      <g style="fill:#262626;" transform="translate(243.994849 480.436562)scale(0.1 -0.1)">
       <use xlink:href="#DejaVuSans-31"/>
       <use x="63.623047" xlink:href="#DejaVuSans-2e"/>
       <use x="95.410156" xlink:href="#DejaVuSans-35"/>
      </g>
     </g>
    </g>
   </g>
   <g id="matplotlib.axis_2">
    <g id="ytick_1">
     <g id="line2d_6"/>
     <g id="text_6">
      <!-- 0 -->
      <g style="fill:#262626;" transform="translate(7.2 469.637344)scale(0.1 -0.1)">
       <use xlink:href="#DejaVuSans-30"/>
      </g>
     </g>
    </g>
    <g id="ytick_2">
     <g id="line2d_7"/>
     <g id="text_7">
      <!-- 1 -->
      <g style="fill:#262626;" transform="translate(7.2 380.933344)scale(0.1 -0.1)">
       <use xlink:href="#DejaVuSans-31"/>
      </g>
     </g>
    </g>
    <g id="ytick_3">
     <g id="line2d_8"/>
     <g id="text_8">
      <!-- 2 -->
      <defs>
       <path d="M 19.1875 8.296875 
L 53.609375 8.296875 
L 53.609375 0 
L 7.328125 0 
L 7.328125 8.296875 
Q 12.9375 14.109375 22.625 23.890625 
Q 32.328125 33.6875 34.8125 36.53125 
Q 39.546875 41.84375 41.421875 45.53125 
Q 43.3125 49.21875 43.3125 52.78125 
Q 43.3125 58.59375 39.234375 62.25 
Q 35.15625 65.921875 28.609375 65.921875 
Q 23.96875 65.921875 18.8125 64.3125 
Q 13.671875 62.703125 7.8125 59.421875 
L 7.8125 69.390625 
Q 13.765625 71.78125 18.9375 73 
Q 24.125 74.21875 28.421875 74.21875 
Q 39.75 74.21875 46.484375 68.546875 
Q 53.21875 62.890625 53.21875 53.421875 
Q 53.21875 48.921875 51.53125 44.890625 
Q 49.859375 40.875 45.40625 35.40625 
Q 44.1875 33.984375 37.640625 27.21875 
Q 31.109375 20.453125 19.1875 8.296875 
z
" id="DejaVuSans-32"/>
      </defs>
      <g style="fill:#262626;" transform="translate(7.2 292.229344)scale(0.1 -0.1)">
       <use xlink:href="#DejaVuSans-32"/>
      </g>
     </g>
    </g>
    <g id="ytick_4">
     <g id="line2d_9"/>
     <g id="text_9">
      <!-- 3 -->
      <defs>
       <path d="M 40.578125 39.3125 
Q 47.65625 37.796875 51.625 33 
Q 55.609375 28.21875 55.609375 21.1875 
Q 55.609375 10.40625 48.1875 4.484375 
Q 40.765625 -1.421875 27.09375 -1.421875 
Q 22.515625 -1.421875 17.65625 -0.515625 
Q 12.796875 0.390625 7.625 2.203125 
L 7.625 11.71875 
Q 11.71875 9.328125 16.59375 8.109375 
Q 21.484375 6.890625 26.8125 6.890625 
Q 36.078125 6.890625 40.9375 10.546875 
Q 45.796875 14.203125 45.796875 21.1875 
Q 45.796875 27.640625 41.28125 31.265625 
Q 36.765625 34.90625 28.71875 34.90625 
L 20.21875 34.90625 
L 20.21875 43.015625 
L 29.109375 43.015625 
Q 36.375 43.015625 40.234375 45.921875 
Q 44.09375 48.828125 44.09375 54.296875 
Q 44.09375 59.90625 40.109375 62.90625 
Q 36.140625 65.921875 28.71875 65.921875 
Q 24.65625 65.921875 20.015625 65.03125 
Q 15.375 64.15625 9.8125 62.3125 
L 9.8125 71.09375 
Q 15.4375 72.65625 20.34375 73.4375 
Q 25.25 74.21875 29.59375 74.21875 
Q 40.828125 74.21875 47.359375 69.109375 
Q 53.90625 64.015625 53.90625 55.328125 
Q 53.90625 49.265625 50.4375 45.09375 
Q 46.96875 40.921875 40.578125 39.3125 
z
" id="DejaVuSans-33"/>
      </defs>
      <g style="fill:#262626;" transform="translate(7.2 203.525344)scale(0.1 -0.1)">
       <use xlink:href="#DejaVuSans-33"/>
      </g>
     </g>
    </g>
    <g id="ytick_5">
     <g id="line2d_10"/>
     <g id="text_10">
      <!-- 4 -->
      <defs>
       <path d="M 37.796875 64.3125 
L 12.890625 25.390625 
L 37.796875 25.390625 
z
M 35.203125 72.90625 
L 47.609375 72.90625 
L 47.609375 25.390625 
L 58.015625 25.390625 
L 58.015625 17.1875 
L 47.609375 17.1875 
L 47.609375 0 
L 37.796875 0 
L 37.796875 17.1875 
L 4.890625 17.1875 
L 4.890625 26.703125 
z
" id="DejaVuSans-34"/>
      </defs>
      <g style="fill:#262626;" transform="translate(7.2 114.821344)scale(0.1 -0.1)">
       <use xlink:href="#DejaVuSans-34"/>
      </g>
     </g>
    </g>
    <g id="ytick_6">
     <g id="line2d_11"/>
     <g id="text_11">
      <!-- 5 -->
      <g style="fill:#262626;" transform="translate(7.2 26.117344)scale(0.1 -0.1)">
       <use xlink:href="#DejaVuSans-35"/>
      </g>
     </g>
    </g>
   </g>
   <g id="line2d_12">
    <path clip-path="url(#p7a9a4c3058)" d="M 31.057798 464.655437 
L 33.17806 464.09739 
L 35.298322 463.318134 
L 37.418584 462.249924 
L 39.538847 460.812684 
L 41.659109 458.915028 
L 43.779371 456.456767 
L 45.899633 453.333191 
L 48.019895 449.441275 
L 50.140157 444.687787 
L 52.26042 438.998981 
L 54.380682 432.331281 
L 56.500944 424.682063 
L 58.621206 416.099364 
L 60.741468 406.689229 
L 62.861731 396.619387 
L 64.981993 386.118149 
L 67.102255 375.467804 
L 69.222517 364.992332 
L 71.342779 355.039955 
L 73.463041 345.961696 
L 75.583304 338.087773 
L 77.703566 331.704067 
L 79.823828 327.031073 
L 81.94409 324.207589 
L 84.064352 323.280971 
L 86.184615 324.205015 
L 88.304877 326.845705 
L 90.425139 330.994097 
L 92.545401 336.384854 
L 94.665663 342.718284 
L 96.785925 349.683483 
L 98.906188 356.980176 
L 101.02645 364.337176 
L 103.146712 371.525978 
L 105.266974 378.368698 
L 107.387236 384.740295 
L 109.507499 390.565735 
L 111.627761 395.813185 
L 113.748023 400.484699 
L 115.868285 404.605862 
L 117.988547 408.215775 
L 120.108809 411.358453 
L 122.229072 414.076332 
L 124.349334 416.406197 
L 126.469596 418.377446 
L 128.589858 420.012354 
L 130.71012 421.327791 
L 132.830383 422.337776 
L 134.950645 423.056292 
L 137.070907 423.499844 
L 139.191169 423.689413 
L 141.311431 423.651613 
L 143.431694 423.418971 
L 145.551956 423.029424 
L 147.672218 422.525168 
L 149.79248 421.951074 
L 151.912742 421.352883 
L 154.033004 420.77539 
L 156.153267 420.260795 
L 158.273529 419.847343 
L 160.393791 419.568346 
L 162.514053 419.451599 
L 164.634315 419.519187 
L 166.754578 419.787611 
L 168.87484 420.268147 
L 170.995102 420.967339 
L 173.115364 421.887499 
L 175.235626 423.027132 
L 177.355888 424.381208 
L 179.476151 425.941251 
L 181.596413 427.695256 
L 183.716675 429.627493 
L 185.836937 431.718285 
L 187.957199 433.94387 
L 190.077462 436.276466 
L 192.197724 438.684617 
L 194.317986 441.133889 
L 196.438248 443.58791 
L 198.55851 446.009703 
L 200.678772 448.363217 
L 202.799035 450.614915 
L 204.919297 452.735275 
L 207.039559 454.700057 
L 209.159821 456.491205 
L 211.280083 458.097337 
L 213.400346 459.513764 
L 215.520608 460.742086 
L 217.64087 461.789428 
L 219.761132 462.667406 
L 221.881394 463.390956 
L 224.001656 463.977121 
L 226.121919 464.443907 
L 228.242181 464.809294 
L 230.362443 465.090429 
L 232.482705 465.303047 
L 234.602967 465.4611 
L 236.72323 465.576584 
L 238.843492 465.659524 
L 240.963754 465.718074 
" style="fill:none;stroke:#4c72b0;stroke-linecap:round;stroke-width:1.75;"/>
   </g>
   <g id="line2d_13">
    <path clip-path="url(#p7a9a4c3058)" d="M 49.261962 462.639692 
L 50.97392 460.613722 
L 52.685878 457.538158 
L 54.397836 453.012808 
L 56.109794 446.561762 
L 57.821752 437.65675 
L 59.53371 425.761039 
L 61.245668 410.395222 
L 62.957626 391.221899 
L 64.669584 368.140772 
L 66.381542 341.380105 
L 68.0935 311.566415 
L 69.805458 279.753281 
L 71.517416 247.39352 
L 73.229374 216.246932 
L 74.941332 188.227401 
L 76.65329 165.206002 
L 78.365248 148.797861 
L 80.077206 140.166739 
L 81.789164 139.880602 
L 83.501122 147.843434 
L 85.21308 163.31478 
L 86.925038 185.012268 
L 88.636996 211.277435 
L 90.348954 240.275034 
L 92.060912 270.192763 
L 93.77287 299.412025 
L 95.484828 326.629419 
L 97.196786 350.920382 
L 98.908744 371.747623 
L 100.620702 388.925544 
L 102.33266 402.556188 
L 104.044618 412.952652 
L 105.756576 420.563055 
L 107.468534 425.90376 
L 109.180492 429.505977 
L 110.89245 431.876185 
L 112.604408 433.468669 
L 114.316366 434.667698 
L 116.028324 435.777163 
L 117.740282 437.016279 
L 119.45224 438.520687 
L 121.164198 440.348619 
L 122.876156 442.49173 
L 124.588114 444.889701 
L 126.300072 447.447161 
L 128.01203 450.051069 
L 129.723988 452.586557 
L 131.435945 454.949564 
L 133.147903 457.055182 
L 134.859861 458.841455 
L 136.571819 460.269123 
L 138.283777 461.318447 
L 139.995735 461.984549 
L 141.707693 462.272736 
L 143.419651 462.194992 
L 145.131609 461.768379 
L 146.843567 461.015504 
L 148.555525 459.96667 
L 150.267483 458.662868 
L 151.979441 457.158519 
L 153.691399 455.52282 
L 155.403357 453.838762 
L 157.115315 452.19934 
L 158.827273 450.701018 
L 160.539231 449.435145 
L 162.251189 448.47856 
L 163.963147 447.884893 
L 165.675105 447.678152 
L 167.387063 447.849835 
L 169.099021 448.360286 
L 170.810979 449.144247 
L 172.522937 450.119816 
L 174.234895 451.199409 
L 175.946853 452.300963 
L 177.658811 453.357571 
L 179.370769 454.324103 
L 181.082727 455.179908 
L 182.794685 455.927443 
L 184.506643 456.587422 
L 186.218601 457.191648 
L 187.930559 457.775004 
L 189.642517 458.368119 
L 191.354475 458.991914 
L 193.066433 459.654742 
L 194.778391 460.35226 
L 196.490349 461.069627 
L 198.202307 461.785241 
L 199.914265 462.475063 
L 201.626223 463.116642 
L 203.338181 463.692182 
L 205.050139 464.190296 
L 206.762097 464.606441 
L 208.474055 464.942259 
L 210.186013 465.204189 
L 211.897971 465.401773 
L 213.609929 465.546002 
L 215.321887 465.647932 
L 217.033845 465.717705 
L 218.745803 465.763984 
" style="fill:none;stroke:#55a868;stroke-linecap:round;stroke-width:1.75;"/>
   </g>
   <g id="line2d_14">
    <path clip-path="url(#p7a9a4c3058)" d="M 33.126663 464.041518 
L 35.221199 463.174484 
L 37.315735 461.958701 
L 39.410271 460.287621 
L 41.504807 458.036655 
L 43.599342 455.065899 
L 45.693878 451.225565 
L 47.788414 446.364499 
L 49.88295 440.341892 
L 51.977486 433.041877 
L 54.072022 424.390169 
L 56.166558 414.371395 
L 58.261094 403.045247 
L 60.355629 390.559273 
L 62.450165 377.156056 
L 64.544701 363.172767 
L 66.639237 349.031729 
L 68.733773 335.221551 
L 70.828309 322.269564 
L 72.922845 310.707544 
L 75.017381 301.033762 
L 77.111916 293.675185 
L 79.206452 288.953929 
L 81.300988 287.061733 
L 83.395524 288.045381 
L 85.49006 291.804709 
L 87.584596 298.103264 
L 89.679132 306.590144 
L 91.773667 316.83028 
L 93.868203 328.33949 
L 95.962739 340.620393 
L 98.057275 353.195466 
L 100.151811 365.634269 
L 102.246347 377.572933 
L 104.340883 388.725144 
L 106.435419 398.884993 
L 108.529954 407.922949 
L 110.62449 415.776772 
L 112.719026 422.43941 
L 114.813562 427.945829 
L 116.908098 432.360391 
L 119.002634 435.765903 
L 121.09717 438.254969 
L 123.191705 439.923767 
L 125.286241 440.868055 
L 127.380777 441.180936 
L 129.475313 440.951852 
L 131.569849 440.266263 
L 133.664385 439.205619 
L 135.758921 437.847327 
L 137.853457 436.2646 
L 139.947992 434.526205 
L 142.042528 432.696188 
L 144.137064 430.833709 
L 146.2316 428.993087 
L 148.326136 427.224107 
L 150.420672 425.572559 
L 152.515208 424.080886 
L 154.609743 422.788787 
L 156.704279 421.733573 
L 158.798815 420.950096 
L 160.893351 420.470142 
L 162.987887 420.321262 
L 165.082423 420.525143 
L 167.176959 421.095702 
L 169.271495 422.037195 
L 171.36603 423.342661 
L 173.460566 424.992988 
L 175.555102 426.95685 
L 177.649638 429.191631 
L 179.744174 431.64531 
L 181.83871 434.259163 
L 183.933246 436.971018 
L 186.027781 439.718702 
L 188.122317 442.44335 
L 190.216853 445.092233 
L 192.311389 447.620882 
L 194.405925 449.994363 
L 196.500461 452.187694 
L 198.594997 454.185504 
L 200.689533 455.981075 
L 202.784068 457.574997 
L 204.878604 458.973632 
L 206.97314 460.187574 
L 209.067676 461.230246 
L 211.162212 462.11671 
L 213.256748 462.862737 
L 215.351284 463.484114 
L 217.445819 463.996164 
L 219.540355 464.413431 
L 221.634891 464.749477 
L 223.729427 465.016765 
L 225.823963 465.226589 
L 227.918499 465.389044 
L 230.013035 465.513016 
L 232.107571 465.606204 
L 234.202106 465.675166 
L 236.296642 465.725384 
L 238.391178 465.761351 
L 240.485714 465.78668 
" style="fill:none;stroke:#c44e52;stroke-linecap:round;stroke-width:1.75;"/>
   </g>
   <g id="line2d_15">
    <path clip-path="url(#p7a9a4c3058)" d="M 59.899834 459.989082 
L 61.098698 455.962378 
L 62.297562 449.696559 
L 63.496426 440.298502 
L 64.69529 426.719892 
L 65.894154 407.836115 
L 67.093018 382.583293 
L 68.291882 350.151695 
L 69.490747 310.217736 
L 70.689611 263.178632 
L 71.888475 210.338646 
L 73.087339 153.989914 
L 74.286203 97.339295 
L 75.485067 44.257339 
L 76.680313 -1 
M 83.09399 -1 
L 83.877115 25.755858 
L 85.075979 75.347261 
L 86.274844 129.430888 
L 87.473708 183.992486 
L 88.672572 235.604357 
L 89.871436 281.733662 
L 91.0703 320.869665 
L 92.269164 352.481563 
L 93.468028 376.848098 
L 94.666892 394.814834 
L 95.865756 407.534956 
L 97.06462 416.238472 
L 98.263484 422.05819 
L 99.462348 425.92376 
L 100.661212 428.520835 
L 101.860076 430.302711 
L 103.05894 431.53678 
L 104.257805 432.36715 
L 105.456669 432.876911 
L 106.655533 433.137674 
L 107.854397 433.239321 
L 109.053261 433.29838 
L 110.252125 433.448262 
L 111.450989 433.818039 
L 112.649853 434.507978 
L 113.848717 435.569614 
L 115.047581 436.995995 
L 116.246445 438.724501 
L 117.445309 440.651182 
L 118.644173 442.652658 
L 119.843037 444.610042 
L 121.041902 446.429195 
L 122.240766 448.05301 
L 123.43963 449.463715 
L 124.638494 450.675861 
L 125.837358 451.722892 
L 127.036222 452.641543 
L 128.235086 453.458453 
L 129.43395 454.18235 
L 130.632814 454.803419 
L 131.831678 455.299383 
L 133.030542 455.646081 
L 134.229406 455.829236 
L 135.42827 455.853954 
L 136.627134 455.749217 
L 137.825999 455.566009 
L 139.024863 455.36938 
L 140.223727 455.226262 
L 141.422591 455.191918 
L 142.621455 455.298208 
L 143.820319 455.546449 
L 145.019183 455.906574 
L 146.218047 456.322884 
L 147.416911 456.725248 
L 148.615775 457.043438 
L 149.814639 457.221689 
L 151.013503 457.230554 
L 152.212367 457.073721 
L 153.411231 456.788507 
L 154.610096 456.439983 
L 155.80896 456.109961 
L 157.007824 455.883033 
L 158.206688 455.832391 
L 159.405552 456.008105 
L 160.604416 456.429952 
L 161.80328 457.085863 
L 163.002144 457.935834 
L 164.201008 458.920077 
L 165.399872 459.969423 
L 166.598736 461.01581 
L 167.7976 462.000927 
L 168.996464 462.881829 
L 170.195328 463.633106 
L 171.394192 464.245992 
L 172.593057 464.725289 
L 173.791921 465.085192 
L 174.990785 465.345011 
L 176.189649 465.525517 
L 177.388513 465.646297 
L 178.587377 465.724184 
" style="fill:none;stroke:#8172b2;stroke-linecap:round;stroke-width:1.75;"/>
   </g>
   <g id="line2d_16">
    <path clip-path="url(#p7a9a4c3058)" d="M 85.414064 465.838125 
L 85.414064 22.318125 
" style="fill:none;stroke:#000000;stroke-dasharray:1.85,0.8;stroke-dashoffset:0;stroke-width:0.5;"/>
   </g>
   <g id="patch_3">
    <path d="M 20.5625 465.838125 
L 20.5625 22.318125 
" style="fill:none;stroke:#262626;stroke-linecap:square;stroke-linejoin:miter;stroke-width:1.25;"/>
   </g>
   <g id="patch_4">
    <path d="M 251.459052 465.838125 
L 251.459052 22.318125 
" style="fill:none;stroke:#262626;stroke-linecap:square;stroke-linejoin:miter;stroke-width:1.25;"/>
   </g>
   <g id="patch_5">
    <path d="M 20.5625 465.838125 
L 251.459052 465.838125 
" style="fill:none;stroke:#262626;stroke-linecap:square;stroke-linejoin:miter;stroke-width:1.25;"/>
   </g>
   <g id="patch_6">
    <path d="M 20.5625 22.318125 
L 251.459052 22.318125 
" style="fill:none;stroke:#262626;stroke-linecap:square;stroke-linejoin:miter;stroke-width:1.25;"/>
   </g>
   <g id="text_12">
    <!-- -2 -->
    <defs>
     <path d="M 4.890625 31.390625 
L 31.203125 31.390625 
L 31.203125 23.390625 
L 4.890625 23.390625 
z
" id="DejaVuSans-2d"/>
    </defs>
    <g style="fill:#262626;" transform="translate(130.028588 16.318125)scale(0.12 -0.12)">
     <use xlink:href="#DejaVuSans-2d"/>
     <use x="36.083984" xlink:href="#DejaVuSans-32"/>
    </g>
   </g>
   <g id="legend_1">
    <g id="line2d_17">
     <path d="M 176.985912 33.226504 
L 193.641912 33.226504 
" style="fill:none;stroke:#4c72b0;stroke-linecap:round;stroke-width:1.75;"/>
    </g>
    <g id="line2d_18"/>
    <g id="text_13">
     <!-- A: 45.31% -->
     <defs>
      <path d="M 34.1875 63.1875 
L 20.796875 26.90625 
L 47.609375 26.90625 
z
M 28.609375 72.90625 
L 39.796875 72.90625 
L 67.578125 0 
L 57.328125 0 
L 50.6875 18.703125 
L 17.828125 18.703125 
L 11.1875 0 
L 0.78125 0 
z
" id="DejaVuSans-41"/>
      <path d="M 11.71875 12.40625 
L 22.015625 12.40625 
L 22.015625 0 
L 11.71875 0 
z
M 11.71875 51.703125 
L 22.015625 51.703125 
L 22.015625 39.3125 
L 11.71875 39.3125 
z
" id="DejaVuSans-3a"/>
      <path id="DejaVuSans-20"/>
      <path d="M 72.703125 32.078125 
Q 68.453125 32.078125 66.03125 28.46875 
Q 63.625 24.859375 63.625 18.40625 
Q 63.625 12.0625 66.03125 8.421875 
Q 68.453125 4.78125 72.703125 4.78125 
Q 76.859375 4.78125 79.265625 8.421875 
Q 81.6875 12.0625 81.6875 18.40625 
Q 81.6875 24.8125 79.265625 28.4375 
Q 76.859375 32.078125 72.703125 32.078125 
z
M 72.703125 38.28125 
Q 80.421875 38.28125 84.953125 32.90625 
Q 89.5 27.546875 89.5 18.40625 
Q 89.5 9.28125 84.9375 3.921875 
Q 80.375 -1.421875 72.703125 -1.421875 
Q 64.890625 -1.421875 60.34375 3.921875 
Q 55.8125 9.28125 55.8125 18.40625 
Q 55.8125 27.59375 60.375 32.9375 
Q 64.9375 38.28125 72.703125 38.28125 
z
M 22.3125 68.015625 
Q 18.109375 68.015625 15.6875 64.375 
Q 13.28125 60.75 13.28125 54.390625 
Q 13.28125 47.953125 15.671875 44.328125 
Q 18.0625 40.71875 22.3125 40.71875 
Q 26.5625 40.71875 28.96875 44.328125 
Q 31.390625 47.953125 31.390625 54.390625 
Q 31.390625 60.6875 28.953125 64.34375 
Q 26.515625 68.015625 22.3125 68.015625 
z
M 66.40625 74.21875 
L 74.21875 74.21875 
L 28.609375 -1.421875 
L 20.796875 -1.421875 
z
M 22.3125 74.21875 
Q 30.03125 74.21875 34.609375 68.875 
Q 39.203125 63.53125 39.203125 54.390625 
Q 39.203125 45.171875 34.640625 39.84375 
Q 30.078125 34.515625 22.3125 34.515625 
Q 14.546875 34.515625 10.03125 39.859375 
Q 5.515625 45.21875 5.515625 54.390625 
Q 5.515625 63.484375 10.046875 68.84375 
Q 14.59375 74.21875 22.3125 74.21875 
z
" id="DejaVuSans-25"/>
     </defs>
     <g style="fill:#262626;" transform="translate(200.304312 36.141304)scale(0.08328 -0.08328)">
      <use xlink:href="#DejaVuSans-41"/>
      <use x="68.392578" xlink:href="#DejaVuSans-3a"/>
      <use x="102.083984" xlink:href="#DejaVuSans-20"/>
      <use x="133.871094" xlink:href="#DejaVuSans-34"/>
      <use x="197.494141" xlink:href="#DejaVuSans-35"/>
      <use x="261.117188" xlink:href="#DejaVuSans-2e"/>
      <use x="292.904297" xlink:href="#DejaVuSans-33"/>
      <use x="356.527344" xlink:href="#DejaVuSans-31"/>
      <use x="420.150391" xlink:href="#DejaVuSans-25"/>
     </g>
    </g>
    <g id="line2d_19">
     <path d="M 176.985912 45.450446 
L 193.641912 45.450446 
" style="fill:none;stroke:#55a868;stroke-linecap:round;stroke-width:1.75;"/>
    </g>
    <g id="line2d_20"/>
    <g id="text_14">
     <!-- C: 76.56% -->
     <defs>
      <path d="M 64.40625 67.28125 
L 64.40625 56.890625 
Q 59.421875 61.53125 53.78125 63.8125 
Q 48.140625 66.109375 41.796875 66.109375 
Q 29.296875 66.109375 22.65625 58.46875 
Q 16.015625 50.828125 16.015625 36.375 
Q 16.015625 21.96875 22.65625 14.328125 
Q 29.296875 6.6875 41.796875 6.6875 
Q 48.140625 6.6875 53.78125 8.984375 
Q 59.421875 11.28125 64.40625 15.921875 
L 64.40625 5.609375 
Q 59.234375 2.09375 53.4375 0.328125 
Q 47.65625 -1.421875 41.21875 -1.421875 
Q 24.65625 -1.421875 15.125 8.703125 
Q 5.609375 18.84375 5.609375 36.375 
Q 5.609375 53.953125 15.125 64.078125 
Q 24.65625 74.21875 41.21875 74.21875 
Q 47.75 74.21875 53.53125 72.484375 
Q 59.328125 70.75 64.40625 67.28125 
z
" id="DejaVuSans-43"/>
      <path d="M 8.203125 72.90625 
L 55.078125 72.90625 
L 55.078125 68.703125 
L 28.609375 0 
L 18.3125 0 
L 43.21875 64.59375 
L 8.203125 64.59375 
z
" id="DejaVuSans-37"/>
      <path d="M 33.015625 40.375 
Q 26.375 40.375 22.484375 35.828125 
Q 18.609375 31.296875 18.609375 23.390625 
Q 18.609375 15.53125 22.484375 10.953125 
Q 26.375 6.390625 33.015625 6.390625 
Q 39.65625 6.390625 43.53125 10.953125 
Q 47.40625 15.53125 47.40625 23.390625 
Q 47.40625 31.296875 43.53125 35.828125 
Q 39.65625 40.375 33.015625 40.375 
z
M 52.59375 71.296875 
L 52.59375 62.3125 
Q 48.875 64.0625 45.09375 64.984375 
Q 41.3125 65.921875 37.59375 65.921875 
Q 27.828125 65.921875 22.671875 59.328125 
Q 17.53125 52.734375 16.796875 39.40625 
Q 19.671875 43.65625 24.015625 45.921875 
Q 28.375 48.1875 33.59375 48.1875 
Q 44.578125 48.1875 50.953125 41.515625 
Q 57.328125 34.859375 57.328125 23.390625 
Q 57.328125 12.15625 50.6875 5.359375 
Q 44.046875 -1.421875 33.015625 -1.421875 
Q 20.359375 -1.421875 13.671875 8.265625 
Q 6.984375 17.96875 6.984375 36.375 
Q 6.984375 53.65625 15.1875 63.9375 
Q 23.390625 74.21875 37.203125 74.21875 
Q 40.921875 74.21875 44.703125 73.484375 
Q 48.484375 72.75 52.59375 71.296875 
z
" id="DejaVuSans-36"/>
     </defs>
     <g style="fill:#262626;" transform="translate(200.304312 48.365246)scale(0.08328 -0.08328)">
      <use xlink:href="#DejaVuSans-43"/>
      <use x="69.824219" xlink:href="#DejaVuSans-3a"/>
      <use x="103.515625" xlink:href="#DejaVuSans-20"/>
      <use x="135.302734" xlink:href="#DejaVuSans-37"/>
      <use x="198.925781" xlink:href="#DejaVuSans-36"/>
      <use x="262.548828" xlink:href="#DejaVuSans-2e"/>
      <use x="294.335938" xlink:href="#DejaVuSans-35"/>
      <use x="357.958984" xlink:href="#DejaVuSans-36"/>
      <use x="421.582031" xlink:href="#DejaVuSans-25"/>
     </g>
    </g>
    <g id="line2d_21">
     <path d="M 176.985912 57.674389 
L 193.641912 57.674389 
" style="fill:none;stroke:#c44e52;stroke-linecap:round;stroke-width:1.75;"/>
    </g>
    <g id="line2d_22"/>
    <g id="text_15">
     <!-- G: 62.50% -->
     <defs>
      <path d="M 59.515625 10.40625 
L 59.515625 29.984375 
L 43.40625 29.984375 
L 43.40625 38.09375 
L 69.28125 38.09375 
L 69.28125 6.78125 
Q 63.578125 2.734375 56.6875 0.65625 
Q 49.8125 -1.421875 42 -1.421875 
Q 24.90625 -1.421875 15.25 8.5625 
Q 5.609375 18.5625 5.609375 36.375 
Q 5.609375 54.25 15.25 64.234375 
Q 24.90625 74.21875 42 74.21875 
Q 49.125 74.21875 55.546875 72.453125 
Q 61.96875 70.703125 67.390625 67.28125 
L 67.390625 56.78125 
Q 61.921875 61.421875 55.765625 63.765625 
Q 49.609375 66.109375 42.828125 66.109375 
Q 29.4375 66.109375 22.71875 58.640625 
Q 16.015625 51.171875 16.015625 36.375 
Q 16.015625 21.625 22.71875 14.15625 
Q 29.4375 6.6875 42.828125 6.6875 
Q 48.046875 6.6875 52.140625 7.59375 
Q 56.25 8.5 59.515625 10.40625 
z
" id="DejaVuSans-47"/>
     </defs>
     <g style="fill:#262626;" transform="translate(200.304312 60.589189)scale(0.08328 -0.08328)">
      <use xlink:href="#DejaVuSans-47"/>
      <use x="77.490234" xlink:href="#DejaVuSans-3a"/>
      <use x="111.181641" xlink:href="#DejaVuSans-20"/>
      <use x="142.96875" xlink:href="#DejaVuSans-36"/>
      <use x="206.591797" xlink:href="#DejaVuSans-32"/>
      <use x="270.214844" xlink:href="#DejaVuSans-2e"/>
      <use x="302.001953" xlink:href="#DejaVuSans-35"/>
      <use x="365.625" xlink:href="#DejaVuSans-30"/>
      <use x="429.248047" xlink:href="#DejaVuSans-25"/>
     </g>
    </g>
    <g id="line2d_23">
     <path d="M 176.985912 69.898331 
L 193.641912 69.898331 
" style="fill:none;stroke:#8172b2;stroke-linecap:round;stroke-width:1.75;"/>
    </g>
    <g id="line2d_24"/>
    <g id="text_16">
     <!-- T: 85.94% -->
     <defs>
      <path d="M -0.296875 72.90625 
L 61.375 72.90625 
L 61.375 64.59375 
L 35.5 64.59375 
L 35.5 0 
L 25.59375 0 
L 25.59375 64.59375 
L -0.296875 64.59375 
z
" id="DejaVuSans-54"/>
      <path d="M 31.78125 34.625 
Q 24.75 34.625 20.71875 30.859375 
Q 16.703125 27.09375 16.703125 20.515625 
Q 16.703125 13.921875 20.71875 10.15625 
Q 24.75 6.390625 31.78125 6.390625 
Q 38.8125 6.390625 42.859375 10.171875 
Q 46.921875 13.96875 46.921875 20.515625 
Q 46.921875 27.09375 42.890625 30.859375 
Q 38.875 34.625 31.78125 34.625 
z
M 21.921875 38.8125 
Q 15.578125 40.375 12.03125 44.71875 
Q 8.5 49.078125 8.5 55.328125 
Q 8.5 64.0625 14.71875 69.140625 
Q 20.953125 74.21875 31.78125 74.21875 
Q 42.671875 74.21875 48.875 69.140625 
Q 55.078125 64.0625 55.078125 55.328125 
Q 55.078125 49.078125 51.53125 44.71875 
Q 48 40.375 41.703125 38.8125 
Q 48.828125 37.15625 52.796875 32.3125 
Q 56.78125 27.484375 56.78125 20.515625 
Q 56.78125 9.90625 50.3125 4.234375 
Q 43.84375 -1.421875 31.78125 -1.421875 
Q 19.734375 -1.421875 13.25 4.234375 
Q 6.78125 9.90625 6.78125 20.515625 
Q 6.78125 27.484375 10.78125 32.3125 
Q 14.796875 37.15625 21.921875 38.8125 
z
M 18.3125 54.390625 
Q 18.3125 48.734375 21.84375 45.5625 
Q 25.390625 42.390625 31.78125 42.390625 
Q 38.140625 42.390625 41.71875 45.5625 
Q 45.3125 48.734375 45.3125 54.390625 
Q 45.3125 60.0625 41.71875 63.234375 
Q 38.140625 66.40625 31.78125 66.40625 
Q 25.390625 66.40625 21.84375 63.234375 
Q 18.3125 60.0625 18.3125 54.390625 
z
" id="DejaVuSans-38"/>
      <path d="M 10.984375 1.515625 
L 10.984375 10.5 
Q 14.703125 8.734375 18.5 7.8125 
Q 22.3125 6.890625 25.984375 6.890625 
Q 35.75 6.890625 40.890625 13.453125 
Q 46.046875 20.015625 46.78125 33.40625 
Q 43.953125 29.203125 39.59375 26.953125 
Q 35.25 24.703125 29.984375 24.703125 
Q 19.046875 24.703125 12.671875 31.3125 
Q 6.296875 37.9375 6.296875 49.421875 
Q 6.296875 60.640625 12.9375 67.421875 
Q 19.578125 74.21875 30.609375 74.21875 
Q 43.265625 74.21875 49.921875 64.515625 
Q 56.59375 54.828125 56.59375 36.375 
Q 56.59375 19.140625 48.40625 8.859375 
Q 40.234375 -1.421875 26.421875 -1.421875 
Q 22.703125 -1.421875 18.890625 -0.6875 
Q 15.09375 0.046875 10.984375 1.515625 
z
M 30.609375 32.421875 
Q 37.25 32.421875 41.125 36.953125 
Q 45.015625 41.5 45.015625 49.421875 
Q 45.015625 57.28125 41.125 61.84375 
Q 37.25 66.40625 30.609375 66.40625 
Q 23.96875 66.40625 20.09375 61.84375 
Q 16.21875 57.28125 16.21875 49.421875 
Q 16.21875 41.5 20.09375 36.953125 
Q 23.96875 32.421875 30.609375 32.421875 
z
" id="DejaVuSans-39"/>
     </defs>
     <g style="fill:#262626;" transform="translate(200.304312 72.813131)scale(0.08328 -0.08328)">
      <use xlink:href="#DejaVuSans-54"/>
      <use x="60.912109" xlink:href="#DejaVuSans-3a"/>
      <use x="94.603516" xlink:href="#DejaVuSans-20"/>
      <use x="126.390625" xlink:href="#DejaVuSans-38"/>
      <use x="190.013672" xlink:href="#DejaVuSans-35"/>
      <use x="253.636719" xlink:href="#DejaVuSans-2e"/>
      <use x="285.423828" xlink:href="#DejaVuSans-39"/>
      <use x="349.046875" xlink:href="#DejaVuSans-34"/>
      <use x="412.669922" xlink:href="#DejaVuSans-25"/>
     </g>
    </g>
   </g>
  </g>
  <g id="axes_2">
   <g id="patch_7">
    <path d="M 297.638362 465.838125 
L 528.534914 465.838125 
L 528.534914 22.318125 
L 297.638362 22.318125 
z
" style="fill:#ffffff;"/>
   </g>
   <g id="matplotlib.axis_3">
    <g id="xtick_6">
     <g id="line2d_25"/>
     <g id="text_17">
      <!-- 0.0 -->
      <g style="fill:#262626;" transform="translate(346.686279 480.436562)scale(0.1 -0.1)">
       <use xlink:href="#DejaVuSans-30"/>
       <use x="63.623047" xlink:href="#DejaVuSans-2e"/>
       <use x="95.410156" xlink:href="#DejaVuSans-30"/>
      </g>
     </g>
    </g>
    <g id="xtick_7">
     <g id="line2d_26"/>
     <g id="text_18">
      <!-- 0.5 -->
      <g style="fill:#262626;" transform="translate(406.5082 480.436562)scale(0.1 -0.1)">
       <use xlink:href="#DejaVuSans-30"/>
       <use x="63.623047" xlink:href="#DejaVuSans-2e"/>
       <use x="95.410156" xlink:href="#DejaVuSans-35"/>
      </g>
     </g>
    </g>
    <g id="xtick_8">
     <g id="line2d_27"/>
     <g id="text_19">
      <!-- 1.0 -->
      <g style="fill:#262626;" transform="translate(466.330121 480.436562)scale(0.1 -0.1)">
       <use xlink:href="#DejaVuSans-31"/>
       <use x="63.623047" xlink:href="#DejaVuSans-2e"/>
       <use x="95.410156" xlink:href="#DejaVuSans-30"/>
      </g>
     </g>
    </g>
   </g>
   <g id="matplotlib.axis_4">
    <g id="ytick_7">
     <g id="line2d_28"/>
     <g id="text_20">
      <!-- 0 -->
      <g style="fill:#262626;" transform="translate(284.275862 469.637344)scale(0.1 -0.1)">
       <use xlink:href="#DejaVuSans-30"/>
      </g>
     </g>
    </g>
    <g id="ytick_8">
     <g id="line2d_29"/>
     <g id="text_21">
      <!-- 1 -->
      <g style="fill:#262626;" transform="translate(284.275862 380.933344)scale(0.1 -0.1)">
       <use xlink:href="#DejaVuSans-31"/>
      </g>
     </g>
    </g>
    <g id="ytick_9">
     <g id="line2d_30"/>
     <g id="text_22">
      <!-- 2 -->
      <g style="fill:#262626;" transform="translate(284.275862 292.229344)scale(0.1 -0.1)">
       <use xlink:href="#DejaVuSans-32"/>
      </g>
     </g>
    </g>
    <g id="ytick_10">
     <g id="line2d_31"/>
     <g id="text_23">
      <!-- 3 -->
      <g style="fill:#262626;" transform="translate(284.275862 203.525344)scale(0.1 -0.1)">
       <use xlink:href="#DejaVuSans-33"/>
      </g>
     </g>
    </g>
    <g id="ytick_11">
     <g id="line2d_32"/>
     <g id="text_24">
      <!-- 4 -->
      <g style="fill:#262626;" transform="translate(284.275862 114.821344)scale(0.1 -0.1)">
       <use xlink:href="#DejaVuSans-34"/>
      </g>
     </g>
    </g>
    <g id="ytick_12">
     <g id="line2d_33"/>
     <g id="text_25">
      <!-- 5 -->
      <g style="fill:#262626;" transform="translate(284.275862 26.117344)scale(0.1 -0.1)">
       <use xlink:href="#DejaVuSans-35"/>
      </g>
     </g>
    </g>
   </g>
   <g id="line2d_34">
    <path clip-path="url(#p4b9d3831a7)" d="M 318.216621 463.434215 
L 320.079222 462.081258 
L 321.941823 460.099733 
L 323.804424 457.271212 
L 325.667025 453.33718 
L 327.529626 448.007668 
L 329.392227 440.978052 
L 331.254828 431.954908 
L 333.117429 420.690544 
L 334.98003 407.024065 
L 336.842631 390.924909 
L 338.705232 372.532991 
L 340.567833 352.188486 
L 342.430434 330.444189 
L 344.293035 308.054744 
L 346.155635 285.93975 
L 348.018236 265.121615 
L 349.880837 246.643342 
L 351.743438 231.475423 
L 353.606039 220.423687 
L 355.46864 214.050743 
L 357.331241 212.622125 
L 359.193842 216.084721 
L 361.056443 224.080059 
L 362.919044 235.989658 
L 364.781645 251.004904 
L 366.644246 268.210728 
L 368.506847 286.671276 
L 370.369448 305.506745 
L 372.232049 323.953267 
L 374.09465 341.401412 
L 375.957251 357.412669 
L 377.819852 371.71649 
L 379.682453 384.192632 
L 381.545054 394.844386 
L 383.407655 403.768068 
L 385.270256 411.123087 
L 387.132857 417.105445 
L 388.995458 421.926109 
L 390.858059 425.794505 
L 392.72066 428.906626 
L 394.58326 431.436945 
L 396.445861 433.533312 
L 398.308462 435.314208 
L 400.171063 436.868 
L 402.033664 438.253982 
L 403.896265 439.505103 
L 405.758866 440.632178 
L 407.621467 441.629289 
L 409.484068 442.479893 
L 411.346669 443.163065 
L 413.20927 443.659251 
L 415.071871 443.955015 
L 416.934472 444.046374 
L 418.797073 443.940604 
L 420.659674 443.656546 
L 422.522275 443.223698 
L 424.384876 442.680422 
L 426.247477 442.071652 
L 428.110078 441.446396 
L 429.972679 440.855221 
L 431.83528 440.347796 
L 433.697881 439.970477 
L 435.560482 439.763916 
L 437.423083 439.760707 
L 439.285684 439.983205 
L 441.148285 440.441742 
L 443.010885 441.133545 
L 444.873486 442.042647 
L 446.736087 443.141025 
L 448.598688 444.39097 
L 450.461289 445.748536 
L 452.32389 447.167669 
L 454.186491 448.604461 
L 456.049092 450.020937 
L 457.911693 451.387822 
L 459.774294 452.685944 
L 461.636895 453.906118 
L 463.499496 455.047695 
L 465.362097 456.116107 
L 467.224698 457.119963 
L 469.087299 458.068208 
L 470.9499 458.967851 
L 472.812501 459.822553 
L 474.675102 460.632187 
L 476.537703 461.393299 
L 478.400304 462.100206 
L 480.262905 462.746433 
L 482.125506 463.326142 
L 483.988107 463.83531 
L 485.850708 464.272465 
L 487.713309 464.638947 
L 489.57591 464.938719 
L 491.43851 465.177861 
L 493.301111 465.363868 
L 495.163712 465.504914 
L 497.026313 465.609178 
L 498.888914 465.684315 
L 500.751515 465.737105 
L 502.614116 465.773269 
" style="fill:none;stroke:#4c72b0;stroke-linecap:round;stroke-width:1.75;"/>
   </g>
   <g id="line2d_35">
    <path clip-path="url(#p4b9d3831a7)" d="M 309.045988 464.189593 
L 311.157035 463.366478 
L 313.268082 462.20122 
L 315.379129 460.585888 
L 317.490175 458.393619 
L 319.601222 455.481442 
L 321.712269 451.696005 
L 323.823316 446.882609 
L 325.934362 440.897647 
L 328.045409 433.624033 
L 330.156456 424.988654 
L 332.267503 414.980267 
L 334.378549 403.665772 
L 336.489596 391.20246 
L 338.600643 377.843862 
L 340.711689 363.93722 
L 342.822736 349.911376 
L 344.933783 336.255017 
L 347.04483 323.486501 
L 349.155876 312.117797 
L 351.266923 302.616106 
L 353.37797 295.367325 
L 355.489017 290.645546 
L 357.600063 288.592126 
L 359.71111 289.206751 
L 361.822157 292.351349 
L 363.933204 297.766084 
L 366.04425 305.095185 
L 368.155297 313.919237 
L 370.266344 323.79003 
L 372.377391 334.26407 
L 374.488437 344.931443 
L 376.599484 355.437657 
L 378.710531 365.497256 
L 380.821578 374.899161 
L 382.932624 383.504658 
L 385.043671 391.239695 
L 387.154718 398.083461 
L 389.265765 404.055329 
L 391.376811 409.201943 
L 393.487858 413.585866 
L 395.598905 417.276661 
L 397.709952 420.344752 
L 399.820998 422.857981 
L 401.932045 424.880368 
L 404.043092 426.472437 
L 406.154139 427.692323 
L 408.265185 428.596983 
L 410.376232 429.242951 
L 412.487279 429.686312 
L 414.598326 429.981786 
L 416.709372 430.18106 
L 418.820419 430.33065 
L 420.931466 430.469707 
L 423.042513 430.628161 
L 425.153559 430.825606 
L 427.264606 431.071143 
L 429.375653 431.364309 
L 431.486699 431.697004 
L 433.597746 432.056221 
L 435.708793 432.427232 
L 437.81984 432.796845 
L 439.930886 433.15633 
L 442.041933 433.503653 
L 444.15298 433.844768 
L 446.264027 434.193823 
L 448.375073 434.572269 
L 450.48612 435.007015 
L 452.597167 435.527843 
L 454.708214 436.164399 
L 456.81926 436.943103 
L 458.930307 437.884314 
L 461.041354 439.000042 
L 463.152401 440.292449 
L 465.263447 441.753236 
L 467.374494 443.363985 
L 469.485541 445.09736 
L 471.596588 446.919015 
L 473.707634 448.790016 
L 475.818681 450.669488 
L 477.929728 452.517265 
L 480.040775 454.296286 
L 482.151821 455.974562 
L 484.262868 457.526576 
L 486.373915 458.93407 
L 488.484962 460.186224 
L 490.596008 461.279286 
L 492.707055 462.215773 
L 494.818102 463.00337 
L 496.929149 463.65366 
L 499.040195 464.180836 
L 501.151242 464.600477 
L 503.262289 464.928492 
L 505.373336 465.180268 
L 507.484382 465.370042 
L 509.595429 465.510505 
L 511.706476 465.612593 
L 513.817522 465.685449 
L 515.928569 465.7365 
L 518.039616 465.771624 
" style="fill:none;stroke:#55a868;stroke-linecap:round;stroke-width:1.75;"/>
   </g>
   <g id="line2d_36">
    <path clip-path="url(#p4b9d3831a7)" d="M 308.13366 464.155477 
L 310.221531 463.340009 
L 312.309401 462.193924 
L 314.397272 460.6145 
L 316.485143 458.48058 
L 318.573014 455.654621 
L 320.660885 451.987204 
L 322.748755 447.324461 
L 324.836626 441.518587 
L 326.924497 434.441249 
L 329.012368 425.999269 
L 331.100239 416.151413 
L 333.188109 404.92467 
L 335.27598 392.428054 
L 337.363851 378.861776 
L 339.451722 364.51984 
L 341.539592 349.784507 
L 343.627463 335.111924 
L 345.715334 321.009148 
L 347.803205 308.003989 
L 349.891076 296.610078 
L 351.978946 287.290428 
L 354.066817 280.42319 
L 356.154688 276.273209 
L 358.242559 274.972488 
L 360.33043 276.511644 
L 362.4183 280.743182 
L 364.506171 287.396017 
L 366.594042 296.099452 
L 368.681913 306.413767 
L 370.769783 317.864076 
L 372.857654 329.973951 
L 374.945525 342.295685 
L 377.033396 354.434723 
L 379.121267 366.066716 
L 381.209137 376.946606 
L 383.297008 386.910059 
L 385.384879 395.868319 
L 387.47275 403.798023 
L 389.56062 410.727793 
L 391.648491 416.723436 
L 393.736362 421.873369 
L 395.824233 426.275611 
L 397.912104 430.027254 
L 399.999974 433.2169 
L 402.087845 435.920189 
L 404.175716 438.198139 
L 406.263587 440.097833 
L 408.351458 441.654742 
L 410.439328 442.895989 
L 412.527199 443.843823 
L 414.61507 444.51871 
L 416.702941 444.941611 
L 418.790811 445.135223 
L 420.878682 445.124146 
L 422.966553 444.93415 
L 425.054424 444.590862 
L 427.142295 444.11825 
L 429.230165 443.537328 
L 431.318036 442.865431 
L 433.405907 442.116293 
L 435.493778 441.301017 
L 437.581649 440.429837 
L 439.669519 439.514428 
L 441.75739 438.570365 
L 443.845261 437.619311 
L 445.933132 436.690485 
L 448.021002 435.821049 
L 450.108873 435.055222 
L 452.196744 434.442079 
L 454.284615 434.032221 
L 456.372486 433.873657 
L 458.460356 434.007397 
L 460.548227 434.463293 
L 462.636098 435.256664 
L 464.723969 436.386132 
L 466.81184 437.832955 
L 468.89971 439.56194 
L 470.987581 441.523832 
L 473.075452 443.658875 
L 475.163323 445.901149 
L 477.251193 448.183192 
L 479.339064 450.440425 
L 481.426935 452.614976 
L 483.514806 454.658587 
L 485.602677 456.534439 
L 487.690547 458.217858 
L 489.778418 459.696 
L 491.866289 460.966703 
L 493.95416 462.03674 
L 496.042031 462.919748 
L 498.129901 463.634075 
L 500.217772 464.200734 
L 502.305643 464.641643 
L 504.393514 464.978207 
L 506.481384 465.230297 
L 508.569255 465.415599 
L 510.657126 465.549288 
L 512.744997 465.643965 
L 514.832868 465.709788 
" style="fill:none;stroke:#c44e52;stroke-linecap:round;stroke-width:1.75;"/>
   </g>
   <g id="line2d_37">
    <path clip-path="url(#p4b9d3831a7)" d="M 333.063964 459.932372 
L 334.576254 455.03358 
L 336.088545 446.908784 
L 337.600836 434.078815 
L 339.113126 414.808419 
L 340.625417 387.314092 
L 342.137707 350.11446 
L 343.649998 302.496809 
L 345.162288 245.017091 
L 346.674579 179.898782 
L 348.186869 111.173548 
L 349.69916 44.435981 
L 350.878486 -1 
M 359.201495 -1 
L 360.285194 39.931376 
L 361.797484 105.751464 
L 363.309775 173.862827 
L 364.822065 238.722576 
L 366.334356 296.308298 
L 367.846646 344.356143 
L 369.358937 382.226372 
L 370.871227 410.521241 
L 372.383518 430.605767 
L 373.895808 444.159119 
L 375.408099 452.834982 
L 376.920389 458.056611 
L 378.43268 460.932967 
L 379.94497 462.262023 
L 381.457261 462.583766 
L 382.969552 462.25183 
L 384.481842 461.50272 
L 385.994133 460.51084 
L 387.506423 459.424473 
L 389.018714 458.38248 
L 390.531004 457.514785 
L 392.043295 456.931948 
L 393.555585 456.710478 
L 395.067876 456.880546 
L 396.580166 457.421205 
L 398.092457 458.265397 
L 399.604747 459.313736 
L 401.117038 460.453326 
L 402.629328 461.576619 
L 404.141619 462.595778 
L 405.653909 463.44985 
L 407.1662 464.104429 
L 408.678491 464.545613 
L 410.190781 464.771265 
L 411.703072 464.782858 
L 413.215362 464.580518 
L 414.727653 464.162756 
L 416.239943 463.530957 
L 417.752234 462.697311 
L 419.264524 461.693628 
L 420.776815 460.577841 
L 422.289105 459.435079 
L 423.801396 458.371343 
L 425.313686 457.499847 
L 426.825977 456.922482 
L 428.338267 456.710828 
L 429.850558 456.891794 
L 431.362849 457.441975 
L 432.875139 458.29234 
L 434.38743 459.341836 
L 435.89972 460.475933 
L 437.412011 461.585042 
L 438.924301 462.57834 
L 440.436592 463.390477 
L 441.948882 463.98113 
L 443.461173 464.329527 
L 444.973463 464.427202 
L 446.485754 464.272325 
L 447.998044 463.867912 
L 449.510335 463.224618 
L 451.022625 462.367022 
L 452.534916 461.340775 
L 454.047207 460.217202 
L 455.559497 459.092244 
L 457.071788 458.078045 
L 458.584078 457.287784 
L 460.096369 456.816791 
L 461.608659 456.7247 
L 463.12095 457.023619 
L 464.63324 457.675822 
L 466.145531 458.601715 
L 467.657821 459.695865 
L 469.170112 460.846668 
L 470.682402 461.954649 
L 472.194693 462.945396 
L 473.706983 463.775174 
L 475.219274 464.429602 
L 476.731565 464.917394 
L 478.243855 465.261895 
L 479.756146 465.49286 
L 481.268436 465.640062 
L 482.780727 465.729345 
" style="fill:none;stroke:#8172b2;stroke-linecap:round;stroke-width:1.75;"/>
   </g>
   <g id="line2d_38">
    <path clip-path="url(#p4b9d3831a7)" d="M 360.620034 465.838125 
L 360.620034 22.318125 
" style="fill:none;stroke:#000000;stroke-dasharray:1.85,0.8;stroke-dashoffset:0;stroke-width:0.5;"/>
   </g>
   <g id="patch_8">
    <path d="M 297.638362 465.838125 
L 297.638362 22.318125 
" style="fill:none;stroke:#262626;stroke-linecap:square;stroke-linejoin:miter;stroke-width:1.25;"/>
   </g>
   <g id="patch_9">
    <path d="M 528.534914 465.838125 
L 528.534914 22.318125 
" style="fill:none;stroke:#262626;stroke-linecap:square;stroke-linejoin:miter;stroke-width:1.25;"/>
   </g>
   <g id="patch_10">
    <path d="M 297.638362 465.838125 
L 528.534914 465.838125 
" style="fill:none;stroke:#262626;stroke-linecap:square;stroke-linejoin:miter;stroke-width:1.25;"/>
   </g>
   <g id="patch_11">
    <path d="M 297.638362 22.318125 
L 528.534914 22.318125 
" style="fill:none;stroke:#262626;stroke-linecap:square;stroke-linejoin:miter;stroke-width:1.25;"/>
   </g>
   <g id="text_26">
    <!-- -1 -->
    <g style="fill:#262626;" transform="translate(407.10445 16.318125)scale(0.12 -0.12)">
     <use xlink:href="#DejaVuSans-2d"/>
     <use x="36.083984" xlink:href="#DejaVuSans-31"/>
    </g>
   </g>
   <g id="legend_2">
    <g id="line2d_39">
     <path d="M 454.061774 33.226504 
L 470.717774 33.226504 
" style="fill:none;stroke:#4c72b0;stroke-linecap:round;stroke-width:1.75;"/>
    </g>
    <g id="line2d_40"/>
    <g id="text_27">
     <!-- A: 62.50% -->
     <g style="fill:#262626;" transform="translate(477.380174 36.141304)scale(0.08328 -0.08328)">
      <use xlink:href="#DejaVuSans-41"/>
      <use x="68.392578" xlink:href="#DejaVuSans-3a"/>
      <use x="102.083984" xlink:href="#DejaVuSans-20"/>
      <use x="133.871094" xlink:href="#DejaVuSans-36"/>
      <use x="197.494141" xlink:href="#DejaVuSans-32"/>
      <use x="261.117188" xlink:href="#DejaVuSans-2e"/>
      <use x="292.904297" xlink:href="#DejaVuSans-35"/>
      <use x="356.527344" xlink:href="#DejaVuSans-30"/>
      <use x="420.150391" xlink:href="#DejaVuSans-25"/>
     </g>
    </g>
    <g id="line2d_41">
     <path d="M 454.061774 45.450446 
L 470.717774 45.450446 
" style="fill:none;stroke:#55a868;stroke-linecap:round;stroke-width:1.75;"/>
    </g>
    <g id="line2d_42"/>
    <g id="text_28">
     <!-- C: 53.12% -->
     <g style="fill:#262626;" transform="translate(477.380174 48.365246)scale(0.08328 -0.08328)">
      <use xlink:href="#DejaVuSans-43"/>
      <use x="69.824219" xlink:href="#DejaVuSans-3a"/>
      <use x="103.515625" xlink:href="#DejaVuSans-20"/>
      <use x="135.302734" xlink:href="#DejaVuSans-35"/>
      <use x="198.925781" xlink:href="#DejaVuSans-33"/>
      <use x="262.548828" xlink:href="#DejaVuSans-2e"/>
      <use x="294.335938" xlink:href="#DejaVuSans-31"/>
      <use x="357.958984" xlink:href="#DejaVuSans-32"/>
      <use x="421.582031" xlink:href="#DejaVuSans-25"/>
     </g>
    </g>
    <g id="line2d_43">
     <path d="M 454.061774 57.674389 
L 470.717774 57.674389 
" style="fill:none;stroke:#c44e52;stroke-linecap:round;stroke-width:1.75;"/>
    </g>
    <g id="line2d_44"/>
    <g id="text_29">
     <!-- G: 57.81% -->
     <g style="fill:#262626;" transform="translate(477.380174 60.589189)scale(0.08328 -0.08328)">
      <use xlink:href="#DejaVuSans-47"/>
      <use x="77.490234" xlink:href="#DejaVuSans-3a"/>
      <use x="111.181641" xlink:href="#DejaVuSans-20"/>
      <use x="142.96875" xlink:href="#DejaVuSans-35"/>
      <use x="206.591797" xlink:href="#DejaVuSans-37"/>
      <use x="270.214844" xlink:href="#DejaVuSans-2e"/>
      <use x="302.001953" xlink:href="#DejaVuSans-38"/>
      <use x="365.625" xlink:href="#DejaVuSans-31"/>
      <use x="429.248047" xlink:href="#DejaVuSans-25"/>
     </g>
    </g>
    <g id="line2d_45">
     <path d="M 454.061774 69.898331 
L 470.717774 69.898331 
" style="fill:none;stroke:#8172b2;stroke-linecap:round;stroke-width:1.75;"/>
    </g>
    <g id="line2d_46"/>
    <g id="text_30">
     <!-- T: 93.75% -->
     <g style="fill:#262626;" transform="translate(477.380174 72.813131)scale(0.08328 -0.08328)">
      <use xlink:href="#DejaVuSans-54"/>
      <use x="60.912109" xlink:href="#DejaVuSans-3a"/>
      <use x="94.603516" xlink:href="#DejaVuSans-20"/>
      <use x="126.390625" xlink:href="#DejaVuSans-39"/>
      <use x="190.013672" xlink:href="#DejaVuSans-33"/>
      <use x="253.636719" xlink:href="#DejaVuSans-2e"/>
      <use x="285.423828" xlink:href="#DejaVuSans-37"/>
      <use x="349.046875" xlink:href="#DejaVuSans-35"/>
      <use x="412.669922" xlink:href="#DejaVuSans-25"/>
     </g>
    </g>
   </g>
  </g>
  <g id="axes_3">
   <g id="patch_12">
    <path d="M 574.714224 465.838125 
L 805.610776 465.838125 
L 805.610776 22.318125 
L 574.714224 22.318125 
z
" style="fill:#ffffff;"/>
   </g>
   <g id="matplotlib.axis_5">
    <g id="xtick_9">
     <g id="line2d_47"/>
     <g id="text_31">
      <!-- −0.25 -->
      <g style="fill:#262626;" transform="translate(570.749228 480.436562)scale(0.1 -0.1)">
       <use xlink:href="#DejaVuSans-2212"/>
       <use x="83.789062" xlink:href="#DejaVuSans-30"/>
       <use x="147.412109" xlink:href="#DejaVuSans-2e"/>
       <use x="179.199219" xlink:href="#DejaVuSans-32"/>
       <use x="242.822266" xlink:href="#DejaVuSans-35"/>
      </g>
     </g>
    </g>
    <g id="xtick_10">
     <g id="line2d_48"/>
     <g id="text_32">
      <!-- 0.00 -->
      <g style="fill:#262626;" transform="translate(610.11244 480.436562)scale(0.1 -0.1)">
       <use xlink:href="#DejaVuSans-30"/>
       <use x="63.623047" xlink:href="#DejaVuSans-2e"/>
       <use x="95.410156" xlink:href="#DejaVuSans-30"/>
       <use x="159.033203" xlink:href="#DejaVuSans-30"/>
      </g>
     </g>
    </g>
    <g id="xtick_11">
     <g id="line2d_49"/>
     <g id="text_33">
      <!-- 0.25 -->
      <g style="fill:#262626;" transform="translate(645.285807 480.436562)scale(0.1 -0.1)">
       <use xlink:href="#DejaVuSans-30"/>
       <use x="63.623047" xlink:href="#DejaVuSans-2e"/>
       <use x="95.410156" xlink:href="#DejaVuSans-32"/>
       <use x="159.033203" xlink:href="#DejaVuSans-35"/>
      </g>
     </g>
    </g>
    <g id="xtick_12">
     <g id="line2d_50"/>
     <g id="text_34">
      <!-- 0.50 -->
      <g style="fill:#262626;" transform="translate(680.459175 480.436562)scale(0.1 -0.1)">
       <use xlink:href="#DejaVuSans-30"/>
       <use x="63.623047" xlink:href="#DejaVuSans-2e"/>
       <use x="95.410156" xlink:href="#DejaVuSans-35"/>
       <use x="159.033203" xlink:href="#DejaVuSans-30"/>
      </g>
     </g>
    </g>
    <g id="xtick_13">
     <g id="line2d_51"/>
     <g id="text_35">
      <!-- 0.75 -->
      <g style="fill:#262626;" transform="translate(715.632543 480.436562)scale(0.1 -0.1)">
       <use xlink:href="#DejaVuSans-30"/>
       <use x="63.623047" xlink:href="#DejaVuSans-2e"/>
       <use x="95.410156" xlink:href="#DejaVuSans-37"/>
       <use x="159.033203" xlink:href="#DejaVuSans-35"/>
      </g>
     </g>
    </g>
    <g id="xtick_14">
     <g id="line2d_52"/>
     <g id="text_36">
      <!-- 1.00 -->
      <g style="fill:#262626;" transform="translate(750.80591 480.436562)scale(0.1 -0.1)">
       <use xlink:href="#DejaVuSans-31"/>
       <use x="63.623047" xlink:href="#DejaVuSans-2e"/>
       <use x="95.410156" xlink:href="#DejaVuSans-30"/>
       <use x="159.033203" xlink:href="#DejaVuSans-30"/>
      </g>
     </g>
    </g>
    <g id="xtick_15">
     <g id="line2d_53"/>
     <g id="text_37">
      <!-- 1.25 -->
      <g style="fill:#262626;" transform="translate(785.979278 480.436562)scale(0.1 -0.1)">
       <use xlink:href="#DejaVuSans-31"/>
       <use x="63.623047" xlink:href="#DejaVuSans-2e"/>
       <use x="95.410156" xlink:href="#DejaVuSans-32"/>
       <use x="159.033203" xlink:href="#DejaVuSans-35"/>
      </g>
     </g>
    </g>
   </g>
   <g id="matplotlib.axis_6">
    <g id="ytick_13">
     <g id="line2d_54"/>
     <g id="text_38">
      <!-- 0 -->
      <g style="fill:#262626;" transform="translate(561.351724 469.637344)scale(0.1 -0.1)">
       <use xlink:href="#DejaVuSans-30"/>
      </g>
     </g>
    </g>
    <g id="ytick_14">
     <g id="line2d_55"/>
     <g id="text_39">
      <!-- 1 -->
      <g style="fill:#262626;" transform="translate(561.351724 380.933344)scale(0.1 -0.1)">
       <use xlink:href="#DejaVuSans-31"/>
      </g>
     </g>
    </g>
    <g id="ytick_15">
     <g id="line2d_56"/>
     <g id="text_40">
      <!-- 2 -->
      <g style="fill:#262626;" transform="translate(561.351724 292.229344)scale(0.1 -0.1)">
       <use xlink:href="#DejaVuSans-32"/>
      </g>
     </g>
    </g>
    <g id="ytick_16">
     <g id="line2d_57"/>
     <g id="text_41">
      <!-- 3 -->
      <g style="fill:#262626;" transform="translate(561.351724 203.525344)scale(0.1 -0.1)">
       <use xlink:href="#DejaVuSans-33"/>
      </g>
     </g>
    </g>
    <g id="ytick_17">
     <g id="line2d_58"/>
     <g id="text_42">
      <!-- 4 -->
      <g style="fill:#262626;" transform="translate(561.351724 114.821344)scale(0.1 -0.1)">
       <use xlink:href="#DejaVuSans-34"/>
      </g>
     </g>
    </g>
    <g id="ytick_18">
     <g id="line2d_59"/>
     <g id="text_43">
      <!-- 5 -->
      <g style="fill:#262626;" transform="translate(561.351724 26.117344)scale(0.1 -0.1)">
       <use xlink:href="#DejaVuSans-35"/>
      </g>
     </g>
    </g>
   </g>
   <g id="line2d_60">
    <path clip-path="url(#p36f815e876)" d="M 585.209522 462.871147 
L 587.329784 460.867215 
L 589.450046 457.762483 
L 591.570308 453.11633 
L 593.690571 446.404137 
L 595.810833 437.048793 
L 597.931095 424.478799 
L 600.051357 408.213744 
L 602.171619 387.971397 
L 604.291882 363.782675 
L 606.412144 336.093428 
L 608.532406 305.827598 
L 610.652668 274.387511 
L 612.77293 243.575082 
L 614.893193 215.432041 
L 617.013455 192.015235 
L 619.133717 175.140185 
L 621.253979 166.137294 
L 623.374241 165.666589 
L 625.494503 173.627323 
L 627.614766 189.179985 
L 629.735028 210.875162 
L 631.85529 236.862156 
L 633.975552 265.136016 
L 636.095814 293.777718 
L 638.216077 321.148785 
L 640.336339 346.015849 
L 642.456601 367.597916 
L 644.576863 385.544799 
L 646.697125 399.86593 
L 648.817387 410.833019 
L 650.93765 418.878527 
L 653.057912 424.5063 
L 655.178174 428.223578 
L 657.298436 430.496801 
L 659.418698 431.728685 
L 661.538961 432.251282 
L 663.659223 432.329106 
L 665.779485 432.167146 
L 667.899747 431.920166 
L 670.020009 431.701298 
L 672.140271 431.589302 
L 674.260534 431.634638 
L 676.380796 431.864782 
L 678.501058 432.289051 
L 680.62132 432.902921 
L 682.741582 433.691556 
L 684.861845 434.632228 
L 686.982107 435.695538 
L 689.102369 436.845754 
L 691.222631 438.040905 
L 693.342893 439.233528 
L 695.463155 440.372762 
L 697.583418 441.408091 
L 699.70368 442.2944 
L 701.823942 442.997469 
L 703.944204 443.498701 
L 706.064466 443.797908 
L 708.184729 443.913423 
L 710.304991 443.879389 
L 712.425253 443.740743 
L 714.545515 443.546904 
L 716.665777 443.345343 
L 718.786039 443.176143 
L 720.906302 443.068311 
L 723.026564 443.038153 
L 725.146826 443.089671 
L 727.267088 443.216636 
L 729.38735 443.405846 
L 731.507613 443.64108 
L 733.627875 443.907255 
L 735.748137 444.194314 
L 737.868399 444.500382 
L 739.988661 444.833693 
L 742.108923 445.212879 
L 744.229186 445.665319 
L 746.349448 446.223572 
L 748.46971 446.92027 
L 750.589972 447.782212 
L 752.710234 448.824716 
L 754.830497 450.047316 
L 756.950759 451.43174 
L 759.071021 452.942645 
L 761.191283 454.531064 
L 763.311545 456.139946 
L 765.431807 457.710751 
L 767.55207 459.189939 
L 769.672332 460.534252 
L 771.792594 461.714076 
L 773.912856 462.714573 
L 776.033118 463.534761 
L 778.153381 464.185047 
L 780.273643 464.683883 
L 782.393905 465.054244 
L 784.514167 465.320459 
L 786.634429 465.505767 
L 788.754692 465.630709 
L 790.874954 465.712323 
L 792.995216 465.763979 
L 795.115478 465.795665 
" style="fill:none;stroke:#000000;stroke-linecap:round;stroke-width:1.75;"/>
   </g>
   <g id="line2d_61">
    <path clip-path="url(#p36f815e876)" d="M 628.279926 465.838125 
L 628.279926 22.318125 
" style="fill:none;stroke:#000000;stroke-dasharray:1.85,0.8;stroke-dashoffset:0;stroke-width:0.5;"/>
   </g>
   <g id="patch_13">
    <path d="M 574.714224 465.838125 
L 574.714224 22.318125 
" style="fill:none;stroke:#262626;stroke-linecap:square;stroke-linejoin:miter;stroke-width:1.25;"/>
   </g>
   <g id="patch_14">
    <path d="M 805.610776 465.838125 
L 805.610776 22.318125 
" style="fill:none;stroke:#262626;stroke-linecap:square;stroke-linejoin:miter;stroke-width:1.25;"/>
   </g>
   <g id="patch_15">
    <path d="M 574.714224 465.838125 
L 805.610776 465.838125 
" style="fill:none;stroke:#262626;stroke-linecap:square;stroke-linejoin:miter;stroke-width:1.25;"/>
   </g>
   <g id="patch_16">
    <path d="M 574.714224 22.318125 
L 805.610776 22.318125 
" style="fill:none;stroke:#262626;stroke-linecap:square;stroke-linejoin:miter;stroke-width:1.25;"/>
   </g>
   <g id="text_44">
    <!-- +0 -->
    <defs>
     <path d="M 46 62.703125 
L 46 35.5 
L 73.1875 35.5 
L 73.1875 27.203125 
L 46 27.203125 
L 46 0 
L 37.796875 0 
L 37.796875 27.203125 
L 10.59375 27.203125 
L 10.59375 35.5 
L 37.796875 35.5 
L 37.796875 62.703125 
z
" id="DejaVuSans-2b"/>
    </defs>
    <g style="fill:#262626;" transform="translate(681.317188 16.318125)scale(0.12 -0.12)">
     <use xlink:href="#DejaVuSans-2b"/>
     <use x="83.789062" xlink:href="#DejaVuSans-30"/>
    </g>
   </g>
   <g id="legend_3">
    <g id="line2d_62">
     <path d="M 731.885855 33.226504 
L 748.541855 33.226504 
" style="fill:none;stroke:#000000;stroke-linecap:round;stroke-width:1.75;"/>
    </g>
    <g id="line2d_63"/>
    <g id="text_45">
     <!-- X: 68.75% -->
     <defs>
      <path d="M 6.296875 72.90625 
L 16.890625 72.90625 
L 35.015625 45.796875 
L 53.21875 72.90625 
L 63.8125 72.90625 
L 40.375 37.890625 
L 65.375 0 
L 54.78125 0 
L 34.28125 31 
L 13.625 0 
L 2.984375 0 
L 29 38.921875 
z
" id="DejaVuSans-58"/>
     </defs>
     <g style="fill:#262626;" transform="translate(755.204255 36.141304)scale(0.08328 -0.08328)">
      <use xlink:href="#DejaVuSans-58"/>
      <use x="68.505859" xlink:href="#DejaVuSans-3a"/>
      <use x="102.197266" xlink:href="#DejaVuSans-20"/>
      <use x="133.984375" xlink:href="#DejaVuSans-36"/>
      <use x="197.607422" xlink:href="#DejaVuSans-38"/>
      <use x="261.230469" xlink:href="#DejaVuSans-2e"/>
      <use x="293.017578" xlink:href="#DejaVuSans-37"/>
      <use x="356.640625" xlink:href="#DejaVuSans-35"/>
      <use x="420.263672" xlink:href="#DejaVuSans-25"/>
     </g>
    </g>
   </g>
  </g>
  <g id="axes_4">
   <g id="patch_17">
    <path d="M 851.790086 465.838125 
L 1082.686638 465.838125 
L 1082.686638 22.318125 
L 851.790086 22.318125 
z
" style="fill:#ffffff;"/>
   </g>
   <g id="matplotlib.axis_7">
    <g id="xtick_16">
     <g id="line2d_64"/>
     <g id="text_46">
      <!-- 0.0 -->
      <g style="fill:#262626;" transform="translate(899.096459 480.436562)scale(0.1 -0.1)">
       <use xlink:href="#DejaVuSans-30"/>
       <use x="63.623047" xlink:href="#DejaVuSans-2e"/>
       <use x="95.410156" xlink:href="#DejaVuSans-30"/>
      </g>
     </g>
    </g>
    <g id="xtick_17">
     <g id="line2d_65"/>
     <g id="text_47">
      <!-- 0.5 -->
      <g style="fill:#262626;" transform="translate(959.670753 480.436562)scale(0.1 -0.1)">
       <use xlink:href="#DejaVuSans-30"/>
       <use x="63.623047" xlink:href="#DejaVuSans-2e"/>
       <use x="95.410156" xlink:href="#DejaVuSans-35"/>
      </g>
     </g>
    </g>
    <g id="xtick_18">
     <g id="line2d_66"/>
     <g id="text_48">
      <!-- 1.0 -->
      <g style="fill:#262626;" transform="translate(1020.245046 480.436562)scale(0.1 -0.1)">
       <use xlink:href="#DejaVuSans-31"/>
       <use x="63.623047" xlink:href="#DejaVuSans-2e"/>
       <use x="95.410156" xlink:href="#DejaVuSans-30"/>
      </g>
     </g>
    </g>
   </g>
   <g id="matplotlib.axis_8">
    <g id="ytick_19">
     <g id="line2d_67"/>
     <g id="text_49">
      <!-- 0 -->
      <g style="fill:#262626;" transform="translate(838.427586 469.637344)scale(0.1 -0.1)">
       <use xlink:href="#DejaVuSans-30"/>
      </g>
     </g>
    </g>
    <g id="ytick_20">
     <g id="line2d_68"/>
     <g id="text_50">
      <!-- 1 -->
      <g style="fill:#262626;" transform="translate(838.427586 380.933344)scale(0.1 -0.1)">
       <use xlink:href="#DejaVuSans-31"/>
      </g>
     </g>
    </g>
    <g id="ytick_21">
     <g id="line2d_69"/>
     <g id="text_51">
      <!-- 2 -->
      <g style="fill:#262626;" transform="translate(838.427586 292.229344)scale(0.1 -0.1)">
       <use xlink:href="#DejaVuSans-32"/>
      </g>
     </g>
    </g>
    <g id="ytick_22">
     <g id="line2d_70"/>
     <g id="text_52">
      <!-- 3 -->
      <g style="fill:#262626;" transform="translate(838.427586 203.525344)scale(0.1 -0.1)">
       <use xlink:href="#DejaVuSans-33"/>
      </g>
     </g>
    </g>
    <g id="ytick_23">
     <g id="line2d_71"/>
     <g id="text_53">
      <!-- 4 -->
      <g style="fill:#262626;" transform="translate(838.427586 114.821344)scale(0.1 -0.1)">
       <use xlink:href="#DejaVuSans-34"/>
      </g>
     </g>
    </g>
    <g id="ytick_24">
     <g id="line2d_72"/>
     <g id="text_54">
      <!-- 5 -->
      <g style="fill:#262626;" transform="translate(838.427586 26.117344)scale(0.1 -0.1)">
       <use xlink:href="#DejaVuSans-35"/>
      </g>
     </g>
    </g>
   </g>
   <g id="line2d_73">
    <path clip-path="url(#p16ec07b308)" d="M 881.640074 462.30023 
L 883.32831 459.525906 
L 885.016545 455.00235 
L 886.70478 447.940187 
L 888.393016 437.390962 
L 890.081251 422.327026 
L 891.769487 401.787453 
L 893.457722 375.086652 
L 895.145957 342.060587 
L 896.834193 303.301925 
L 898.522428 260.318408 
L 900.210664 215.547709 
L 901.898899 172.18306 
L 903.587134 133.806199 
L 905.27537 103.877692 
L 906.963605 85.182925 
L 908.65184 79.357111 
L 910.340076 86.603017 
L 912.028311 105.670985 
L 913.716547 134.104936 
L 915.404782 168.691538 
L 917.093017 206.003348 
L 918.781253 242.91373 
L 920.469488 276.982388 
L 922.157724 306.655124 
L 923.845959 331.273279 
L 925.534194 350.931498 
L 927.22243 366.246896 
L 928.910665 378.106189 
L 930.598901 387.44441 
L 932.287136 395.08711 
L 933.975371 401.665489 
L 935.663607 407.596221 
L 937.351842 413.107444 
L 939.040077 418.289296 
L 940.728313 423.149768 
L 942.416548 427.662118 
L 944.104784 431.796579 
L 945.793019 435.534979 
L 947.481254 438.871359 
L 949.16949 441.804345 
L 950.857725 444.327816 
L 952.545961 446.425551 
L 954.234196 448.073381 
L 955.922431 449.249408 
L 957.610667 449.949825 
L 959.298902 450.205509 
L 960.987137 450.09364 
L 962.675373 449.739392 
L 964.363608 449.305297 
L 966.051844 448.969392 
L 967.740079 448.89673 
L 969.428314 449.211114 
L 971.11655 449.974142 
L 972.804785 451.17674 
L 974.493021 452.744945 
L 976.181256 454.557811 
L 977.869491 456.472389 
L 979.557727 458.349439 
L 981.245962 460.074229 
L 982.934197 461.568906 
L 984.622433 462.795615 
L 986.310668 463.751906 
L 987.998904 464.461342 
L 989.687139 464.962502 
L 991.375374 465.298919 
L 993.06361 465.511436 
L 994.751845 465.633393 
L 996.440081 465.688258 
L 998.128316 465.689 
L 999.816551 465.638514 
L 1001.504787 465.530655 
L 1003.193022 465.35184 
L 1004.881258 465.083404 
L 1006.569493 464.705033 
L 1008.257728 464.19944 
L 1009.945964 463.558043 
L 1011.634199 462.786869 
L 1013.322434 461.911339 
L 1015.01067 460.978376 
L 1016.698905 460.054436 
L 1018.387141 459.218863 
L 1020.075376 458.553162 
L 1021.763611 458.128055 
L 1023.451847 457.991148 
L 1025.140082 458.158155 
L 1026.828318 458.609931 
L 1028.516553 459.296086 
L 1030.204788 460.144229 
L 1031.893024 461.072508 
L 1033.581259 462.002451 
L 1035.269494 462.869349 
L 1036.95773 463.628461 
L 1038.645965 464.256556 
L 1040.334201 464.749538 
L 1042.022436 465.117596 
L 1043.710671 465.379505 
L 1045.398907 465.557409 
L 1047.087142 465.672893 
L 1048.775378 465.744598 
" style="fill:none;stroke:#4c72b0;stroke-linecap:round;stroke-width:1.75;"/>
   </g>
   <g id="line2d_74">
    <path clip-path="url(#p16ec07b308)" d="M 863.822761 464.526756 
L 865.876754 463.844718 
L 867.930747 462.866784 
L 869.98474 461.494931 
L 872.038734 459.612504 
L 874.092727 457.086448 
L 876.14672 453.772329 
L 878.200713 449.522631 
L 880.254706 444.198439 
L 882.308699 437.684208 
L 884.362692 429.904656 
L 886.416685 420.842244 
L 888.470678 410.553136 
L 890.524671 399.179211 
L 892.578664 386.953679 
L 894.632657 374.198272 
L 896.68665 361.310793 
L 898.740644 348.743024 
L 900.794637 336.97034 
L 902.84863 326.455768 
L 904.902623 317.612291 
L 906.956616 310.767791 
L 909.010609 306.136968 
L 911.064602 303.803799 
L 913.118595 303.716812 
L 915.172588 305.697706 
L 917.226581 309.462086 
L 919.280574 314.649496 
L 921.334567 320.858831 
L 923.388561 327.684758 
L 925.442554 334.750949 
L 927.496547 341.736762 
L 929.55054 348.395144 
L 931.604533 354.560932 
L 933.658526 360.149995 
L 935.712519 365.150698 
L 937.766512 369.609854 
L 939.820505 373.615564 
L 941.874498 377.279277 
L 943.928491 380.719012 
L 945.982484 384.045183 
L 948.036477 387.34987 
L 950.090471 390.699882 
L 952.144464 394.133494 
L 954.198457 397.660448 
L 956.25245 401.264598 
L 958.306443 404.908472 
L 960.360436 408.539028 
L 962.414429 412.093908 
L 964.468422 415.507564 
L 966.522415 418.716801 
L 968.576408 421.665354 
L 970.630401 424.307329 
L 972.684394 426.609444 
L 974.738388 428.552159 
L 976.792381 430.129869 
L 978.846374 431.350385 
L 980.900367 432.233951 
L 982.95436 432.811968 
L 985.008353 433.125577 
L 987.062346 433.224122 
L 989.116339 433.163475 
L 991.170332 433.004153 
L 993.224325 432.809143 
L 995.278318 432.641427 
L 997.332311 432.561224 
L 999.386305 432.62311 
L 1001.440298 432.873209 
L 1003.494291 433.346741 
L 1005.548284 434.066175 
L 1007.602277 435.040222 
L 1009.65627 436.2638 
L 1011.710263 437.718968 
L 1013.764256 439.376734 
L 1015.818249 441.199525 
L 1017.872242 443.144041 
L 1019.926235 445.1642 
L 1021.980228 447.213915 
L 1024.034221 449.24949 
L 1026.088215 451.231506 
L 1028.142208 453.126153 
L 1030.196201 454.906017 
L 1032.250194 456.550394 
L 1034.304187 458.045212 
L 1036.35818 459.382654 
L 1038.412173 460.560564 
L 1040.466166 461.581712 
L 1042.520159 462.452964 
L 1044.574152 463.1844 
L 1046.628145 463.788433 
L 1048.682138 464.27895 
L 1050.736132 464.670515 
L 1052.790125 464.977673 
L 1054.844118 465.214359 
L 1056.898111 465.393461 
L 1058.952104 465.526511 
L 1061.006097 465.623515 
L 1063.06009 465.69291 
L 1065.114083 465.74161 
L 1067.168076 465.775131 
" style="fill:none;stroke:#55a868;stroke-linecap:round;stroke-width:1.75;"/>
   </g>
   <g id="line2d_75">
    <path clip-path="url(#p16ec07b308)" d="M 871.88297 462.690984 
L 873.809762 460.769697 
L 875.736554 457.888178 
L 877.663346 453.693156 
L 879.590138 447.767295 
L 881.516929 439.649126 
L 883.443721 428.869807 
L 885.370513 415.007781 
L 887.297305 397.759058 
L 889.224097 377.016571 
L 891.150889 352.947624 
L 893.077681 326.055124 
L 895.004472 297.207129 
L 896.931264 267.621429 
L 898.858056 238.797585 
L 900.784848 212.397602 
L 902.71164 190.08658 
L 904.638432 173.354037 
L 906.565223 163.342707 
L 908.492015 160.712627 
L 910.418807 165.563518 
L 912.345599 177.42865 
L 914.272391 195.340604 
L 916.199183 217.956565 
L 918.125975 243.720868 
L 920.052766 271.037622 
L 921.979558 298.427063 
L 923.90635 324.645167 
L 925.833142 348.755178 
L 927.759934 370.149586 
L 929.686726 388.529616 
L 931.613518 403.854787 
L 933.540309 416.277103 
L 935.467101 426.073266 
L 937.393893 433.584878 
L 939.320685 439.17236 
L 941.247477 443.184123 
L 943.174269 445.939486 
L 945.10106 447.721943 
L 947.027852 448.778906 
L 948.954644 449.324426 
L 950.881436 449.542353 
L 952.808228 449.588513 
L 954.73502 449.591469 
L 956.661812 449.652134 
L 958.588603 449.842905 
L 960.515395 450.207105 
L 962.442187 450.75944 
L 964.368979 451.487941 
L 966.295771 452.357615 
L 968.222563 453.31572 
L 970.149355 454.298324 
L 972.076146 455.237613 
L 974.002938 456.069259 
L 975.92973 456.739142 
L 977.856522 457.208752 
L 979.783314 457.458735 
L 981.710106 457.490254 
L 983.636897 457.324076 
L 985.563689 456.997531 
L 987.490481 456.559742 
L 989.417273 456.065685 
L 991.344065 455.569773 
L 993.270857 455.119704 
L 995.197649 454.751287 
L 997.12444 454.484872 
L 999.051232 454.323842 
L 1000.978024 454.255385 
L 1002.904816 454.25354 
L 1004.831608 454.284138 
L 1006.7584 454.311041 
L 1008.685192 454.302782 
L 1010.611983 454.238625 
L 1012.538775 454.11304 
L 1014.465567 453.937805 
L 1016.392359 453.741278 
L 1018.319151 453.564858 
L 1020.245943 453.457161 
L 1022.172734 453.466829 
L 1024.099526 453.635198 
L 1026.026318 453.990029 
L 1027.95311 454.541356 
L 1029.879902 455.280036 
L 1031.806694 456.179144 
L 1033.733486 457.197778 
L 1035.660277 458.286509 
L 1037.587069 459.393457 
L 1039.513861 460.470008 
L 1041.440653 461.475366 
L 1043.367445 462.379439 
L 1045.294237 463.163951 
L 1047.221029 463.821923 
L 1049.14782 464.355969 
L 1051.074612 464.775868 
L 1053.001404 465.095948 
L 1054.928196 465.332651 
L 1056.854988 465.502558 
L 1058.78178 465.620992 
L 1060.708571 465.701189 
L 1062.635363 465.753959 
" style="fill:none;stroke:#c44e52;stroke-linecap:round;stroke-width:1.75;"/>
   </g>
   <g id="line2d_76">
    <path clip-path="url(#p16ec07b308)" d="M 862.285384 464.901546 
L 864.405646 464.407914 
L 866.525908 463.695741 
L 868.646171 462.689967 
L 870.766433 461.299757 
L 872.886695 459.419364 
L 875.006957 456.930983 
L 877.127219 453.710055 
L 879.247481 449.633258 
L 881.367744 444.589126 
L 883.488006 438.490808 
L 885.608268 431.290005 
L 887.72853 422.990663 
L 889.848792 413.660649 
L 891.969055 403.439502 
L 894.089317 392.540478 
L 896.209579 381.245588 
L 898.329841 369.893068 
L 900.450103 358.85773 
L 902.570365 348.525669 
L 904.690628 339.26577 
L 906.81089 331.401118 
L 908.931152 325.183629 
L 911.051414 320.77499 
L 913.171676 318.236194 
L 915.291939 317.526864 
L 917.412201 318.51423 
L 919.532463 320.990344 
L 921.652725 324.695084 
L 923.772987 329.341886 
L 925.89325 334.642999 
L 928.013512 340.331445 
L 930.133774 346.17754 
L 932.254036 351.998878 
L 934.374298 357.663604 
L 936.49456 363.087758 
L 938.614823 368.228091 
L 940.735085 373.072104 
L 942.855347 377.627125 
L 944.975609 381.910002 
L 947.095871 385.938624 
L 949.216134 389.726001 
L 951.336396 393.277145 
L 953.456658 396.588615 
L 955.57692 399.650231 
L 957.697182 402.448308 
L 959.817444 404.969657 
L 961.937707 407.205639 
L 964.057969 409.155645 
L 966.178231 410.829541 
L 968.298493 412.248811 
L 970.418755 413.446289 
L 972.539018 414.464588 
L 974.65928 415.35344 
L 976.779542 416.166277 
L 978.899804 416.956443 
L 981.020066 417.773432 
L 983.140328 418.659495 
L 985.260591 419.646958 
L 987.380853 420.756444 
L 989.501115 421.996163 
L 991.621377 423.362305 
L 993.741639 424.840473 
L 995.861902 426.408018 
L 997.982164 428.037032 
L 1000.102426 429.697691 
L 1002.222688 431.361607 
L 1004.34295 433.004815 
L 1006.463212 434.610079 
L 1008.583475 436.168266 
L 1010.703737 437.678635 
L 1012.823999 439.148044 
L 1014.944261 440.589207 
L 1017.064523 442.018245 
L 1019.184786 443.451877 
L 1021.305048 444.904632 
L 1023.42531 446.386438 
L 1025.545572 447.900889 
L 1027.665834 449.444382 
L 1029.786096 451.006184 
L 1031.906359 452.56938 
L 1034.026621 454.112506 
L 1036.146883 455.611645 
L 1038.267145 457.042673 
L 1040.387407 458.383394 
L 1042.50767 459.615309 
L 1044.627932 460.724882 
L 1046.748194 461.70419 
L 1048.868456 462.550991 
L 1050.988718 463.268271 
L 1053.10898 463.863401 
L 1055.229243 464.347059 
L 1057.349505 464.732065 
L 1059.469767 465.032258 
L 1061.590029 465.261529 
L 1063.710291 465.433052 
L 1065.830554 465.558751 
L 1067.950816 465.648989 
L 1070.071078 465.71245 
L 1072.19134 465.756172 
" style="fill:none;stroke:#8172b2;stroke-linecap:round;stroke-width:1.75;"/>
   </g>
   <g id="line2d_77">
    <path clip-path="url(#p16ec07b308)" d="M 913.105451 465.838125 
L 913.105451 22.318125 
" style="fill:none;stroke:#000000;stroke-dasharray:1.85,0.8;stroke-dashoffset:0;stroke-width:0.5;"/>
   </g>
   <g id="patch_18">
    <path d="M 851.790086 465.838125 
L 851.790086 22.318125 
" style="fill:none;stroke:#262626;stroke-linecap:square;stroke-linejoin:miter;stroke-width:1.25;"/>
   </g>
   <g id="patch_19">
    <path d="M 1082.686638 465.838125 
L 1082.686638 22.318125 
" style="fill:none;stroke:#262626;stroke-linecap:square;stroke-linejoin:miter;stroke-width:1.25;"/>
   </g>
   <g id="patch_20">
    <path d="M 851.790086 465.838125 
L 1082.686638 465.838125 
" style="fill:none;stroke:#262626;stroke-linecap:square;stroke-linejoin:miter;stroke-width:1.25;"/>
   </g>
   <g id="patch_21">
    <path d="M 851.790086 22.318125 
L 1082.686638 22.318125 
" style="fill:none;stroke:#262626;stroke-linecap:square;stroke-linejoin:miter;stroke-width:1.25;"/>
   </g>
   <g id="text_55">
    <!-- +1 -->
    <g style="fill:#262626;" transform="translate(958.39305 16.318125)scale(0.12 -0.12)">
     <use xlink:href="#DejaVuSans-2b"/>
     <use x="83.789062" xlink:href="#DejaVuSans-31"/>
    </g>
   </g>
   <g id="legend_4">
    <g id="line2d_78">
     <path d="M 1008.213498 33.226504 
L 1024.869498 33.226504 
" style="fill:none;stroke:#4c72b0;stroke-linecap:round;stroke-width:1.75;"/>
    </g>
    <g id="line2d_79"/>
    <g id="text_56">
     <!-- A: 73.44% -->
     <g style="fill:#262626;" transform="translate(1031.531898 36.141304)scale(0.08328 -0.08328)">
      <use xlink:href="#DejaVuSans-41"/>
      <use x="68.392578" xlink:href="#DejaVuSans-3a"/>
      <use x="102.083984" xlink:href="#DejaVuSans-20"/>
      <use x="133.871094" xlink:href="#DejaVuSans-37"/>
      <use x="197.494141" xlink:href="#DejaVuSans-33"/>
      <use x="261.117188" xlink:href="#DejaVuSans-2e"/>
      <use x="292.904297" xlink:href="#DejaVuSans-34"/>
      <use x="356.527344" xlink:href="#DejaVuSans-34"/>
      <use x="420.150391" xlink:href="#DejaVuSans-25"/>
     </g>
    </g>
    <g id="line2d_80">
     <path d="M 1008.213498 45.450446 
L 1024.869498 45.450446 
" style="fill:none;stroke:#55a868;stroke-linecap:round;stroke-width:1.75;"/>
    </g>
    <g id="line2d_81"/>
    <g id="text_57">
     <!-- C: 40.62% -->
     <g style="fill:#262626;" transform="translate(1031.531898 48.365246)scale(0.08328 -0.08328)">
      <use xlink:href="#DejaVuSans-43"/>
      <use x="69.824219" xlink:href="#DejaVuSans-3a"/>
      <use x="103.515625" xlink:href="#DejaVuSans-20"/>
      <use x="135.302734" xlink:href="#DejaVuSans-34"/>
      <use x="198.925781" xlink:href="#DejaVuSans-30"/>
      <use x="262.548828" xlink:href="#DejaVuSans-2e"/>
      <use x="294.335938" xlink:href="#DejaVuSans-36"/>
      <use x="357.958984" xlink:href="#DejaVuSans-32"/>
      <use x="421.582031" xlink:href="#DejaVuSans-25"/>
     </g>
    </g>
    <g id="line2d_82">
     <path d="M 1008.213498 57.674389 
L 1024.869498 57.674389 
" style="fill:none;stroke:#c44e52;stroke-linecap:round;stroke-width:1.75;"/>
    </g>
    <g id="line2d_83"/>
    <g id="text_58">
     <!-- G: 79.69% -->
     <g style="fill:#262626;" transform="translate(1031.531898 60.589189)scale(0.08328 -0.08328)">
      <use xlink:href="#DejaVuSans-47"/>
      <use x="77.490234" xlink:href="#DejaVuSans-3a"/>
      <use x="111.181641" xlink:href="#DejaVuSans-20"/>
      <use x="142.96875" xlink:href="#DejaVuSans-37"/>
      <use x="206.591797" xlink:href="#DejaVuSans-39"/>
      <use x="270.214844" xlink:href="#DejaVuSans-2e"/>
      <use x="302.001953" xlink:href="#DejaVuSans-36"/>
      <use x="365.625" xlink:href="#DejaVuSans-39"/>
      <use x="429.248047" xlink:href="#DejaVuSans-25"/>
     </g>
    </g>
    <g id="line2d_84">
     <path d="M 1008.213498 69.898331 
L 1024.869498 69.898331 
" style="fill:none;stroke:#8172b2;stroke-linecap:round;stroke-width:1.75;"/>
    </g>
    <g id="line2d_85"/>
    <g id="text_59">
     <!-- T: 31.25% -->
     <g style="fill:#262626;" transform="translate(1031.531898 72.813131)scale(0.08328 -0.08328)">
      <use xlink:href="#DejaVuSans-54"/>
      <use x="60.912109" xlink:href="#DejaVuSans-3a"/>
      <use x="94.603516" xlink:href="#DejaVuSans-20"/>
      <use x="126.390625" xlink:href="#DejaVuSans-33"/>
      <use x="190.013672" xlink:href="#DejaVuSans-31"/>
      <use x="253.636719" xlink:href="#DejaVuSans-2e"/>
      <use x="285.423828" xlink:href="#DejaVuSans-32"/>
      <use x="349.046875" xlink:href="#DejaVuSans-35"/>
      <use x="412.669922" xlink:href="#DejaVuSans-25"/>
     </g>
    </g>
   </g>
  </g>
  <g id="axes_5">
   <g id="patch_22">
    <path d="M 1128.865948 465.838125 
L 1359.7625 465.838125 
L 1359.7625 22.318125 
L 1128.865948 22.318125 
z
" style="fill:#ffffff;"/>
   </g>
   <g id="matplotlib.axis_9">
    <g id="xtick_19">
     <g id="line2d_86"/>
     <g id="text_60">
      <!-- −0.5 -->
      <g style="fill:#262626;" transform="translate(1124.363114 480.436562)scale(0.1 -0.1)">
       <use xlink:href="#DejaVuSans-2212"/>
       <use x="83.789062" xlink:href="#DejaVuSans-30"/>
       <use x="147.412109" xlink:href="#DejaVuSans-2e"/>
       <use x="179.199219" xlink:href="#DejaVuSans-35"/>
      </g>
     </g>
    </g>
    <g id="xtick_20">
     <g id="line2d_87"/>
     <g id="text_61">
      <!-- 0.0 -->
      <g style="fill:#262626;" transform="translate(1182.778381 480.436562)scale(0.1 -0.1)">
       <use xlink:href="#DejaVuSans-30"/>
       <use x="63.623047" xlink:href="#DejaVuSans-2e"/>
       <use x="95.410156" xlink:href="#DejaVuSans-30"/>
      </g>
     </g>
    </g>
    <g id="xtick_21">
     <g id="line2d_88"/>
     <g id="text_62">
      <!-- 0.5 -->
      <g style="fill:#262626;" transform="translate(1237.003804 480.436562)scale(0.1 -0.1)">
       <use xlink:href="#DejaVuSans-30"/>
       <use x="63.623047" xlink:href="#DejaVuSans-2e"/>
       <use x="95.410156" xlink:href="#DejaVuSans-35"/>
      </g>
     </g>
    </g>
    <g id="xtick_22">
     <g id="line2d_89"/>
     <g id="text_63">
      <!-- 1.0 -->
      <g style="fill:#262626;" transform="translate(1291.229227 480.436562)scale(0.1 -0.1)">
       <use xlink:href="#DejaVuSans-31"/>
       <use x="63.623047" xlink:href="#DejaVuSans-2e"/>
       <use x="95.410156" xlink:href="#DejaVuSans-30"/>
      </g>
     </g>
    </g>
    <g id="xtick_23">
     <g id="line2d_90"/>
     <g id="text_64">
      <!-- 1.5 -->
      <g style="fill:#262626;" transform="translate(1345.454651 480.436562)scale(0.1 -0.1)">
       <use xlink:href="#DejaVuSans-31"/>
       <use x="63.623047" xlink:href="#DejaVuSans-2e"/>
       <use x="95.410156" xlink:href="#DejaVuSans-35"/>
      </g>
     </g>
    </g>
   </g>
   <g id="matplotlib.axis_10">
    <g id="ytick_25">
     <g id="line2d_91"/>
     <g id="text_65">
      <!-- 0 -->
      <g style="fill:#262626;" transform="translate(1115.503448 469.637344)scale(0.1 -0.1)">
       <use xlink:href="#DejaVuSans-30"/>
      </g>
     </g>
    </g>
    <g id="ytick_26">
     <g id="line2d_92"/>
     <g id="text_66">
      <!-- 1 -->
      <g style="fill:#262626;" transform="translate(1115.503448 380.933344)scale(0.1 -0.1)">
       <use xlink:href="#DejaVuSans-31"/>
      </g>
     </g>
    </g>
    <g id="ytick_27">
     <g id="line2d_93"/>
     <g id="text_67">
      <!-- 2 -->
      <g style="fill:#262626;" transform="translate(1115.503448 292.229344)scale(0.1 -0.1)">
       <use xlink:href="#DejaVuSans-32"/>
      </g>
     </g>
    </g>
    <g id="ytick_28">
     <g id="line2d_94"/>
     <g id="text_68">
      <!-- 3 -->
      <g style="fill:#262626;" transform="translate(1115.503448 203.525344)scale(0.1 -0.1)">
       <use xlink:href="#DejaVuSans-33"/>
      </g>
     </g>
    </g>
    <g id="ytick_29">
     <g id="line2d_95"/>
     <g id="text_69">
      <!-- 4 -->
      <g style="fill:#262626;" transform="translate(1115.503448 114.821344)scale(0.1 -0.1)">
       <use xlink:href="#DejaVuSans-34"/>
      </g>
     </g>
    </g>
    <g id="ytick_30">
     <g id="line2d_96"/>
     <g id="text_70">
      <!-- 5 -->
      <g style="fill:#262626;" transform="translate(1115.503448 26.117344)scale(0.1 -0.1)">
       <use xlink:href="#DejaVuSans-35"/>
      </g>
     </g>
    </g>
   </g>
   <g id="line2d_97">
    <path clip-path="url(#p83aafd83d7)" d="M 1158.110508 463.766816 
L 1159.849619 462.524309 
L 1161.58873 460.665761 
L 1163.327841 457.961399 
L 1165.066952 454.134528 
L 1166.806062 448.869999 
L 1168.545173 441.832303 
L 1170.284284 432.694602 
L 1172.023395 421.178402 
L 1173.762505 407.101358 
L 1175.501616 390.428177 
L 1177.240727 371.317291 
L 1178.979838 350.154535 
L 1180.718948 327.565119 
L 1182.458059 304.397081 
L 1184.19717 281.673197 
L 1185.936281 260.513457 
L 1187.675391 242.035807 
L 1189.414502 227.247601 
L 1191.153613 216.943077 
L 1192.892724 211.622153 
L 1194.631834 211.442911 
L 1196.370945 216.214687 
L 1198.110056 225.431889 
L 1199.849167 238.341976 
L 1201.588278 254.035799 
L 1203.327388 271.545876 
L 1205.066499 289.938251 
L 1206.80561 308.386432 
L 1208.544721 326.220268 
L 1210.283831 342.947768 
L 1212.022942 358.252393 
L 1213.762053 371.9717 
L 1215.501164 384.064839 
L 1217.240274 394.576398 
L 1218.979385 403.602808 
L 1220.718496 411.265464 
L 1222.457607 417.69249 
L 1224.196717 423.009018 
L 1225.935828 427.33442 
L 1227.674939 430.784086 
L 1229.41405 433.473134 
L 1231.153161 435.519797 
L 1232.892271 437.046855 
L 1234.631382 438.180322 
L 1236.370493 439.045419 
L 1238.109604 439.76052 
L 1239.848714 440.430216 
L 1241.587825 441.138797 
L 1243.326936 441.94534 
L 1245.066047 442.881252 
L 1246.805157 443.950672 
L 1248.544268 445.133613 
L 1250.283379 446.391314 
L 1252.02249 447.672972 
L 1253.7616 448.922911 
L 1255.500711 450.087279 
L 1257.239822 451.119568 
L 1258.978933 451.9845 
L 1260.718043 452.660095 
L 1262.457154 453.13803 
L 1264.196265 453.422561 
L 1265.935376 453.528442 
L 1267.674487 453.478314 
L 1269.413597 453.299995 
L 1271.152708 453.024047 
L 1272.891819 452.681847 
L 1274.63093 452.304243 
L 1276.37004 451.920763 
L 1278.109151 451.55924 
L 1279.848262 451.245654 
L 1281.587373 451.004014 
L 1283.326483 450.856123 
L 1285.065594 450.821146 
L 1286.804705 450.914964 
L 1288.543816 451.149364 
L 1290.282926 451.531166 
L 1292.022037 452.061412 
L 1293.761148 452.734761 
L 1295.500259 453.539236 
L 1297.239369 454.456426 
L 1298.97848 455.462219 
L 1300.717591 456.528075 
L 1302.456702 457.622759 
L 1304.195813 458.714386 
L 1305.934923 459.772574 
L 1307.674034 460.770456 
L 1309.413145 461.686312 
L 1311.152256 462.504656 
L 1312.891366 463.216662 
L 1314.630477 463.819939 
L 1316.369588 464.317748 
L 1318.108699 464.717819 
L 1319.847809 465.030967 
L 1321.58692 465.269698 
L 1323.326031 465.446959 
L 1325.065142 465.575155 
L 1326.804252 465.665457 
L 1328.543363 465.727414 
L 1330.282474 465.768819 
" style="fill:none;stroke:#4c72b0;stroke-linecap:round;stroke-width:1.75;"/>
   </g>
   <g id="line2d_98">
    <path clip-path="url(#p83aafd83d7)" d="M 1139.361246 464.613775 
L 1141.481508 464.072174 
L 1143.60177 463.328484 
L 1145.722033 462.324047 
L 1147.842295 460.98988 
L 1149.962557 459.247316 
L 1152.082819 457.009725 
L 1154.203081 454.185513 
L 1156.323344 450.682558 
L 1158.443606 446.414099 
L 1160.563868 441.305958 
L 1162.68413 435.304753 
L 1164.804392 428.386592 
L 1166.924654 420.565513 
L 1169.044917 411.900815 
L 1171.165179 402.502338 
L 1173.285441 392.532793 
L 1175.405703 382.206406 
L 1177.525965 371.783384 
L 1179.646228 361.560133 
L 1181.76649 351.855536 
L 1183.886752 342.994125 
L 1186.007014 335.287321 
L 1188.127276 329.014264 
L 1190.247538 324.403877 
L 1192.367801 321.619782 
L 1194.488063 320.749462 
L 1196.608325 321.798663 
L 1198.728587 324.691539 
L 1200.848849 329.27647 
L 1202.969112 335.33693 
L 1205.089374 342.606357 
L 1207.209636 350.785605 
L 1209.329898 359.561436 
L 1211.45016 368.624524 
L 1213.570422 377.685583 
L 1215.690685 386.488584 
L 1217.810947 394.820338 
L 1219.931209 402.516142 
L 1222.051471 409.461565 
L 1224.171733 415.59073 
L 1226.291996 420.881725 
L 1228.412258 425.349873 
L 1230.53252 429.039699 
L 1232.652782 432.016361 
L 1234.773044 434.357273 
L 1236.893306 436.144503 
L 1239.013569 437.458374 
L 1241.133831 438.37256 
L 1243.254093 438.950788 
L 1245.374355 439.245122 
L 1247.494617 439.295688 
L 1249.61488 439.131614 
L 1251.735142 438.772879 
L 1253.855404 438.232773 
L 1255.975666 437.52064 
L 1258.095928 436.644646 
L 1260.216191 435.614327 
L 1262.336453 434.442756 
L 1264.456715 433.148222 
L 1266.576977 431.755346 
L 1268.697239 430.295636 
L 1270.817501 428.807459 
L 1272.937764 427.335481 
L 1275.058026 425.929574 
L 1277.178288 424.643251 
L 1279.29855 423.531664 
L 1281.418812 422.649246 
L 1283.539075 422.047092 
L 1285.659337 421.770217 
L 1287.779599 421.854869 
L 1289.899861 422.326093 
L 1292.020123 423.195759 
L 1294.140385 424.461257 
L 1296.260648 426.105009 
L 1298.38091 428.094915 
L 1300.501172 430.385729 
L 1302.621434 432.921315 
L 1304.741696 435.637603 
L 1306.861959 438.466025 
L 1308.982221 441.337159 
L 1311.102483 444.184261 
L 1313.222745 446.946449 
L 1315.343007 449.57127 
L 1317.463269 452.016529 
L 1319.583532 454.251273 
L 1321.703794 456.255964 
L 1323.824056 458.021912 
L 1325.944318 459.550102 
L 1328.06458 460.849608 
L 1330.184843 461.935762 
L 1332.305105 462.828265 
L 1334.425367 463.549398 
L 1336.545629 464.122426 
L 1338.665891 464.570297 
L 1340.786153 464.914645 
L 1342.906416 465.175114 
L 1345.026678 465.368967 
L 1347.14694 465.510931 
L 1349.267202 465.613239 
" style="fill:none;stroke:#55a868;stroke-linecap:round;stroke-width:1.75;"/>
   </g>
   <g id="line2d_99">
    <path clip-path="url(#p83aafd83d7)" d="M 1165.980152 462.479092 
L 1167.482853 460.144279 
L 1168.985554 456.492901 
L 1170.488254 450.98602 
L 1171.990955 442.980763 
L 1173.493656 431.771118 
L 1174.996356 416.662809 
L 1176.499057 397.082542 
L 1178.001758 372.712957 
L 1179.504458 343.634145 
L 1181.007159 310.443359 
L 1182.50986 274.320195 
L 1184.01256 237.008 
L 1185.515261 200.694958 
L 1187.017962 167.798679 
L 1188.520662 140.681573 
L 1190.023363 121.344399 
L 1191.526064 111.155475 
L 1193.028764 110.669282 
L 1194.531465 119.570283 
L 1196.034165 136.750566 
L 1197.536866 160.50067 
L 1199.039567 188.770095 
L 1200.542267 219.443331 
L 1202.044968 250.58076 
L 1203.547669 280.588864 
L 1205.050369 308.305318 
L 1206.55307 333.004977 
L 1208.055771 354.347448 
L 1209.558471 372.29309 
L 1211.061172 387.012528 
L 1212.563873 398.807441 
L 1214.066573 408.051191 
L 1215.569274 415.149552 
L 1217.071975 420.516551 
L 1218.574675 424.558507 
L 1220.077376 427.660321 
L 1221.580077 430.170719 
L 1223.082777 432.386158 
L 1224.585478 434.535496 
L 1226.088179 436.768722 
L 1227.590879 439.152827 
L 1229.09358 441.676655 
L 1230.596281 444.264677 
L 1232.098981 446.797742 
L 1233.601682 449.137497 
L 1235.104382 451.150581 
L 1236.607083 452.729052 
L 1238.109784 453.804512 
L 1239.612484 454.354823 
L 1241.115185 454.403701 
L 1242.617886 454.014614 
L 1244.120586 453.280998 
L 1245.623287 452.314943 
L 1247.125988 451.23615 
L 1248.628688 450.162369 
L 1250.131389 449.201845 
L 1251.63409 448.447729 
L 1253.13679 447.974052 
L 1254.639491 447.832812 
L 1256.142192 448.05191 
L 1257.644892 448.633951 
L 1259.147593 449.556252 
L 1260.650294 450.772469 
L 1262.152994 452.216167 
L 1263.655695 453.806281 
L 1265.158396 455.454006 
L 1266.661096 457.070265 
L 1268.163797 458.572743 
L 1269.666498 459.891594 
L 1271.169198 460.973269 
L 1272.671899 461.782403 
L 1274.174599 462.302113 
L 1275.6773 462.533326 
L 1277.180001 462.493689 
L 1278.682701 462.216393 
L 1280.185402 461.748827 
L 1281.688103 461.150648 
L 1283.190803 460.490728 
L 1284.693504 459.842584 
L 1286.196205 459.278298 
L 1287.698905 458.861492 
L 1289.201606 458.640433 
L 1290.704307 458.642552 
L 1292.207007 458.87157 
L 1293.709708 459.307957 
L 1295.212409 459.912716 
L 1296.715109 460.633784 
L 1298.21781 461.413782 
L 1299.720511 462.197649 
L 1301.223211 462.938851 
L 1302.725912 463.603322 
L 1304.228613 464.170851 
L 1305.731313 464.634221 
L 1307.234014 464.996743 
L 1308.736715 465.268995 
L 1310.239415 465.465522 
L 1311.742116 465.602025 
L 1313.244816 465.693327 
L 1314.747517 465.752175 
" style="fill:none;stroke:#c44e52;stroke-linecap:round;stroke-width:1.75;"/>
   </g>
   <g id="line2d_100">
    <path clip-path="url(#p83aafd83d7)" d="M 1148.484614 464.203886 
L 1150.427033 463.395411 
L 1152.369452 462.254125 
L 1154.311871 460.676223 
L 1156.254289 458.540068 
L 1158.196708 455.709012 
L 1160.139127 452.036984 
L 1162.081546 447.377228 
L 1164.023965 441.594237 
L 1165.966384 434.578502 
L 1167.908802 426.263102 
L 1169.851221 416.640652 
L 1171.79364 405.778601 
L 1173.736059 393.830612 
L 1175.678478 381.041767 
L 1177.620896 367.745722 
L 1179.563315 354.352714 
L 1181.505734 341.328375 
L 1183.448153 329.164607 
L 1185.390572 318.344973 
L 1187.332991 309.308076 
L 1189.275409 302.412955 
L 1191.217828 297.910522 
L 1193.160247 295.924432 
L 1195.102666 296.443623 
L 1197.045085 299.327256 
L 1198.987504 304.321166 
L 1200.929922 311.083499 
L 1202.872341 319.216144 
L 1204.81476 328.298098 
L 1206.757179 337.91699 
L 1208.699598 347.695635 
L 1210.642017 357.311516 
L 1212.584435 366.508238 
L 1214.526854 375.099182 
L 1216.469273 382.964478 
L 1218.411692 390.043011 
L 1220.354111 396.321442 
L 1222.29653 401.822082 
L 1224.238948 406.591194 
L 1226.181367 410.688794 
L 1228.123786 414.180574 
L 1230.066205 417.132118 
L 1232.008624 419.605303 
L 1233.951043 421.656528 
L 1235.893461 423.336382 
L 1237.83588 424.690299 
L 1239.778299 425.759822 
L 1241.720718 426.584137 
L 1243.663137 427.201594 
L 1245.605556 427.650976 
L 1247.547974 427.972332 
L 1249.490393 428.207212 
L 1251.432812 428.39823 
L 1253.375231 428.587916 
L 1255.31765 428.816935 
L 1257.260069 429.121849 
L 1259.202487 429.532653 
L 1261.144906 430.070432 
L 1263.087325 430.745474 
L 1265.029744 431.55619 
L 1266.972163 432.489094 
L 1268.914582 433.519999 
L 1270.857 434.616421 
L 1272.799419 435.741014 
L 1274.741838 436.855699 
L 1276.684257 437.926035 
L 1278.626676 438.925286 
L 1280.569095 439.83768 
L 1282.511513 440.660398 
L 1284.453932 441.404012 
L 1286.396351 442.091271 
L 1288.33877 442.754364 
L 1290.281189 443.43101 
L 1292.223608 444.159858 
L 1294.166026 444.975802 
L 1296.108445 445.905812 
L 1298.050864 446.965782 
L 1299.993283 448.158763 
L 1301.935702 449.474733 
L 1303.878121 450.891843 
L 1305.820539 452.378888 
L 1307.762958 453.898605 
L 1309.705377 455.411341 
L 1311.647796 456.878616 
L 1313.590215 458.266185 
L 1315.532634 459.546327 
L 1317.475052 460.699203 
L 1319.417471 461.71328 
L 1321.35989 462.584939 
L 1323.302309 463.317446 
L 1325.244728 463.919512 
L 1327.187147 464.40369 
L 1329.129565 464.784786 
L 1331.071984 465.078455 
L 1333.014403 465.300065 
L 1334.956822 465.463869 
L 1336.899241 465.582487 
L 1338.84166 465.666655 
L 1340.784078 465.725185 
" style="fill:none;stroke:#8172b2;stroke-linecap:round;stroke-width:1.75;"/>
   </g>
   <g id="line2d_101">
    <path clip-path="url(#p83aafd83d7)" d="M 1196.152486 465.838125 
L 1196.152486 22.318125 
" style="fill:none;stroke:#000000;stroke-dasharray:1.85,0.8;stroke-dashoffset:0;stroke-width:0.5;"/>
   </g>
   <g id="patch_23">
    <path d="M 1128.865948 465.838125 
L 1128.865948 22.318125 
" style="fill:none;stroke:#262626;stroke-linecap:square;stroke-linejoin:miter;stroke-width:1.25;"/>
   </g>
   <g id="patch_24">
    <path d="M 1359.7625 465.838125 
L 1359.7625 22.318125 
" style="fill:none;stroke:#262626;stroke-linecap:square;stroke-linejoin:miter;stroke-width:1.25;"/>
   </g>
   <g id="patch_25">
    <path d="M 1128.865948 465.838125 
L 1359.7625 465.838125 
" style="fill:none;stroke:#262626;stroke-linecap:square;stroke-linejoin:miter;stroke-width:1.25;"/>
   </g>
   <g id="patch_26">
    <path d="M 1128.865948 22.318125 
L 1359.7625 22.318125 
" style="fill:none;stroke:#262626;stroke-linecap:square;stroke-linejoin:miter;stroke-width:1.25;"/>
   </g>
   <g id="text_71">
    <!-- +2 -->
    <g style="fill:#262626;" transform="translate(1235.468912 16.318125)scale(0.12 -0.12)">
     <use xlink:href="#DejaVuSans-2b"/>
     <use x="83.789062" xlink:href="#DejaVuSans-32"/>
    </g>
   </g>
   <g id="legend_5">
    <g id="line2d_102">
     <path d="M 1285.28936 33.226504 
L 1301.94536 33.226504 
" style="fill:none;stroke:#4c72b0;stroke-linecap:round;stroke-width:1.75;"/>
    </g>
    <g id="line2d_103"/>
    <g id="text_72">
     <!-- A: 59.38% -->
     <g style="fill:#262626;" transform="translate(1308.60776 36.141304)scale(0.08328 -0.08328)">
      <use xlink:href="#DejaVuSans-41"/>
      <use x="68.392578" xlink:href="#DejaVuSans-3a"/>
      <use x="102.083984" xlink:href="#DejaVuSans-20"/>
      <use x="133.871094" xlink:href="#DejaVuSans-35"/>
      <use x="197.494141" xlink:href="#DejaVuSans-39"/>
      <use x="261.117188" xlink:href="#DejaVuSans-2e"/>
      <use x="292.904297" xlink:href="#DejaVuSans-33"/>
      <use x="356.527344" xlink:href="#DejaVuSans-38"/>
      <use x="420.150391" xlink:href="#DejaVuSans-25"/>
     </g>
    </g>
    <g id="line2d_104">
     <path d="M 1285.28936 45.450446 
L 1301.94536 45.450446 
" style="fill:none;stroke:#55a868;stroke-linecap:round;stroke-width:1.75;"/>
    </g>
    <g id="line2d_105"/>
    <g id="text_73">
     <!-- C: 53.12% -->
     <g style="fill:#262626;" transform="translate(1308.60776 48.365246)scale(0.08328 -0.08328)">
      <use xlink:href="#DejaVuSans-43"/>
      <use x="69.824219" xlink:href="#DejaVuSans-3a"/>
      <use x="103.515625" xlink:href="#DejaVuSans-20"/>
      <use x="135.302734" xlink:href="#DejaVuSans-35"/>
      <use x="198.925781" xlink:href="#DejaVuSans-33"/>
      <use x="262.548828" xlink:href="#DejaVuSans-2e"/>
      <use x="294.335938" xlink:href="#DejaVuSans-31"/>
      <use x="357.958984" xlink:href="#DejaVuSans-32"/>
      <use x="421.582031" xlink:href="#DejaVuSans-25"/>
     </g>
    </g>
    <g id="line2d_106">
     <path d="M 1285.28936 57.674389 
L 1301.94536 57.674389 
" style="fill:none;stroke:#c44e52;stroke-linecap:round;stroke-width:1.75;"/>
    </g>
    <g id="line2d_107"/>
    <g id="text_74">
     <!-- G: 70.31% -->
     <g style="fill:#262626;" transform="translate(1308.60776 60.589189)scale(0.08328 -0.08328)">
      <use xlink:href="#DejaVuSans-47"/>
      <use x="77.490234" xlink:href="#DejaVuSans-3a"/>
      <use x="111.181641" xlink:href="#DejaVuSans-20"/>
      <use x="142.96875" xlink:href="#DejaVuSans-37"/>
      <use x="206.591797" xlink:href="#DejaVuSans-30"/>
      <use x="270.214844" xlink:href="#DejaVuSans-2e"/>
      <use x="302.001953" xlink:href="#DejaVuSans-33"/>
      <use x="365.625" xlink:href="#DejaVuSans-31"/>
      <use x="429.248047" xlink:href="#DejaVuSans-25"/>
     </g>
    </g>
    <g id="line2d_108">
     <path d="M 1285.28936 69.898331 
L 1301.94536 69.898331 
" style="fill:none;stroke:#8172b2;stroke-linecap:round;stroke-width:1.75;"/>
    </g>
    <g id="line2d_109"/>
    <g id="text_75">
     <!-- T: 54.69% -->
     <g style="fill:#262626;" transform="translate(1308.60776 72.813131)scale(0.08328 -0.08328)">
      <use xlink:href="#DejaVuSans-54"/>
      <use x="60.912109" xlink:href="#DejaVuSans-3a"/>
      <use x="94.603516" xlink:href="#DejaVuSans-20"/>
      <use x="126.390625" xlink:href="#DejaVuSans-35"/>
      <use x="190.013672" xlink:href="#DejaVuSans-34"/>
      <use x="253.636719" xlink:href="#DejaVuSans-2e"/>
      <use x="285.423828" xlink:href="#DejaVuSans-36"/>
      <use x="349.046875" xlink:href="#DejaVuSans-39"/>
      <use x="412.669922" xlink:href="#DejaVuSans-25"/>
     </g>
    </g>
   </g>
  </g>
 </g>
 <defs>
  <clipPath id="p7a9a4c3058">
   <rect height="443.52" width="230.896552" x="20.5625" y="22.318125"/>
  </clipPath>
  <clipPath id="p4b9d3831a7">
   <rect height="443.52" width="230.896552" x="297.638362" y="22.318125"/>
  </clipPath>
  <clipPath id="p36f815e876">
   <rect height="443.52" width="230.896552" x="574.714224" y="22.318125"/>
  </clipPath>
  <clipPath id="p16ec07b308">
   <rect height="443.52" width="230.896552" x="851.790086" y="22.318125"/>
  </clipPath>
  <clipPath id="p83aafd83d7">
   <rect height="443.52" width="230.896552" x="1128.865948" y="22.318125"/>
  </clipPath>
 </defs>
</svg>
