<?xml version="1.0" encoding="utf-8" standalone="no"?>
<!DOCTYPE svg PUBLIC "-//W3C//DTD SVG 1.1//EN"
  "http://www.w3.org/Graphics/SVG/1.1/DTD/svg11.dtd">
<!-- Created with matplotlib (http://matplotlib.org/) -->
<svg height="489pt" version="1.1" viewBox="0 0 1374 489" width="1374pt" xmlns="http://www.w3.org/2000/svg" xmlns:xlink="http://www.w3.org/1999/xlink">
 <defs>
  <style type="text/css">
*{stroke-linecap:butt;stroke-linejoin:round;}
  </style>
 </defs>
 <g id="figure_1">
  <g id="patch_1">
   <path d="M 0 489.71625 
L 1374.914063 489.71625 
L 1374.914063 0 
L 0 0 
z
" style="fill:#ffffff;"/>
  </g>
  <g id="axes_1">
   <g id="patch_2">
    <path d="M 20.5625 465.838125 
L 251.459052 465.838125 
L 251.459052 22.318125 
L 20.5625 22.318125 
z
" style="fill:#ffffff;"/>
   </g>
   <g id="matplotlib.axis_1">
    <g id="xtick_1">
     <g id="line2d_1"/>
     <g id="text_1">
      <!-- 0.0 -->
      <defs>
       <path d="M 31.78125 66.40625 
Q 24.171875 66.40625 20.328125 58.90625 
Q 16.5 51.421875 16.5 36.375 
Q 16.5 21.390625 20.328125 13.890625 
Q 24.171875 6.390625 31.78125 6.390625 
Q 39.453125 6.390625 43.28125 13.890625 
Q 47.125 21.390625 47.125 36.375 
Q 47.125 51.421875 43.28125 58.90625 
Q 39.453125 66.40625 31.78125 66.40625 
z
M 31.78125 74.21875 
Q 44.046875 74.21875 50.515625 64.515625 
Q 56.984375 54.828125 56.984375 36.375 
Q 56.984375 17.96875 50.515625 8.265625 
Q 44.046875 -1.421875 31.78125 -1.421875 
Q 19.53125 -1.421875 13.0625 8.265625 
Q 6.59375 17.96875 6.59375 36.375 
Q 6.59375 54.828125 13.0625 64.515625 
Q 19.53125 74.21875 31.78125 74.21875 
z
" id="DejaVuSans-30"/>
       <path d="M 10.6875 12.40625 
L 21 12.40625 
L 21 0 
L 10.6875 0 
z
" id="DejaVuSans-2e"/>
      </defs>
      <g style="fill:#262626;" transform="translate(12.610938 480.436562)scale(0.1 -0.1)">
       <use xlink:href="#DejaVuSans-30"/>
       <use x="63.623047" xlink:href="#DejaVuSans-2e"/>
       <use x="95.410156" xlink:href="#DejaVuSans-30"/>
      </g>
     </g>
    </g>
    <g id="xtick_2">
     <g id="line2d_2"/>
     <g id="text_2">
      <!-- 0.2 -->
      <defs>
       <path d="M 19.1875 8.296875 
L 53.609375 8.296875 
L 53.609375 0 
L 7.328125 0 
L 7.328125 8.296875 
Q 12.9375 14.109375 22.625 23.890625 
Q 32.328125 33.6875 34.8125 36.53125 
Q 39.546875 41.84375 41.421875 45.53125 
Q 43.3125 49.21875 43.3125 52.78125 
Q 43.3125 58.59375 39.234375 62.25 
Q 35.15625 65.921875 28.609375 65.921875 
Q 23.96875 65.921875 18.8125 64.3125 
Q 13.671875 62.703125 7.8125 59.421875 
L 7.8125 69.390625 
Q 13.765625 71.78125 18.9375 73 
Q 24.125 74.21875 28.421875 74.21875 
Q 39.75 74.21875 46.484375 68.546875 
Q 53.21875 62.890625 53.21875 53.421875 
Q 53.21875 48.921875 51.53125 44.890625 
Q 49.859375 40.875 45.40625 35.40625 
Q 44.1875 33.984375 37.640625 27.21875 
Q 31.109375 20.453125 19.1875 8.296875 
z
" id="DejaVuSans-32"/>
      </defs>
      <g style="fill:#262626;" transform="translate(58.790248 480.436562)scale(0.1 -0.1)">
       <use xlink:href="#DejaVuSans-30"/>
       <use x="63.623047" xlink:href="#DejaVuSans-2e"/>
       <use x="95.410156" xlink:href="#DejaVuSans-32"/>
      </g>
     </g>
    </g>
    <g id="xtick_3">
     <g id="line2d_3"/>
     <g id="text_3">
      <!-- 0.4 -->
      <defs>
       <path d="M 37.796875 64.3125 
L 12.890625 25.390625 
L 37.796875 25.390625 
z
M 35.203125 72.90625 
L 47.609375 72.90625 
L 47.609375 25.390625 
L 58.015625 25.390625 
L 58.015625 17.1875 
L 47.609375 17.1875 
L 47.609375 0 
L 37.796875 0 
L 37.796875 17.1875 
L 4.890625 17.1875 
L 4.890625 26.703125 
z
" id="DejaVuSans-34"/>
      </defs>
      <g style="fill:#262626;" transform="translate(104.969558 480.436562)scale(0.1 -0.1)">
       <use xlink:href="#DejaVuSans-30"/>
       <use x="63.623047" xlink:href="#DejaVuSans-2e"/>
       <use x="95.410156" xlink:href="#DejaVuSans-34"/>
      </g>
     </g>
    </g>
    <g id="xtick_4">
     <g id="line2d_4"/>
     <g id="text_4">
      <!-- 0.6 -->
      <defs>
       <path d="M 33.015625 40.375 
Q 26.375 40.375 22.484375 35.828125 
Q 18.609375 31.296875 18.609375 23.390625 
Q 18.609375 15.53125 22.484375 10.953125 
Q 26.375 6.390625 33.015625 6.390625 
Q 39.65625 6.390625 43.53125 10.953125 
Q 47.40625 15.53125 47.40625 23.390625 
Q 47.40625 31.296875 43.53125 35.828125 
Q 39.65625 40.375 33.015625 40.375 
z
M 52.59375 71.296875 
L 52.59375 62.3125 
Q 48.875 64.0625 45.09375 64.984375 
Q 41.3125 65.921875 37.59375 65.921875 
Q 27.828125 65.921875 22.671875 59.328125 
Q 17.53125 52.734375 16.796875 39.40625 
Q 19.671875 43.65625 24.015625 45.921875 
Q 28.375 48.1875 33.59375 48.1875 
Q 44.578125 48.1875 50.953125 41.515625 
Q 57.328125 34.859375 57.328125 23.390625 
Q 57.328125 12.15625 50.6875 5.359375 
Q 44.046875 -1.421875 33.015625 -1.421875 
Q 20.359375 -1.421875 13.671875 8.265625 
Q 6.984375 17.96875 6.984375 36.375 
Q 6.984375 53.65625 15.1875 63.9375 
Q 23.390625 74.21875 37.203125 74.21875 
Q 40.921875 74.21875 44.703125 73.484375 
Q 48.484375 72.75 52.59375 71.296875 
z
" id="DejaVuSans-36"/>
      </defs>
      <g style="fill:#262626;" transform="translate(151.148869 480.436562)scale(0.1 -0.1)">
       <use xlink:href="#DejaVuSans-30"/>
       <use x="63.623047" xlink:href="#DejaVuSans-2e"/>
       <use x="95.410156" xlink:href="#DejaVuSans-36"/>
      </g>
     </g>
    </g>
    <g id="xtick_5">
     <g id="line2d_5"/>
     <g id="text_5">
      <!-- 0.8 -->
      <defs>
       <path d="M 31.78125 34.625 
Q 24.75 34.625 20.71875 30.859375 
Q 16.703125 27.09375 16.703125 20.515625 
Q 16.703125 13.921875 20.71875 10.15625 
Q 24.75 6.390625 31.78125 6.390625 
Q 38.8125 6.390625 42.859375 10.171875 
Q 46.921875 13.96875 46.921875 20.515625 
Q 46.921875 27.09375 42.890625 30.859375 
Q 38.875 34.625 31.78125 34.625 
z
M 21.921875 38.8125 
Q 15.578125 40.375 12.03125 44.71875 
Q 8.5 49.078125 8.5 55.328125 
Q 8.5 64.0625 14.71875 69.140625 
Q 20.953125 74.21875 31.78125 74.21875 
Q 42.671875 74.21875 48.875 69.140625 
Q 55.078125 64.0625 55.078125 55.328125 
Q 55.078125 49.078125 51.53125 44.71875 
Q 48 40.375 41.703125 38.8125 
Q 48.828125 37.15625 52.796875 32.3125 
Q 56.78125 27.484375 56.78125 20.515625 
Q 56.78125 9.90625 50.3125 4.234375 
Q 43.84375 -1.421875 31.78125 -1.421875 
Q 19.734375 -1.421875 13.25 4.234375 
Q 6.78125 9.90625 6.78125 20.515625 
Q 6.78125 27.484375 10.78125 32.3125 
Q 14.796875 37.15625 21.921875 38.8125 
z
M 18.3125 54.390625 
Q 18.3125 48.734375 21.84375 45.5625 
Q 25.390625 42.390625 31.78125 42.390625 
Q 38.140625 42.390625 41.71875 45.5625 
Q 45.3125 48.734375 45.3125 54.390625 
Q 45.3125 60.0625 41.71875 63.234375 
Q 38.140625 66.40625 31.78125 66.40625 
Q 25.390625 66.40625 21.84375 63.234375 
Q 18.3125 60.0625 18.3125 54.390625 
z
" id="DejaVuSans-38"/>
      </defs>
      <g style="fill:#262626;" transform="translate(197.328179 480.436562)scale(0.1 -0.1)">
       <use xlink:href="#DejaVuSans-30"/>
       <use x="63.623047" xlink:href="#DejaVuSans-2e"/>
       <use x="95.410156" xlink:href="#DejaVuSans-38"/>
      </g>
     </g>
    </g>
    <g id="xtick_6">
     <g id="line2d_6"/>
     <g id="text_6">
      <!-- 1.0 -->
      <defs>
       <path d="M 12.40625 8.296875 
L 28.515625 8.296875 
L 28.515625 63.921875 
L 10.984375 60.40625 
L 10.984375 69.390625 
L 28.421875 72.90625 
L 38.28125 72.90625 
L 38.28125 8.296875 
L 54.390625 8.296875 
L 54.390625 0 
L 12.40625 0 
z
" id="DejaVuSans-31"/>
      </defs>
      <g style="fill:#262626;" transform="translate(243.507489 480.436562)scale(0.1 -0.1)">
       <use xlink:href="#DejaVuSans-31"/>
       <use x="63.623047" xlink:href="#DejaVuSans-2e"/>
       <use x="95.410156" xlink:href="#DejaVuSans-30"/>
      </g>
     </g>
    </g>
   </g>
   <g id="matplotlib.axis_2">
    <g id="ytick_1">
     <g id="line2d_7"/>
     <g id="text_7">
      <!-- 0 -->
      <g style="fill:#262626;" transform="translate(7.2 469.637344)scale(0.1 -0.1)">
       <use xlink:href="#DejaVuSans-30"/>
      </g>
     </g>
    </g>
    <g id="ytick_2">
     <g id="line2d_8"/>
     <g id="text_8">
      <!-- 1 -->
      <g style="fill:#262626;" transform="translate(7.2 380.933344)scale(0.1 -0.1)">
       <use xlink:href="#DejaVuSans-31"/>
      </g>
     </g>
    </g>
    <g id="ytick_3">
     <g id="line2d_9"/>
     <g id="text_9">
      <!-- 2 -->
      <g style="fill:#262626;" transform="translate(7.2 292.229344)scale(0.1 -0.1)">
       <use xlink:href="#DejaVuSans-32"/>
      </g>
     </g>
    </g>
    <g id="ytick_4">
     <g id="line2d_10"/>
     <g id="text_10">
      <!-- 3 -->
      <defs>
       <path d="M 40.578125 39.3125 
Q 47.65625 37.796875 51.625 33 
Q 55.609375 28.21875 55.609375 21.1875 
Q 55.609375 10.40625 48.1875 4.484375 
Q 40.765625 -1.421875 27.09375 -1.421875 
Q 22.515625 -1.421875 17.65625 -0.515625 
Q 12.796875 0.390625 7.625 2.203125 
L 7.625 11.71875 
Q 11.71875 9.328125 16.59375 8.109375 
Q 21.484375 6.890625 26.8125 6.890625 
Q 36.078125 6.890625 40.9375 10.546875 
Q 45.796875 14.203125 45.796875 21.1875 
Q 45.796875 27.640625 41.28125 31.265625 
Q 36.765625 34.90625 28.71875 34.90625 
L 20.21875 34.90625 
L 20.21875 43.015625 
L 29.109375 43.015625 
Q 36.375 43.015625 40.234375 45.921875 
Q 44.09375 48.828125 44.09375 54.296875 
Q 44.09375 59.90625 40.109375 62.90625 
Q 36.140625 65.921875 28.71875 65.921875 
Q 24.65625 65.921875 20.015625 65.03125 
Q 15.375 64.15625 9.8125 62.3125 
L 9.8125 71.09375 
Q 15.4375 72.65625 20.34375 73.4375 
Q 25.25 74.21875 29.59375 74.21875 
Q 40.828125 74.21875 47.359375 69.109375 
Q 53.90625 64.015625 53.90625 55.328125 
Q 53.90625 49.265625 50.4375 45.09375 
Q 46.96875 40.921875 40.578125 39.3125 
z
" id="DejaVuSans-33"/>
      </defs>
      <g style="fill:#262626;" transform="translate(7.2 203.525344)scale(0.1 -0.1)">
       <use xlink:href="#DejaVuSans-33"/>
      </g>
     </g>
    </g>
    <g id="ytick_5">
     <g id="line2d_11"/>
     <g id="text_11">
      <!-- 4 -->
      <g style="fill:#262626;" transform="translate(7.2 114.821344)scale(0.1 -0.1)">
       <use xlink:href="#DejaVuSans-34"/>
      </g>
     </g>
    </g>
    <g id="ytick_6">
     <g id="line2d_12"/>
     <g id="text_12">
      <!-- 5 -->
      <defs>
       <path d="M 10.796875 72.90625 
L 49.515625 72.90625 
L 49.515625 64.59375 
L 19.828125 64.59375 
L 19.828125 46.734375 
Q 21.96875 47.46875 24.109375 47.828125 
Q 26.265625 48.1875 28.421875 48.1875 
Q 40.625 48.1875 47.75 41.5 
Q 54.890625 34.8125 54.890625 23.390625 
Q 54.890625 11.625 47.5625 5.09375 
Q 40.234375 -1.421875 26.90625 -1.421875 
Q 22.3125 -1.421875 17.546875 -0.640625 
Q 12.796875 0.140625 7.71875 1.703125 
L 7.71875 11.625 
Q 12.109375 9.234375 16.796875 8.0625 
Q 21.484375 6.890625 26.703125 6.890625 
Q 35.15625 6.890625 40.078125 11.328125 
Q 45.015625 15.765625 45.015625 23.390625 
Q 45.015625 31 40.078125 35.4375 
Q 35.15625 39.890625 26.703125 39.890625 
Q 22.75 39.890625 18.8125 39.015625 
Q 14.890625 38.140625 10.796875 36.28125 
z
" id="DejaVuSans-35"/>
      </defs>
      <g style="fill:#262626;" transform="translate(7.2 26.117344)scale(0.1 -0.1)">
       <use xlink:href="#DejaVuSans-35"/>
      </g>
     </g>
    </g>
   </g>
   <g id="line2d_13">
    <path clip-path="url(#p98fbf949be)" d="M 54.740642 465.714388 
L 57.080935 465.624012 
L 59.421229 465.480803 
L 61.761523 465.263022 
L 64.101816 464.945433 
L 66.44211 464.501748 
L 68.782403 463.908706 
L 71.122697 463.151575 
L 73.462991 462.230389 
L 75.803284 461.165651 
L 78.143578 460.001884 
L 80.483872 458.807446 
L 82.824165 457.669547 
L 85.164459 456.684459 
L 87.504752 455.944134 
L 89.845046 455.521642 
L 92.18534 455.458396 
L 94.525633 455.756001 
L 96.865927 456.374518 
L 99.206221 457.237445 
L 101.546514 458.242152 
L 103.886808 459.273385 
L 106.227102 460.217149 
L 108.567395 460.972699 
L 110.907689 461.461361 
L 113.247982 461.631916 
L 115.588276 461.462993 
L 117.92857 460.963062 
L 120.268863 460.168302 
L 122.609157 459.1381 
L 124.949451 457.94771 
L 127.289744 456.677853 
L 129.630038 455.401863 
L 131.970331 454.172204 
L 134.310625 453.00909 
L 136.650919 451.894268 
L 138.991212 450.772191 
L 141.331506 449.559056 
L 143.6718 448.157848 
L 146.012093 446.475486 
L 148.352387 444.437122 
L 150.69268 441.993214 
L 153.032974 439.11703 
L 155.373268 435.793277 
L 157.713561 432.001545 
L 160.053855 427.700189 
L 162.394149 422.816444 
L 164.734442 417.246883 
L 167.074736 410.869321 
L 169.41503 403.563931 
L 171.755323 395.238773 
L 174.095617 385.853807 
L 176.43591 375.437968 
L 178.776204 364.095592 
L 181.116498 352.000697 
L 183.456791 339.379566 
L 185.797085 326.483674 
L 188.137379 313.556125 
L 190.477672 300.795942 
L 192.817966 288.325855 
L 195.158259 276.170336 
L 197.498553 264.250804 
L 199.838847 252.40326 
L 202.17914 240.419599 
L 204.519434 228.108132 
L 206.859728 215.362742 
L 209.200021 202.225934 
L 211.540315 188.930455 
L 213.880608 175.908041 
L 216.220902 163.761275 
L 218.561196 153.203361 
L 220.901489 144.978012 
L 223.241783 139.775375 
L 225.582077 138.15905 
L 227.92237 140.514512 
L 230.262664 147.022624 
L 232.602958 157.655783 
L 234.943251 172.190448 
L 237.283545 190.229124 
L 239.623838 211.226697 
L 241.964132 234.519111 
L 244.304426 259.355075 
L 246.644719 284.932653 
L 248.985013 310.441819 
L 251.325307 335.111832 
L 253.6656 358.259567 
L 256.005894 379.332868 
L 258.346187 397.942501 
L 260.686481 413.87758 
L 263.026775 427.102141 
L 265.367068 437.734021 
L 267.707362 446.010322 
L 270.047656 452.245766 
L 272.387949 456.790689 
L 274.728243 459.994399 
L 277.068536 462.17765 
L 279.40883 463.615623 
L 281.749124 464.530749 
L 284.089417 465.093343 
L 286.429711 465.427388 
" style="fill:none;stroke:#4c72b0;stroke-linecap:round;stroke-width:1.75;"/>
   </g>
   <g id="line2d_14">
    <path clip-path="url(#p98fbf949be)" d="M 94.309572 465.698489 
L 96.268215 465.619231 
L 98.226858 465.502369 
L 100.185501 465.334172 
L 102.144144 465.097901 
L 104.102787 464.774035 
L 106.061429 464.34094 
L 108.020072 463.77606 
L 109.978715 463.05766 
L 111.937358 462.167047 
L 113.896001 461.091078 
L 115.854644 459.824636 
L 117.813287 458.37264 
L 119.771929 456.751082 
L 121.730572 454.98661 
L 123.689215 453.114273 
L 125.647858 451.173267 
L 127.606501 449.200825 
L 129.565144 447.224742 
L 131.523786 445.255393 
L 133.482429 443.278342 
L 135.441072 441.24879 
L 137.399715 439.089035 
L 139.358358 436.689859 
L 141.317001 433.91629 
L 143.275644 430.617636 
L 145.234286 426.641072 
L 147.192929 421.847518 
L 149.151572 416.128163 
L 151.110215 409.419829 
L 153.068858 401.71744 
L 155.027501 393.082154 
L 156.986144 383.64421 
L 158.944786 373.600072 
L 160.903429 363.203998 
L 162.862072 352.754672 
L 164.820715 342.577831 
L 166.779358 333.00609 
L 168.738001 324.357234 
L 170.696643 316.912307 
L 172.655286 310.894804 
L 174.613929 306.45231 
L 176.572572 303.641916 
L 178.531215 302.420749 
L 180.489858 302.642849 
L 182.448501 304.063396 
L 184.407143 306.350867 
L 186.365786 309.107046 
L 188.324429 311.893978 
L 190.283072 314.266044 
L 192.241715 315.804443 
L 194.200358 316.150714 
L 196.159001 315.03563 
L 198.117643 312.300055 
L 200.076286 307.905096 
L 202.034929 301.930178 
L 203.993572 294.559289 
L 205.952215 286.057334 
L 207.910858 276.740059 
L 209.8695 266.942012 
L 211.828143 256.987279 
L 213.786786 247.167269 
L 215.745429 237.728465 
L 217.704072 228.871281 
L 219.662715 220.759067 
L 221.621358 213.534389 
L 223.58 207.338383 
L 225.538643 202.328335 
L 227.497286 198.689057 
L 229.455929 196.634765 
L 231.414572 196.400016 
L 233.373215 198.220359 
L 235.331858 202.305306 
L 237.2905 208.807793 
L 239.249143 217.795003 
L 241.207786 229.22541 
L 243.166429 242.935961 
L 245.125072 258.641809 
L 247.083715 275.949136 
L 249.042357 294.379666 
L 251.001 313.403899 
L 252.959643 332.478938 
L 254.918286 351.086416 
L 256.876929 368.766238 
L 258.835572 385.142758 
L 260.794215 399.941225 
L 262.752857 412.993804 
L 264.7115 424.235808 
L 266.670143 433.693905 
L 268.628786 441.468731 
L 270.587429 447.714627 
L 272.546072 452.619035 
L 274.504715 456.383661 
L 276.463357 459.208822 
L 278.422 461.281745 
L 280.380643 462.768936 
L 282.339286 463.812243 
L 284.297929 464.527945 
L 286.256572 465.00805 
L 288.215214 465.32299 
" style="fill:none;stroke:#55a868;stroke-linecap:round;stroke-width:1.75;"/>
   </g>
   <g id="line2d_15">
    <path clip-path="url(#p98fbf949be)" d="M 104.2598 465.628466 
L 106.085812 465.502258 
L 107.911823 465.313397 
L 109.737835 465.03862 
L 111.563847 464.65007 
L 113.389859 464.116284 
L 115.21587 463.404203 
L 117.041882 462.482291 
L 118.867894 461.324708 
L 120.693906 459.916184 
L 122.519917 458.256985 
L 124.345929 456.36711 
L 126.171941 454.28873 
L 127.997953 452.085948 
L 129.823964 449.841238 
L 131.649976 447.648447 
L 133.475988 445.602928 
L 135.302 443.790034 
L 137.128011 442.273767 
L 138.954023 441.087621 
L 140.780035 440.229436 
L 142.606047 439.661505 
L 144.432058 439.316188 
L 146.25807 439.106167 
L 148.084082 438.93749 
L 149.910094 438.722853 
L 151.736106 438.392453 
L 153.562117 437.900196 
L 155.388129 437.223986 
L 157.214141 436.360083 
L 159.040153 435.312804 
L 160.866164 434.081775 
L 162.692176 432.649497 
L 164.518188 430.97182 
L 166.3442 428.973296 
L 168.170211 426.548379 
L 169.996223 423.5683 
L 171.822235 419.89253 
L 173.648247 415.383122 
L 175.474258 409.920066 
L 177.30027 403.41595 
L 179.126282 395.828655 
L 180.952294 387.171209 
L 182.778305 377.518255 
L 184.604317 367.008664 
L 186.430329 355.843816 
L 188.256341 344.280953 
L 190.082352 332.621055 
L 191.908364 321.190992 
L 193.734376 310.320273 
L 195.560388 300.313597 
L 197.386399 291.421338 
L 199.212411 283.810944 
L 201.038423 277.542756 
L 202.864435 272.553729 
L 204.690446 268.652006 
L 206.516458 265.524178 
L 208.34247 262.755635 
L 210.168482 259.862822 
L 211.994493 256.334795 
L 213.820505 251.68035 
L 215.646517 245.476459 
L 217.472529 237.41367 
L 219.29854 227.334545 
L 221.124552 215.261962 
L 222.950564 201.414937 
L 224.776576 186.210492 
L 226.602587 170.250852 
L 228.428599 154.295929 
L 230.254611 139.221797 
L 232.080623 125.966715 
L 233.906635 115.467386 
L 235.732646 108.589457 
L 237.558658 106.057647 
L 239.38467 108.391962 
L 241.210682 115.856953 
L 243.036693 128.430435 
L 244.862705 145.796529 
L 246.688717 167.36521 
L 248.514729 192.317262 
L 250.34074 219.670131 
L 252.166752 248.357272 
L 253.992764 277.311784 
L 255.818776 305.544813 
L 257.644787 332.210295 
L 259.470799 356.650047 
L 261.296811 378.416277 
L 263.122823 397.271886 
L 264.948834 413.17174 
L 266.774846 426.230041 
L 268.600858 436.679857 
L 270.42687 444.830693 
L 272.252881 451.029041 
L 274.078893 455.625384 
L 275.904905 458.949472 
L 277.730917 461.294245 
L 279.556928 462.907595 
L 281.38294 463.990466 
L 283.208952 464.699484 
L 285.034964 465.152357 
" style="fill:none;stroke:#c44e52;stroke-linecap:round;stroke-width:1.75;"/>
   </g>
   <g id="line2d_16">
    <path clip-path="url(#p98fbf949be)" d="M 118.14948 465.693716 
L 119.813479 465.611263 
L 121.477478 465.489546 
L 123.141477 465.314094 
L 124.805477 465.067041 
L 126.469476 464.727044 
L 128.133475 464.269416 
L 129.797474 463.66645 
L 131.461474 462.887864 
L 133.125473 461.901206 
L 134.789472 460.672057 
L 136.453471 459.163833 
L 138.11747 457.337079 
L 139.78147 455.148296 
L 141.445469 452.548533 
L 143.109468 449.482263 
L 144.773467 445.887215 
L 146.437467 441.695996 
L 148.101466 436.840234 
L 149.765465 431.257702 
L 151.429464 424.902374 
L 153.093464 417.75672 
L 154.757463 409.844842 
L 156.421462 401.244488 
L 158.085461 392.095616 
L 159.749461 382.603279 
L 161.41346 373.033067 
L 163.077459 363.698207 
L 164.741458 354.938631 
L 166.405458 347.093522 
L 168.069457 340.470025 
L 169.733456 335.311557 
L 171.397455 331.769482 
L 173.061454 329.881626 
L 174.725454 329.560343 
L 176.389453 330.591641 
L 178.053452 332.64554 
L 179.717451 335.296491 
L 181.381451 338.051662 
L 183.04545 340.384286 
L 184.709449 341.769079 
L 186.373448 341.717047 
L 188.037448 339.807475 
L 189.701447 335.715527 
L 191.365446 329.234356 
L 193.029445 320.290896 
L 194.693445 308.954591 
L 196.357444 295.43824 
L 198.021443 280.090168 
L 199.685442 263.377162 
L 201.349442 245.858191 
L 203.013441 228.149903 
L 204.67744 210.886014 
L 206.341439 194.673889 
L 208.005438 180.052427 
L 209.669438 167.455703 
L 211.333437 157.186432 
L 212.997436 149.40226 
L 214.661435 144.116391 
L 216.325435 141.212196 
L 217.989434 140.469793 
L 219.653433 141.601144 
L 221.317432 144.289368 
L 222.981432 148.227691 
L 224.645431 153.153708 
L 226.30943 158.87538 
L 227.973429 165.286243 
L 229.637429 172.368533 
L 231.301428 180.184284 
L 232.965427 188.855736 
L 234.629426 198.537608 
L 236.293426 209.384699 
L 237.957425 221.518921 
L 239.621424 234.999956 
L 241.285423 249.803333 
L 242.949422 265.808789 
L 244.613422 282.800369 
L 246.277421 300.478159 
L 247.94142 318.479921 
L 249.605419 336.409599 
L 251.269419 353.868888 
L 252.933418 370.487817 
L 254.597417 385.950799 
L 256.261416 400.015469 
L 257.925416 412.522926 
L 259.589415 423.399251 
L 261.253414 432.64932 
L 262.917413 440.344764 
L 264.581413 446.608323 
L 266.245412 451.596874 
L 267.909411 455.485108 
L 269.57341 458.451342 
L 271.23741 460.666342 
L 272.901409 462.285496 
L 274.565408 463.444188 
L 276.229407 464.25594 
L 277.893407 464.812684 
L 279.557406 465.186497 
L 281.221405 465.432196 
L 282.885404 465.590277 
" style="fill:none;stroke:#8172b2;stroke-linecap:round;stroke-width:1.75;"/>
   </g>
   <g id="line2d_17">
    <path clip-path="url(#p98fbf949be)" d="M 136.010776 465.838125 
L 136.010776 22.318125 
" style="fill:none;stroke:#000000;stroke-dasharray:1.85,0.8;stroke-dashoffset:0;stroke-width:0.5;"/>
   </g>
   <g id="patch_3">
    <path d="M 20.5625 465.838125 
L 20.5625 22.318125 
" style="fill:none;stroke:#262626;stroke-linecap:square;stroke-linejoin:miter;stroke-width:1.25;"/>
   </g>
   <g id="patch_4">
    <path d="M 251.459052 465.838125 
L 251.459052 22.318125 
" style="fill:none;stroke:#262626;stroke-linecap:square;stroke-linejoin:miter;stroke-width:1.25;"/>
   </g>
   <g id="patch_5">
    <path d="M 20.5625 465.838125 
L 251.459052 465.838125 
" style="fill:none;stroke:#262626;stroke-linecap:square;stroke-linejoin:miter;stroke-width:1.25;"/>
   </g>
   <g id="patch_6">
    <path d="M 20.5625 22.318125 
L 251.459052 22.318125 
" style="fill:none;stroke:#262626;stroke-linecap:square;stroke-linejoin:miter;stroke-width:1.25;"/>
   </g>
   <g id="text_13">
    <!-- -2 -->
    <defs>
     <path d="M 4.890625 31.390625 
L 31.203125 31.390625 
L 31.203125 23.390625 
L 4.890625 23.390625 
z
" id="DejaVuSans-2d"/>
    </defs>
    <g style="fill:#262626;" transform="translate(130.028588 16.318125)scale(0.12 -0.12)">
     <use xlink:href="#DejaVuSans-2d"/>
     <use x="36.083984" xlink:href="#DejaVuSans-32"/>
    </g>
   </g>
   <g id="legend_1">
    <g id="line2d_18">
     <path d="M 28.0577 33.226504 
L 44.7137 33.226504 
" style="fill:none;stroke:#4c72b0;stroke-linecap:round;stroke-width:1.75;"/>
    </g>
    <g id="line2d_19"/>
    <g id="text_14">
     <!-- A: 3.12% -->
     <defs>
      <path d="M 34.1875 63.1875 
L 20.796875 26.90625 
L 47.609375 26.90625 
z
M 28.609375 72.90625 
L 39.796875 72.90625 
L 67.578125 0 
L 57.328125 0 
L 50.6875 18.703125 
L 17.828125 18.703125 
L 11.1875 0 
L 0.78125 0 
z
" id="DejaVuSans-41"/>
      <path d="M 11.71875 12.40625 
L 22.015625 12.40625 
L 22.015625 0 
L 11.71875 0 
z
M 11.71875 51.703125 
L 22.015625 51.703125 
L 22.015625 39.3125 
L 11.71875 39.3125 
z
" id="DejaVuSans-3a"/>
      <path id="DejaVuSans-20"/>
      <path d="M 72.703125 32.078125 
Q 68.453125 32.078125 66.03125 28.46875 
Q 63.625 24.859375 63.625 18.40625 
Q 63.625 12.0625 66.03125 8.421875 
Q 68.453125 4.78125 72.703125 4.78125 
Q 76.859375 4.78125 79.265625 8.421875 
Q 81.6875 12.0625 81.6875 18.40625 
Q 81.6875 24.8125 79.265625 28.4375 
Q 76.859375 32.078125 72.703125 32.078125 
z
M 72.703125 38.28125 
Q 80.421875 38.28125 84.953125 32.90625 
Q 89.5 27.546875 89.5 18.40625 
Q 89.5 9.28125 84.9375 3.921875 
Q 80.375 -1.421875 72.703125 -1.421875 
Q 64.890625 -1.421875 60.34375 3.921875 
Q 55.8125 9.28125 55.8125 18.40625 
Q 55.8125 27.59375 60.375 32.9375 
Q 64.9375 38.28125 72.703125 38.28125 
z
M 22.3125 68.015625 
Q 18.109375 68.015625 15.6875 64.375 
Q 13.28125 60.75 13.28125 54.390625 
Q 13.28125 47.953125 15.671875 44.328125 
Q 18.0625 40.71875 22.3125 40.71875 
Q 26.5625 40.71875 28.96875 44.328125 
Q 31.390625 47.953125 31.390625 54.390625 
Q 31.390625 60.6875 28.953125 64.34375 
Q 26.515625 68.015625 22.3125 68.015625 
z
M 66.40625 74.21875 
L 74.21875 74.21875 
L 28.609375 -1.421875 
L 20.796875 -1.421875 
z
M 22.3125 74.21875 
Q 30.03125 74.21875 34.609375 68.875 
Q 39.203125 63.53125 39.203125 54.390625 
Q 39.203125 45.171875 34.640625 39.84375 
Q 30.078125 34.515625 22.3125 34.515625 
Q 14.546875 34.515625 10.03125 39.859375 
Q 5.515625 45.21875 5.515625 54.390625 
Q 5.515625 63.484375 10.046875 68.84375 
Q 14.59375 74.21875 22.3125 74.21875 
z
" id="DejaVuSans-25"/>
     </defs>
     <g style="fill:#262626;" transform="translate(51.3761 36.141304)scale(0.08328 -0.08328)">
      <use xlink:href="#DejaVuSans-41"/>
      <use x="68.392578" xlink:href="#DejaVuSans-3a"/>
      <use x="102.083984" xlink:href="#DejaVuSans-20"/>
      <use x="133.871094" xlink:href="#DejaVuSans-33"/>
      <use x="197.494141" xlink:href="#DejaVuSans-2e"/>
      <use x="229.28125" xlink:href="#DejaVuSans-31"/>
      <use x="292.904297" xlink:href="#DejaVuSans-32"/>
      <use x="356.527344" xlink:href="#DejaVuSans-25"/>
     </g>
    </g>
    <g id="line2d_20">
     <path d="M 28.0577 45.450446 
L 44.7137 45.450446 
" style="fill:none;stroke:#55a868;stroke-linecap:round;stroke-width:1.75;"/>
    </g>
    <g id="line2d_21"/>
    <g id="text_15">
     <!-- T: 1.56% -->
     <defs>
      <path d="M -0.296875 72.90625 
L 61.375 72.90625 
L 61.375 64.59375 
L 35.5 64.59375 
L 35.5 0 
L 25.59375 0 
L 25.59375 64.59375 
L -0.296875 64.59375 
z
" id="DejaVuSans-54"/>
     </defs>
     <g style="fill:#262626;" transform="translate(51.3761 48.365246)scale(0.08328 -0.08328)">
      <use xlink:href="#DejaVuSans-54"/>
      <use x="60.912109" xlink:href="#DejaVuSans-3a"/>
      <use x="94.603516" xlink:href="#DejaVuSans-20"/>
      <use x="126.390625" xlink:href="#DejaVuSans-31"/>
      <use x="190.013672" xlink:href="#DejaVuSans-2e"/>
      <use x="221.800781" xlink:href="#DejaVuSans-35"/>
      <use x="285.423828" xlink:href="#DejaVuSans-36"/>
      <use x="349.046875" xlink:href="#DejaVuSans-25"/>
     </g>
    </g>
    <g id="line2d_22">
     <path d="M 28.0577 57.674389 
L 44.7137 57.674389 
" style="fill:none;stroke:#c44e52;stroke-linecap:round;stroke-width:1.75;"/>
    </g>
    <g id="line2d_23"/>
    <g id="text_16">
     <!-- C: 0.00% -->
     <defs>
      <path d="M 64.40625 67.28125 
L 64.40625 56.890625 
Q 59.421875 61.53125 53.78125 63.8125 
Q 48.140625 66.109375 41.796875 66.109375 
Q 29.296875 66.109375 22.65625 58.46875 
Q 16.015625 50.828125 16.015625 36.375 
Q 16.015625 21.96875 22.65625 14.328125 
Q 29.296875 6.6875 41.796875 6.6875 
Q 48.140625 6.6875 53.78125 8.984375 
Q 59.421875 11.28125 64.40625 15.921875 
L 64.40625 5.609375 
Q 59.234375 2.09375 53.4375 0.328125 
Q 47.65625 -1.421875 41.21875 -1.421875 
Q 24.65625 -1.421875 15.125 8.703125 
Q 5.609375 18.84375 5.609375 36.375 
Q 5.609375 53.953125 15.125 64.078125 
Q 24.65625 74.21875 41.21875 74.21875 
Q 47.75 74.21875 53.53125 72.484375 
Q 59.328125 70.75 64.40625 67.28125 
z
" id="DejaVuSans-43"/>
     </defs>
     <g style="fill:#262626;" transform="translate(51.3761 60.589189)scale(0.08328 -0.08328)">
      <use xlink:href="#DejaVuSans-43"/>
      <use x="69.824219" xlink:href="#DejaVuSans-3a"/>
      <use x="103.515625" xlink:href="#DejaVuSans-20"/>
      <use x="135.302734" xlink:href="#DejaVuSans-30"/>
      <use x="198.925781" xlink:href="#DejaVuSans-2e"/>
      <use x="230.712891" xlink:href="#DejaVuSans-30"/>
      <use x="294.335938" xlink:href="#DejaVuSans-30"/>
      <use x="357.958984" xlink:href="#DejaVuSans-25"/>
     </g>
    </g>
    <g id="line2d_24">
     <path d="M 28.0577 69.898331 
L 44.7137 69.898331 
" style="fill:none;stroke:#8172b2;stroke-linecap:round;stroke-width:1.75;"/>
    </g>
    <g id="line2d_25"/>
    <g id="text_17">
     <!-- G: 0.00% -->
     <defs>
      <path d="M 59.515625 10.40625 
L 59.515625 29.984375 
L 43.40625 29.984375 
L 43.40625 38.09375 
L 69.28125 38.09375 
L 69.28125 6.78125 
Q 63.578125 2.734375 56.6875 0.65625 
Q 49.8125 -1.421875 42 -1.421875 
Q 24.90625 -1.421875 15.25 8.5625 
Q 5.609375 18.5625 5.609375 36.375 
Q 5.609375 54.25 15.25 64.234375 
Q 24.90625 74.21875 42 74.21875 
Q 49.125 74.21875 55.546875 72.453125 
Q 61.96875 70.703125 67.390625 67.28125 
L 67.390625 56.78125 
Q 61.921875 61.421875 55.765625 63.765625 
Q 49.609375 66.109375 42.828125 66.109375 
Q 29.4375 66.109375 22.71875 58.640625 
Q 16.015625 51.171875 16.015625 36.375 
Q 16.015625 21.625 22.71875 14.15625 
Q 29.4375 6.6875 42.828125 6.6875 
Q 48.046875 6.6875 52.140625 7.59375 
Q 56.25 8.5 59.515625 10.40625 
z
" id="DejaVuSans-47"/>
     </defs>
     <g style="fill:#262626;" transform="translate(51.3761 72.813131)scale(0.08328 -0.08328)">
      <use xlink:href="#DejaVuSans-47"/>
      <use x="77.490234" xlink:href="#DejaVuSans-3a"/>
      <use x="111.181641" xlink:href="#DejaVuSans-20"/>
      <use x="142.96875" xlink:href="#DejaVuSans-30"/>
      <use x="206.591797" xlink:href="#DejaVuSans-2e"/>
      <use x="238.378906" xlink:href="#DejaVuSans-30"/>
      <use x="302.001953" xlink:href="#DejaVuSans-30"/>
      <use x="365.625" xlink:href="#DejaVuSans-25"/>
     </g>
    </g>
   </g>
  </g>
  <g id="axes_2">
   <g id="patch_7">
    <path d="M 297.638362 465.838125 
L 528.534914 465.838125 
L 528.534914 22.318125 
L 297.638362 22.318125 
z
" style="fill:#ffffff;"/>
   </g>
   <g id="matplotlib.axis_3">
    <g id="xtick_7">
     <g id="line2d_26"/>
     <g id="text_18">
      <!-- 0.0 -->
      <g style="fill:#262626;" transform="translate(289.6868 480.436562)scale(0.1 -0.1)">
       <use xlink:href="#DejaVuSans-30"/>
       <use x="63.623047" xlink:href="#DejaVuSans-2e"/>
       <use x="95.410156" xlink:href="#DejaVuSans-30"/>
      </g>
     </g>
    </g>
    <g id="xtick_8">
     <g id="line2d_27"/>
     <g id="text_19">
      <!-- 0.2 -->
      <g style="fill:#262626;" transform="translate(335.86611 480.436562)scale(0.1 -0.1)">
       <use xlink:href="#DejaVuSans-30"/>
       <use x="63.623047" xlink:href="#DejaVuSans-2e"/>
       <use x="95.410156" xlink:href="#DejaVuSans-32"/>
      </g>
     </g>
    </g>
    <g id="xtick_9">
     <g id="line2d_28"/>
     <g id="text_20">
      <!-- 0.4 -->
      <g style="fill:#262626;" transform="translate(382.04542 480.436562)scale(0.1 -0.1)">
       <use xlink:href="#DejaVuSans-30"/>
       <use x="63.623047" xlink:href="#DejaVuSans-2e"/>
       <use x="95.410156" xlink:href="#DejaVuSans-34"/>
      </g>
     </g>
    </g>
    <g id="xtick_10">
     <g id="line2d_29"/>
     <g id="text_21">
      <!-- 0.6 -->
      <g style="fill:#262626;" transform="translate(428.224731 480.436562)scale(0.1 -0.1)">
       <use xlink:href="#DejaVuSans-30"/>
       <use x="63.623047" xlink:href="#DejaVuSans-2e"/>
       <use x="95.410156" xlink:href="#DejaVuSans-36"/>
      </g>
     </g>
    </g>
    <g id="xtick_11">
     <g id="line2d_30"/>
     <g id="text_22">
      <!-- 0.8 -->
      <g style="fill:#262626;" transform="translate(474.404041 480.436562)scale(0.1 -0.1)">
       <use xlink:href="#DejaVuSans-30"/>
       <use x="63.623047" xlink:href="#DejaVuSans-2e"/>
       <use x="95.410156" xlink:href="#DejaVuSans-38"/>
      </g>
     </g>
    </g>
    <g id="xtick_12">
     <g id="line2d_31"/>
     <g id="text_23">
      <!-- 1.0 -->
      <g style="fill:#262626;" transform="translate(520.583351 480.436562)scale(0.1 -0.1)">
       <use xlink:href="#DejaVuSans-31"/>
       <use x="63.623047" xlink:href="#DejaVuSans-2e"/>
       <use x="95.410156" xlink:href="#DejaVuSans-30"/>
      </g>
     </g>
    </g>
   </g>
   <g id="matplotlib.axis_4">
    <g id="ytick_7">
     <g id="line2d_32"/>
     <g id="text_24">
      <!-- 0 -->
      <g style="fill:#262626;" transform="translate(284.275862 469.637344)scale(0.1 -0.1)">
       <use xlink:href="#DejaVuSans-30"/>
      </g>
     </g>
    </g>
    <g id="ytick_8">
     <g id="line2d_33"/>
     <g id="text_25">
      <!-- 1 -->
      <g style="fill:#262626;" transform="translate(284.275862 380.933344)scale(0.1 -0.1)">
       <use xlink:href="#DejaVuSans-31"/>
      </g>
     </g>
    </g>
    <g id="ytick_9">
     <g id="line2d_34"/>
     <g id="text_26">
      <!-- 2 -->
      <g style="fill:#262626;" transform="translate(284.275862 292.229344)scale(0.1 -0.1)">
       <use xlink:href="#DejaVuSans-32"/>
      </g>
     </g>
    </g>
    <g id="ytick_10">
     <g id="line2d_35"/>
     <g id="text_27">
      <!-- 3 -->
      <g style="fill:#262626;" transform="translate(284.275862 203.525344)scale(0.1 -0.1)">
       <use xlink:href="#DejaVuSans-33"/>
      </g>
     </g>
    </g>
    <g id="ytick_11">
     <g id="line2d_36"/>
     <g id="text_28">
      <!-- 4 -->
      <g style="fill:#262626;" transform="translate(284.275862 114.821344)scale(0.1 -0.1)">
       <use xlink:href="#DejaVuSans-34"/>
      </g>
     </g>
    </g>
    <g id="ytick_12">
     <g id="line2d_37"/>
     <g id="text_29">
      <!-- 5 -->
      <g style="fill:#262626;" transform="translate(284.275862 26.117344)scale(0.1 -0.1)">
       <use xlink:href="#DejaVuSans-35"/>
      </g>
     </g>
    </g>
   </g>
   <g id="line2d_38">
    <path clip-path="url(#p75849a72c1)" d="M 364.168522 465.694753 
L 366.094778 465.59606 
L 368.021034 465.442672 
L 369.947291 465.213015 
L 371.873547 464.881989 
L 373.799803 464.423021 
L 375.726059 463.811517 
L 377.652315 463.029623 
L 379.578571 462.071771 
L 381.504827 460.950064 
L 383.431083 459.698167 
L 385.357339 458.372304 
L 387.283595 457.048219 
L 389.209851 455.813664 
L 391.136107 454.756977 
L 393.062363 453.953388 
L 394.988619 453.451557 
L 396.914875 453.26318 
L 398.841131 453.358125 
L 400.767387 453.666571 
L 402.693643 454.088118 
L 404.619899 454.506281 
L 406.546155 454.80551 
L 408.472411 454.887216 
L 410.398667 454.681377 
L 412.324923 454.151235 
L 414.251179 453.290051 
L 416.177435 452.110694 
L 418.103691 450.630571 
L 420.029947 448.85561 
L 421.956203 446.767508 
L 423.882459 444.317832 
L 425.808715 441.431107 
L 427.734971 438.016806 
L 429.661227 433.98786 
L 431.587483 429.281445 
L 433.513739 423.876942 
L 435.439995 417.806374 
L 437.366251 411.154247 
L 439.292507 404.046097 
L 441.218763 396.627581 
L 443.145019 389.038049 
L 445.071275 381.383653 
L 446.997531 373.715065 
L 448.923787 366.013865 
L 450.850043 358.189915 
L 452.776299 350.090029 
L 454.702555 341.516384 
L 456.628811 332.251726 
L 458.555067 322.087745 
L 460.481323 310.853006 
L 462.407579 298.437459 
L 464.333835 284.811465 
L 466.260091 270.038244 
L 468.186347 254.279387 
L 470.112603 237.793415 
L 472.038859 220.927403 
L 473.965115 204.101614 
L 475.891371 187.787156 
L 477.817627 172.477125 
L 479.743883 158.652708 
L 481.670139 146.747005 
L 483.596395 137.110725 
L 485.522651 129.984802 
L 487.448907 125.484901 
L 489.375163 123.601515 
L 491.301419 124.216756 
L 493.227675 127.135676 
L 495.153931 132.126625 
L 497.080187 138.962833 
L 499.006443 147.456772 
L 500.932699 157.480332 
L 502.858955 168.967029 
L 504.785211 181.896639 
L 506.711467 196.266575 
L 508.637723 212.05708 
L 510.563979 229.198108 
L 512.490235 247.54481 
L 514.416491 266.866044 
L 516.342747 286.847396 
L 518.269003 307.107372 
L 520.195259 327.223436 
L 522.121515 346.763562 
L 524.047771 365.318782 
L 525.974027 382.532774 
L 527.900284 398.125331 
L 529.82654 411.907611 
L 531.752796 423.78816 
L 533.679052 433.769784 
L 535.605308 441.938403 
L 537.531564 448.445874 
L 539.45782 453.489353 
L 541.384076 457.289934 
L 543.310332 460.073052 
L 545.236588 462.05253 
L 547.162844 463.419314 
L 549.0891 464.335092 
L 551.015356 464.930274 
L 552.941612 465.305354 
L 554.867868 465.534481 
" style="fill:none;stroke:#4c72b0;stroke-linecap:round;stroke-width:1.75;"/>
   </g>
   <g id="line2d_39">
    <path clip-path="url(#p75849a72c1)" d="M 410.22334 465.66669 
L 411.692664 465.564528 
L 413.161988 465.412001 
L 414.631313 465.190331 
L 416.100637 464.876756 
L 417.569961 464.445028 
L 419.039286 463.866558 
L 420.50861 463.112314 
L 421.977934 462.155417 
L 423.447259 460.974264 
L 424.916583 459.555843 
L 426.385907 457.898749 
L 427.855232 456.015335 
L 429.324556 453.932444 
L 430.79388 451.690289 
L 432.263205 449.339267 
L 433.732529 446.93482 
L 435.201853 444.530779 
L 436.671178 442.171936 
L 438.140502 439.886809 
L 439.609826 437.681638 
L 441.079151 435.536539 
L 442.548475 433.40454 
L 444.017799 431.213785 
L 445.487124 428.872776 
L 446.956448 426.278012 
L 448.425772 423.322964 
L 449.895097 419.907091 
L 451.364421 415.943487 
L 452.833746 411.364019 
L 454.30307 406.121266 
L 455.772394 400.187274 
L 457.241719 393.549928 
L 458.711043 386.208459 
L 460.180367 378.169994 
L 461.649692 369.449081 
L 463.119016 360.071512 
L 464.58834 350.08271 
L 466.057665 339.559531 
L 467.526989 328.622872 
L 468.996313 317.447382 
L 470.465638 306.264167 
L 471.934962 295.352945 
L 473.404286 285.021712 
L 474.873611 275.574353 
L 476.342935 267.269466 
L 477.812259 260.276218 
L 479.281584 254.634832 
L 480.750908 250.229683 
L 482.220232 246.781758 
L 483.689557 243.86451 
L 485.158881 240.943293 
L 486.628205 237.434346 
L 488.09753 232.77555 
L 489.566854 226.498697 
L 491.036178 218.292288 
L 492.505503 208.045221 
L 493.974827 195.864811 
L 495.444151 182.066864 
L 496.913476 167.140189 
L 498.3828 151.692017 
L 499.852125 136.383591 
L 501.321449 121.866185 
L 502.790773 108.726905 
L 504.260098 97.451126 
L 505.729422 88.40486 
L 507.198746 81.836521 
L 508.668071 77.894174 
L 510.137395 76.651986 
L 511.606719 78.138688 
L 513.076044 82.361294 
L 514.545368 89.319072 
L 516.014692 99.0053 
L 517.484017 111.397116 
L 518.953341 126.436362 
L 520.422665 144.006176 
L 521.89199 163.90892 
L 523.361314 185.850829 
L 524.830638 209.43753 
L 526.299963 234.182607 
L 527.769287 259.529116 
L 529.238611 284.881713 
L 530.707936 309.645323 
L 532.17726 333.265291 
L 533.646584 355.26383 
L 535.115909 375.268361 
L 536.585233 393.028729 
L 538.054557 408.422068 
L 539.523882 421.445896 
L 540.993206 432.20155 
L 542.462531 440.871052 
L 543.931855 447.690943 
L 545.401179 452.926386 
L 546.870504 456.848223 
L 548.339828 459.714732 
L 549.809152 461.758886 
L 551.278477 463.181022 
L 552.747801 464.146199 
L 554.217125 464.785174 
L 555.68645 465.197792 
" style="fill:none;stroke:#55a868;stroke-linecap:round;stroke-width:1.75;"/>
   </g>
   <g id="line2d_40">
    <path clip-path="url(#p75849a72c1)" d="M 379.104274 465.666196 
L 380.877686 465.532171 
L 382.651097 465.315097 
L 384.424509 464.979199 
L 386.197921 464.483097 
L 387.971333 463.784588 
L 389.744745 462.848485 
L 391.518157 461.656961 
L 393.291568 460.220698 
L 395.06498 458.588099 
L 396.838392 456.849286 
L 398.611804 455.132068 
L 400.385216 453.588651 
L 402.158627 452.374337 
L 403.932039 451.622072 
L 405.705451 451.418537 
L 407.478863 451.787718 
L 409.252275 452.686245 
L 411.025686 454.011751 
L 412.799098 455.622008 
L 414.57251 457.359859 
L 416.345922 459.07786 
L 418.119334 460.657305 
L 419.892746 462.018422 
L 421.666157 463.121208 
L 423.439569 463.958624 
L 425.212981 464.545209 
L 426.986393 464.904394 
L 428.759805 465.057258 
L 430.533216 465.014556 
L 432.306628 464.773034 
L 434.08004 464.316361 
L 435.853452 463.620548 
L 437.626864 462.663115 
L 439.400275 461.434542 
L 441.173687 459.949507 
L 442.947099 458.25462 
L 444.720511 456.429012 
L 446.493923 454.574928 
L 448.267335 452.797419 
L 450.040746 451.17521 
L 451.814158 449.728006 
L 453.58757 448.387904 
L 455.360982 446.98329 
L 457.134394 445.241982 
L 458.907805 442.816725 
L 460.681217 439.331078 
L 462.454629 434.438586 
L 464.228041 427.884072 
L 466.001453 419.554091 
L 467.774865 409.504622 
L 469.548276 397.958003 
L 471.321688 385.267303 
L 473.0951 371.8535 
L 474.868512 358.127311 
L 476.641924 344.411574 
L 478.415335 330.880406 
L 480.188747 317.527815 
L 481.962159 304.171771 
L 483.735571 290.491833 
L 485.508983 276.091462 
L 487.282394 260.571819 
L 489.055806 243.603133 
L 490.829218 224.982148 
L 492.60263 204.668671 
L 494.376042 182.7992 
L 496.149454 159.679868 
L 497.922865 135.763834 
L 499.696277 111.619763 
L 501.469689 87.898335 
L 503.243101 65.302812 
L 505.016513 44.567465 
L 506.789924 26.444138 
L 508.563336 11.693114 
L 510.336748 1.071087 
L 510.974056 -1 
M 515.082833 -1 
L 515.656983 0.883236 
L 517.430395 13.098411 
L 519.203807 31.782263 
L 520.977219 56.675851 
L 522.750631 87.158037 
L 524.524043 122.250246 
L 526.297454 160.664456 
L 528.070866 200.893245 
L 529.844278 241.333503 
L 531.61769 280.428526 
L 533.391102 316.808191 
L 535.164513 349.405482 
L 536.937925 377.530943 
L 538.711337 400.894503 
L 540.484749 419.574742 
L 542.258161 433.94603 
L 544.031573 444.581187 
L 545.804984 452.149531 
L 547.578396 457.327438 
L 549.351808 460.732359 
L 551.12522 462.884041 
L 552.898632 464.190514 
L 554.672043 464.952631 
" style="fill:none;stroke:#c44e52;stroke-linecap:round;stroke-width:1.75;"/>
   </g>
   <g id="line2d_41">
    <path clip-path="url(#p75849a72c1)" d="M 246.421154 465.766699 
L 249.917089 465.723906 
L 253.413024 465.659988 
L 256.908959 465.567119 
L 260.404894 465.435882 
L 263.900828 465.255507 
L 267.396763 465.014406 
L 270.892698 464.700992 
L 274.388633 464.304769 
L 277.884568 463.817593 
L 281.380503 463.234948 
L 284.876438 462.557025 
L 288.372373 461.789408 
L 291.868308 460.943181 
L 295.364243 460.034355 
L 298.860178 459.082638 
L 302.356113 458.109684 
L 305.852048 457.137028 
L 309.347983 456.184 
L 312.843918 455.265847 
L 316.339852 454.392231 
L 319.835787 453.566172 
L 323.331722 452.783363 
L 326.827657 452.031759 
L 330.323592 451.291315 
L 333.819527 450.533821 
L 337.315462 449.722886 
L 340.811397 448.814228 
L 344.307332 447.756505 
L 347.803267 446.492899 
L 351.299202 444.963633 
L 354.795137 443.109444 
L 358.291072 440.875932 
L 361.787007 438.218545 
L 365.282941 435.107875 
L 368.778876 431.534878 
L 372.274811 427.515514 
L 375.770746 423.094254 
L 379.266681 418.345762 
L 382.762616 413.374038 
L 386.258551 408.308298 
L 389.754486 403.295159 
L 393.250421 398.487112 
L 396.746356 394.027955 
L 400.242291 390.036607 
L 403.738226 386.591399 
L 407.234161 383.717279 
L 410.730096 381.378295 
L 414.226031 379.47709 
L 417.721965 377.862124 
L 421.2179 376.34208 
L 424.713835 374.705693 
L 428.20977 372.744397 
L 431.705705 370.274762 
L 435.20164 367.157857 
L 438.697575 363.313328 
L 442.19351 358.726834 
L 445.689445 353.450537 
L 449.18538 347.597207 
L 452.681315 341.329236 
L 456.17725 334.844229 
L 459.673185 328.35909 
L 463.16912 322.094384 
L 466.665055 316.260582 
L 470.160989 311.04739 
L 473.656924 306.61687 
L 477.152859 303.100536 
L 480.648794 300.60006 
L 484.144729 299.190709 
L 487.640664 298.926312 
L 491.136599 299.844337 
L 494.632534 301.969745 
L 498.128469 305.316502 
L 501.624404 309.886158 
L 505.120339 315.663471 
L 508.616274 322.609767 
L 512.112209 330.6553 
L 515.608144 339.692357 
L 519.104078 349.570932 
L 522.600013 360.098596 
L 526.095948 371.045587 
L 529.591883 382.155249 
L 533.087818 393.158986 
L 536.583753 403.79401 
L 540.079688 413.821532 
L 543.575623 423.042949 
L 547.071558 431.311853 
L 550.567493 438.540429 
L 554.063428 444.699764 
L 557.559363 449.814532 
L 561.055298 453.953356 
L 564.551233 457.216569 
L 568.047168 459.72326 
L 571.543102 461.599204 
L 575.039037 462.966891 
L 578.534972 463.938278 
L 582.030907 464.610372 
L 585.526842 465.063375 
L 589.022777 465.360817 
L 592.518712 465.551076 
" style="fill:none;stroke:#8172b2;stroke-linecap:round;stroke-width:1.75;"/>
   </g>
   <g id="line2d_42">
    <path clip-path="url(#p75849a72c1)" d="M 413.086638 465.838125 
L 413.086638 22.318125 
" style="fill:none;stroke:#000000;stroke-dasharray:1.85,0.8;stroke-dashoffset:0;stroke-width:0.5;"/>
   </g>
   <g id="patch_8">
    <path d="M 297.638362 465.838125 
L 297.638362 22.318125 
" style="fill:none;stroke:#262626;stroke-linecap:square;stroke-linejoin:miter;stroke-width:1.25;"/>
   </g>
   <g id="patch_9">
    <path d="M 528.534914 465.838125 
L 528.534914 22.318125 
" style="fill:none;stroke:#262626;stroke-linecap:square;stroke-linejoin:miter;stroke-width:1.25;"/>
   </g>
   <g id="patch_10">
    <path d="M 297.638362 465.838125 
L 528.534914 465.838125 
" style="fill:none;stroke:#262626;stroke-linecap:square;stroke-linejoin:miter;stroke-width:1.25;"/>
   </g>
   <g id="patch_11">
    <path d="M 297.638362 22.318125 
L 528.534914 22.318125 
" style="fill:none;stroke:#262626;stroke-linecap:square;stroke-linejoin:miter;stroke-width:1.25;"/>
   </g>
   <g id="text_30">
    <!-- -1 -->
    <g style="fill:#262626;" transform="translate(407.10445 16.318125)scale(0.12 -0.12)">
     <use xlink:href="#DejaVuSans-2d"/>
     <use x="36.083984" xlink:href="#DejaVuSans-31"/>
    </g>
   </g>
   <g id="legend_2">
    <g id="line2d_43">
     <path d="M 305.133562 33.226504 
L 321.789562 33.226504 
" style="fill:none;stroke:#4c72b0;stroke-linecap:round;stroke-width:1.75;"/>
    </g>
    <g id="line2d_44"/>
    <g id="text_31">
     <!-- A: 1.56% -->
     <g style="fill:#262626;" transform="translate(328.451962 36.141304)scale(0.08328 -0.08328)">
      <use xlink:href="#DejaVuSans-41"/>
      <use x="68.392578" xlink:href="#DejaVuSans-3a"/>
      <use x="102.083984" xlink:href="#DejaVuSans-20"/>
      <use x="133.871094" xlink:href="#DejaVuSans-31"/>
      <use x="197.494141" xlink:href="#DejaVuSans-2e"/>
      <use x="229.28125" xlink:href="#DejaVuSans-35"/>
      <use x="292.904297" xlink:href="#DejaVuSans-36"/>
      <use x="356.527344" xlink:href="#DejaVuSans-25"/>
     </g>
    </g>
    <g id="line2d_45">
     <path d="M 305.133562 45.450446 
L 321.789562 45.450446 
" style="fill:none;stroke:#55a868;stroke-linecap:round;stroke-width:1.75;"/>
    </g>
    <g id="line2d_46"/>
    <g id="text_32">
     <!-- T: 0.00% -->
     <g style="fill:#262626;" transform="translate(328.451962 48.365246)scale(0.08328 -0.08328)">
      <use xlink:href="#DejaVuSans-54"/>
      <use x="60.912109" xlink:href="#DejaVuSans-3a"/>
      <use x="94.603516" xlink:href="#DejaVuSans-20"/>
      <use x="126.390625" xlink:href="#DejaVuSans-30"/>
      <use x="190.013672" xlink:href="#DejaVuSans-2e"/>
      <use x="221.800781" xlink:href="#DejaVuSans-30"/>
      <use x="285.423828" xlink:href="#DejaVuSans-30"/>
      <use x="349.046875" xlink:href="#DejaVuSans-25"/>
     </g>
    </g>
    <g id="line2d_47">
     <path d="M 305.133562 57.674389 
L 321.789562 57.674389 
" style="fill:none;stroke:#c44e52;stroke-linecap:round;stroke-width:1.75;"/>
    </g>
    <g id="line2d_48"/>
    <g id="text_33">
     <!-- C: 1.56% -->
     <g style="fill:#262626;" transform="translate(328.451962 60.589189)scale(0.08328 -0.08328)">
      <use xlink:href="#DejaVuSans-43"/>
      <use x="69.824219" xlink:href="#DejaVuSans-3a"/>
      <use x="103.515625" xlink:href="#DejaVuSans-20"/>
      <use x="135.302734" xlink:href="#DejaVuSans-31"/>
      <use x="198.925781" xlink:href="#DejaVuSans-2e"/>
      <use x="230.712891" xlink:href="#DejaVuSans-35"/>
      <use x="294.335938" xlink:href="#DejaVuSans-36"/>
      <use x="357.958984" xlink:href="#DejaVuSans-25"/>
     </g>
    </g>
    <g id="line2d_49">
     <path d="M 305.133562 69.898331 
L 321.789562 69.898331 
" style="fill:none;stroke:#8172b2;stroke-linecap:round;stroke-width:1.75;"/>
    </g>
    <g id="line2d_50"/>
    <g id="text_34">
     <!-- G: 21.88% -->
     <g style="fill:#262626;" transform="translate(328.451962 72.813131)scale(0.08328 -0.08328)">
      <use xlink:href="#DejaVuSans-47"/>
      <use x="77.490234" xlink:href="#DejaVuSans-3a"/>
      <use x="111.181641" xlink:href="#DejaVuSans-20"/>
      <use x="142.96875" xlink:href="#DejaVuSans-32"/>
      <use x="206.591797" xlink:href="#DejaVuSans-31"/>
      <use x="270.214844" xlink:href="#DejaVuSans-2e"/>
      <use x="302.001953" xlink:href="#DejaVuSans-38"/>
      <use x="365.625" xlink:href="#DejaVuSans-38"/>
      <use x="429.248047" xlink:href="#DejaVuSans-25"/>
     </g>
    </g>
   </g>
  </g>
  <g id="axes_3">
   <g id="patch_12">
    <path d="M 574.714224 465.838125 
L 805.610776 465.838125 
L 805.610776 22.318125 
L 574.714224 22.318125 
z
" style="fill:#ffffff;"/>
   </g>
   <g id="matplotlib.axis_5">
    <g id="xtick_13">
     <g id="line2d_51"/>
     <g id="text_35">
      <!-- 0.0 -->
      <g style="fill:#262626;" transform="translate(566.762662 480.436562)scale(0.1 -0.1)">
       <use xlink:href="#DejaVuSans-30"/>
       <use x="63.623047" xlink:href="#DejaVuSans-2e"/>
       <use x="95.410156" xlink:href="#DejaVuSans-30"/>
      </g>
     </g>
    </g>
    <g id="xtick_14">
     <g id="line2d_52"/>
     <g id="text_36">
      <!-- 0.2 -->
      <g style="fill:#262626;" transform="translate(612.941972 480.436562)scale(0.1 -0.1)">
       <use xlink:href="#DejaVuSans-30"/>
       <use x="63.623047" xlink:href="#DejaVuSans-2e"/>
       <use x="95.410156" xlink:href="#DejaVuSans-32"/>
      </g>
     </g>
    </g>
    <g id="xtick_15">
     <g id="line2d_53"/>
     <g id="text_37">
      <!-- 0.4 -->
      <g style="fill:#262626;" transform="translate(659.121282 480.436562)scale(0.1 -0.1)">
       <use xlink:href="#DejaVuSans-30"/>
       <use x="63.623047" xlink:href="#DejaVuSans-2e"/>
       <use x="95.410156" xlink:href="#DejaVuSans-34"/>
      </g>
     </g>
    </g>
    <g id="xtick_16">
     <g id="line2d_54"/>
     <g id="text_38">
      <!-- 0.6 -->
      <g style="fill:#262626;" transform="translate(705.300593 480.436562)scale(0.1 -0.1)">
       <use xlink:href="#DejaVuSans-30"/>
       <use x="63.623047" xlink:href="#DejaVuSans-2e"/>
       <use x="95.410156" xlink:href="#DejaVuSans-36"/>
      </g>
     </g>
    </g>
    <g id="xtick_17">
     <g id="line2d_55"/>
     <g id="text_39">
      <!-- 0.8 -->
      <g style="fill:#262626;" transform="translate(751.479903 480.436562)scale(0.1 -0.1)">
       <use xlink:href="#DejaVuSans-30"/>
       <use x="63.623047" xlink:href="#DejaVuSans-2e"/>
       <use x="95.410156" xlink:href="#DejaVuSans-38"/>
      </g>
     </g>
    </g>
    <g id="xtick_18">
     <g id="line2d_56"/>
     <g id="text_40">
      <!-- 1.0 -->
      <g style="fill:#262626;" transform="translate(797.659213 480.436562)scale(0.1 -0.1)">
       <use xlink:href="#DejaVuSans-31"/>
       <use x="63.623047" xlink:href="#DejaVuSans-2e"/>
       <use x="95.410156" xlink:href="#DejaVuSans-30"/>
      </g>
     </g>
    </g>
   </g>
   <g id="matplotlib.axis_6">
    <g id="ytick_13">
     <g id="line2d_57"/>
     <g id="text_41">
      <!-- 0 -->
      <g style="fill:#262626;" transform="translate(561.351724 469.637344)scale(0.1 -0.1)">
       <use xlink:href="#DejaVuSans-30"/>
      </g>
     </g>
    </g>
    <g id="ytick_14">
     <g id="line2d_58"/>
     <g id="text_42">
      <!-- 1 -->
      <g style="fill:#262626;" transform="translate(561.351724 380.933344)scale(0.1 -0.1)">
       <use xlink:href="#DejaVuSans-31"/>
      </g>
     </g>
    </g>
    <g id="ytick_15">
     <g id="line2d_59"/>
     <g id="text_43">
      <!-- 2 -->
      <g style="fill:#262626;" transform="translate(561.351724 292.229344)scale(0.1 -0.1)">
       <use xlink:href="#DejaVuSans-32"/>
      </g>
     </g>
    </g>
    <g id="ytick_16">
     <g id="line2d_60"/>
     <g id="text_44">
      <!-- 3 -->
      <g style="fill:#262626;" transform="translate(561.351724 203.525344)scale(0.1 -0.1)">
       <use xlink:href="#DejaVuSans-33"/>
      </g>
     </g>
    </g>
    <g id="ytick_17">
     <g id="line2d_61"/>
     <g id="text_45">
      <!-- 4 -->
      <g style="fill:#262626;" transform="translate(561.351724 114.821344)scale(0.1 -0.1)">
       <use xlink:href="#DejaVuSans-34"/>
      </g>
     </g>
    </g>
    <g id="ytick_18">
     <g id="line2d_62"/>
     <g id="text_46">
      <!-- 5 -->
      <g style="fill:#262626;" transform="translate(561.351724 26.117344)scale(0.1 -0.1)">
       <use xlink:href="#DejaVuSans-35"/>
      </g>
     </g>
    </g>
   </g>
   <g id="line2d_63">
    <path clip-path="url(#p9140f2a005)" d="M 529.494092 465.784616 
L 532.810886 465.742218 
L 536.127681 465.672016 
L 539.444475 465.560073 
L 542.761269 465.388221 
L 546.078063 465.1343 
L 549.394857 464.773326 
L 552.711652 464.279797 
L 556.028446 463.631158 
L 559.34524 462.812097 
L 562.662034 461.819028 
L 565.978829 460.663763 
L 569.295623 459.375303 
L 572.612417 457.998839 
L 575.929211 456.591567 
L 579.246005 455.215617 
L 582.5628 453.92918 
L 585.879594 452.77745 
L 589.196388 451.785188 
L 592.513182 450.952426 
L 595.829977 450.254149 
L 599.146771 449.643978 
L 602.463565 449.061108 
L 605.780359 448.43925 
L 609.097153 447.716167 
L 612.413948 446.842469 
L 615.730742 445.788569 
L 619.047536 444.548902 
L 622.36433 443.142708 
L 625.681124 441.610963 
L 628.997919 440.009396 
L 632.314713 438.398225 
L 635.631507 436.830037 
L 638.948301 435.338025 
L 642.265096 433.927172 
L 645.58189 432.570809 
L 648.898684 431.213924 
L 652.215478 429.783129 
L 655.532272 428.20139 
L 658.849067 426.404269 
L 662.165861 424.353842 
L 665.482655 422.046841 
L 668.799449 419.514992 
L 672.116244 416.817361 
L 675.433038 414.026511 
L 678.749832 411.211682 
L 682.066626 408.422876 
L 685.38342 405.679386 
L 688.700215 402.96522 
L 692.017009 400.232204 
L 695.333803 397.409807 
L 698.650597 394.419178 
L 701.967391 391.188035 
L 705.284186 387.662948 
L 708.60098 383.816355 
L 711.917774 379.647131 
L 715.234568 375.175346 
L 718.551363 370.433414 
L 721.868157 365.456792 
L 725.184951 360.277246 
L 728.501745 354.920574 
L 731.818539 349.408858 
L 735.135334 343.765504 
L 738.452128 338.020212 
L 741.768922 332.211184 
L 745.085716 326.383309 
L 748.40251 320.583266 
L 751.719305 314.854576 
L 755.036099 309.236634 
L 758.352893 303.771078 
L 761.669687 298.516513 
L 764.986482 293.569356 
L 768.303276 289.085443 
L 771.62007 285.295223 
L 774.936864 282.505587 
L 778.253658 281.083656 
L 781.570453 281.421769 
L 784.887247 283.887384 
L 788.204041 288.765593 
L 791.520835 296.204418 
L 794.83763 306.173523 
L 798.154424 318.445097 
L 801.471218 332.601964 
L 804.788012 348.072974 
L 808.104806 364.1906 
L 811.421601 380.261466 
L 814.738395 395.638164 
L 818.055189 409.780888 
L 821.371983 422.299898 
L 824.688777 432.974048 
L 828.005572 441.745514 
L 831.322366 448.695092 
L 834.63916 454.005281 
L 837.955954 457.919153 
L 841.272749 460.702078 
L 844.589543 462.611177 
L 847.906337 463.874775 
L 851.223131 464.681739 
L 854.539925 465.178985 
L 857.85672 465.474623 
" style="fill:none;stroke:#000000;stroke-linecap:round;stroke-width:1.75;"/>
   </g>
   <g id="line2d_64">
    <path clip-path="url(#p9140f2a005)" d="M 690.1625 465.838125 
L 690.1625 22.318125 
" style="fill:none;stroke:#000000;stroke-dasharray:1.85,0.8;stroke-dashoffset:0;stroke-width:0.5;"/>
   </g>
   <g id="patch_13">
    <path d="M 574.714224 465.838125 
L 574.714224 22.318125 
" style="fill:none;stroke:#262626;stroke-linecap:square;stroke-linejoin:miter;stroke-width:1.25;"/>
   </g>
   <g id="patch_14">
    <path d="M 805.610776 465.838125 
L 805.610776 22.318125 
" style="fill:none;stroke:#262626;stroke-linecap:square;stroke-linejoin:miter;stroke-width:1.25;"/>
   </g>
   <g id="patch_15">
    <path d="M 574.714224 465.838125 
L 805.610776 465.838125 
" style="fill:none;stroke:#262626;stroke-linecap:square;stroke-linejoin:miter;stroke-width:1.25;"/>
   </g>
   <g id="patch_16">
    <path d="M 574.714224 22.318125 
L 805.610776 22.318125 
" style="fill:none;stroke:#262626;stroke-linecap:square;stroke-linejoin:miter;stroke-width:1.25;"/>
   </g>
   <g id="text_47">
    <!-- +0 -->
    <defs>
     <path d="M 46 62.703125 
L 46 35.5 
L 73.1875 35.5 
L 73.1875 27.203125 
L 46 27.203125 
L 46 0 
L 37.796875 0 
L 37.796875 27.203125 
L 10.59375 27.203125 
L 10.59375 35.5 
L 37.796875 35.5 
L 37.796875 62.703125 
z
" id="DejaVuSans-2b"/>
    </defs>
    <g style="fill:#262626;" transform="translate(681.317188 16.318125)scale(0.12 -0.12)">
     <use xlink:href="#DejaVuSans-2b"/>
     <use x="83.789062" xlink:href="#DejaVuSans-30"/>
    </g>
   </g>
   <g id="legend_3">
    <g id="line2d_65">
     <path d="M 582.209424 33.226504 
L 598.865424 33.226504 
" style="fill:none;stroke:#000000;stroke-linecap:round;stroke-width:1.75;"/>
    </g>
    <g id="line2d_66"/>
    <g id="text_48">
     <!-- X: 17.58% -->
     <defs>
      <path d="M 6.296875 72.90625 
L 16.890625 72.90625 
L 35.015625 45.796875 
L 53.21875 72.90625 
L 63.8125 72.90625 
L 40.375 37.890625 
L 65.375 0 
L 54.78125 0 
L 34.28125 31 
L 13.625 0 
L 2.984375 0 
L 29 38.921875 
z
" id="DejaVuSans-58"/>
      <path d="M 8.203125 72.90625 
L 55.078125 72.90625 
L 55.078125 68.703125 
L 28.609375 0 
L 18.3125 0 
L 43.21875 64.59375 
L 8.203125 64.59375 
z
" id="DejaVuSans-37"/>
     </defs>
     <g style="fill:#262626;" transform="translate(605.527824 36.141304)scale(0.08328 -0.08328)">
      <use xlink:href="#DejaVuSans-58"/>
      <use x="68.505859" xlink:href="#DejaVuSans-3a"/>
      <use x="102.197266" xlink:href="#DejaVuSans-20"/>
      <use x="133.984375" xlink:href="#DejaVuSans-31"/>
      <use x="197.607422" xlink:href="#DejaVuSans-37"/>
      <use x="261.230469" xlink:href="#DejaVuSans-2e"/>
      <use x="293.017578" xlink:href="#DejaVuSans-35"/>
      <use x="356.640625" xlink:href="#DejaVuSans-38"/>
      <use x="420.263672" xlink:href="#DejaVuSans-25"/>
     </g>
    </g>
   </g>
  </g>
  <g id="axes_4">
   <g id="patch_17">
    <path d="M 851.790086 465.838125 
L 1082.686638 465.838125 
L 1082.686638 22.318125 
L 851.790086 22.318125 
z
" style="fill:#ffffff;"/>
   </g>
   <g id="matplotlib.axis_7">
    <g id="xtick_19">
     <g id="line2d_67"/>
     <g id="text_49">
      <!-- 0.0 -->
      <g style="fill:#262626;" transform="translate(843.838524 480.436562)scale(0.1 -0.1)">
       <use xlink:href="#DejaVuSans-30"/>
       <use x="63.623047" xlink:href="#DejaVuSans-2e"/>
       <use x="95.410156" xlink:href="#DejaVuSans-30"/>
      </g>
     </g>
    </g>
    <g id="xtick_20">
     <g id="line2d_68"/>
     <g id="text_50">
      <!-- 0.2 -->
      <g style="fill:#262626;" transform="translate(890.017834 480.436562)scale(0.1 -0.1)">
       <use xlink:href="#DejaVuSans-30"/>
       <use x="63.623047" xlink:href="#DejaVuSans-2e"/>
       <use x="95.410156" xlink:href="#DejaVuSans-32"/>
      </g>
     </g>
    </g>
    <g id="xtick_21">
     <g id="line2d_69"/>
     <g id="text_51">
      <!-- 0.4 -->
      <g style="fill:#262626;" transform="translate(936.197144 480.436562)scale(0.1 -0.1)">
       <use xlink:href="#DejaVuSans-30"/>
       <use x="63.623047" xlink:href="#DejaVuSans-2e"/>
       <use x="95.410156" xlink:href="#DejaVuSans-34"/>
      </g>
     </g>
    </g>
    <g id="xtick_22">
     <g id="line2d_70"/>
     <g id="text_52">
      <!-- 0.6 -->
      <g style="fill:#262626;" transform="translate(982.376455 480.436562)scale(0.1 -0.1)">
       <use xlink:href="#DejaVuSans-30"/>
       <use x="63.623047" xlink:href="#DejaVuSans-2e"/>
       <use x="95.410156" xlink:href="#DejaVuSans-36"/>
      </g>
     </g>
    </g>
    <g id="xtick_23">
     <g id="line2d_71"/>
     <g id="text_53">
      <!-- 0.8 -->
      <g style="fill:#262626;" transform="translate(1028.555765 480.436562)scale(0.1 -0.1)">
       <use xlink:href="#DejaVuSans-30"/>
       <use x="63.623047" xlink:href="#DejaVuSans-2e"/>
       <use x="95.410156" xlink:href="#DejaVuSans-38"/>
      </g>
     </g>
    </g>
    <g id="xtick_24">
     <g id="line2d_72"/>
     <g id="text_54">
      <!-- 1.0 -->
      <g style="fill:#262626;" transform="translate(1074.735075 480.436562)scale(0.1 -0.1)">
       <use xlink:href="#DejaVuSans-31"/>
       <use x="63.623047" xlink:href="#DejaVuSans-2e"/>
       <use x="95.410156" xlink:href="#DejaVuSans-30"/>
      </g>
     </g>
    </g>
   </g>
   <g id="matplotlib.axis_8">
    <g id="ytick_19">
     <g id="line2d_73"/>
     <g id="text_55">
      <!-- 0 -->
      <g style="fill:#262626;" transform="translate(838.427586 469.637344)scale(0.1 -0.1)">
       <use xlink:href="#DejaVuSans-30"/>
      </g>
     </g>
    </g>
    <g id="ytick_20">
     <g id="line2d_74"/>
     <g id="text_56">
      <!-- 1 -->
      <g style="fill:#262626;" transform="translate(838.427586 380.933344)scale(0.1 -0.1)">
       <use xlink:href="#DejaVuSans-31"/>
      </g>
     </g>
    </g>
    <g id="ytick_21">
     <g id="line2d_75"/>
     <g id="text_57">
      <!-- 2 -->
      <g style="fill:#262626;" transform="translate(838.427586 292.229344)scale(0.1 -0.1)">
       <use xlink:href="#DejaVuSans-32"/>
      </g>
     </g>
    </g>
    <g id="ytick_22">
     <g id="line2d_76"/>
     <g id="text_58">
      <!-- 3 -->
      <g style="fill:#262626;" transform="translate(838.427586 203.525344)scale(0.1 -0.1)">
       <use xlink:href="#DejaVuSans-33"/>
      </g>
     </g>
    </g>
    <g id="ytick_23">
     <g id="line2d_77"/>
     <g id="text_59">
      <!-- 4 -->
      <g style="fill:#262626;" transform="translate(838.427586 114.821344)scale(0.1 -0.1)">
       <use xlink:href="#DejaVuSans-34"/>
      </g>
     </g>
    </g>
    <g id="ytick_24">
     <g id="line2d_78"/>
     <g id="text_60">
      <!-- 5 -->
      <g style="fill:#262626;" transform="translate(838.427586 26.117344)scale(0.1 -0.1)">
       <use xlink:href="#DejaVuSans-35"/>
      </g>
     </g>
    </g>
   </g>
   <g id="line2d_79">
    <path clip-path="url(#pcd72f849df)" d="M 830.227702 465.744478 
L 833.243162 465.678201 
L 836.258623 465.574262 
L 839.274083 465.417511 
L 842.289543 465.19034 
L 845.305004 464.874251 
L 848.320464 464.452482 
L 851.335925 463.913595 
L 854.351385 463.255628 
L 857.366846 462.490036 
L 860.382306 461.644437 
L 863.397766 460.763109 
L 866.413227 459.904488 
L 869.428687 459.135465 
L 872.444148 458.523081 
L 875.459608 458.124964 
L 878.475069 457.980377 
L 881.490529 458.10376 
L 884.505989 458.482224 
L 887.52145 459.077514 
L 890.53691 459.831956 
L 893.552371 460.67695 
L 896.567831 461.5421 
L 899.583292 462.36308 
L 902.598752 463.086865 
L 905.614212 463.673723 
L 908.629673 464.096239 
L 911.645133 464.336266 
L 914.660594 464.381019 
L 917.676054 464.21947 
L 920.691515 463.839869 
L 923.706975 463.228675 
L 926.722435 462.370705 
L 929.737896 461.249949 
L 932.753356 459.850433 
L 935.768817 458.156777 
L 938.784277 456.154567 
L 941.799738 453.831241 
L 944.815198 451.178479 
L 947.830658 448.196972 
L 950.846119 444.903657 
L 953.861579 441.340235 
L 956.87704 437.580427 
L 959.8925 433.73245 
L 962.90796 429.93334 
L 965.923421 426.33312 
L 968.938881 423.069463 
L 971.954342 420.236548 
L 974.969802 417.854544 
L 977.985263 415.847315 
L 981.000723 414.03517 
L 984.016183 412.146596 
L 987.031644 409.848711 
L 990.047104 406.791694 
L 993.062565 402.658974 
L 996.078025 397.213389 
L 999.093486 390.330307 
L 1002.108946 382.011609 
L 1005.124406 372.378698 
L 1008.139867 361.647346 
L 1011.155327 350.090983 
L 1014.170788 338.001222 
L 1017.186248 325.654303 
L 1020.201709 313.289898 
L 1023.217169 301.104872 
L 1026.232629 289.260253 
L 1029.24809 277.896068 
L 1032.26355 267.147063 
L 1035.279011 257.153102 
L 1038.294471 248.061139 
L 1041.309932 240.019802 
L 1044.325392 233.171381 
L 1047.340852 227.647622 
L 1050.356313 223.574345 
L 1053.371773 221.085707 
L 1056.387234 220.343389 
L 1059.402694 221.551343 
L 1062.418155 224.955196 
L 1065.433615 230.818303 
L 1068.449075 239.37323 
L 1071.464536 250.756284 
L 1074.479996 264.940265 
L 1077.495457 281.684144 
L 1080.510917 300.516073 
L 1083.526378 320.758454 
L 1086.541838 341.593062 
L 1089.557298 362.153808 
L 1092.572759 381.627972 
L 1095.588219 399.345434 
L 1098.60368 414.839667 
L 1101.61914 427.872176 
L 1104.634601 438.421075 
L 1107.650061 446.641837 
L 1110.665521 452.812384 
L 1113.680982 457.27513 
L 1116.696442 460.386052 
L 1119.711903 462.476838 
L 1122.727363 463.831948 
L 1125.742824 464.679139 
L 1128.758284 465.190135 
" style="fill:none;stroke:#4c72b0;stroke-linecap:round;stroke-width:1.75;"/>
   </g>
   <g id="line2d_80">
    <path clip-path="url(#pcd72f849df)" d="M 802.416124 465.753092 
L 805.678262 465.694523 
L 808.940399 465.603271 
L 812.202536 465.466106 
L 815.464673 465.267239 
L 818.726811 464.989221 
L 821.988948 464.614559 
L 825.251085 464.128005 
L 828.513222 463.51931 
L 831.77536 462.785964 
L 835.037497 461.935364 
L 838.299634 460.985773 
L 841.561771 459.965622 
L 844.823908 458.911001 
L 848.086046 457.861626 
L 851.348183 456.855949 
L 854.61032 455.926305 
L 857.872457 455.094977 
L 861.134595 454.371746 
L 864.396732 453.75307 
L 867.658869 453.222518 
L 870.921006 452.751835 
L 874.183144 452.301936 
L 877.445281 451.823402 
L 880.707418 451.256481 
L 883.969555 450.531026 
L 887.231692 449.567177 
L 890.49383 448.277644 
L 893.755967 446.572254 
L 897.018104 444.364976 
L 900.280241 441.582965 
L 903.542379 438.176475 
L 906.804516 434.127894 
L 910.066653 429.457849 
L 913.32879 424.226574 
L 916.590928 418.52947 
L 919.853065 412.487007 
L 923.115202 406.23054 
L 926.377339 399.886665 
L 929.639476 393.563185 
L 932.901614 387.339271 
L 936.163751 381.261075 
L 939.425888 375.342505 
L 942.688025 369.56944 
L 945.950163 363.90514 
L 949.2123 358.295029 
L 952.474437 352.670182 
L 955.736574 346.950322 
L 958.998711 341.048054 
L 962.260849 334.876166 
L 965.522986 328.359001 
L 968.785123 321.44741 
L 972.04726 314.135362 
L 975.309398 306.475368 
L 978.571535 298.589733 
L 981.833672 290.675293 
L 985.095809 283.00029 
L 988.357947 275.893002 
L 991.620084 269.722539 
L 994.882221 264.872691 
L 998.144358 261.710328 
L 1001.406495 260.550583 
L 1004.668633 261.622221 
L 1007.93077 265.037663 
L 1011.192907 270.77281 
L 1014.455044 278.661358 
L 1017.717182 288.406483 
L 1020.979319 299.609743 
L 1024.241456 311.813429 
L 1027.503593 324.549442 
L 1030.765731 337.386096 
L 1034.027868 349.964666 
L 1037.290005 362.019977 
L 1040.552142 373.383284 
L 1043.814279 383.969808 
L 1047.076417 393.756486 
L 1050.338554 402.756883 
L 1053.600691 410.999486 
L 1056.862828 418.513373 
L 1060.124966 425.322274 
L 1063.387103 431.445455 
L 1066.64924 436.902317 
L 1069.911377 441.717432 
L 1073.173515 445.923618 
L 1076.435652 449.562152 
L 1079.697789 452.68052 
L 1082.959926 455.328945 
L 1086.222063 457.557063 
L 1089.484201 459.411695 
L 1092.746338 460.936022 
L 1096.008475 462.169889 
L 1099.270612 463.150648 
L 1102.53275 463.91393 
L 1105.794887 464.493961 
L 1109.057024 464.923328 
L 1112.319161 465.232325 
L 1115.581298 465.448169 
L 1118.843436 465.594338 
L 1122.105573 465.690211 
L 1125.36771 465.751075 
" style="fill:none;stroke:#55a868;stroke-linecap:round;stroke-width:1.75;"/>
   </g>
   <g id="line2d_81">
    <path clip-path="url(#pcd72f849df)" d="M 939.208414 465.641529 
L 941.007394 465.527403 
L 942.806373 465.358035 
L 944.605353 465.112908 
L 946.404332 464.766951 
L 948.203312 464.290881 
L 950.002292 463.652184 
L 951.801271 462.816861 
L 953.600251 461.751929 
L 955.39923 460.42855 
L 957.19821 458.82545 
L 958.99719 456.932192 
L 960.796169 454.751676 
L 962.595149 452.301311 
L 964.394129 449.61233 
L 966.193108 446.727045 
L 967.992088 443.69412 
L 969.791067 440.562419 
L 971.590047 437.374287 
L 973.389027 434.159429 
L 975.188006 430.930539 
L 976.986986 427.681643 
L 978.785965 424.389652 
L 980.584945 421.019024 
L 982.383925 417.528741 
L 984.182904 413.880271 
L 985.981884 410.044831 
L 987.780863 406.008281 
L 989.579843 401.77233 
L 991.378823 397.351441 
L 993.177802 392.765716 
L 994.976782 388.030947 
L 996.775762 383.147834 
L 998.574741 378.092743 
L 1000.373721 372.812377 
L 1002.1727 367.224171 
L 1003.97168 361.223239 
L 1005.77066 354.695493 
L 1007.569639 347.535228 
L 1009.368619 339.664485 
L 1011.167598 331.050882 
L 1012.966578 321.720675 
L 1014.765558 311.764436 
L 1016.564537 301.333974 
L 1018.363517 290.630573 
L 1020.162497 279.886212 
L 1021.961476 269.340651 
L 1023.760456 259.218064 
L 1025.559435 249.706988 
L 1027.358415 240.946766 
L 1029.157395 233.022487 
L 1030.956374 225.96886 
L 1032.755354 219.78175 
L 1034.554333 214.434669 
L 1036.353313 209.896501 
L 1038.152293 206.146515 
L 1039.951272 203.18326 
L 1041.750252 201.025254 
L 1043.549231 199.703207 
L 1045.348211 199.245524 
L 1047.147191 199.660547 
L 1048.94617 200.920099 
L 1050.74515 202.948972 
L 1052.54413 205.624065 
L 1054.343109 208.785009 
L 1056.142089 212.255677 
L 1057.941068 215.873478 
L 1059.740048 219.521331 
L 1061.539028 223.15613 
L 1063.338007 226.82772 
L 1065.136987 230.683761 
L 1066.935966 234.95831 
L 1068.734946 239.944824 
L 1070.533926 245.957185 
L 1072.332905 253.284562 
L 1074.131885 262.147079 
L 1075.930865 272.659187 
L 1077.729844 284.806271 
L 1079.528824 298.437813 
L 1081.327803 313.277675 
L 1083.126783 328.949448 
L 1084.925763 345.012618 
L 1086.724742 361.004083 
L 1088.523722 376.47923 
L 1090.322701 391.047475 
L 1092.121681 404.398533 
L 1093.920661 416.317458 
L 1095.71964 426.688295 
L 1097.51862 435.487734 
L 1099.317599 442.771218 
L 1101.116579 448.654465 
L 1102.915559 453.293369 
L 1104.714538 456.86477 
L 1106.513518 459.549949 
L 1108.312498 461.521869 
L 1110.111477 462.9365 
L 1111.910457 463.927968 
L 1113.709436 464.606906 
L 1115.508416 465.061187 
L 1117.307396 465.358201 
" style="fill:none;stroke:#c44e52;stroke-linecap:round;stroke-width:1.75;"/>
   </g>
   <g id="line2d_82">
    <path clip-path="url(#pcd72f849df)" d="M 789.651673 465.746034 
L 793.279482 465.687895 
L 796.907292 465.599128 
L 800.535101 465.467283 
L 804.162911 465.276804 
L 807.79072 465.009158 
L 811.41853 464.64344 
L 815.046339 464.157545 
L 818.674149 463.529975 
L 822.301958 462.742192 
L 825.929768 461.781369 
L 829.557577 460.643231 
L 833.185386 459.33459 
L 836.813196 457.875165 
L 840.441005 456.298303 
L 844.068815 454.650358 
L 847.696624 452.988654 
L 851.324434 451.378174 
L 854.952243 449.887306 
L 858.580053 448.583093 
L 862.207862 447.526474 
L 865.835672 446.767967 
L 869.463481 446.344144 
L 873.091291 446.275106 
L 876.7191 446.563082 
L 880.346909 447.19216 
L 883.974719 448.129124 
L 887.602528 449.325323 
L 891.230338 450.719448 
L 894.858147 452.24103 
L 898.485957 453.814396 
L 902.113766 455.362757 
L 905.741576 456.812063 
L 909.369385 458.094306 
L 912.997195 459.150023 
L 916.625004 459.929944 
L 920.252814 460.395834 
L 923.880623 460.520735 
L 927.508432 460.288859 
L 931.136242 459.695355 
L 934.764051 458.74605 
L 938.391861 457.457149 
L 942.01967 455.854713 
L 945.64748 453.973638 
L 949.275289 451.855857 
L 952.903099 449.547543 
L 956.530908 447.095211 
L 960.158718 444.540846 
L 963.786527 441.916347 
L 967.414337 439.237801 
L 971.042146 436.500217 
L 974.669955 433.673414 
L 978.297765 430.699727 
L 981.925574 427.494006 
L 985.553384 423.946131 
L 989.181193 419.925954 
L 992.809003 415.290257 
L 996.436812 409.89113 
L 1000.064622 403.585153 
L 1003.692431 396.242913 
L 1007.320241 387.758698 
L 1010.94805 378.060516 
L 1014.575859 367.120736 
L 1018.203669 354.967527 
L 1021.831478 341.696838 
L 1025.459288 327.483938 
L 1029.087097 312.59276 
L 1032.714907 297.380685 
L 1036.342716 282.296244 
L 1039.970526 267.867557 
L 1043.598335 254.680334 
L 1047.226145 243.345662 
L 1050.853954 234.459413 
L 1054.481764 228.556655 
L 1058.109573 226.065604 
L 1061.737382 227.266261 
L 1065.365192 232.25879 
L 1068.993001 240.945936 
L 1072.620811 253.032355 
L 1076.24862 268.041817 
L 1079.87643 285.351125 
L 1083.504239 304.237416 
L 1087.132049 323.933785 
L 1090.759858 343.687007 
L 1094.387668 362.810944 
L 1098.015477 380.729935 
L 1101.643287 397.008039 
L 1105.271096 411.362157 
L 1108.898905 423.659367 
L 1112.526715 433.900871 
L 1116.154524 442.196391 
L 1119.782334 448.733559 
L 1123.410143 453.746672 
L 1127.037953 457.488431 
L 1130.665762 460.20708 
L 1134.293572 462.130098 
L 1137.921381 463.454441 
L 1141.549191 464.342474 
L 1145.177 464.922288 
L 1148.80481 465.290923 
" style="fill:none;stroke:#8172b2;stroke-linecap:round;stroke-width:1.75;"/>
   </g>
   <g id="line2d_83">
    <path clip-path="url(#pcd72f849df)" d="M 967.238362 465.838125 
L 967.238362 22.318125 
" style="fill:none;stroke:#000000;stroke-dasharray:1.85,0.8;stroke-dashoffset:0;stroke-width:0.5;"/>
   </g>
   <g id="patch_18">
    <path d="M 851.790086 465.838125 
L 851.790086 22.318125 
" style="fill:none;stroke:#262626;stroke-linecap:square;stroke-linejoin:miter;stroke-width:1.25;"/>
   </g>
   <g id="patch_19">
    <path d="M 1082.686638 465.838125 
L 1082.686638 22.318125 
" style="fill:none;stroke:#262626;stroke-linecap:square;stroke-linejoin:miter;stroke-width:1.25;"/>
   </g>
   <g id="patch_20">
    <path d="M 851.790086 465.838125 
L 1082.686638 465.838125 
" style="fill:none;stroke:#262626;stroke-linecap:square;stroke-linejoin:miter;stroke-width:1.25;"/>
   </g>
   <g id="patch_21">
    <path d="M 851.790086 22.318125 
L 1082.686638 22.318125 
" style="fill:none;stroke:#262626;stroke-linecap:square;stroke-linejoin:miter;stroke-width:1.25;"/>
   </g>
   <g id="text_61">
    <!-- +1 -->
    <g style="fill:#262626;" transform="translate(958.39305 16.318125)scale(0.12 -0.12)">
     <use xlink:href="#DejaVuSans-2b"/>
     <use x="83.789062" xlink:href="#DejaVuSans-31"/>
    </g>
   </g>
   <g id="legend_4">
    <g id="line2d_84">
     <path d="M 859.285286 33.226504 
L 875.941286 33.226504 
" style="fill:none;stroke:#4c72b0;stroke-linecap:round;stroke-width:1.75;"/>
    </g>
    <g id="line2d_85"/>
    <g id="text_62">
     <!-- A: 3.12% -->
     <g style="fill:#262626;" transform="translate(882.603686 36.141304)scale(0.08328 -0.08328)">
      <use xlink:href="#DejaVuSans-41"/>
      <use x="68.392578" xlink:href="#DejaVuSans-3a"/>
      <use x="102.083984" xlink:href="#DejaVuSans-20"/>
      <use x="133.871094" xlink:href="#DejaVuSans-33"/>
      <use x="197.494141" xlink:href="#DejaVuSans-2e"/>
      <use x="229.28125" xlink:href="#DejaVuSans-31"/>
      <use x="292.904297" xlink:href="#DejaVuSans-32"/>
      <use x="356.527344" xlink:href="#DejaVuSans-25"/>
     </g>
    </g>
    <g id="line2d_86">
     <path d="M 859.285286 45.450446 
L 875.941286 45.450446 
" style="fill:none;stroke:#55a868;stroke-linecap:round;stroke-width:1.75;"/>
    </g>
    <g id="line2d_87"/>
    <g id="text_63">
     <!-- T: 29.69% -->
     <defs>
      <path d="M 10.984375 1.515625 
L 10.984375 10.5 
Q 14.703125 8.734375 18.5 7.8125 
Q 22.3125 6.890625 25.984375 6.890625 
Q 35.75 6.890625 40.890625 13.453125 
Q 46.046875 20.015625 46.78125 33.40625 
Q 43.953125 29.203125 39.59375 26.953125 
Q 35.25 24.703125 29.984375 24.703125 
Q 19.046875 24.703125 12.671875 31.3125 
Q 6.296875 37.9375 6.296875 49.421875 
Q 6.296875 60.640625 12.9375 67.421875 
Q 19.578125 74.21875 30.609375 74.21875 
Q 43.265625 74.21875 49.921875 64.515625 
Q 56.59375 54.828125 56.59375 36.375 
Q 56.59375 19.140625 48.40625 8.859375 
Q 40.234375 -1.421875 26.421875 -1.421875 
Q 22.703125 -1.421875 18.890625 -0.6875 
Q 15.09375 0.046875 10.984375 1.515625 
z
M 30.609375 32.421875 
Q 37.25 32.421875 41.125 36.953125 
Q 45.015625 41.5 45.015625 49.421875 
Q 45.015625 57.28125 41.125 61.84375 
Q 37.25 66.40625 30.609375 66.40625 
Q 23.96875 66.40625 20.09375 61.84375 
Q 16.21875 57.28125 16.21875 49.421875 
Q 16.21875 41.5 20.09375 36.953125 
Q 23.96875 32.421875 30.609375 32.421875 
z
" id="DejaVuSans-39"/>
     </defs>
     <g style="fill:#262626;" transform="translate(882.603686 48.365246)scale(0.08328 -0.08328)">
      <use xlink:href="#DejaVuSans-54"/>
      <use x="60.912109" xlink:href="#DejaVuSans-3a"/>
      <use x="94.603516" xlink:href="#DejaVuSans-20"/>
      <use x="126.390625" xlink:href="#DejaVuSans-32"/>
      <use x="190.013672" xlink:href="#DejaVuSans-39"/>
      <use x="253.636719" xlink:href="#DejaVuSans-2e"/>
      <use x="285.423828" xlink:href="#DejaVuSans-36"/>
      <use x="349.046875" xlink:href="#DejaVuSans-39"/>
      <use x="412.669922" xlink:href="#DejaVuSans-25"/>
     </g>
    </g>
    <g id="line2d_88">
     <path d="M 859.285286 57.674389 
L 875.941286 57.674389 
" style="fill:none;stroke:#c44e52;stroke-linecap:round;stroke-width:1.75;"/>
    </g>
    <g id="line2d_89"/>
    <g id="text_64">
     <!-- C: 0.00% -->
     <g style="fill:#262626;" transform="translate(882.603686 60.589189)scale(0.08328 -0.08328)">
      <use xlink:href="#DejaVuSans-43"/>
      <use x="69.824219" xlink:href="#DejaVuSans-3a"/>
      <use x="103.515625" xlink:href="#DejaVuSans-20"/>
      <use x="135.302734" xlink:href="#DejaVuSans-30"/>
      <use x="198.925781" xlink:href="#DejaVuSans-2e"/>
      <use x="230.712891" xlink:href="#DejaVuSans-30"/>
      <use x="294.335938" xlink:href="#DejaVuSans-30"/>
      <use x="357.958984" xlink:href="#DejaVuSans-25"/>
     </g>
    </g>
    <g id="line2d_90">
     <path d="M 859.285286 69.898331 
L 875.941286 69.898331 
" style="fill:none;stroke:#8172b2;stroke-linecap:round;stroke-width:1.75;"/>
    </g>
    <g id="line2d_91"/>
    <g id="text_65">
     <!-- G: 7.81% -->
     <g style="fill:#262626;" transform="translate(882.603686 72.813131)scale(0.08328 -0.08328)">
      <use xlink:href="#DejaVuSans-47"/>
      <use x="77.490234" xlink:href="#DejaVuSans-3a"/>
      <use x="111.181641" xlink:href="#DejaVuSans-20"/>
      <use x="142.96875" xlink:href="#DejaVuSans-37"/>
      <use x="206.591797" xlink:href="#DejaVuSans-2e"/>
      <use x="238.378906" xlink:href="#DejaVuSans-38"/>
      <use x="302.001953" xlink:href="#DejaVuSans-31"/>
      <use x="365.625" xlink:href="#DejaVuSans-25"/>
     </g>
    </g>
   </g>
  </g>
  <g id="axes_5">
   <g id="patch_22">
    <path d="M 1128.865948 465.838125 
L 1359.7625 465.838125 
L 1359.7625 22.318125 
L 1128.865948 22.318125 
z
" style="fill:#ffffff;"/>
   </g>
   <g id="matplotlib.axis_9">
    <g id="xtick_25">
     <g id="line2d_92"/>
     <g id="text_66">
      <!-- 0.0 -->
      <g style="fill:#262626;" transform="translate(1120.914386 480.436562)scale(0.1 -0.1)">
       <use xlink:href="#DejaVuSans-30"/>
       <use x="63.623047" xlink:href="#DejaVuSans-2e"/>
       <use x="95.410156" xlink:href="#DejaVuSans-30"/>
      </g>
     </g>
    </g>
    <g id="xtick_26">
     <g id="line2d_93"/>
     <g id="text_67">
      <!-- 0.2 -->
      <g style="fill:#262626;" transform="translate(1167.093696 480.436562)scale(0.1 -0.1)">
       <use xlink:href="#DejaVuSans-30"/>
       <use x="63.623047" xlink:href="#DejaVuSans-2e"/>
       <use x="95.410156" xlink:href="#DejaVuSans-32"/>
      </g>
     </g>
    </g>
    <g id="xtick_27">
     <g id="line2d_94"/>
     <g id="text_68">
      <!-- 0.4 -->
      <g style="fill:#262626;" transform="translate(1213.273006 480.436562)scale(0.1 -0.1)">
       <use xlink:href="#DejaVuSans-30"/>
       <use x="63.623047" xlink:href="#DejaVuSans-2e"/>
       <use x="95.410156" xlink:href="#DejaVuSans-34"/>
      </g>
     </g>
    </g>
    <g id="xtick_28">
     <g id="line2d_95"/>
     <g id="text_69">
      <!-- 0.6 -->
      <g style="fill:#262626;" transform="translate(1259.452317 480.436562)scale(0.1 -0.1)">
       <use xlink:href="#DejaVuSans-30"/>
       <use x="63.623047" xlink:href="#DejaVuSans-2e"/>
       <use x="95.410156" xlink:href="#DejaVuSans-36"/>
      </g>
     </g>
    </g>
    <g id="xtick_29">
     <g id="line2d_96"/>
     <g id="text_70">
      <!-- 0.8 -->
      <g style="fill:#262626;" transform="translate(1305.631627 480.436562)scale(0.1 -0.1)">
       <use xlink:href="#DejaVuSans-30"/>
       <use x="63.623047" xlink:href="#DejaVuSans-2e"/>
       <use x="95.410156" xlink:href="#DejaVuSans-38"/>
      </g>
     </g>
    </g>
    <g id="xtick_30">
     <g id="line2d_97"/>
     <g id="text_71">
      <!-- 1.0 -->
      <g style="fill:#262626;" transform="translate(1351.810938 480.436562)scale(0.1 -0.1)">
       <use xlink:href="#DejaVuSans-31"/>
       <use x="63.623047" xlink:href="#DejaVuSans-2e"/>
       <use x="95.410156" xlink:href="#DejaVuSans-30"/>
      </g>
     </g>
    </g>
   </g>
   <g id="matplotlib.axis_10">
    <g id="ytick_25">
     <g id="line2d_98"/>
     <g id="text_72">
      <!-- 0 -->
      <g style="fill:#262626;" transform="translate(1115.503448 469.637344)scale(0.1 -0.1)">
       <use xlink:href="#DejaVuSans-30"/>
      </g>
     </g>
    </g>
    <g id="ytick_26">
     <g id="line2d_99"/>
     <g id="text_73">
      <!-- 1 -->
      <g style="fill:#262626;" transform="translate(1115.503448 380.933344)scale(0.1 -0.1)">
       <use xlink:href="#DejaVuSans-31"/>
      </g>
     </g>
    </g>
    <g id="ytick_27">
     <g id="line2d_100"/>
     <g id="text_74">
      <!-- 2 -->
      <g style="fill:#262626;" transform="translate(1115.503448 292.229344)scale(0.1 -0.1)">
       <use xlink:href="#DejaVuSans-32"/>
      </g>
     </g>
    </g>
    <g id="ytick_28">
     <g id="line2d_101"/>
     <g id="text_75">
      <!-- 3 -->
      <g style="fill:#262626;" transform="translate(1115.503448 203.525344)scale(0.1 -0.1)">
       <use xlink:href="#DejaVuSans-33"/>
      </g>
     </g>
    </g>
    <g id="ytick_29">
     <g id="line2d_102"/>
     <g id="text_76">
      <!-- 4 -->
      <g style="fill:#262626;" transform="translate(1115.503448 114.821344)scale(0.1 -0.1)">
       <use xlink:href="#DejaVuSans-34"/>
      </g>
     </g>
    </g>
    <g id="ytick_30">
     <g id="line2d_103"/>
     <g id="text_77">
      <!-- 5 -->
      <g style="fill:#262626;" transform="translate(1115.503448 26.117344)scale(0.1 -0.1)">
       <use xlink:href="#DejaVuSans-35"/>
      </g>
     </g>
    </g>
   </g>
   <g id="line2d_104">
    <path clip-path="url(#pb5e4d14d4e)" d="M 1256.066163 465.6546 
L 1257.363047 465.549737 
L 1258.659931 465.395573 
L 1259.956814 465.174838 
L 1261.253698 464.867063 
L 1262.550582 464.449221 
L 1263.847466 463.896934 
L 1265.14435 463.186273 
L 1266.441233 462.29604 
L 1267.738117 461.210288 
L 1269.035001 459.920692 
L 1270.331885 458.428289 
L 1271.628768 456.744076 
L 1272.925652 454.888057 
L 1274.222536 452.886525 
L 1275.51942 450.767673 
L 1276.816303 448.555963 
L 1278.113187 446.265989 
L 1279.410071 443.896737 
L 1280.706955 441.427161 
L 1282.003839 438.813785 
L 1283.300722 435.990652 
L 1284.597606 432.871512 
L 1285.89449 429.353723 
L 1287.191374 425.323082 
L 1288.488257 420.658827 
L 1289.785141 415.238312 
L 1291.082025 408.941354 
L 1292.378909 401.65476 
L 1293.675793 393.277978 
L 1294.972676 383.730888 
L 1296.26956 372.964375 
L 1297.566444 360.973569 
L 1298.863328 347.812476 
L 1300.160211 333.607596 
L 1301.457095 318.56728 
L 1302.753979 302.983355 
L 1304.050863 287.222219 
L 1305.347747 271.704154 
L 1306.64463 256.871749 
L 1307.941514 243.150719 
L 1309.238398 230.908375 
L 1310.535282 220.416026 
L 1311.832165 211.821405 
L 1313.129049 205.135668 
L 1314.425933 200.236985 
L 1315.722817 196.889782 
L 1317.019701 194.775938 
L 1318.316584 193.532365 
L 1319.613468 192.788731 
L 1320.910352 192.199696 
L 1322.207236 191.467671 
L 1323.504119 190.354352 
L 1324.801003 188.681557 
L 1326.097887 186.32375 
L 1327.394771 183.19581 
L 1328.691654 179.239933 
L 1329.988538 174.415181 
L 1331.285422 168.692225 
L 1332.582306 162.054606 
L 1333.87919 154.506491 
L 1335.176073 146.085704 
L 1336.472957 136.879875 
L 1337.769841 127.042965 
L 1339.066725 116.809211 
L 1340.363608 106.50171 
L 1341.660492 96.533336 
L 1342.957376 87.398404 
L 1344.25426 79.654383 
L 1345.551144 73.893967 
L 1346.848027 70.708839 
L 1348.144911 70.647534 
L 1349.441795 74.170742 
L 1350.738679 81.608202 
L 1352.035562 93.12176 
L 1353.332446 108.679128 
L 1354.62933 128.042178 
L 1355.926214 150.772327 
L 1357.223098 176.253645 
L 1358.519981 203.73217 
L 1359.816865 232.367761 
L 1361.113749 261.29309 
L 1362.410633 289.673435 
L 1363.707516 316.760855 
L 1365.0044 341.937317 
L 1366.301284 364.742984 
L 1367.598168 384.888043 
L 1368.895051 402.248656 
L 1370.191935 416.849504 
L 1371.488819 428.836695 
L 1372.785703 438.445407 
L 1374.082587 445.966517 
L 1375.37947 451.715764 
L 1375.914063 453.485074 
" style="fill:none;stroke:#4c72b0;stroke-linecap:round;stroke-width:1.75;"/>
   </g>
   <g id="line2d_105">
    <path clip-path="url(#pb5e4d14d4e)" d="M 1173.184636 465.704207 
L 1175.492836 465.623631 
L 1177.801035 465.502517 
L 1180.109235 465.325073 
L 1182.417434 465.071667 
L 1184.725634 464.718896 
L 1187.033834 464.240101 
L 1189.342033 463.606401 
L 1191.650233 462.788216 
L 1193.958432 461.757156 
L 1196.266632 460.488003 
L 1198.574831 458.960399 
L 1200.883031 457.159808 
L 1203.19123 455.077356 
L 1205.49943 452.708306 
L 1207.807629 450.049212 
L 1210.115829 447.094158 
L 1212.424028 443.830834 
L 1214.732228 440.237486 
L 1217.040427 436.281843 
L 1219.348627 431.922981 
L 1221.656826 427.116588 
L 1223.965026 421.823478 
L 1226.273225 416.020413 
L 1228.581425 409.7116 
L 1230.889624 402.938789 
L 1233.197824 395.787802 
L 1235.506023 388.389689 
L 1237.814223 380.915457 
L 1240.122422 373.564323 
L 1242.430622 366.546589 
L 1244.738821 360.063111 
L 1247.047021 354.28404 
L 1249.35522 349.329616 
L 1251.66342 345.255543 
L 1253.971619 342.044743 
L 1256.279819 339.606403 
L 1258.588018 337.782234 
L 1260.896218 336.359041 
L 1263.204417 335.086127 
L 1265.512617 333.695794 
L 1267.820816 331.925148 
L 1270.129016 329.537615 
L 1272.437215 326.342707 
L 1274.745415 322.212778 
L 1277.053614 317.095592 
L 1279.361814 311.021614 
L 1281.670013 304.105083 
L 1283.978213 296.538261 
L 1286.286412 288.57876 
L 1288.594612 280.530563 
L 1290.902812 272.720185 
L 1293.211011 265.470134 
L 1295.519211 259.072422 
L 1297.82741 253.76505 
L 1300.13561 249.714234 
L 1302.443809 247.004561 
L 1304.752009 245.638397 
L 1307.060208 245.544762 
L 1309.368408 246.596699 
L 1311.676607 248.634988 
L 1313.984807 251.495071 
L 1316.293006 255.03338 
L 1318.601206 259.149077 
L 1320.909405 263.797668 
L 1323.217605 268.994036 
L 1325.525804 274.804096 
L 1327.834004 281.326245 
L 1330.142203 288.66569 
L 1332.450403 296.90617 
L 1334.758602 306.084163 
L 1337.066802 316.170265 
L 1339.375001 327.061002 
L 1341.683201 338.582345 
L 1343.9914 350.503881 
L 1346.2996 362.560738 
L 1348.607799 374.479146 
L 1350.915999 386.001249 
L 1353.224198 396.905472 
L 1355.532398 407.020043 
L 1357.840597 416.22884 
L 1360.148797 424.470227 
L 1362.456996 431.73057 
L 1364.765196 438.034627 
L 1367.073395 443.434949 
L 1369.381595 448.001969 
L 1371.689794 451.81581 
L 1373.997994 454.960182 
L 1375.914063 457.083665 
" style="fill:none;stroke:#55a868;stroke-linecap:round;stroke-width:1.75;"/>
   </g>
   <g id="line2d_106">
    <path clip-path="url(#pb5e4d14d4e)" d="M 1195.000208 465.714296 
L 1197.034198 465.638626 
L 1199.068188 465.525072 
L 1201.102179 465.359588 
L 1203.136169 465.125428 
L 1205.170159 464.803744 
L 1207.204149 464.374737 
L 1209.23814 463.819348 
L 1211.27213 463.121357 
L 1213.30612 462.269633 
L 1215.340111 461.26012 
L 1217.374101 460.097075 
L 1219.408091 458.793096 
L 1221.442081 457.367637 
L 1223.476072 455.843935 
L 1225.510062 454.244653 
L 1227.544052 452.586864 
L 1229.578042 450.877257 
L 1231.612033 449.108568 
L 1233.646023 447.258089 
L 1235.680013 445.288804 
L 1237.714004 443.153212 
L 1239.747994 440.799356 
L 1241.781984 438.178087 
L 1243.815974 435.250257 
L 1245.849965 431.992449 
L 1247.883955 428.399996 
L 1249.917945 424.486511 
L 1251.951935 420.279752 
L 1253.985926 415.814414 
L 1256.019916 411.123162 
L 1258.053906 406.22772 
L 1260.087897 401.132059 
L 1262.121887 395.819437 
L 1264.155877 390.254359 
L 1266.189867 384.38946 
L 1268.223858 378.176143 
L 1270.257848 371.576824 
L 1272.291838 364.576122 
L 1274.325828 357.188465 
L 1276.359819 349.460403 
L 1278.393809 341.46717 
L 1280.427799 333.30442 
L 1282.461789 325.077172 
L 1284.49578 316.888484 
L 1286.52977 308.830128 
L 1288.56376 300.976681 
L 1290.597751 293.383206 
L 1292.631741 286.085603 
L 1294.665731 279.102048 
L 1296.699721 272.43398 
L 1298.733712 266.065803 
L 1300.767702 259.963588 
L 1302.801692 254.074162 
L 1304.835682 248.326656 
L 1306.869673 242.638485 
L 1308.903663 236.926907 
L 1310.937653 231.125804 
L 1312.971644 225.205719 
L 1315.005634 219.193799 
L 1317.039624 213.189666 
L 1319.073614 207.373463 
L 1321.107605 202.00346 
L 1323.141595 197.402269 
L 1325.175585 193.932642 
L 1327.209575 191.965497 
L 1329.243566 191.844079 
L 1331.277556 193.848738 
L 1333.311546 198.166763 
L 1335.345537 204.871098 
L 1337.379527 213.910628 
L 1339.413517 225.113242 
L 1341.447507 238.201195 
L 1343.481498 252.816541 
L 1345.515488 268.552998 
L 1347.549478 284.989675 
L 1349.583468 301.721996 
L 1351.617459 318.385951 
L 1353.651449 334.673253 
L 1355.685439 350.336948 
L 1357.71943 365.188853 
L 1359.75342 379.09154 
L 1361.78741 391.94815 
L 1363.8214 403.692986 
L 1365.855391 414.284867 
L 1367.889381 423.703913 
L 1369.923371 431.951209 
L 1371.957361 439.049994 
L 1373.991352 445.046761 
L 1375.914063 449.739324 
" style="fill:none;stroke:#c44e52;stroke-linecap:round;stroke-width:1.75;"/>
   </g>
   <g id="line2d_107">
    <path clip-path="url(#pb5e4d14d4e)" d="M 1169.790364 465.727713 
L 1172.12042 465.658087 
L 1174.450476 465.552826 
L 1176.780533 465.398763 
L 1179.110589 465.180571 
L 1181.440645 464.881748 
L 1183.770701 464.486311 
L 1186.100757 463.981182 
L 1188.430814 463.35911 
L 1190.76087 462.621744 
L 1193.090926 461.782308 
L 1195.420982 460.867217 
L 1197.751038 459.915971 
L 1200.081095 458.978873 
L 1202.411151 458.112437 
L 1204.741207 457.372787 
L 1207.071263 456.807805 
L 1209.401319 456.449131 
L 1211.731376 456.305226 
L 1214.061432 456.35663 
L 1216.391488 456.554184 
L 1218.721544 456.820508 
L 1221.0516 457.054523 
L 1223.381657 457.138388 
L 1225.711713 456.946052 
L 1228.041769 456.352538 
L 1230.371825 455.243282 
L 1232.701881 453.523017 
L 1235.031938 451.12385 
L 1237.361994 448.012261 
L 1239.69205 444.194661 
L 1242.022106 439.720964 
L 1244.352163 434.685468 
L 1246.682219 429.224227 
L 1249.012275 423.508201 
L 1251.342331 417.731816 
L 1253.672387 412.097164 
L 1256.002444 406.794908 
L 1258.3325 401.983751 
L 1260.662556 397.771103 
L 1262.992612 394.197838 
L 1265.322668 391.229923 
L 1267.652725 388.75883 
L 1269.982781 386.61137 
L 1272.312837 384.567936 
L 1274.642893 382.386587 
L 1276.972949 379.829245 
L 1279.303006 376.685828 
L 1281.633062 372.792576 
L 1283.963118 368.042012 
L 1286.293174 362.38373 
L 1288.62323 355.817091 
L 1290.953287 348.378482 
L 1293.283343 340.126761 
L 1295.613399 331.130595 
L 1297.943455 321.460683 
L 1300.273511 311.188426 
L 1302.603568 300.390928 
L 1304.933624 289.160568 
L 1307.26368 277.616273 
L 1309.593736 265.913163 
L 1311.923793 254.247628 
L 1314.253849 242.855904 
L 1316.583905 232.005677 
L 1318.913961 221.981725 
L 1321.244017 213.067866 
L 1323.574074 205.528193 
L 1325.90413 199.590701 
L 1328.234186 195.435852 
L 1330.564242 193.191614 
L 1332.894298 192.935147 
L 1335.224355 194.699926 
L 1337.554411 198.485903 
L 1339.884467 204.269619 
L 1342.214523 212.011132 
L 1344.544579 221.655349 
L 1346.874636 233.126729 
L 1349.204692 246.31814 
L 1351.534748 261.076436 
L 1353.864804 277.188692 
L 1356.19486 294.373514 
L 1358.524917 312.281224 
L 1360.854973 330.505092 
L 1363.185029 348.603492 
L 1365.515085 366.130395 
L 1367.845141 382.669715 
L 1370.175198 397.868045 
L 1372.505254 411.460618 
L 1374.83531 423.286674 
L 1375.914063 427.919116 
" style="fill:none;stroke:#8172b2;stroke-linecap:round;stroke-width:1.75;"/>
   </g>
   <g id="line2d_108">
    <path clip-path="url(#pb5e4d14d4e)" d="M 1244.314224 465.838125 
L 1244.314224 22.318125 
" style="fill:none;stroke:#000000;stroke-dasharray:1.85,0.8;stroke-dashoffset:0;stroke-width:0.5;"/>
   </g>
   <g id="patch_23">
    <path d="M 1128.865948 465.838125 
L 1128.865948 22.318125 
" style="fill:none;stroke:#262626;stroke-linecap:square;stroke-linejoin:miter;stroke-width:1.25;"/>
   </g>
   <g id="patch_24">
    <path d="M 1359.7625 465.838125 
L 1359.7625 22.318125 
" style="fill:none;stroke:#262626;stroke-linecap:square;stroke-linejoin:miter;stroke-width:1.25;"/>
   </g>
   <g id="patch_25">
    <path d="M 1128.865948 465.838125 
L 1359.7625 465.838125 
" style="fill:none;stroke:#262626;stroke-linecap:square;stroke-linejoin:miter;stroke-width:1.25;"/>
   </g>
   <g id="patch_26">
    <path d="M 1128.865948 22.318125 
L 1359.7625 22.318125 
" style="fill:none;stroke:#262626;stroke-linecap:square;stroke-linejoin:miter;stroke-width:1.25;"/>
   </g>
   <g id="text_78">
    <!-- +2 -->
    <g style="fill:#262626;" transform="translate(1235.468912 16.318125)scale(0.12 -0.12)">
     <use xlink:href="#DejaVuSans-2b"/>
     <use x="83.789062" xlink:href="#DejaVuSans-32"/>
    </g>
   </g>
   <g id="legend_5">
    <g id="line2d_109">
     <path d="M 1136.361148 33.226504 
L 1153.017148 33.226504 
" style="fill:none;stroke:#4c72b0;stroke-linecap:round;stroke-width:1.75;"/>
    </g>
    <g id="line2d_110"/>
    <g id="text_79">
     <!-- A: 0.00% -->
     <g style="fill:#262626;" transform="translate(1159.679548 36.141304)scale(0.08328 -0.08328)">
      <use xlink:href="#DejaVuSans-41"/>
      <use x="68.392578" xlink:href="#DejaVuSans-3a"/>
      <use x="102.083984" xlink:href="#DejaVuSans-20"/>
      <use x="133.871094" xlink:href="#DejaVuSans-30"/>
      <use x="197.494141" xlink:href="#DejaVuSans-2e"/>
      <use x="229.28125" xlink:href="#DejaVuSans-30"/>
      <use x="292.904297" xlink:href="#DejaVuSans-30"/>
      <use x="356.527344" xlink:href="#DejaVuSans-25"/>
     </g>
    </g>
    <g id="line2d_111">
     <path d="M 1136.361148 45.450446 
L 1153.017148 45.450446 
" style="fill:none;stroke:#55a868;stroke-linecap:round;stroke-width:1.75;"/>
    </g>
    <g id="line2d_112"/>
    <g id="text_80">
     <!-- T: 7.81% -->
     <g style="fill:#262626;" transform="translate(1159.679548 48.365246)scale(0.08328 -0.08328)">
      <use xlink:href="#DejaVuSans-54"/>
      <use x="60.912109" xlink:href="#DejaVuSans-3a"/>
      <use x="94.603516" xlink:href="#DejaVuSans-20"/>
      <use x="126.390625" xlink:href="#DejaVuSans-37"/>
      <use x="190.013672" xlink:href="#DejaVuSans-2e"/>
      <use x="221.800781" xlink:href="#DejaVuSans-38"/>
      <use x="285.423828" xlink:href="#DejaVuSans-31"/>
      <use x="349.046875" xlink:href="#DejaVuSans-25"/>
     </g>
    </g>
    <g id="line2d_113">
     <path d="M 1136.361148 57.674389 
L 1153.017148 57.674389 
" style="fill:none;stroke:#c44e52;stroke-linecap:round;stroke-width:1.75;"/>
    </g>
    <g id="line2d_114"/>
    <g id="text_81">
     <!-- C: 1.56% -->
     <g style="fill:#262626;" transform="translate(1159.679548 60.589189)scale(0.08328 -0.08328)">
      <use xlink:href="#DejaVuSans-43"/>
      <use x="69.824219" xlink:href="#DejaVuSans-3a"/>
      <use x="103.515625" xlink:href="#DejaVuSans-20"/>
      <use x="135.302734" xlink:href="#DejaVuSans-31"/>
      <use x="198.925781" xlink:href="#DejaVuSans-2e"/>
      <use x="230.712891" xlink:href="#DejaVuSans-35"/>
      <use x="294.335938" xlink:href="#DejaVuSans-36"/>
      <use x="357.958984" xlink:href="#DejaVuSans-25"/>
     </g>
    </g>
    <g id="line2d_115">
     <path d="M 1136.361148 69.898331 
L 1153.017148 69.898331 
" style="fill:none;stroke:#8172b2;stroke-linecap:round;stroke-width:1.75;"/>
    </g>
    <g id="line2d_116"/>
    <g id="text_82">
     <!-- G: 1.56% -->
     <g style="fill:#262626;" transform="translate(1159.679548 72.813131)scale(0.08328 -0.08328)">
      <use xlink:href="#DejaVuSans-47"/>
      <use x="77.490234" xlink:href="#DejaVuSans-3a"/>
      <use x="111.181641" xlink:href="#DejaVuSans-20"/>
      <use x="142.96875" xlink:href="#DejaVuSans-31"/>
      <use x="206.591797" xlink:href="#DejaVuSans-2e"/>
      <use x="238.378906" xlink:href="#DejaVuSans-35"/>
      <use x="302.001953" xlink:href="#DejaVuSans-36"/>
      <use x="365.625" xlink:href="#DejaVuSans-25"/>
     </g>
    </g>
   </g>
  </g>
 </g>
 <defs>
  <clipPath id="p98fbf949be">
   <rect height="443.52" width="230.896552" x="20.5625" y="22.318125"/>
  </clipPath>
  <clipPath id="p75849a72c1">
   <rect height="443.52" width="230.896552" x="297.638362" y="22.318125"/>
  </clipPath>
  <clipPath id="p9140f2a005">
   <rect height="443.52" width="230.896552" x="574.714224" y="22.318125"/>
  </clipPath>
  <clipPath id="pcd72f849df">
   <rect height="443.52" width="230.896552" x="851.790086" y="22.318125"/>
  </clipPath>
  <clipPath id="pb5e4d14d4e">
   <rect height="443.52" width="230.896552" x="1128.865948" y="22.318125"/>
  </clipPath>
 </defs>
</svg>
